<svg width="17" height="16" viewBox="0 0 17 16" fill="none" xmlns="http://www.w3.org/2000/svg">
<path d="M8.92871 8C7.82871 8 6.88704 7.60833 6.10371 6.825C5.32038 6.04167 4.92871 5.1 4.92871 4C4.92871 2.9 5.32038 1.95833 6.10371 1.175C6.88704 0.391667 7.82871 0 8.92871 0C10.0287 0 10.9704 0.391667 11.7537 1.175C12.537 1.95833 12.9287 2.9 12.9287 4C12.9287 5.1 12.537 6.04167 11.7537 6.825C10.9704 7.60833 10.0287 8 8.92871 8ZM0.928711 14V13.2C0.928711 12.6333 1.07454 12.1125 1.36621 11.6375C1.65788 11.1625 2.04538 10.8 2.52871 10.55C3.56204 10.0333 4.61204 9.64583 5.67871 9.3875C6.74538 9.12917 7.82871 9 8.92871 9C10.0287 9 11.112 9.12917 12.1787 9.3875C13.2454 9.64583 14.2954 10.0333 15.3287 10.55C15.812 10.8 16.1995 11.1625 16.4912 11.6375C16.7829 12.1125 16.9287 12.6333 16.9287 13.2V14C16.9287 14.55 16.7329 15.0208 16.3412 15.4125C15.9495 15.8042 15.4787 16 14.9287 16H2.92871C2.37871 16 1.90788 15.8042 1.51621 15.4125C1.12454 15.0208 0.928711 14.55 0.928711 14Z" fill="#CDD0D8"/>
</svg>
