<svg width="142" height="114" viewBox="0 0 142 114" fill="none" xmlns="http://www.w3.org/2000/svg">
<g clip-path="url(#clip0_512_813)">
<path d="M-10 112.5H124" stroke="#FEFEFE" stroke-width="2" stroke-linecap="round" stroke-dasharray="4 8 12 16"/>
<path d="M62.9468 113.007C79.042 113.007 92.0898 111.26 92.0898 109.104C92.0898 106.948 79.042 105.2 62.9468 105.2C46.8515 105.2 33.8037 106.948 33.8037 109.104C33.8037 111.26 46.8515 113.007 62.9468 113.007Z" fill="black" fill-opacity="0.35"/>
<path d="M170.909 112.226C187.482 112.226 200.917 110.479 200.917 108.323C200.917 106.167 187.482 104.42 170.909 104.42C154.336 104.42 140.901 106.167 140.901 108.323C140.901 110.479 154.336 112.226 170.909 112.226Z" fill="#F7ADAF"/>
<path fill-rule="evenodd" clip-rule="evenodd" d="M51.3466 73.6764C53.0758 71.5575 54.5527 69.2155 55.7055 66.5017L66.0803 73.156L60.4966 77.6541C60.4966 77.6541 51.2386 73.6764 51.3466 73.6764Z" fill="#A9373C"/>
<path fill-rule="evenodd" clip-rule="evenodd" d="M51.9589 73.8993C53.6881 71.7804 55.165 69.4012 56.3178 66.7246L66.7286 73.3789L61.1089 77.877C61.1089 77.877 51.8509 73.8993 51.9589 73.8993Z" fill="#F7ADAF"/>
<path d="M74.6184 78.1743C87.9084 78.1743 98.6821 67.0563 98.6821 53.3417C98.6821 39.627 87.9084 28.509 74.6184 28.509C61.3284 28.509 50.5547 39.627 50.5547 53.3417C50.5547 67.0563 61.3284 78.1743 74.6184 78.1743Z" fill="#542E2D"/>
<path d="M74.6174 77.5054C87.5494 77.5054 98.0327 66.6871 98.0327 53.3419C98.0327 39.9968 87.5494 29.1785 74.6174 29.1785C61.6855 29.1785 51.2021 39.9968 51.2021 53.3419C51.2021 66.6871 61.6855 77.5054 74.6174 77.5054Z" fill="#A9373C"/>
<path fill-rule="evenodd" clip-rule="evenodd" d="M66.4418 30.6651C66.5499 30.7023 66.658 31.1112 66.766 31.1112C74.5471 28.8807 85.8585 29.9216 93.4955 40.2933C93.6036 40.442 93.7837 40.1446 93.9278 40.2562C93.8918 40.4049 93.8918 41.1112 93.8557 41.297C93.6756 41.1855 93.5315 40.7394 93.4235 40.6279C84.8138 29.6242 73.3583 29.8101 66.5499 31.4458C66.4058 31.483 65.7574 31.706 65.6133 31.6316C65.6133 31.6316 65.7934 30.8138 66.4418 30.6651Z" fill="#542E2D"/>
<path fill-rule="evenodd" clip-rule="evenodd" d="M66.0815 32.2266C66.1895 32.2638 66.2976 32.6727 66.3697 32.6727C74.1507 30.4423 85.4982 31.4831 93.1352 41.8549C93.2432 42.0035 93.4233 41.7062 93.5674 41.7805C93.5314 41.9664 93.5314 42.6727 93.4954 42.8214C93.3153 42.747 93.1712 42.3009 93.0631 42.1522C84.4535 31.1857 72.962 31.3716 66.1895 33.0073C66.0454 33.0445 65.397 33.2675 65.2529 33.1932C65.2529 33.1932 65.433 32.3382 66.0815 32.2266Z" fill="#542E2D"/>
<path fill-rule="evenodd" clip-rule="evenodd" d="M65.7201 33.9738C65.7922 34.011 65.9363 34.4199 66.0083 34.3827C73.7894 32.1894 85.1368 33.1931 92.7738 43.602C92.8819 43.7507 93.062 43.4533 93.2061 43.5277C93.1701 43.7135 93.1701 44.4199 93.098 44.5685C92.9539 44.4942 92.8098 44.0481 92.6658 43.8994C84.0922 32.8957 72.6006 33.1188 65.8282 34.7545C65.6841 34.7916 65.0357 35.0147 64.8916 34.9403C64.8916 34.9403 65.0717 34.0853 65.7201 33.9738Z" fill="#542E2D"/>
<path fill-rule="evenodd" clip-rule="evenodd" d="M64.9642 35.4236C65.0362 35.4608 65.1443 35.8697 65.2524 35.8697C73.0334 33.6393 84.3809 34.6801 91.9818 45.089C92.0899 45.2006 92.306 44.9403 92.4501 45.0147C92.3781 45.1634 92.3781 45.8697 92.3421 46.0556C92.198 45.944 92.0179 45.5351 91.9098 45.3864C83.3002 34.3828 71.8447 34.6058 65.0722 36.2043C64.8921 36.2415 64.2437 36.4645 64.0996 36.3902C64.0996 36.3902 64.2797 35.5723 64.9642 35.4236Z" fill="#542E2D"/>
<path fill-rule="evenodd" clip-rule="evenodd" d="M64.1341 36.7619C64.2061 36.7991 64.3142 37.208 64.4223 37.1708C72.2034 34.9775 83.5508 35.9812 91.1878 46.3901C91.2598 46.5388 91.476 46.2414 91.6201 46.3157C91.548 46.5016 91.584 47.2079 91.512 47.3566C91.3679 47.2823 91.1878 46.8362 91.0797 46.6875C82.4701 35.6838 71.0146 35.9069 64.2422 37.5425C64.0981 37.5797 63.4136 37.8028 63.2695 37.6912C63.2695 37.6912 63.4496 36.8734 64.1341 36.7619Z" fill="#542E2D"/>
<path fill-rule="evenodd" clip-rule="evenodd" d="M65.1796 30.8884C74.942 37.4312 85.2807 42.1152 96.412 44.1226C97.4206 46.985 97.997 50.5166 97.997 53.5278C97.997 56.5389 97.0964 59.7731 96.3399 62.2266C82.2547 57.2824 68.5658 50.2936 55.165 41.5575C57.3985 37.394 61.217 33.0074 65.1796 30.8884Z" fill="#542E2D" stroke="#A9373C" stroke-width="0.9"/>
<path fill-rule="evenodd" clip-rule="evenodd" d="M64.9274 31.7434C74.6538 38.2861 84.9925 42.9701 96.1238 44.9776C97.1685 47.84 97.997 50.5166 97.997 53.5277C97.997 56.5389 97.0964 59.773 96.3399 62.2266C82.2547 57.2823 68.5658 50.2935 55.165 41.5575C57.3985 37.3939 60.9648 33.8624 64.9274 31.7434Z" fill="#A9373C" stroke="#A9373C" stroke-width="0.9"/>
<path fill-rule="evenodd" clip-rule="evenodd" d="M55.6689 68.1002C55.6689 68.0259 55.9211 67.7285 55.8491 67.617C50.7697 57.7285 51.7784 48.7695 56.1012 39.8847C56.1733 39.736 55.8491 39.6989 55.8491 39.513C55.9932 39.4758 56.5695 39.1041 56.7497 39.0669C56.7497 39.2528 56.4975 39.6245 56.4254 39.8104C51.8865 50.368 52.1386 59.2155 56.2453 67.617C56.3174 67.7657 56.8937 68.2118 56.8937 68.3605C56.8937 68.3605 56.1012 68.6207 55.6689 68.1002Z" fill="#542E2D"/>
<path fill-rule="evenodd" clip-rule="evenodd" d="M57.471 67.6167C57.471 67.5423 57.7232 67.245 57.6872 67.1706C52.824 57.7283 53.7606 49.1781 57.9033 40.7023C57.9754 40.5536 57.6512 40.5164 57.6512 40.3677C57.7953 40.3306 58.3716 39.9588 58.5157 39.9216C58.5157 40.1075 58.2636 40.4792 58.1915 40.6279C53.8687 50.7394 54.1209 59.1409 58.0474 67.1706C58.1195 67.2821 58.6598 67.7282 58.6598 67.8769C58.6598 67.8769 57.9033 68.1371 57.471 67.6167Z" fill="#542E2D"/>
<path fill-rule="evenodd" clip-rule="evenodd" d="M59.307 67.9143C59.307 67.84 59.5591 67.5426 59.5231 67.4682C54.6599 58.0259 55.5966 49.4385 59.7393 40.9627C59.8113 40.814 59.4871 40.814 59.4871 40.6282C59.6312 40.591 60.1715 40.2564 60.3517 40.2192C60.3517 40.3679 60.0995 40.7397 60.0274 40.8884C55.7046 50.9999 55.9568 59.4013 59.8834 67.431C59.9554 67.5797 60.4597 67.9887 60.4958 68.1374C60.4958 68.1374 59.7393 68.3976 59.307 67.9143Z" fill="#542E2D"/>
<path fill-rule="evenodd" clip-rule="evenodd" d="M61.2164 68.4719C61.2164 68.3976 61.4686 68.1002 61.3965 68.0258C56.5333 58.5835 57.506 49.9962 61.6487 41.5203C61.7207 41.4088 61.3965 41.3716 61.3965 41.1858C61.5406 41.1486 62.081 40.814 62.2611 40.7769C62.2611 40.9256 62.0089 41.2973 61.9369 41.446C57.614 51.5575 57.8662 59.9589 61.7568 67.9887C61.8288 68.1374 62.3692 68.5463 62.3692 68.695C62.3692 68.695 61.6487 68.9552 61.2164 68.4719Z" fill="#542E2D"/>
<path fill-rule="evenodd" clip-rule="evenodd" d="M63.307 68.6206C63.307 68.5091 63.5591 68.2489 63.5231 68.1373C58.6599 58.7322 59.5966 50.1448 63.7393 41.669C63.8113 41.5203 63.4871 41.4832 63.4871 41.3345C63.6312 41.2973 64.2076 40.9627 64.3517 40.9255C64.3517 41.0742 64.0995 41.446 64.0274 41.5947C59.7046 51.7062 59.9568 60.1076 63.8834 68.1373C63.9554 68.286 64.4958 68.695 64.4958 68.8437C64.4958 68.8437 63.7393 69.1039 63.307 68.6206Z" fill="#542E2D"/>
<path fill-rule="evenodd" clip-rule="evenodd" d="M65.4312 69.2524C65.4312 69.1409 65.6474 68.8807 65.6114 68.7692C60.7482 59.364 61.7208 50.7767 65.8635 42.3009C65.9356 42.1522 65.6114 42.115 65.5753 41.9663C65.7555 41.9291 66.2958 41.5945 66.4399 41.5574C66.4759 41.7061 66.2238 42.0778 66.1517 42.2265C61.8289 52.338 62.0811 60.7395 65.9716 68.7692C66.0436 68.9179 66.584 69.3268 66.584 69.4755C66.584 69.4755 65.8635 69.7357 65.4312 69.2524Z" fill="#542E2D"/>
<path fill-rule="evenodd" clip-rule="evenodd" d="M95.6916 46.6503C95.5835 46.6131 95.4754 46.2042 95.4034 46.2042C84.9566 44.1596 73.393 41.1485 68.1696 33.602C68.0975 33.4905 67.8814 33.7507 67.7373 33.6764C67.8094 33.4905 67.8094 32.8214 67.8814 32.6355C68.0255 32.747 68.1696 33.1931 68.2777 33.3046C74.978 41.6317 86.9739 43.7135 95.5835 45.8697C95.7276 45.9068 96.412 45.6466 96.5561 45.721C96.5561 45.721 96.34 46.5388 95.6916 46.6503Z" fill="#542E2D"/>
<path fill-rule="evenodd" clip-rule="evenodd" d="M95.6206 47.6912C95.5485 47.654 95.4405 47.3566 95.3684 47.3566C86.7228 46.4644 77.1045 44.8659 72.3134 39.1038C72.2053 39.0295 72.0612 39.2525 71.9531 39.1782C71.9891 39.0667 71.9531 38.4719 71.9891 38.3604C72.1332 38.3975 72.2773 38.7693 72.3494 38.8808C78.4013 45.1261 88.3078 45.944 95.5125 47.0592C95.6206 47.0592 96.1609 46.799 96.269 46.8733C96.269 46.8733 96.1609 47.5425 95.6206 47.6912Z" fill="#542E2D"/>
<path fill-rule="evenodd" clip-rule="evenodd" d="M93.5306 49.1782C93.4586 49.1782 93.3145 48.8808 93.2424 48.8437C84.5968 47.9886 74.9785 46.3901 70.1874 40.6281C70.1153 40.5166 69.9712 40.7768 69.8271 40.7024C69.8632 40.5537 69.8271 39.9961 69.8632 39.8474C70.0073 39.9218 70.1514 40.2935 70.2594 40.3679C76.3114 46.6504 86.2179 47.4682 93.3865 48.5834C93.5306 48.5834 94.035 48.3232 94.143 48.3604C94.143 48.3604 94.071 49.0667 93.5306 49.1782Z" fill="#542E2D"/>
<path fill-rule="evenodd" clip-rule="evenodd" d="M92.0893 50.814C92.0173 50.7768 91.9092 50.4794 91.8372 50.4794C83.1915 49.5872 73.5732 47.9887 68.7821 42.2638C68.674 42.1523 68.5299 42.3753 68.4219 42.3382C68.4579 42.1895 68.4219 41.6319 68.4579 41.4832C68.602 41.5575 68.7461 41.8921 68.8542 42.0036C74.8701 48.2489 84.8126 49.0668 91.9813 50.182C92.0893 50.2192 92.6297 49.9218 92.7378 49.9961C92.7378 49.9961 92.6297 50.6653 92.0893 50.814Z" fill="#542E2D"/>
<path fill-rule="evenodd" clip-rule="evenodd" d="M91.1528 52.5239C91.0808 52.4868 90.9727 52.1894 90.9007 52.1894C82.255 51.3343 72.6367 49.7358 67.8456 43.9738C67.7735 43.8623 67.6294 44.1225 67.4854 44.0481C67.5214 43.8994 67.4854 43.3418 67.5214 43.1931C67.6655 43.2675 67.8096 43.602 67.9176 43.7136C73.9336 49.9589 83.8761 50.7767 91.0447 51.892C91.1528 51.9291 91.6932 51.6689 91.8012 51.7061C91.8012 51.7061 91.6932 52.3752 91.1528 52.5239Z" fill="#542E2D"/>
<path fill-rule="evenodd" clip-rule="evenodd" d="M90.0005 54.2341C89.9284 54.2341 89.8204 53.8996 89.7483 53.8996C81.0666 53.0446 71.4484 51.446 66.6572 45.684C66.5852 45.5725 66.4411 45.8327 66.333 45.7583C66.369 45.6096 66.333 45.052 66.333 44.9033C66.4771 44.9777 66.6212 45.3494 66.7293 45.4238C72.7812 51.7063 82.6877 52.5241 89.8564 53.6393C90.0005 53.6393 90.5048 53.3791 90.6489 53.4163C90.6489 53.4163 90.5408 54.1226 90.0005 54.2341Z" fill="#542E2D"/>
<path fill-rule="evenodd" clip-rule="evenodd" d="M89.0991 56.0183C89.0271 55.9811 88.919 55.6837 88.8469 55.6837C80.2013 54.7916 70.583 53.1931 65.7919 47.4682C65.7198 47.3566 65.5397 47.5797 65.4316 47.5425C65.4677 47.3938 65.4316 46.8362 65.4677 46.6875C65.6118 46.7618 65.7559 47.0964 65.8639 47.2079C71.8799 53.4533 81.8224 54.2711 88.991 55.3864C89.0991 55.4235 89.6395 55.1261 89.7475 55.2005C89.7475 55.2005 89.6395 55.8696 89.0991 56.0183Z" fill="#542E2D"/>
<path fill-rule="evenodd" clip-rule="evenodd" d="M67.5218 69.6614C67.5218 69.587 67.774 69.2896 67.738 69.2153C62.8748 59.7729 63.8114 51.1856 67.9541 42.7098C68.0262 42.5983 67.7019 42.5611 67.7019 42.3752C67.846 42.3381 68.3864 42.0035 68.5665 41.9663C68.5665 42.1522 68.3143 42.4868 68.2423 42.6355C63.9195 52.7469 64.1716 61.1484 68.0982 69.1781C68.1702 69.3268 68.6746 69.7357 68.7106 69.8844C68.7106 69.8844 67.9541 70.1446 67.5218 69.6614Z" fill="#542E2D"/>
<path fill-rule="evenodd" clip-rule="evenodd" d="M69.8998 70.4421C69.8998 70.3306 70.1519 70.0704 70.1159 69.9589C65.2527 60.5537 66.1893 51.9664 70.332 43.4906C70.4041 43.3419 70.0799 43.3047 70.0799 43.156C70.224 43.1188 70.7643 42.7842 70.9444 42.7471C70.9444 42.8958 70.6923 43.2675 70.6202 43.4162C66.2974 53.5277 66.5496 61.9292 70.4761 69.9589C70.5122 70.1076 71.0525 70.5165 71.0885 70.6652C71.0885 70.6652 70.332 70.9254 69.8998 70.4421Z" fill="#542E2D"/>
<path fill-rule="evenodd" clip-rule="evenodd" d="M71.3404 69.1038C71.3044 69.0294 71.5566 68.732 71.5205 68.6577C66.6574 59.2153 67.63 50.628 71.7727 42.1522C71.8448 42.0035 71.4845 42.0035 71.4845 41.8176C71.6646 41.7804 72.205 41.4459 72.3491 41.4087C72.3851 41.5574 72.0969 41.9291 72.0609 42.0778C67.7381 52.1893 67.9902 60.5908 71.8808 68.6205C71.9528 68.7692 72.4932 69.1781 72.4932 69.3268C72.4932 69.3268 71.7727 69.587 71.3404 69.1038Z" fill="#542E2D"/>
<path fill-rule="evenodd" clip-rule="evenodd" d="M53.076 63.8622C69.4307 64.1225 84.6326 58.8437 97.8893 50.9626C97.9614 51.7433 97.9974 52.524 97.9974 53.3418C97.9974 66.6875 85.7133 77.5053 74.6181 77.5053C63.5949 77.5053 56.4262 72.0778 52.6077 64.1225C52.4636 63.8251 52.968 63.7507 53.076 63.8622Z" fill="#542E2D"/>
<path fill-rule="evenodd" clip-rule="evenodd" d="M53.6885 64.3824C70.2953 64.7542 84.4526 58.8434 97.8894 50.8509C97.9614 51.6315 97.9974 46.1297 97.9974 53.23C97.9974 60.3676 85.7494 78.137 74.8703 77.6166C63.9912 77.0961 57.7952 72.4493 53.6885 64.3824Z" fill="#A9373C" stroke="#A9373C" stroke-width="0.9"/>
<path fill-rule="evenodd" clip-rule="evenodd" d="M96.3756 52.1149C96.2315 52.1521 95.6912 51.8919 95.5831 51.9662C82.8308 62.6353 69.7542 67.0591 55.2007 66.1669C54.9485 66.1669 55.0566 66.6874 54.8044 66.7617C54.6604 66.5387 53.9039 65.7952 53.7598 65.5349C54.0119 65.4234 54.6964 65.758 54.9846 65.758C72.2038 65.9067 84.4878 59.8101 95.403 51.4086C95.5831 51.2227 95.9794 50.1447 96.2315 50.0703C96.2315 50.0703 96.952 51.1856 96.3756 52.1149Z" fill="#542E2D"/>
<path fill-rule="evenodd" clip-rule="evenodd" d="M97.7448 53.9738C97.6007 54.011 97.0243 53.7508 96.9162 53.8623C84.1639 64.4942 71.1234 68.9552 56.5698 68.063C56.3177 68.0258 56.4258 68.5462 56.1736 68.6578C56.0295 68.3975 55.237 67.6541 55.1289 67.3938C55.3811 67.3195 56.0655 67.6169 56.3177 67.6169C73.573 67.7656 85.821 61.6689 96.7361 53.2675C96.9522 53.1188 97.3485 52.0035 97.5646 51.9292C97.5646 51.9292 98.3211 53.0444 97.7448 53.9738Z" fill="#542E2D"/>
<path fill-rule="evenodd" clip-rule="evenodd" d="M98.2499 56.3158C98.1058 56.3901 97.5654 56.0927 97.4573 56.2043C84.9212 66.6875 72.0968 71.0369 57.7954 70.1447C57.5433 70.1447 57.6153 70.6652 57.3992 70.7395C57.2551 70.4793 56.4986 69.773 56.3545 69.5128C56.6067 69.4384 57.2911 69.7358 57.5433 69.7358C74.5104 69.8845 86.5782 63.8994 97.2772 55.6095C97.4934 55.4608 97.8896 54.3827 98.1058 54.3083C98.1058 54.3083 98.8262 55.4236 98.2499 56.3158Z" fill="#542E2D"/>
<path fill-rule="evenodd" clip-rule="evenodd" d="M96.0525 59.4755C95.9444 59.5127 95.4401 59.2897 95.368 59.364C84.0566 68.8064 72.4571 72.7469 59.5606 71.9662C59.3445 71.9662 59.4165 72.4123 59.2004 72.4866C59.0923 72.2636 58.4079 71.5945 58.2998 71.3714C58.5159 71.2971 59.0923 71.5573 59.3445 71.5945C74.6545 71.7432 85.5336 66.3157 95.1879 58.8436C95.368 58.7321 95.7283 57.7655 95.9444 57.6912C95.9444 57.6912 96.5928 58.6577 96.0525 59.4755Z" fill="#542E2D"/>
<path fill-rule="evenodd" clip-rule="evenodd" d="M95.8359 61.929C95.7279 61.9661 95.2596 61.7431 95.1515 61.8174C84.5606 70.665 73.7175 74.3824 61.6496 73.639C61.4335 73.6018 61.5055 73.8248 61.2894 73.8992C61.1813 73.7133 60.5329 73.3044 60.4248 73.0813C60.6409 73.007 61.2173 73.2672 61.4335 73.2672C75.7708 73.4159 85.9655 68.323 95.0074 61.3342C95.1875 61.2226 95.5117 60.3305 95.6918 60.2561C95.6918 60.2561 96.3042 61.1483 95.8359 61.929Z" fill="#542E2D"/>
<path fill-rule="evenodd" clip-rule="evenodd" d="M95.4745 64.7544C95.3664 64.7916 94.9701 64.5685 94.8621 64.6429C85.3158 72.6354 75.4814 75.9811 64.5663 75.312C64.3862 75.312 64.4582 75.6837 64.2781 75.7581C64.17 75.5722 63.3415 75.0517 63.2334 74.8659C63.4135 74.7915 64.17 74.9774 64.3862 74.9774C77.3186 75.1261 86.5406 70.5164 94.754 64.1968C94.8981 64.0852 95.1863 63.2674 95.3664 63.2302C95.3664 63.2302 95.9068 64.0481 95.4745 64.7544Z" fill="#542E2D"/>
<path fill-rule="evenodd" clip-rule="evenodd" d="M93.5305 38.0629C88.6313 55.8323 79.7335 67.7654 65.2881 76.0181C64.9639 75.6464 64.9639 76.6873 64.9639 76.836C67.5936 77.8025 67.3414 77.8768 73.2853 78.5088C78.1125 79.0293 84.9209 77.5794 89.8561 73.1185C96.0882 67.468 99.0421 59.8843 99.0061 52.8955C99.0061 44.7171 94.9715 39.7357 94.1429 37.8398C93.9268 37.7655 93.5305 38.0629 93.5305 38.0629Z" fill="#542E2D"/>
<path fill-rule="evenodd" clip-rule="evenodd" d="M93.7825 39.2154C89.2075 55.9439 80.5979 68.6948 66.8369 76.3528C66.8369 76.3528 66.8369 76.4271 66.8369 76.5015C69.2865 77.3937 71.9523 77.877 74.69 77.877C87.7666 77.877 98.3215 66.9848 98.3215 53.4904C98.3215 48.1373 96.6644 43.2302 93.8546 39.2154C93.8185 39.1782 93.7825 39.1782 93.7825 39.2154Z" fill="#A9373C" stroke="#A9373C" stroke-width="0.9"/>
<path fill-rule="evenodd" clip-rule="evenodd" d="M95.9794 41.5575C95.8714 41.669 95.259 41.7805 95.2229 41.8921C90.4678 58.1002 82.0383 69.3269 69.5021 77.0221C69.286 77.1336 69.6462 77.5053 69.5021 77.7284C69.25 77.6168 68.2053 77.431 67.9531 77.3194C68.1332 77.0964 68.8537 76.9477 69.0699 76.799C83.4432 66.9477 90.2877 54.7916 94.7546 41.5203C94.8267 41.2973 94.5745 40.1449 94.7186 39.959C94.7186 39.959 95.9434 40.4423 95.9794 41.5575Z" fill="#542E2D"/>
<path fill-rule="evenodd" clip-rule="evenodd" d="M97.2401 44.0852C97.1681 44.1967 96.5917 44.3082 96.5557 44.4198C92.0527 59.7357 84.0915 70.3305 72.2758 77.5795C72.0597 77.691 72.4199 78.0628 72.2758 78.2486C72.0236 78.1371 71.051 77.9884 70.7988 77.8397C70.9789 77.6538 71.6634 77.5051 71.8795 77.3564C85.4244 68.1 91.9086 56.613 96.1234 44.048C96.1954 43.825 95.9433 42.7841 96.0874 42.561C96.0874 42.561 97.2401 43.0443 97.2401 44.0852Z" fill="#542E2D"/>
<path fill-rule="evenodd" clip-rule="evenodd" d="M98.1769 47.7655C98.1049 47.8399 97.6005 47.9142 97.5645 48.0629C93.4938 61.8175 86.3612 71.3342 75.6982 77.8398C75.5181 77.9513 75.8423 78.2859 75.6982 78.4717C75.4821 78.3602 74.6175 78.2115 74.4014 78.1C74.5455 77.9141 75.1579 77.8026 75.338 77.6539C87.55 69.3268 93.3497 58.9922 97.1322 47.7283C97.2043 47.5425 97.2043 46.2042 97.3123 46.0183C97.3123 46.0183 98.1409 46.799 98.1769 47.7655Z" fill="#542E2D"/>
<path fill-rule="evenodd" clip-rule="evenodd" d="M98.7901 51.2227C98.7181 51.2971 98.2498 51.3714 98.2498 51.4829C94.6114 63.7505 88.4874 72.0405 79.0132 77.8769C78.8331 77.9512 78.8691 78.1371 78.725 78.323C78.5449 78.2115 77.7524 78.3973 77.5723 78.323C77.7164 78.1371 78.2567 78.0256 78.4368 77.9141C89.3159 70.4791 94.5033 61.2598 97.8895 51.1855C97.9256 50.9997 98.2138 49.2525 98.3218 49.1038C98.3218 49.1038 98.7541 50.3677 98.7901 51.2227Z" fill="#542E2D"/>
<path fill-rule="evenodd" clip-rule="evenodd" d="M98.8624 55.3862C98.7903 55.4605 98.4301 55.5349 98.3941 55.6092C95.4401 65.6464 90.2167 72.6352 82.4356 77.3935C82.3276 77.4679 82.5437 77.6909 82.4356 77.8396C82.2915 77.7653 81.6431 77.6538 81.499 77.5794C81.6071 77.4307 82.0394 77.3564 82.1835 77.2448C91.0813 71.1482 95.3321 63.6018 98.1059 55.3862C98.1419 55.2375 98.4301 53.862 98.5382 53.7505C98.5382 53.7505 98.8263 54.717 98.8624 55.3862Z" fill="#542E2D"/>
<path fill-rule="evenodd" clip-rule="evenodd" d="M53.5085 40.6652C54.7333 40.5537 80.5262 75.8324 80.9945 77.7283C81.4628 79.6242 89.1358 74.3826 91.5134 71.706C93.8909 69.0666 69.1428 28.6578 65.9727 29.6244C63.379 28.8809 51.7434 39.7359 53.5085 40.6652Z" fill="#542E2D"/>
<path fill-rule="evenodd" clip-rule="evenodd" d="M54.3012 40.7023C55.49 40.5908 80.8146 75.2003 81.2829 77.0591C81.7152 78.9178 87.8752 74.271 90.685 71.5572C93.4588 68.8435 69.179 29.7358 65.5406 30.8139C63.091 30.4793 52.6442 40.1447 54.3012 40.7023Z" fill="#A9373C"/>
<path fill-rule="evenodd" clip-rule="evenodd" d="M54.4814 39.1411C54.5535 39.2527 55.274 39.3642 55.382 39.5129C65.3245 51.6318 74.1143 63.8251 82.7599 76.7247C82.94 76.9477 82.94 77.3938 83.0841 77.6168C83.3363 77.4681 83.6245 77.3566 83.8767 77.2079C83.6965 76.9849 83.2643 76.7618 83.1202 76.5016C74.6907 63.602 65.8649 51.1485 55.6702 39.0296C55.4901 38.8437 55.4541 38.2861 55.31 38.0631C55.31 38.0631 54.5175 37.9516 54.4814 39.1411Z" fill="#542E2D"/>
<path fill-rule="evenodd" clip-rule="evenodd" d="M55.8496 37.5797C55.9577 37.7284 56.6782 37.8399 56.7502 37.9886C66.7287 50.1075 75.4824 62.97 84.1641 75.8695C84.3082 76.0926 84.3082 76.5387 84.4883 76.7617C84.7405 76.613 84.9927 76.5015 85.2808 76.3528C85.1007 76.0926 84.6684 75.9067 84.4883 75.6465C76.4551 62.4867 67.5933 49.3641 57.0384 37.5054C56.8583 37.3195 56.8583 36.7619 56.7142 36.5388C56.7142 36.5388 55.8856 36.4273 55.8496 37.5797Z" fill="#542E2D"/>
<path fill-rule="evenodd" clip-rule="evenodd" d="M57.1826 35.9441C57.2907 36.0556 57.9751 36.2043 58.0832 36.3159C69.0344 47.4311 77.68 61.2972 85.5692 74.9774C85.7133 75.2005 85.7493 75.6466 85.8934 75.8696C86.1455 75.7209 86.4337 75.5722 86.6859 75.4607C86.5058 75.2005 85.9654 74.6429 85.8213 74.3455C78.5085 60.5537 69.9349 46.8363 58.3714 35.8326C58.1913 35.6467 58.1913 35.0891 58.0472 34.8661C58.0472 34.8661 57.2186 34.7545 57.1826 35.9441Z" fill="#542E2D"/>
<path fill-rule="evenodd" clip-rule="evenodd" d="M59.3086 34.1968C59.4167 34.3455 59.8489 34.5686 59.957 34.6801C71.5206 45.4236 79.842 59.773 87.1548 73.825C87.2989 74.0852 87.2989 74.4941 87.479 74.7171C87.7312 74.5684 88.1995 74.2339 88.4516 74.1224C88.2715 73.8621 87.7312 73.3045 87.5871 73.0071C80.7426 59.4012 72.8534 45.2005 60.4974 34.1225C60.3173 33.9366 60.4974 33.2675 60.3533 33.0444C60.3533 33.0444 59.3446 33.0444 59.3086 34.1968Z" fill="#542E2D"/>
<path fill-rule="evenodd" clip-rule="evenodd" d="M61.4707 32.7841C61.5428 32.8957 61.975 33.1559 62.0831 33.2674C74.3311 43.9737 81.788 58.732 88.5604 72.784C88.6685 73.0442 88.7045 73.4531 88.8486 73.6762C89.1368 73.5275 89.5691 73.1929 89.8573 73.0814C89.6771 72.8212 89.1368 72.2264 88.9927 71.9661C82.1122 58.3231 74.9795 43.7506 62.6235 32.6726C62.4433 32.5239 62.6235 31.8548 62.4794 31.6317C62.4794 31.6317 61.4707 31.5945 61.4707 32.7841Z" fill="#542E2D"/>
<path fill-rule="evenodd" clip-rule="evenodd" d="M63.4141 31.446C63.4861 31.5575 63.9184 31.8177 64.0265 31.9293C76.2745 42.6355 82.9748 57.5797 89.7473 71.6317C89.8553 71.892 89.8914 72.3009 90.0715 72.5239C90.3236 72.3752 90.792 72.0406 91.0441 71.9291C90.864 71.6689 90.3236 71.0741 90.1796 70.8139C83.3351 57.1708 76.9229 42.4125 64.5668 31.3345C64.3867 31.1858 64.5668 30.5166 64.4227 30.2936C64.4227 30.2936 63.4141 30.2564 63.4141 31.446Z" fill="#542E2D"/>
<path fill-rule="evenodd" clip-rule="evenodd" d="M19.3939 62.7841C19.2858 60.1447 22.8882 57.3938 23.5726 56.5387C23.5366 54.6428 25.7701 50.2562 26.5986 48.2488C27.3911 46.2785 34.0555 54.0109 31.75 57.9514C33.4431 57.022 35.6045 55.5722 37.4417 54.5685C38.5224 53.9737 39.495 53.9365 40.3236 53.3789C41.6204 52.5239 41.4763 51.2599 42.1608 50.9254C45.4749 51.5945 44.5023 59.2897 42.4129 62.3751C44.6824 63.3417 43.7458 66.3156 46.7718 67.3565C47.2761 67.5424 47.6724 67.4681 48.1046 67.1707C48.8251 66.6874 50.3381 65.8324 50.8424 66.2413C51.2027 66.5387 51.5269 67.9513 51.635 68.6948C51.9952 69.4011 52.3554 70.1075 52.4635 70.8138C52.5716 71.4086 52.5355 71.7803 52.3554 72.3379C52.5716 72.7097 52.6076 72.9327 52.6436 73.4532C52.7517 71.8547 54.3727 71.8175 54.9851 70.9253C54.8771 71.5201 54.9491 71.5573 54.6609 72.1149C55.3454 71.3342 55.8857 71.4457 57.0025 71.3342C56.354 71.6316 55.8857 71.8918 55.5975 72.4866C56.4621 71.4086 57.2546 71.7803 58.1552 71.5944C57.6869 72.0405 57.1826 72.2264 56.5342 73.0071C57.2546 72.3751 57.6869 72.4495 58.2993 72.6353C57.831 72.9699 57.3267 73.1929 57.0385 73.7506C57.6149 73.7877 57.6869 73.5275 57.9031 73.9364C59.5601 71.9662 59.6322 69.9588 61.1091 67.9142C61.1091 67.9142 61.2172 68.2116 60.2086 64.3826C58.7676 58.8436 64.3152 59.1038 64.4593 58.9923C64.6034 58.9179 67.9176 58.4346 69.2144 62.1149C72.4926 71.2599 68.602 75.7952 68.602 75.8323C69.3225 74.6056 70.5833 75.2004 71.628 74.6056C71.3759 75.4606 71.1597 75.6465 70.4032 76.1297C71.592 75.6093 71.9883 75.8695 73.2851 76.0554C72.5286 76.2413 72.7087 76.4643 71.8081 76.8361C72.8528 76.5015 72.9969 76.2413 73.8255 75.8323C73.5733 76.2413 73.2131 76.9104 72.7087 77.1706C73.4292 77.0963 73.9335 77.2078 74.4018 77.5424C77.4278 72.1149 81.0662 69.3268 84.7406 67.7283C84.1642 67.022 83.6239 66.5015 83.0475 65.6465C82.4711 64.4197 82.5432 63.4532 82.3991 62.4123C82.3991 62.4123 82.291 60.4421 83.4798 59.141C84.6685 57.8398 91.3689 58.509 93.4943 59.2153C94.6471 59.5871 97.2047 61.706 98.3215 63.6019C99.5823 65.7952 99.2581 68.1 99.2581 68.1C99.2581 68.1 103.941 58.4718 115.613 55.312C125.303 52.7098 131.427 61.2971 134.021 64.3454C136.795 67.6168 142.198 90.3304 132.472 94.9773C130.635 95.8694 129.23 96.0553 127.789 96.0553C127.428 96.0181 129.122 96.3155 130.923 96.3527C120.476 100.368 117.522 85.6464 117.774 81.1855C118.026 76.7617 116.081 73.3788 112.659 72.3008C102.212 68.9922 99.114 79.1781 98.9699 80.9996C98.6457 85.6093 98.3215 90.3304 94.9713 93.8992C88.3429 106.724 78.4365 112.635 62.478 111.855C42.8452 110.888 40.3596 109.104 32.7226 101.557C32.4704 102.189 32.8307 102.635 33.263 103.527C32.1462 103.23 31.858 102.784 31.5698 102.003C31.5338 102.412 31.6419 102.524 31.786 102.933C30.9574 102.04 31.1376 102.003 30.8854 101.706C29.6246 101.148 29.3004 100.516 29.1923 99.6241C29.0842 100.33 29.4445 100.962 29.6606 101.706C27.5352 99.9586 26.8508 97.9512 26.4545 96.3155C22.4559 96.5758 20.0063 95.2747 18.5293 93.3787C18.1331 94.0107 18.3492 94.7542 18.7815 95.5349C16.44 95.2747 16.4039 93.3044 16.1518 91.8174C16.0437 92.375 15.5394 92.8211 14.963 93.1557C15.035 92.4122 15.3232 91.8918 15.1791 91.1854C15.0711 92.4494 14.2785 92.7468 12.7656 93.2672C13.45 92.3007 13.9904 91.8174 14.1345 90.8509C13.1258 92.152 12.3333 92.4494 11.0004 93.007C10.9644 93.0442 13.3419 88.8434 13.414 86.9847C11.0004 73.3045 15.6835 65.9439 19.3939 62.7841Z" fill="#A9373C"/>
<path fill-rule="evenodd" clip-rule="evenodd" d="M19.6463 63.0445C19.3221 60.3307 23.1766 57.4311 23.897 56.5761C23.825 54.6802 26.2386 50.5538 26.7069 48.6207C27.1752 46.7248 33.8395 54.6802 31.2458 58.6207C31.2458 58.6207 19.6823 63.0445 19.6463 63.0445Z" fill="#F7ADAF"/>
<path fill-rule="evenodd" clip-rule="evenodd" d="M23.1042 60.8883C20.8708 61.037 10.2078 67.8028 13.594 86.9849C13.522 88.8436 11.2525 92.8213 11.2885 92.7841C12.6214 92.2265 13.3419 91.7432 14.3505 90.4793C14.1704 91.4459 13.9182 91.8919 13.2338 92.8213C14.7107 92.3009 15.035 91.7432 15.143 90.4793C15.3952 91.2228 15.3952 91.9663 15.3231 92.7098C15.8995 92.3752 16.1157 91.8919 16.2598 91.2972C16.584 92.8213 16.4399 94.7916 18.4572 95.1633C18.0249 94.3826 18.0609 93.7135 18.4572 93.0444C19.9702 94.9774 22.6719 96.2785 26.6706 96.0183C27.0668 97.654 27.0668 99.2897 29.2282 101.037C29.0121 100.293 29.0121 99.6614 29.1202 98.9551C29.2282 99.8473 29.3723 100.628 30.5971 101.148C30.3089 100.479 30.1648 99.9588 30.2009 99.3269C30.4891 100.331 30.6692 101.26 31.4617 102.152C31.2816 101.371 31.3536 100.851 31.6058 100.256C31.1015 101.855 32.0741 102.933 32.7946 103.193C32.3623 102.338 32.3623 101.706 32.6505 101.037C40.2875 108.583 42.8811 110.702 62.514 111.669C78.4724 112.449 88.1988 106.576 94.8271 93.7135C98.1773 90.1447 98.2133 85.3864 98.5735 80.7767C98.6816 78.9552 102.356 68.7694 112.803 72.1151C116.225 73.1931 118.242 76.7619 117.99 81.1857C117.738 85.6466 121.376 99.364 129.77 96.4644C127.969 96.4272 126.924 95.9068 127.248 95.9068C128.689 95.944 130.346 95.6466 132.183 94.7916C141.91 90.1076 135.462 66.5761 133.3 64.4571C131.175 62.3382 125.303 53.2304 115.613 55.8326C103.941 58.9924 99.0779 68.695 99.0779 68.695C99.0779 68.695 99.1859 65.8697 97.8891 63.6393C96.8084 61.7805 93.9625 59.6616 93.2781 59.4385C91.4769 58.8437 84.8125 58.0259 83.6238 59.2898C82.471 60.5909 82.6151 62.5612 82.6151 62.5612C82.8312 63.6021 82.5791 64.3828 83.2635 65.6839C83.7318 66.5017 84.4523 67.0221 85.0287 67.7285C81.3543 69.327 77.4637 72.3009 74.4378 77.7284C73.8614 77.3195 73.213 77.2823 72.3844 77.208C72.8888 76.9478 73.213 76.6132 73.4291 76.2043C72.6006 76.576 71.9521 77.0221 70.7634 77.208C71.8801 77.0221 72.0962 76.3158 72.8527 76.0927C71.3037 75.7954 70.3671 76.0556 69.1783 76.7247C70.4031 76.0927 71.1236 75.6838 71.3758 74.8288C70.3311 75.4236 68.9622 75.0147 68.2057 76.2786C68.2057 76.2414 72.2043 71.2601 68.9262 62.1151C67.6293 58.4348 64.6033 59.1411 64.4592 59.2155C64.3152 59.2898 58.9476 58.8809 60.3886 64.4199C61.3972 68.2489 61.3612 67.9515 61.3612 67.9515C59.9203 69.9961 59.488 72.3753 57.8309 74.3084C57.6148 73.9366 57.4347 73.8251 56.8943 73.7879C57.1465 73.2303 57.6148 73.0073 58.1191 72.6727C57.4707 72.4868 56.9303 72.7099 56.2459 73.3418C56.7142 72.4868 57.2545 72.1522 57.8669 71.7061C56.9664 71.892 56.3179 71.669 55.4173 72.7842C55.5975 72.1894 55.8856 71.7433 56.6061 71.4459C55.3093 71.6318 54.9851 71.5946 54.1565 72.9329C54.4447 72.4125 54.7329 71.8548 54.841 71.2972C54.2286 72.1894 52.7516 72.1151 52.6435 73.7136C52.6075 73.1931 52.3914 72.7099 52.1752 72.3381C52.3553 71.7805 52.4274 71.4087 52.3193 70.814C52.2112 70.1076 51.851 69.4013 51.4908 68.695C51.3827 67.9515 51.1305 66.6876 50.7343 66.3902C50.2299 65.9441 48.825 66.9106 48.1046 67.3939C47.6723 67.6913 47.204 67.8028 46.6996 67.6169C43.6737 66.5761 44.3221 63.4534 42.0526 62.4868C44.3941 59.0296 44.8624 51.9293 42.3048 51.3345C41.6203 51.7062 41.7284 52.7099 40.4676 53.5649C39.639 54.1226 38.5223 54.2713 37.4416 54.8661C35.2802 56.0556 33.0107 57.617 31.966 58.3233C30.7772 58.2861 29.3723 58.5092 27.9314 59.4385C28.0755 58.8809 28.3637 58.3605 28.6519 57.84C27.5711 58.3233 27.0668 58.6207 25.878 59.8475C26.2743 59.0296 26.8507 58.4348 27.4991 57.7657C25.77 58.472 24.1129 59.1411 23.1042 60.8883Z" fill="#FEFEFE"/>
<path fill-rule="evenodd" clip-rule="evenodd" d="M84.1644 68.4346L90.3964 68.1744C88.163 67.5425 87.1903 66.3529 85.7134 65.7209C83.1917 64.6057 83.1557 60.9997 82.9756 60.8139C82.9035 60.7767 82.8675 60.7395 82.8315 60.7395C82.7594 60.9625 82.7234 61.1856 82.6874 61.3715C82.7594 62.1893 83.0116 63.4532 82.6514 62.8585C82.7234 63.2674 82.7234 63.6763 82.7594 64.0852C82.8315 64.457 82.9396 64.9031 83.1197 65.3492C83.1557 65.4607 83.2277 65.5722 83.2638 65.6837C83.624 66.3157 84.0923 66.7618 84.5606 67.2079C84.6687 67.3194 84.7768 67.3938 84.8488 67.4309C84.9208 67.5053 84.9569 67.5796 84.9569 67.6168C84.9929 67.654 85.0289 67.6911 85.0289 67.7283L84.9569 67.7655C84.8488 68.1001 84.1644 68.4346 84.1644 68.4346Z" fill="#F7ADAF"/>
<path fill-rule="evenodd" clip-rule="evenodd" d="M36.1807 78.2115C36.3248 78.8435 36.3608 78.8435 36.1807 78.9922C36.0006 79.1409 35.4963 79.4754 35.4963 79.4754C35.4963 79.4754 37.9098 79.6613 37.9819 78.8806C38.234 76.2412 37.0092 76.9104 37.5136 74.0479C38.2701 69.9959 42.809 70.2933 42.9891 69.9216C43.1332 69.5126 42.9171 68.9179 42.9171 68.9179L42.6289 68.8435C42.6289 68.8435 42.6649 69.2153 42.3407 69.4383C41.9805 69.6613 36.0366 70.7394 35.5683 73.639C35.064 76.5015 36.1807 78.1743 36.1807 78.2115Z" fill="#A9373C"/>
<path fill-rule="evenodd" clip-rule="evenodd" d="M44.6113 74.2709C46.4125 75.4605 44.179 76.427 43.7107 77.8397C43.3505 78.8806 43.3865 80.9252 41.8735 80.6649C41.0089 80.4791 39.9642 79.6241 41.189 76.5386C42.4138 73.4531 44.107 73.9363 44.6113 74.2709Z" fill="#F7ADAF"/>
<path fill-rule="evenodd" clip-rule="evenodd" d="M52.4637 71.5203C52.2836 71.7433 52.1395 71.9664 51.9233 72.1522C51.8513 72.1894 51.8153 72.2266 51.7792 72.2638C51.419 74.3084 47.4204 75.4979 48.0328 73.6764C47.9968 73.7136 47.9607 73.7507 47.9247 73.7507C47.2042 75.1634 49.834 74.9403 50.4464 74.3455C50.9867 74.2712 52.0314 74.5314 52.3556 74.0853C52.7158 73.6764 52.3556 73.0072 52.1034 72.4496C52.2475 72.524 52.4637 71.5574 52.4637 71.5203Z" fill="#A9373C"/>
<path fill-rule="evenodd" clip-rule="evenodd" d="M69.575 73.5648C68.2781 76.3157 66.9453 79.0295 64.6758 81.6689C66.8372 79.8101 67.6297 77.9886 69.5029 74.2339C69.5029 74.2339 69.647 73.4904 69.575 73.5648Z" fill="#A9373C"/>
<path fill-rule="evenodd" clip-rule="evenodd" d="M73.9331 80.2562C75.9865 73.0815 84.416 68.0258 85.6768 67.8771C84.452 67.7284 82.831 65.2377 82.7589 63.1559C82.9751 64.1968 83.1552 64.8287 84.7402 65.3864C83.1912 64.457 82.867 62.115 82.6869 60.9998C82.5428 61.8919 81.6782 65.2748 84.8483 67.7284C76.9591 70.9254 73.3928 78.7692 73.9331 80.2562Z" fill="#A9373C"/>
<path fill-rule="evenodd" clip-rule="evenodd" d="M116.045 72.0035C118.783 74.9774 119.755 80.2562 118.35 85.0517C118.062 83.5276 117.918 82.1521 117.99 81.1856C118.242 76.7618 116.225 73.193 112.803 72.115C102.356 68.7693 98.6816 78.9551 98.5735 80.7767C98.2133 85.3863 98.1773 90.1447 94.8271 93.7134C88.1988 106.576 78.4724 112.449 62.514 111.669C49.3654 111 43.8538 109.847 39.3508 106.91L39.3148 106.873L39.2788 106.836C39.2068 106.799 39.1707 106.762 39.0987 106.725H39.0627V106.687H39.0266L38.9546 106.613L38.8465 106.576V106.539H38.8105L38.7384 106.464L38.6664 106.427L38.5944 106.39V106.353H38.5583L38.4503 106.241L38.3422 106.204V106.167H38.3062C38.2341 106.13 38.1981 106.055 38.126 106.018H38.09L38.054 105.981L38.018 105.944L37.8739 105.832H37.8379V105.795H37.8018L37.7298 105.721L37.6217 105.646V105.609H37.5857L37.5497 105.572L37.5136 105.535L37.4416 105.498L37.3335 105.423L37.2255 105.312L37.1174 105.238V105.2H37.0814L36.9012 105.052L36.8652 105.014L36.8292 104.977L36.7932 104.94C36.7572 104.903 36.6851 104.866 36.6131 104.791L36.505 104.717L36.2888 104.531L36.2168 104.42C36.1448 104.383 36.0727 104.308 36.0007 104.234L35.8926 104.159L35.6764 103.974L35.6044 103.862L35.3522 103.639H35.3162V103.602C35.2081 103.528 35.1361 103.453 35.028 103.379L34.992 103.342V103.304L34.7398 103.081L34.6318 103.007L34.3796 102.747V102.71H34.3436L34.1274 102.487L34.0194 102.412V102.375H33.9833L33.8032 102.189L33.6952 102.078L33.5871 101.966L33.3709 101.743L33.0467 101.409H33.0107L32.9026 101.297L32.7946 101.186L32.6505 101.037C32.3623 101.706 32.3623 102.338 32.7946 103.193C32.0741 102.933 31.1015 101.855 31.6058 100.256C31.3536 100.851 31.2816 101.371 31.4617 102.152C30.6692 101.26 30.4891 100.33 30.2009 99.3268C30.1648 99.9587 30.3089 100.479 30.5971 101.148C29.3723 100.628 29.2282 99.8472 29.1202 98.955C29.0121 99.6613 29.0121 100.293 29.2282 101.037C27.0668 99.2896 27.0668 97.6539 26.6706 96.0182C22.6719 96.2785 19.9702 94.9773 18.4572 93.0443C18.0609 93.7134 18.0249 94.3826 18.4572 95.1632C16.4399 94.7915 16.584 92.8212 16.2598 91.2971C16.1157 91.8919 15.8995 92.3751 15.3231 92.7097C15.3952 91.9662 15.3952 91.2227 15.143 90.4792C15.035 91.7432 14.7107 92.3008 13.2338 92.8212C13.9182 91.8919 14.1704 91.4458 14.3505 90.4792C13.3419 91.7432 12.6214 92.2264 11.2885 92.784C11.2525 92.8212 13.522 88.8435 13.594 86.9848C13.3058 85.3491 13.1257 83.7878 13.0176 82.338C16.2598 90.4049 31.1375 96.9104 45.7991 87.9514L47.4922 85.535L48.789 83.1187L50.6983 79.9588L52.0672 77.2079L52.6796 75.0146L52.7156 73.9737L52.6075 73.5276C53.4721 72.7841 54.1565 77.2451 46.9518 87.022C46.5916 87.5796 46.4115 89.4012 45.9071 89.8844C45.5829 90.1818 46.0152 88.1744 45.691 88.4718C45.691 88.4718 44.7184 89.9588 44.9345 89.5499C43.7097 91.2227 41.8365 91.2971 41.8365 93.3045C41.8365 106.241 65.8642 102.821 71.9882 102.152C80.3817 101.223 90.4682 97.4309 93.5663 90.5164C95.4755 86.2041 97.5289 80.5164 98.8257 77.2079C103.257 65.7209 112.479 68.1373 116.045 72.0035Z" fill="#F7ADAF"/>
<path fill-rule="evenodd" clip-rule="evenodd" d="M52.3201 72.3379C52.3201 72.3379 52.212 72.3751 52.248 72.4123C52.5362 73.0443 52.6443 73.8249 52.5723 74.4197C52.176 78.1744 48.5376 83.2673 46.5203 86.5386C46.1961 87.0591 45.9079 87.5795 45.7278 87.691C41.7292 90.0702 39.1715 95.6092 39.1715 95.4977C38.8833 94.1594 39.4957 93.0814 39.892 92.5981C38.2349 93.0814 37.2623 94.3825 36.7219 95.6836C36.2176 94.6055 36.1815 93.9364 36.5418 92.6724C35.8573 94.1222 35.7493 95.4234 36.6859 96.7616C37.6585 94.5683 38.2349 93.6018 39.2435 93.1557C38.9554 93.8992 38.6672 94.9773 39.1715 96.0553C39.892 93.862 43.2061 89.8843 45.4396 88.323C45.8719 88.0628 46.088 88.4717 46.3402 88.9922C46.5924 88.323 46.6284 87.2821 46.7364 87.0963C48.8979 82.6725 52.8965 77.8398 52.7164 74.2338C52.6803 73.8621 52.5002 72.1892 52.3201 72.3379Z" fill="#A9373C"/>
<path fill-rule="evenodd" clip-rule="evenodd" d="M62.2624 59.5872C61.722 62.4496 60.5693 64.9775 63.0549 68.2117C61.0736 69.1782 59.4886 72.6726 58.3718 75.6094L57.8315 74.3083C59.4886 72.3752 59.9209 69.996 61.3618 67.9514C61.3618 67.9514 61.3978 68.2488 60.3892 64.4199C59.5966 61.3344 60.9295 60.1076 62.2624 59.5872ZM57.6514 72.97V72.6354C57.7955 72.6354 57.9396 72.6354 58.1197 72.6726C57.9396 72.7841 57.7955 72.8585 57.6514 72.97ZM57.6514 71.8548V71.7432C57.7234 71.7432 57.7955 71.7432 57.8675 71.7061C57.7955 71.7804 57.7234 71.8176 57.6514 71.8548Z" fill="#FBD6D7"/>
<path fill-rule="evenodd" clip-rule="evenodd" d="M39.8555 53.8251C41.7287 54.0482 42.8454 56.7991 43.782 58.2861C44.2864 56.8363 44.0702 55.4236 44.1423 53.9738L43.4938 51.9664L42.269 51.0742L41.4405 52.4497C41.4405 52.4497 39.8555 53.8623 39.8555 53.8251Z" fill="#A9373C"/>
<path fill-rule="evenodd" clip-rule="evenodd" d="M24.8693 52.6726C26.8506 51.1485 28.0034 52.0778 30.417 51.3715L28.6518 49.1411L27.1388 48.063L26.6705 48.4719L25.3016 51.7804C25.3016 51.7804 24.7973 52.6355 24.8693 52.6726Z" fill="#A9373C"/>
<path fill-rule="evenodd" clip-rule="evenodd" d="M47.6357 67.5796C49.1127 68.8064 50.2655 69.3268 51.5983 68.8064L51.5623 68.7692C51.4542 67.9513 51.166 66.6131 50.7698 66.3157C50.2655 65.8696 48.7885 66.8733 48.032 67.3565C47.8879 67.4681 47.7798 67.5424 47.6357 67.5796Z" fill="#A9373C"/>
<path d="M50.0013 67.0108C50.4593 66.813 50.7715 66.507 50.6986 66.3274C50.6258 66.1479 50.1955 66.1627 49.7375 66.3605C49.2795 66.5584 48.9673 66.8643 49.0401 67.0439C49.1129 67.2235 49.5433 67.2087 50.0013 67.0108Z" fill="#FEFEFE"/>
<path d="M49.006 67.4681C49.1651 67.4681 49.2942 67.3349 49.2942 67.1707C49.2942 67.0064 49.1651 66.8733 49.006 66.8733C48.8468 66.8733 48.7178 67.0064 48.7178 67.1707C48.7178 67.3349 48.8468 67.4681 49.006 67.4681Z" fill="#FEFEFE"/>
<path fill-rule="evenodd" clip-rule="evenodd" d="M91.3325 29.4758C94.4666 32.1896 96.1236 35.275 96.664 38.6208L97.5646 38.3605C96.7721 35.1264 95.0069 32.0409 92.089 29.0669C92.089 29.0669 91.0443 29.4758 91.3325 29.4758Z" fill="#A9373C"/>
<path fill-rule="evenodd" clip-rule="evenodd" d="M139.495 88.8061C139.171 90.8879 138.307 92.412 137.046 93.5273L137.406 93.8618C138.559 92.6723 139.387 91.0738 139.856 89.0292C139.856 89.0292 139.423 88.6574 139.495 88.8061Z" fill="#A9373C"/>
<path fill-rule="evenodd" clip-rule="evenodd" d="M97.8898 60.1075C99.3307 61.1112 100.159 62.338 100.519 63.7134L100.916 63.5647C100.447 62.2265 99.5469 61.0369 98.178 59.9216C98.178 59.9216 97.7817 60.1447 97.8898 60.1075Z" fill="#A9373C"/>
<path fill-rule="evenodd" clip-rule="evenodd" d="M97.7444 61.9292C98.645 62.4868 99.1853 63.2303 99.4735 64.0482L99.6897 63.9738C99.3655 63.156 98.7891 62.4125 97.9245 61.7805C97.9245 61.7805 97.6723 61.9292 97.7444 61.9292Z" fill="#A9373C"/>
<path fill-rule="evenodd" clip-rule="evenodd" d="M137.983 89.0667C137.767 90.5537 137.154 91.6317 136.254 92.4124L136.506 92.6354C137.335 91.8176 137.911 90.7024 138.271 89.2154C138.271 89.2154 137.947 88.9923 137.983 89.0667Z" fill="#A9373C"/>
<path fill-rule="evenodd" clip-rule="evenodd" d="M51.5629 40.2934C50.0859 42.4495 49.5456 44.5685 49.7257 46.6503H49.1133C49.1133 44.5685 49.7257 42.4495 51.0225 40.1819C51.0225 40.1819 51.743 40.2562 51.5629 40.2934Z" fill="#A9373C"/>
<path fill-rule="evenodd" clip-rule="evenodd" d="M91.2966 32.0408C93.2779 33.3791 94.4306 35.0148 94.971 36.9107L95.4753 36.6876C94.8269 34.9032 93.566 33.2304 91.7288 31.7434C91.7288 31.7434 91.1525 32.0408 91.2966 32.0408Z" fill="#A9373C"/>
<path fill-rule="evenodd" clip-rule="evenodd" d="M51.9593 41.8547C50.9866 42.9699 50.5183 44.1595 50.4823 45.3491L50.1221 45.3119C50.2662 44.1223 50.7705 42.9328 51.6711 41.7432C51.6711 41.7432 52.0673 41.8175 51.9593 41.8547Z" fill="#A9373C"/>
<path fill-rule="evenodd" clip-rule="evenodd" d="M67.3061 78.2859C86.0383 94.0479 51.0595 107.431 50.2309 114.94C49.7266 119.736 64.9646 119.81 80.7068 118.397C95.9808 117.022 109.922 124.308 111.903 116.799C114.353 106.799 97.4938 111.966 95.1523 108.769C95.4044 108.063 99.9794 106.873 99.8353 105.535C99.6552 102.189 88.9923 102.598 88.9923 102.598C88.7041 102.747 88.4519 102.933 88.1637 103.081C88.1637 103.081 99.367 103.156 99.1509 105.2C99.0068 107.059 93.9995 107.728 94.3237 108.918C95.5846 113.081 112.768 107.356 111.327 116.39C110.318 122.933 94.792 116.576 81.0671 117.728C66.6577 118.955 50.0148 118.509 50.9154 114.605C51.9961 109.921 87.5873 91.6316 67.5943 77.7283C67.6663 77.7654 67.4862 77.9885 67.3061 78.2859Z" fill="#A9373C"/>
<path fill-rule="evenodd" clip-rule="evenodd" d="M15.8998 67.0591C14.9992 71.1483 19.1059 69.8472 27.2112 63.2673C29.877 61.1112 32.5067 62.3751 35.7848 61.7431C36.6494 61.5572 37.586 60.3305 38.5947 59.9216C40.0356 59.3268 42.0169 59.9959 43.638 59.4011C43.8541 59.7357 44.0702 59.8844 43.4218 60.1818C42.233 60.4792 40.8281 59.8844 39.171 60.3677C38.0903 60.6651 37.0457 62.1149 35.8569 62.2636C32.4346 62.6725 29.2646 62.0777 27.4634 63.7505C22.0599 68.7319 15.3235 72.4494 14.9992 68.0256C14.9992 68.0256 14.9272 66.7245 15.8998 67.0591Z" fill="#A9373C"/>
<path fill-rule="evenodd" clip-rule="evenodd" d="M36.3249 55.3493C35.6045 61.9663 39.9273 62.1894 42.7371 61.7433C42.7731 61.9292 42.629 62.3009 42.4129 62.3753C41.1521 62.3753 37.982 62.4868 37.0814 61.0742C35.2802 58.1374 35.7125 56.2786 35.7485 55.6095C35.7485 55.4236 36.0007 54.866 36.3249 55.3493Z" fill="#A9373C"/>
<path fill-rule="evenodd" clip-rule="evenodd" d="M99.1143 66.9477C112.299 99.5869 106.787 44.6801 119.504 54.7544C119.035 54.8287 118.603 54.9031 118.135 55.0146C109.345 47.3195 111.542 99.2524 99.1863 68.4346C99.1863 68.4346 99.2584 67.1335 99.1143 66.9477Z" fill="#A9373C"/>
<path fill-rule="evenodd" clip-rule="evenodd" d="M116.549 75.2375C103.977 80.7021 133.048 44.4941 132.76 63.4159C132.544 63.1929 132.364 62.9698 132.184 62.7468C132.508 48.3231 107.255 78.6575 116.225 74.5683C116.333 74.7914 116.441 75.0144 116.549 75.2375Z" fill="#A9373C"/>
<path fill-rule="evenodd" clip-rule="evenodd" d="M122.025 93.7878C122.025 93.7878 125.339 110.516 121.376 111.371C117.414 112.226 115 111.111 115.396 109.661C116.477 105.795 119.179 105.572 135.606 107.357C149.006 108.806 176.456 101.148 179.59 103.528L179.122 102.598C177.573 99.5871 148.934 108.658 135.606 106.91C118.278 104.643 114.856 106.539 114.856 109.996C114.82 111.743 116.549 112.189 119.575 112.338C126.203 112.673 123.322 98.6205 122.781 94.6057C122.781 94.6057 122.097 93.825 122.025 93.7878Z" fill="#A9373C"/>
<path fill-rule="evenodd" clip-rule="evenodd" d="M123.322 105.906H123.863V105.944V106.315H123.826L123.79 106.353L123.322 106.315L123.286 106.278L123.322 105.906Z" fill="#A9373C"/>
<path fill-rule="evenodd" clip-rule="evenodd" d="M160.534 102.04C158.192 101.111 153.293 97.2449 144.791 103.639C143.098 104.717 142.017 105.981 142.594 107.468C142.81 109.475 144.503 109.438 145.62 109.327C146.773 109.624 147.709 109.736 148.97 109.178L153.041 108.918C155.526 108.1 160.786 109.327 163.632 108.137L156.751 105.498L160.534 102.04Z" fill="#542E2D" stroke="#373435" stroke-width="0.9"/>
<path fill-rule="evenodd" clip-rule="evenodd" d="M145.873 72.6724C145.873 72.6724 146.161 72.152 145.657 71.8546C145.152 71.5572 141.622 77.3936 141.982 86.2783C142.306 95.1631 140.721 93.4159 140.793 96.0553C140.865 98.6947 143.495 101.148 145.08 96.3898C146.701 91.6315 147.386 83.7505 147.386 83.7505L146.521 83.0442C146.521 83.0442 144.864 97.1705 143.567 98.2114C142.27 99.2151 141.226 97.5051 141.334 95.9809C141.406 94.4939 142.523 93.1556 142.739 89.9586C142.919 86.7988 142.631 86.7988 142.919 82.3007C143.207 77.7654 145.693 72.7468 145.873 72.6724Z" fill="#A9373C"/>
</g>
<defs>
<clipPath id="clip0_512_813">
<rect width="142" height="114" fill="white"/>
</clipPath>
</defs>
</svg>
