<svg width="142" height="114" viewBox="0 0 142 114" fill="none" xmlns="http://www.w3.org/2000/svg">
<g clip-path="url(#clip0_512_812)">
<path d="M50.2769 113.618H14.9736C14.4505 113.618 14.0264 113.194 14.0264 112.671C14.0264 112.148 14.4504 111.724 14.9736 111.724H50.2769C50.8 111.724 51.2241 112.148 51.2241 112.671C51.2241 113.194 50.8 113.618 50.2769 113.618Z" fill="#FCEAD9"/>
<path d="M99.7305 113.618H93.0585C92.5354 113.618 92.1113 113.194 92.1113 112.671C92.1113 112.148 92.5354 111.724 93.0585 111.724H99.7305C100.254 111.724 100.678 112.148 100.678 112.671C100.678 113.194 100.254 113.618 99.7305 113.618Z" fill="#FCEAD9"/>
<path d="M62.6075 113.618H55.9355C55.4124 113.618 54.9883 113.194 54.9883 112.671C54.9883 112.148 55.4124 111.724 55.9355 111.724H62.6075C63.1306 111.724 63.5547 112.148 63.5547 112.671C63.5547 113.194 63.1306 113.618 62.6075 113.618Z" fill="#FCEAD9"/>
<path d="M79.1738 113.618H76.2265C75.7033 113.618 75.2793 113.194 75.2793 112.671C75.2793 112.148 75.7033 111.724 76.2265 111.724H79.1738C79.697 111.724 80.121 112.148 80.121 112.671C80.121 113.194 79.697 113.618 79.1738 113.618Z" fill="#FCEAD9"/>
<path d="M10.3922 113.618H0.903259C0.380186 113.618 -0.0439453 113.194 -0.0439453 112.671C-0.0439453 112.148 0.380134 111.724 0.903259 111.724H10.3922C10.9152 111.724 11.3394 112.148 11.3394 112.671C11.3394 113.194 10.9152 113.618 10.3922 113.618Z" fill="#FCEAD9"/>
<path d="M134.937 113.618H105.298C104.775 113.618 104.351 113.194 104.351 112.671C104.351 112.148 104.775 111.724 105.298 111.724H134.937C135.46 111.724 135.884 112.148 135.884 112.671C135.884 113.194 135.46 113.618 134.937 113.618Z" fill="#FCEAD9"/>
<path d="M37.2283 82.5726C37.2283 82.5726 5.92096 75.0694 13.3146 99.9712C16.17 107.689 19.4763 107.834 19.4763 107.834C19.4763 107.834 20.068 97.8014 25.5974 94.6593C31.1268 91.5174 33.7296 92.7845 34.2281 93.7548C34.7266 94.7251 37.2283 82.5726 37.2283 82.5726Z" fill="#FCEAD9"/>
<path d="M19.9217 108.327L19.4559 108.307C19.3081 108.3 15.8017 108.057 12.8708 100.135L12.861 100.106C11.0666 94.0624 11.3804 89.3583 13.7937 86.1244C16.3122 82.7494 20.9812 81.0381 27.6709 81.0381C32.7979 81.0381 37.2943 82.1012 37.339 82.112L37.785 82.2189L37.6926 82.668C37.6867 82.6961 37.1054 85.516 36.4556 88.2993C36.0729 89.9386 35.7412 91.2461 35.4698 92.1859C34.9827 93.8731 34.7565 94.2823 34.2934 94.2835C34.0893 94.2831 33.9075 94.1663 33.8073 93.9712C33.6478 93.6608 33.0067 93.1355 31.6149 93.1355C30.5306 93.1355 28.647 93.4713 25.8317 95.071C20.5924 98.0484 19.9553 107.764 19.9495 107.862L19.9217 108.327ZM13.7646 99.8213C15.8273 105.388 18.103 106.852 19.0516 107.231C19.271 105.003 20.3907 97.0736 25.3639 94.2473C27.7685 92.8812 29.8717 92.1883 31.615 92.1883C32.8634 92.1883 33.718 92.553 34.2222 93.0018C34.7502 91.5508 35.7979 87.1268 36.6702 82.9347C35.426 82.6739 31.7534 81.9851 27.671 81.9851C23.2885 81.9851 17.4551 82.8015 14.5529 86.6907C12.3299 89.6696 12.0647 94.0871 13.7646 99.8213Z" fill="black"/>
<path d="M73.5225 41.2041C73.5225 41.2041 78.7878 29.8193 87.3264 27.4C89.5323 26.6885 91.0978 28.752 91.8093 31.3136C92.5209 33.8751 95.2957 45.9471 82.6658 49.9796C74.9455 42.2715 73.5225 41.2041 73.5225 41.2041Z" fill="#FCEAD9"/>
<path d="M82.5355 50.5183L82.3315 50.3147C74.7881 42.7833 73.297 41.6273 73.2372 41.5818L72.9346 41.3514L73.0929 41.0053C73.3117 40.5324 78.5492 29.3948 87.1976 26.9443C87.5206 26.8398 87.8597 26.7844 88.1892 26.7844C89.9763 26.7844 91.5003 28.4302 92.266 31.1869C92.7588 32.9613 93.4714 36.4906 92.7048 40.1912C91.6623 45.2222 88.3333 48.6673 82.8102 50.4308L82.5355 50.5183ZM74.1119 41.0779C74.826 41.6921 77.003 43.661 82.7951 49.4392C94.3008 45.587 92.2603 34.7048 91.3533 31.4403C90.7084 29.1179 89.5255 27.7315 88.1893 27.7315C87.9586 27.7315 87.7174 27.7715 87.4723 27.8506C80.029 29.9599 75.0469 39.2184 74.1119 41.0779Z" fill="black"/>
<path d="M57.6148 46.0639C57.6148 46.0639 51.2446 35.2584 42.508 33.6992C40.2423 33.2104 38.8896 35.4192 38.4358 38.0386C37.9822 40.6583 36.4201 52.9461 49.388 55.7043C56.3046 47.2675 57.6148 46.0639 57.6148 46.0639Z" fill="#FCEAD9"/>
<path d="M49.5711 56.2275L49.2891 56.1676C43.6182 54.9614 39.9635 51.8639 38.4265 46.9612C37.2961 43.3553 37.6545 39.7725 37.9688 37.9578C38.4895 34.9519 39.9556 33.1573 41.8904 33.1573C42.1236 33.1573 42.3649 33.1839 42.6075 33.2362C51.44 34.8123 57.7578 45.3746 58.0224 45.8234L58.217 46.1535L57.9348 46.4127C57.8811 46.4627 56.512 47.7611 49.7538 56.0046L49.5711 56.2275ZM41.8904 34.1045C39.763 34.1045 39.0653 37.1776 38.9021 38.1194C38.324 41.4579 37.3749 52.4891 49.2057 55.1794C54.3952 48.8545 56.366 46.679 57.0157 45.9969C55.9008 44.2394 50.0253 35.522 42.4243 34.1654C42.2306 34.1239 42.0565 34.1045 41.8904 34.1045Z" fill="black"/>
<path d="M49.05 66.0256C49.05 66.0256 21.1117 83.2768 37.8748 103.596C41.5576 107.913 44.0972 106.39 46.2562 106.263C48.4153 106.136 52.9904 112.612 58.2589 109.438C63.5273 106.263 62.2576 100.421 54.0029 99.9132C57.3047 99.5321 68.0373 100.548 68.0373 100.548L49.05 66.0256Z" fill="#FCEAD9"/>
<path d="M55.2354 110.788C52.7464 110.788 50.5728 109.288 48.8263 108.083C47.8001 107.374 46.8393 106.7 46.2836 106.736C45.9194 106.757 45.5325 106.823 45.1229 106.893C44.5259 106.994 43.9087 107.099 43.2225 107.099C41.1881 107.099 39.3742 106.084 37.5142 103.903C33.0975 98.5497 31.3438 92.9167 32.2968 87.1548C33.3787 80.6138 37.8145 75.1043 41.3452 71.6341C45.1537 67.8908 48.7649 65.645 48.8009 65.6228L49.2246 65.3611L68.883 101.104L67.9923 101.02C67.9283 101.014 62.5507 100.508 58.2852 100.349C60.1545 101.13 61.3884 102.364 61.7711 103.926C62.2915 106.047 61.0392 108.315 58.5031 109.843C57.4626 110.47 56.3632 110.788 55.2354 110.788ZM46.3194 105.787C47.1683 105.787 48.1374 106.456 49.3643 107.303C51.0026 108.434 53.0415 109.841 55.2353 109.841C56.2019 109.841 57.1107 109.576 58.0141 109.032C60.1819 107.726 61.2689 105.855 60.8511 104.151C60.3379 102.058 57.7025 100.615 53.9733 100.386L53.9481 99.4428C54.4577 99.3839 55.1651 99.3542 56.0508 99.3542C59.5148 99.3542 65.0486 99.8083 67.1928 99.9967L48.8804 66.7007C46.5298 68.2681 35.0269 76.4399 33.2307 87.3128C32.3256 92.7914 34.0108 98.1685 38.2396 103.294C40.3999 105.827 42.0376 106.152 43.2224 106.152C43.8285 106.152 44.4055 106.054 44.9638 105.959C45.3998 105.885 45.8116 105.814 46.2279 105.79C46.2581 105.788 46.2887 105.787 46.3194 105.787Z" fill="black"/>
<path opacity="0.5" d="M51.5158 70.5103C49.0047 76.8545 51.221 87.5179 57.7146 97.4876C58.2603 98.3254 58.8231 99.137 59.3997 99.9221C63.486 100.118 68.0366 100.548 68.0366 100.548L51.5158 70.5103Z" fill="#F4D1C3"/>
<path d="M52.098 70.1976C52.098 70.1976 47.7802 75.5316 63.1464 109.057C62.1304 109.819 58.7016 114.137 63.1464 115.026C67.5913 115.915 74.3219 114.264 74.3219 112.359C74.3219 110.454 70.131 90.1353 70.131 90.1353C70.131 90.1353 74.0712 92.294 76.2285 90.0082C76.3536 92.9291 73.9411 105.501 77.2426 110.073C80.2905 111.978 89.3073 113.121 88.6719 109.565C88.0374 106.01 85.1165 103.977 85.1165 103.977C85.1165 103.977 91.2117 73.1175 85.4973 65.3709C79.7826 57.6242 52.098 70.1976 52.098 70.1976Z" fill="#FCEAD9"/>
<path d="M65.888 115.747C64.858 115.747 63.9042 115.66 63.053 115.49C61.2407 115.128 60.6701 114.213 60.5106 113.509C60.1366 111.86 61.6451 109.795 62.5667 108.93C56.3527 95.332 52.4898 84.3402 51.3911 77.1266C50.5429 71.5566 51.6053 70.0528 51.7293 69.8998L51.7997 69.8127L51.9016 69.7664C52.566 69.4647 68.2921 62.3755 78.4521 62.3755C82.0509 62.3755 84.5493 63.2888 85.8777 65.0898C91.4162 72.5978 86.2829 100.418 85.6371 103.778C86.3889 104.377 88.5804 106.359 89.1376 109.482C89.2519 110.121 89.1115 110.7 88.7317 111.153C87.9058 112.14 86.1213 112.347 84.7698 112.347C84.7696 112.347 84.7696 112.347 84.7694 112.347C82.0429 112.347 78.699 111.542 76.9911 110.475L76.9124 110.426L76.8582 110.351C74.2674 106.763 75.0147 98.8572 75.5093 93.626C75.6073 92.5901 75.692 91.693 75.7331 91.0004C75.1226 91.3536 74.4035 91.5319 73.5842 91.5319C72.5095 91.5319 71.4778 91.2207 70.7811 90.9486C71.605 94.9686 74.795 110.641 74.795 112.359C74.795 114.54 69.5285 115.747 65.888 115.747ZM52.4252 70.5699C52.2513 70.9248 51.6086 72.6357 52.3993 77.4366C53.2247 82.4477 55.8338 91.9672 63.5764 108.86L63.7356 109.207L63.4301 109.436C62.7177 109.97 61.1364 111.985 61.4343 113.299C61.5763 113.926 62.1835 114.35 63.2388 114.561C64.029 114.719 64.9203 114.799 65.8881 114.799C70.2051 114.799 73.8479 113.301 73.8479 112.359C73.8479 110.891 71.1128 97.2425 69.6667 90.231L69.4597 89.2279L70.358 89.72C70.3734 89.7283 71.9628 90.5847 73.5842 90.5847C74.5454 90.5847 75.3191 90.2813 75.8835 89.6832L76.6532 88.8677L76.7013 89.9879C76.7335 90.7416 76.6096 92.0538 76.4525 93.715C76.0038 98.4596 75.2554 106.376 77.5727 109.72C79.1509 110.666 82.2825 111.4 84.7696 111.4C86.3713 111.4 87.5509 111.089 88.0056 110.546C88.2052 110.307 88.2707 110.013 88.2054 109.648C87.6121 106.325 84.8732 104.385 84.8456 104.366L84.5915 104.189L84.6514 103.886C84.7121 103.579 90.6414 73.1429 85.1157 65.6521C83.9756 64.1066 81.7336 63.3229 78.4523 63.3229C68.9786 63.3227 53.9892 69.8743 52.4252 70.5699Z" fill="black"/>
<path d="M77.5176 40.1193C77.5176 40.1193 80.5739 33.511 85.5299 32.1067C86.8105 31.6938 87.7192 32.8915 88.1321 34.3784C88.5452 35.8652 90.1558 42.8723 82.8247 45.2131C78.3435 40.7389 77.5176 40.1193 77.5176 40.1193Z" fill="#E2BD9C"/>
<path d="M54.2211 45.4965C54.2211 45.4965 50.0723 38.4591 44.3823 37.4436C42.9066 37.1252 42.0257 38.5638 41.7302 40.2698C41.4348 41.976 40.4173 49.9789 48.8631 51.7753C53.3678 46.2805 54.2211 45.4965 54.2211 45.4965Z" fill="#E2BD9C"/>
<path d="M52.4268 67.359C52.4268 67.359 53.1618 75.231 56.2935 75.9566C59.4253 76.6824 61.9692 76.5009 63.1917 78.1337C64.4144 79.7665 72.4414 83.2938 72.4414 83.2938C72.4414 83.2938 75.9637 76.5917 76.3121 76.1381C76.6604 75.6846 78.8377 73.6711 80.0168 73.1812C81.1958 72.6912 84.643 70.1881 84.643 68.945C84.643 67.702 85.5362 61.8059 85.5362 61.8059L52.4268 67.359Z" fill="#E2BD9C"/>
<path d="M44.8058 57.8596C44.8058 57.8596 44.2257 71.8351 52.9885 73.486C61.7511 75.1372 61.3211 74.7014 61.3211 74.7014C61.3211 74.7014 71.6059 80.3007 76.6028 72.47C79.6506 71.7081 86.581 69.2933 88.359 66.3725C90.1368 63.4515 91.1617 57.8596 91.1617 57.8596C91.1617 46.7194 80.7848 37.6885 67.9838 37.6885C55.1828 37.6885 44.8058 46.7194 44.8058 57.8596Z" fill="#FCEAD9"/>
<path d="M68.8326 77.1142C65.2849 77.1142 62.094 75.6253 61.2861 75.2172C61.2069 75.2271 61.1369 75.2298 61.0782 75.227C60.1568 75.227 57.3291 74.786 52.9007 73.9515C49.1241 73.2399 46.4448 70.2039 45.1523 65.1715C44.2116 61.5092 44.3223 58.1021 44.3321 57.85C44.3385 46.4713 54.9461 37.2148 67.9837 37.2148C81.0252 37.2148 91.6352 46.4761 91.6352 57.8596L91.6274 57.945C91.5849 58.1768 90.5661 63.657 88.7635 66.6188C86.862 69.7421 79.7277 72.1503 76.8991 72.8833C75.0424 75.691 72.3297 77.1142 68.8326 77.1142ZM58.752 72.7677L61.5473 74.2855C61.5819 74.3042 65.0563 76.167 68.8327 76.167C72.0503 76.167 74.5302 74.8375 76.2035 72.2153L76.3049 72.0563L76.4878 72.0106C80.0835 71.1118 86.376 68.7194 87.9544 66.1263C89.5866 63.4445 90.59 58.3299 90.6881 57.8158C90.6607 46.9745 80.4862 38.162 67.9838 38.162C55.4645 38.162 45.2794 46.9983 45.2794 57.8596L45.279 57.8791C45.2735 58.0148 44.819 71.4649 53.0762 73.0207C57.0677 73.7728 59.1178 74.0857 60.1705 74.208L58.752 72.7677Z" fill="black"/>
<path d="M58.2579 63.8454C60.1165 63.8454 61.6232 62.3387 61.6232 60.4801C61.6232 58.6214 60.1165 57.1147 58.2579 57.1147C56.3993 57.1147 54.8926 58.6214 54.8926 60.4801C54.8926 62.3387 56.3993 63.8454 58.2579 63.8454Z" fill="black"/>
<path d="M78.3027 56.3711C78.3027 58.2297 76.7959 59.7364 74.9374 59.7364C73.0791 59.7364 71.5723 58.2297 71.5723 56.3711C71.5723 54.5126 73.0791 53.0059 74.9374 53.0059C76.7959 53.0059 78.3027 54.5126 78.3027 56.3711Z" fill="black"/>
<path d="M62.9551 69.7022C63.1989 69.8818 63.4481 70.051 63.6986 70.2162C63.9491 70.3809 64.2025 70.5395 64.4614 70.6863C64.7175 70.8369 64.9797 70.9751 65.2462 71.0986C65.5114 71.2235 65.7805 71.3371 66.0545 71.4224C66.3284 71.5061 66.6038 71.5743 66.8767 71.5974C67.1492 71.6219 67.4172 71.6021 67.6602 71.5269C67.9038 71.4551 68.1215 71.3231 68.3056 71.1446C68.4895 70.9643 68.6353 70.7379 68.7619 70.4951L68.9643 70.1071L69.2567 70.4214C69.4299 70.6075 69.6209 70.7702 69.8282 70.8802C70.0356 70.9906 70.2559 71.0469 70.4838 71.0424C70.7117 71.0374 70.9462 70.9672 71.1702 70.8543C71.3936 70.7405 71.6131 70.5952 71.8171 70.4243C72.0225 70.2547 72.2148 70.0643 72.4044 69.8674C72.5933 69.6698 72.7711 69.4595 72.9476 69.2461C73.1256 69.0338 73.2935 68.8118 73.4667 68.592C73.6395 68.3724 73.8053 68.1435 74.0016 67.9402C73.9254 68.058 73.8636 68.1835 73.7992 68.3082L73.6029 68.6804C73.4723 68.9292 73.3295 69.1722 73.1828 69.4142C73.0344 69.6555 72.8723 69.8888 72.7001 70.1181C72.5291 70.3481 72.3377 70.5647 72.1283 70.77C71.9178 70.9732 71.6886 71.1682 71.4194 71.3189C71.153 71.4702 70.8457 71.5855 70.5138 71.6102C70.1827 71.6391 69.8404 71.5588 69.5543 71.4083C69.2647 71.2604 69.0235 71.0566 68.8129 70.8379L69.3078 70.7643C69.2333 70.9105 69.1563 71.0574 69.0568 71.1936C68.9584 71.3302 68.8491 71.4618 68.7238 71.5806C68.4728 71.8179 68.1579 72.0014 67.8214 72.0933C67.4843 72.1862 67.1382 72.1848 66.8139 72.1407C66.4882 72.0956 66.1785 72.0051 65.8869 71.8839C65.301 71.6463 64.7766 71.3138 64.2888 70.945C63.8062 70.5692 63.3513 70.1625 62.9551 69.7022Z" fill="black"/>
<path d="M70.8914 66.0266C71.1528 67.2257 68.5738 68.8075 68.5738 68.8075C68.5738 68.8075 65.57 68.4449 65.308 67.2454C65.0463 66.0464 66.0838 64.8015 67.6254 64.4648C69.1675 64.1283 70.6293 64.8276 70.8914 66.0266Z" fill="black"/>
<path d="M15.3216 95.4298C14.5343 95.5296 13.7988 95.7939 13.1289 96.1913C13.2725 97.3856 13.547 98.6948 13.9734 100.131C16.413 106.725 19.2379 106.849 19.2379 106.849C19.2379 106.849 19.5183 102.103 21.608 98.5676C20.0087 96.3872 17.7053 95.1281 15.3216 95.4298Z" fill="#E2BD9C"/>
<path d="M61.2749 105.791L60.8976 105.758C60.9406 105.258 59.6239 104.778 58.9795 104.624L59.0675 104.255C59.3022 104.311 61.3576 104.831 61.2749 105.791Z" fill="black"/>
<path d="M60.1885 108.135L59.9217 107.866C59.9841 107.66 59.1356 106.731 58.1387 105.922L58.3775 105.627C58.6926 105.883 60.266 107.192 60.2981 107.837C60.3056 107.986 60.2426 108.082 60.1885 108.135Z" fill="black"/>
<path d="M60.9513 113.875C60.7653 113.683 60.7641 113.483 60.7959 113.35C61.0032 112.48 63.4476 111.589 63.9355 111.419L64.06 111.777C63.0061 112.144 61.288 112.919 61.1645 113.438C61.1538 113.483 61.1525 113.538 61.2237 113.612L60.9513 113.875Z" fill="black"/>
<path d="M62.9561 115.026C62.9532 114.258 65.1013 113.373 65.7597 113.12L65.8955 113.474C64.658 113.949 63.3336 114.686 63.3349 115.025L62.9561 115.026Z" fill="black"/>
<path d="M88.5694 109.397C88.0213 109.31 86.5 109.136 86.0488 109.377L85.8701 109.043C86.515 108.698 88.4146 108.989 88.6292 109.023L88.5694 109.397Z" fill="black"/>
<path d="M86.445 105.272L86.2666 104.937L85.0148 105.605L85.1931 105.939L86.445 105.272Z" fill="black"/>
<path d="M67.9828 38.3582C55.7572 38.3582 45.8464 46.9834 45.8464 57.6231C45.8464 57.6231 45.5925 62.9274 48.0376 66.8347C50.1344 65.8392 54.3124 66.6219 54.9884 64.048C55.3517 62.6646 53.2767 61.5635 52.8731 59.9253C51.8655 55.8333 53.4495 51.9247 56.4113 51.1953C59.3729 50.466 61.8701 53.4404 63.5988 57.2841C66.2876 63.2624 69.6983 58.6755 69.6581 55.6983C69.7 51.4843 72.2071 48.0926 75.2567 48.1228C78.3071 48.1534 80.7458 51.5941 80.704 55.8084C80.6914 57.0636 79.4025 58.3854 80.0598 59.2854C82.0851 62.0584 86.7508 59.0931 89.7636 59.2847C90.027 58.2922 90.1197 57.6231 90.1197 57.6231C90.1198 46.9834 80.2089 38.3582 67.9828 38.3582Z" fill="#E2BD9C"/>
<path d="M100.28 104.2C100.28 104.932 100.399 105.637 100.617 106.297C102.808 106.894 105.097 105.659 105.787 103.474C106.426 101.451 105.474 99.306 103.633 98.3884C101.629 99.55 100.28 101.717 100.28 104.2Z" fill="#D5DD23"/>
<path d="M110.381 104.925C109.885 106.497 110.349 108.141 111.443 109.227C112.833 107.997 113.709 106.201 113.709 104.2C113.709 103.462 113.588 102.754 113.369 102.09C112 102.446 110.839 103.477 110.381 104.925Z" fill="#D5DD23"/>
<path d="M109.57 104.669C110.107 102.968 111.453 101.747 113.05 101.295C111.966 99.0413 109.662 97.4854 106.995 97.4854C106.135 97.4854 105.313 97.6485 104.557 97.9436C106.404 99.1703 107.299 101.511 106.598 103.731C105.835 106.147 103.44 107.595 101.012 107.247C102.122 109.423 104.383 110.915 106.995 110.915C108.393 110.915 109.692 110.486 110.767 109.755C109.509 108.451 108.986 106.518 109.57 104.669Z" fill="#D5DD23"/>
<path d="M106.598 103.731C107.299 101.511 106.404 99.1704 104.557 97.9436C104.236 98.0685 103.927 98.2174 103.632 98.3885C105.473 99.3061 106.426 101.451 105.787 103.474C105.097 105.659 102.807 106.894 100.616 106.297C100.724 106.626 100.857 106.943 101.012 107.247C103.44 107.595 105.835 106.147 106.598 103.731Z" fill="white"/>
<path d="M110.381 104.925C110.839 103.477 112 102.446 113.37 102.089C113.279 101.817 113.173 101.551 113.05 101.295C111.453 101.747 110.107 102.968 109.57 104.669C108.986 106.518 109.51 108.451 110.768 109.755C111.004 109.593 111.23 109.416 111.444 109.227C110.349 108.141 109.885 106.497 110.381 104.925Z" fill="white"/>
<path d="M59.2641 62.68C59.9239 62.68 60.4588 62.1451 60.4588 61.4853C60.4588 60.8254 59.9239 60.2905 59.2641 60.2905C58.6042 60.2905 58.0693 60.8254 58.0693 61.4853C58.0693 62.1451 58.6042 62.68 59.2641 62.68Z" fill="white"/>
<path d="M75.4755 57.4807C75.4755 58.1405 74.9407 58.6754 74.2806 58.6754C73.6209 58.6754 73.0859 58.1405 73.0859 57.4807C73.0859 56.8208 73.6209 56.2859 74.2806 56.2859C74.9407 56.2859 75.4755 56.8208 75.4755 57.4807Z" fill="white"/>
<path d="M51.4148 107.021C51.4148 103.49 48.5148 100.628 44.9377 100.628C42.3836 100.628 40.1757 102.087 39.1211 104.207C42.1484 106.988 44.342 105.784 46.236 105.672C47.3395 105.607 49.0873 107.302 51.2393 108.498C51.3529 108.024 51.4148 107.53 51.4148 107.021Z" fill="#E2BD9C"/>
</g>
<defs>
<clipPath id="clip0_512_812">
<rect width="142" height="114" fill="white"/>
</clipPath>
</defs>
</svg>
