<svg width="147" height="115" viewBox="0 0 147 115" fill="none" xmlns="http://www.w3.org/2000/svg">
<path d="M51.9468 95.0071C68.042 95.0071 81.0898 93.2595 81.0898 91.1038C81.0898 88.948 68.042 87.2004 51.9468 87.2004C35.8515 87.2004 22.8037 88.948 22.8037 91.1038C22.8037 93.2595 35.8515 95.0071 51.9468 95.0071Z" fill="black" fill-opacity="0.35"/>
<path d="M159.909 94.2263C176.482 94.2263 189.917 92.4788 189.917 90.323C189.917 88.1673 176.482 86.4197 159.909 86.4197C143.336 86.4197 129.901 88.1673 129.901 90.323C129.901 92.4788 143.336 94.2263 159.909 94.2263Z" fill="#F7ADAF"/>
<path fill-rule="evenodd" clip-rule="evenodd" d="M144.131 70.7692C144.059 64.3752 132.279 57.312 132.747 44.5611C133.324 28.13 146.832 26.6802 142.942 22.6653C140.24 19.8772 127.38 28.2415 126.947 48.2786C126.695 59.9142 142.185 69.2822 142.293 75.2674C142.401 81.2525 144.167 70.509 144.131 70.7692Z" fill="#542E2D"/>
<path fill-rule="evenodd" clip-rule="evenodd" d="M143.734 70.9922C143.662 64.5982 131.667 57.0146 132.135 44.2637C132.711 27.7953 146.076 26.6429 142.798 23.3344C140.024 20.5463 128.028 28.2786 127.596 48.3157C127.344 59.9514 142.474 68.5015 142.618 74.4866C142.726 80.5089 143.77 70.732 143.734 70.9922Z" fill="#F9AE76"/>
<path fill-rule="evenodd" clip-rule="evenodd" d="M139.845 62.9996C140.565 65.3788 141.178 68.3528 140.637 70.1372C141.43 71.2152 142.042 72.2561 142.366 73.2226C142.402 73.1483 142.438 73.1111 142.474 73.0739C142.655 72.7394 143.087 70.9178 143.447 69.245C142.871 67.3119 141.466 65.2673 139.845 62.9996Z" fill="#E08B49"/>
<path fill-rule="evenodd" clip-rule="evenodd" d="M191.718 58.2042L187.503 63.3714C186.675 66.1967 185.774 68.5387 182.82 70.6948C183.541 69.4309 183.541 68.6874 183.505 67.7209C181.559 71.8844 180.082 72.9625 177.489 74.0405L174.427 84.2264C172.121 87.0145 169.347 88.0554 166.285 87.9438L139.916 86.3825C139.484 68.1298 143.014 60.3603 150.507 55.3789L187.719 55.7507C187.719 55.7507 191.934 58.0927 191.718 58.2042Z" fill="#542E2D"/>
<path fill-rule="evenodd" clip-rule="evenodd" d="M40.3466 55.6763C42.0758 53.5573 43.5527 51.2153 44.7055 48.5016L55.0803 55.1558L49.4966 59.654C49.4966 59.654 40.2386 55.6763 40.3466 55.6763Z" fill="#A9373C"/>
<path fill-rule="evenodd" clip-rule="evenodd" d="M40.9589 55.8993C42.6881 53.7804 44.165 51.4012 45.3178 48.7246L55.7286 55.3789L50.1089 59.877C50.1089 59.877 40.8509 55.8993 40.9589 55.8993Z" fill="#F7ADAF"/>
<path d="M63.6184 60.1744C76.9084 60.1744 87.6821 49.0565 87.6821 35.3418C87.6821 21.6271 76.9084 10.5092 63.6184 10.5092C50.3284 10.5092 39.5547 21.6271 39.5547 35.3418C39.5547 49.0565 50.3284 60.1744 63.6184 60.1744Z" fill="#542E2D"/>
<path d="M63.6174 59.5054C76.5494 59.5054 87.0327 48.6871 87.0327 35.3419C87.0327 21.9968 76.5494 11.1785 63.6174 11.1785C50.6855 11.1785 40.2021 21.9968 40.2021 35.3419C40.2021 48.6871 50.6855 59.5054 63.6174 59.5054Z" fill="#A9373C"/>
<path fill-rule="evenodd" clip-rule="evenodd" d="M55.4418 12.6652C55.5499 12.7024 55.658 13.1113 55.766 13.1113C63.5471 10.8809 74.8585 11.9217 82.4955 22.2934C82.6036 22.4421 82.7837 22.1448 82.9278 22.2563C82.8918 22.405 82.8918 23.1113 82.8557 23.2972C82.6756 23.1856 82.5315 22.7395 82.4235 22.628C73.8138 11.6243 62.3583 11.8102 55.5499 13.4459C55.4058 13.4831 54.7574 13.7061 54.6133 13.6318C54.6133 13.6318 54.7934 12.8139 55.4418 12.6652Z" fill="#542E2D"/>
<path fill-rule="evenodd" clip-rule="evenodd" d="M55.0815 14.2266C55.1895 14.2638 55.2976 14.6727 55.3697 14.6727C63.1507 12.4423 74.4982 13.4831 82.1352 23.8548C82.2432 24.0035 82.4233 23.7062 82.5674 23.7805C82.5314 23.9664 82.5314 24.6727 82.4954 24.8214C82.3153 24.747 82.1712 24.3009 82.0631 24.1522C73.4535 13.1857 61.962 13.3716 55.1895 15.0073C55.0454 15.0445 54.397 15.2675 54.2529 15.1932C54.2529 15.1932 54.433 14.3382 55.0815 14.2266Z" fill="#542E2D"/>
<path fill-rule="evenodd" clip-rule="evenodd" d="M54.7201 15.9739C54.7922 16.0111 54.9363 16.42 55.0083 16.3828C62.7894 14.1895 74.1368 15.1932 81.7738 25.6021C81.8819 25.7508 82.062 25.4534 82.2061 25.5278C82.1701 25.7137 82.1701 26.42 82.098 26.5687C81.9539 26.4943 81.8098 26.0482 81.6658 25.8995C73.0922 14.8959 61.6006 15.1189 54.8282 16.7546C54.6841 16.7918 54.0357 17.0148 53.8916 16.9405C53.8916 16.9405 54.0717 16.0854 54.7201 15.9739Z" fill="#542E2D"/>
<path fill-rule="evenodd" clip-rule="evenodd" d="M53.9642 17.4236C54.0362 17.4608 54.1443 17.8697 54.2524 17.8697C62.0334 15.6393 73.3809 16.6801 80.9818 27.089C81.0899 27.2006 81.306 26.9403 81.4501 27.0147C81.3781 27.1634 81.3781 27.8697 81.3421 28.0556C81.198 27.944 81.0179 27.5351 80.9098 27.3864C72.3002 16.3828 60.8447 16.6058 54.0722 18.2043C53.8921 18.2415 53.2437 18.4645 53.0996 18.3902C53.0996 18.3902 53.2797 17.5723 53.9642 17.4236Z" fill="#542E2D"/>
<path fill-rule="evenodd" clip-rule="evenodd" d="M53.1341 18.762C53.2061 18.7992 53.3142 19.2081 53.4223 19.1709C61.2034 16.9776 72.5508 17.9813 80.1878 28.3902C80.2598 28.5389 80.476 28.2415 80.6201 28.3159C80.548 28.5017 80.584 29.2081 80.512 29.3568C80.3679 29.2824 80.1878 28.8363 80.0797 28.6876C71.4701 17.6839 60.0146 17.907 53.2422 19.5427C53.0981 19.5798 52.4136 19.8029 52.2695 19.6914C52.2695 19.6914 52.4496 18.8735 53.1341 18.762Z" fill="#542E2D"/>
<path fill-rule="evenodd" clip-rule="evenodd" d="M54.1796 12.8884C63.942 19.4312 74.2807 24.1152 85.412 26.1226C86.4207 28.985 86.997 32.5166 86.997 35.5278C86.997 38.5389 86.0964 41.7731 85.3399 44.2266C71.2547 39.2824 57.5658 32.2936 44.165 23.5575C46.3985 19.394 50.217 15.0074 54.1796 12.8884Z" fill="#542E2D" stroke="#A9373C" stroke-width="0.9"/>
<path fill-rule="evenodd" clip-rule="evenodd" d="M53.9274 13.7433C63.6538 20.286 73.9925 24.97 85.1238 26.9774C86.1685 29.8399 86.997 32.5165 86.997 35.5276C86.997 38.5387 86.0964 41.7729 85.3399 44.2264C71.2547 39.2822 57.5658 32.2934 44.165 23.5574C46.3985 19.3938 49.9648 15.8622 53.9274 13.7433Z" fill="#A9373C" stroke="#A9373C" stroke-width="0.9"/>
<path fill-rule="evenodd" clip-rule="evenodd" d="M44.6689 50.1001C44.6689 50.0258 44.9211 49.7284 44.8491 49.6169C39.7697 39.7284 40.7784 30.7693 45.1012 21.8846C45.1733 21.7359 44.8491 21.6987 44.8491 21.5129C44.9932 21.4757 45.5695 21.1039 45.7497 21.0668C45.7497 21.2526 45.4975 21.6244 45.4254 21.8103C40.8865 32.3678 41.1386 41.2154 45.2453 49.6169C45.3174 49.7656 45.8937 50.2116 45.8937 50.3603C45.8937 50.3603 45.1012 50.6206 44.6689 50.1001Z" fill="#542E2D"/>
<path fill-rule="evenodd" clip-rule="evenodd" d="M46.471 49.6168C46.471 49.5425 46.7232 49.2451 46.6872 49.1707C41.824 39.7284 42.7606 31.1782 46.9033 22.7024C46.9754 22.5537 46.6512 22.5165 46.6512 22.3678C46.7953 22.3307 47.3716 21.9589 47.5157 21.9218C47.5157 22.1076 47.2636 22.4794 47.1915 22.6281C42.8687 32.7396 43.1209 41.141 47.0474 49.1707C47.1195 49.2822 47.6598 49.7283 47.6598 49.877C47.6598 49.877 46.9033 50.1373 46.471 49.6168Z" fill="#542E2D"/>
<path fill-rule="evenodd" clip-rule="evenodd" d="M48.307 49.9143C48.307 49.84 48.5591 49.5426 48.5231 49.4682C43.6599 40.0259 44.5966 31.4385 48.7393 22.9627C48.8113 22.814 48.4871 22.814 48.4871 22.6282C48.6312 22.591 49.1715 22.2564 49.3517 22.2192C49.3517 22.3679 49.0995 22.7397 49.0274 22.8884C44.7046 32.9999 44.9568 41.4013 48.8834 49.431C48.9554 49.5797 49.4597 49.9887 49.4958 50.1374C49.4958 50.1374 48.7393 50.3976 48.307 49.9143Z" fill="#542E2D"/>
<path fill-rule="evenodd" clip-rule="evenodd" d="M50.2164 50.4719C50.2164 50.3976 50.4686 50.1002 50.3965 50.0258C45.5333 40.5835 46.506 31.9962 50.6487 23.5203C50.7207 23.4088 50.3965 23.3716 50.3965 23.1858C50.5406 23.1486 51.081 22.814 51.2611 22.7769C51.2611 22.9256 51.0089 23.2973 50.9369 23.446C46.614 33.5575 46.8662 41.9589 50.7568 49.9887C50.8288 50.1374 51.3692 50.5463 51.3692 50.695C51.3692 50.695 50.6487 50.9552 50.2164 50.4719Z" fill="#542E2D"/>
<path fill-rule="evenodd" clip-rule="evenodd" d="M52.307 50.6205C52.307 50.509 52.5591 50.2487 52.5231 50.1372C47.6599 40.732 48.5966 32.1447 52.7393 23.6689C52.8113 23.5202 52.4871 23.483 52.4871 23.3343C52.6312 23.2972 53.2076 22.9626 53.3517 22.9254C53.3517 23.0741 53.0995 23.4459 53.0274 23.5946C48.7046 33.706 48.9568 42.1075 52.8834 50.1372C52.9554 50.2859 53.4958 50.6948 53.4958 50.8435C53.4958 50.8435 52.7393 51.1038 52.307 50.6205Z" fill="#542E2D"/>
<path fill-rule="evenodd" clip-rule="evenodd" d="M54.4312 51.2526C54.4312 51.141 54.6474 50.8808 54.6114 50.7693C49.7482 41.3641 50.7208 32.7768 54.8635 24.301C54.9356 24.1523 54.6114 24.1151 54.5753 23.9664C54.7555 23.9292 55.2958 23.5947 55.4399 23.5575C55.4759 23.7062 55.2238 24.0779 55.1517 24.2266C50.8289 34.3381 51.0811 42.7396 54.9716 50.7693C55.0436 50.918 55.584 51.3269 55.584 51.4756C55.584 51.4756 54.8635 51.7358 54.4312 51.2526Z" fill="#542E2D"/>
<path fill-rule="evenodd" clip-rule="evenodd" d="M84.6916 28.6504C84.5835 28.6133 84.4754 28.2043 84.4034 28.2043C73.9566 26.1597 62.393 23.1486 57.1696 15.6022C57.0975 15.4906 56.8814 15.7509 56.7373 15.6765C56.8094 15.4906 56.8094 14.8215 56.8814 14.6356C57.0255 14.7471 57.1696 15.1932 57.2777 15.3048C63.978 23.6319 75.9739 25.7136 84.5835 27.8698C84.7276 27.9069 85.412 27.6467 85.5561 27.7211C85.5561 27.7211 85.34 28.5389 84.6916 28.6504Z" fill="#542E2D"/>
<path fill-rule="evenodd" clip-rule="evenodd" d="M84.6206 29.6913C84.5485 29.6541 84.4405 29.3567 84.3684 29.3567C75.7228 28.4645 66.1045 26.866 61.3134 21.104C61.2053 21.0296 61.0612 21.2527 60.9531 21.1783C60.9891 21.0668 60.9531 20.472 60.9891 20.3605C61.1332 20.3976 61.2773 20.7694 61.3494 20.8809C67.4013 27.1262 77.3078 27.9441 84.5125 29.0593C84.6206 29.0593 85.1609 28.7991 85.269 28.8735C85.269 28.8735 85.1609 29.5426 84.6206 29.6913Z" fill="#542E2D"/>
<path fill-rule="evenodd" clip-rule="evenodd" d="M82.5306 31.1782C82.4586 31.1782 82.3145 30.8808 82.2424 30.8437C73.5968 29.9886 63.9785 28.3901 59.1874 22.6281C59.1153 22.5166 58.9712 22.7768 58.8271 22.7024C58.8632 22.5537 58.8271 21.9961 58.8632 21.8474C59.0073 21.9218 59.1514 22.2935 59.2594 22.3679C65.3114 28.6504 75.2179 29.4682 82.3865 30.5834C82.5306 30.5834 83.035 30.3232 83.143 30.3604C83.143 30.3604 83.071 31.0667 82.5306 31.1782Z" fill="#542E2D"/>
<path fill-rule="evenodd" clip-rule="evenodd" d="M81.0893 32.814C81.0173 32.7768 80.9092 32.4794 80.8372 32.4794C72.1915 31.5872 62.5732 29.9887 57.7821 24.2638C57.674 24.1523 57.5299 24.3753 57.4219 24.3382C57.4579 24.1895 57.4219 23.6319 57.4579 23.4832C57.602 23.5575 57.7461 23.8921 57.8542 24.0036C63.8701 30.2489 73.8126 31.0668 80.9813 32.182C81.0893 32.2192 81.6297 31.9218 81.7378 31.9961C81.7378 31.9961 81.6297 32.6653 81.0893 32.814Z" fill="#542E2D"/>
<path fill-rule="evenodd" clip-rule="evenodd" d="M80.1528 34.5241C80.0808 34.4869 79.9727 34.1895 79.9007 34.1895C71.255 33.3345 61.6367 31.736 56.8456 25.9739C56.7735 25.8624 56.6294 26.1226 56.4854 26.0483C56.5214 25.8996 56.4854 25.3419 56.5214 25.1932C56.6655 25.2676 56.8096 25.6022 56.9176 25.7137C62.9336 31.959 72.8761 32.7769 80.0447 33.8921C80.1528 33.9293 80.6932 33.669 80.8012 33.7062C80.8012 33.7062 80.6932 34.3754 80.1528 34.5241Z" fill="#542E2D"/>
<path fill-rule="evenodd" clip-rule="evenodd" d="M79.0005 36.234C78.9284 36.234 78.8204 35.8994 78.7483 35.8994C70.0666 35.0444 60.4484 33.4459 55.6572 27.6839C55.5852 27.5723 55.4411 27.8326 55.333 27.7582C55.369 27.6095 55.333 27.0519 55.333 26.9032C55.4771 26.9775 55.6212 27.3493 55.7293 27.4236C61.7812 33.7061 71.6877 34.524 78.8564 35.6392C79.0005 35.6392 79.5048 35.379 79.6489 35.4162C79.6489 35.4162 79.5408 36.1225 79.0005 36.234Z" fill="#542E2D"/>
<path fill-rule="evenodd" clip-rule="evenodd" d="M78.0991 38.0183C78.0271 37.9811 77.919 37.6838 77.8469 37.6838C69.2013 36.7916 59.583 35.1931 54.7919 29.4682C54.7198 29.3566 54.5397 29.5797 54.4316 29.5425C54.4677 29.3938 54.4316 28.8362 54.4677 28.6875C54.6118 28.7618 54.7559 29.0964 54.8639 29.2079C60.8799 35.4533 70.8224 36.2711 77.991 37.3864C78.0991 37.4235 78.6395 37.1261 78.7475 37.2005C78.7475 37.2005 78.6395 37.8696 78.0991 38.0183Z" fill="#542E2D"/>
<path fill-rule="evenodd" clip-rule="evenodd" d="M56.5218 51.6614C56.5218 51.587 56.774 51.2896 56.738 51.2153C51.8748 41.7729 52.8114 33.1856 56.9541 24.7098C57.0262 24.5983 56.7019 24.5611 56.7019 24.3752C56.846 24.3381 57.3864 24.0035 57.5665 23.9663C57.5665 24.1522 57.3143 24.4868 57.2423 24.6355C52.9195 34.7469 53.1716 43.1484 57.0982 51.1781C57.1702 51.3268 57.6746 51.7357 57.7106 51.8844C57.7106 51.8844 56.9541 52.1446 56.5218 51.6614Z" fill="#542E2D"/>
<path fill-rule="evenodd" clip-rule="evenodd" d="M58.8998 52.4423C58.8998 52.3307 59.1519 52.0705 59.1159 51.959C54.2527 42.5538 55.1893 33.9665 59.332 25.4907C59.4041 25.342 59.0799 25.3048 59.0799 25.1561C59.224 25.1189 59.7643 24.7844 59.9444 24.7472C59.9444 24.8959 59.6923 25.2676 59.6202 25.4163C55.2974 35.5278 55.5496 43.9293 59.4761 51.959C59.5122 52.1077 60.0525 52.5166 60.0885 52.6653C60.0885 52.6653 59.332 52.9255 58.8998 52.4423Z" fill="#542E2D"/>
<path fill-rule="evenodd" clip-rule="evenodd" d="M60.3404 51.1038C60.3044 51.0294 60.5566 50.732 60.5205 50.6577C55.6574 41.2153 56.63 32.628 60.7727 24.1522C60.8448 24.0035 60.4845 24.0035 60.4845 23.8176C60.6646 23.7804 61.205 23.4459 61.3491 23.4087C61.3851 23.5574 61.0969 23.9291 61.0609 24.0778C56.7381 34.1893 56.9902 42.5908 60.8808 50.6205C60.9528 50.7692 61.4932 51.1781 61.4932 51.3268C61.4932 51.3268 60.7727 51.587 60.3404 51.1038Z" fill="#542E2D"/>
<path fill-rule="evenodd" clip-rule="evenodd" d="M42.076 45.8622C58.4307 46.1225 73.6326 40.8437 86.8893 32.9626C86.9614 33.7433 86.9974 34.524 86.9974 35.3418C86.9974 48.6875 74.7133 59.5053 63.6181 59.5053C52.5949 59.5053 45.4262 54.0778 41.6077 46.1225C41.4636 45.8251 41.968 45.7507 42.076 45.8622Z" fill="#542E2D"/>
<path fill-rule="evenodd" clip-rule="evenodd" d="M42.6885 46.3825C59.2953 46.7543 73.4526 40.8435 86.8894 32.851C86.9614 33.6316 86.9974 28.1298 86.9974 35.2302C86.9974 42.3677 74.7494 60.1371 63.8703 59.6167C52.9912 59.0962 46.7952 54.4494 42.6885 46.3825Z" fill="#A9373C" stroke="#A9373C" stroke-width="0.9"/>
<path fill-rule="evenodd" clip-rule="evenodd" d="M85.3756 34.1149C85.2315 34.1521 84.6912 33.8919 84.5831 33.9662C71.8308 44.6353 58.7542 49.0591 44.2007 48.1669C43.9485 48.1669 44.0566 48.6874 43.8044 48.7617C43.6604 48.5387 42.9039 47.7952 42.7598 47.5349C43.0119 47.4234 43.6964 47.758 43.9846 47.758C61.2038 47.9067 73.4878 41.8101 84.403 33.4086C84.5831 33.2227 84.9794 32.1447 85.2315 32.0703C85.2315 32.0703 85.952 33.1856 85.3756 34.1149Z" fill="#542E2D"/>
<path fill-rule="evenodd" clip-rule="evenodd" d="M86.7448 35.9738C86.6007 36.011 86.0243 35.7508 85.9162 35.8623C73.1639 46.4942 60.1234 50.9552 45.5698 50.063C45.3177 50.0258 45.4258 50.5462 45.1736 50.6578C45.0295 50.3975 44.237 49.6541 44.1289 49.3938C44.3811 49.3195 45.0655 49.6169 45.3177 49.6169C62.573 49.7656 74.821 43.6689 85.7361 35.2675C85.9522 35.1188 86.3485 34.0035 86.5646 33.9292C86.5646 33.9292 87.3211 35.0444 86.7448 35.9738Z" fill="#542E2D"/>
<path fill-rule="evenodd" clip-rule="evenodd" d="M87.2499 38.3158C87.1058 38.3901 86.5654 38.0927 86.4573 38.2043C73.9212 48.6875 61.0968 53.0369 46.7954 52.1447C46.5433 52.1447 46.6153 52.6652 46.3992 52.7395C46.2551 52.4793 45.4986 51.773 45.3545 51.5128C45.6067 51.4384 46.2911 51.7358 46.5433 51.7358C63.5104 51.8845 75.5782 45.8994 86.2772 37.6095C86.4934 37.4608 86.8896 36.3827 87.1058 36.3083C87.1058 36.3083 87.8262 37.4236 87.2499 38.3158Z" fill="#542E2D"/>
<path fill-rule="evenodd" clip-rule="evenodd" d="M85.0525 41.4755C84.9444 41.5127 84.4401 41.2897 84.368 41.364C73.0566 50.8064 61.4571 54.7469 48.5606 53.9662C48.3445 53.9662 48.4165 54.4123 48.2004 54.4866C48.0923 54.2636 47.4079 53.5945 47.2998 53.3714C47.5159 53.2971 48.0923 53.5573 48.3445 53.5945C63.6545 53.7432 74.5336 48.3157 84.1879 40.8436C84.368 40.7321 84.7283 39.7655 84.9444 39.6912C84.9444 39.6912 85.5928 40.6577 85.0525 41.4755Z" fill="#542E2D"/>
<path fill-rule="evenodd" clip-rule="evenodd" d="M84.8359 43.9291C84.7279 43.9663 84.2596 43.7432 84.1515 43.8176C73.5606 52.6651 62.7175 56.3826 50.6496 55.6391C50.4335 55.6019 50.5055 55.8249 50.2894 55.8993C50.1813 55.7134 49.5329 55.3045 49.4248 55.0815C49.6409 55.0071 50.2173 55.2673 50.4335 55.2673C64.7708 55.416 74.9655 50.3231 84.0074 43.3343C84.1875 43.2228 84.5117 42.3306 84.6918 42.2562C84.6918 42.2562 85.3042 43.1484 84.8359 43.9291Z" fill="#542E2D"/>
<path fill-rule="evenodd" clip-rule="evenodd" d="M84.4745 46.7544C84.3664 46.7916 83.9701 46.5685 83.8621 46.6429C74.3158 54.6354 64.4814 57.9811 53.5663 57.312C53.3862 57.312 53.4582 57.6837 53.2781 57.7581C53.17 57.5722 52.3415 57.0517 52.2334 56.8659C52.4135 56.7915 53.17 56.9774 53.3862 56.9774C66.3186 57.1261 75.5406 52.5164 83.754 46.1968C83.8981 46.0852 84.1863 45.2674 84.3664 45.2302C84.3664 45.2302 84.9067 46.0481 84.4745 46.7544Z" fill="#542E2D"/>
<path fill-rule="evenodd" clip-rule="evenodd" d="M82.5305 20.063C77.6313 37.8324 68.7335 49.7655 54.2881 58.0182C53.9639 57.6465 53.9639 58.6874 53.9639 58.8361C56.5936 59.8026 56.3414 59.877 62.2853 60.5089C67.1125 61.0294 73.9209 59.5796 78.8561 55.1186C85.0882 49.4681 88.0421 41.8845 88.0061 34.8956C88.0061 26.7172 83.9715 21.7358 83.1429 19.8399C82.9268 19.7656 82.5305 20.063 82.5305 20.063Z" fill="#542E2D"/>
<path fill-rule="evenodd" clip-rule="evenodd" d="M82.7825 21.2155C78.2075 37.9441 69.5979 50.695 55.8369 58.3529C55.8369 58.3529 55.8369 58.4273 55.8369 58.5016C58.2865 59.3938 60.9523 59.8771 63.69 59.8771C76.7666 59.8771 87.3215 48.9849 87.3215 35.4905C87.3215 30.1374 85.6644 25.2304 82.8546 21.2155C82.8185 21.1783 82.7825 21.1783 82.7825 21.2155Z" fill="#A9373C" stroke="#A9373C" stroke-width="0.9"/>
<path fill-rule="evenodd" clip-rule="evenodd" d="M84.9794 23.5575C84.8714 23.669 84.259 23.7805 84.2229 23.8921C79.4678 40.1002 71.0383 51.3269 58.5021 59.022C58.286 59.1336 58.6462 59.5053 58.5021 59.7284C58.25 59.6168 57.2053 59.431 56.9531 59.3194C57.1332 59.0964 57.8537 58.9477 58.0699 58.799C72.4432 48.9477 79.2877 36.7916 83.7546 23.5203C83.8267 23.2973 83.5745 22.1449 83.7186 21.959C83.7186 21.959 84.9434 22.4423 84.9794 23.5575Z" fill="#542E2D"/>
<path fill-rule="evenodd" clip-rule="evenodd" d="M86.2401 26.0852C86.1681 26.1967 85.5917 26.3082 85.5557 26.4198C81.0527 41.7357 73.0915 52.3305 61.2758 59.5795C61.0597 59.691 61.4199 60.0628 61.2758 60.2486C61.0236 60.1371 60.051 59.9884 59.7988 59.8397C59.9789 59.6538 60.6634 59.5051 60.8795 59.3564C74.4244 50.1 80.9086 38.613 85.1234 26.048C85.1954 25.825 84.9433 24.7841 85.0874 24.561C85.0874 24.561 86.2401 25.0443 86.2401 26.0852Z" fill="#542E2D"/>
<path fill-rule="evenodd" clip-rule="evenodd" d="M87.1769 29.7656C87.1049 29.84 86.6005 29.9143 86.5645 30.063C82.4938 43.8176 75.3612 53.3343 64.6982 59.8399C64.5181 59.9514 64.8423 60.286 64.6982 60.4719C64.4821 60.3603 63.6175 60.2116 63.4014 60.1001C63.5455 59.9142 64.1579 59.8027 64.338 59.654C76.55 51.3269 82.3497 40.9924 86.1322 29.7285C86.2043 29.5426 86.2043 28.2043 86.3123 28.0184C86.3123 28.0184 87.1409 28.7991 87.1769 29.7656Z" fill="#542E2D"/>
<path fill-rule="evenodd" clip-rule="evenodd" d="M87.7901 33.2228C87.7181 33.2972 87.2498 33.3715 87.2498 33.4831C83.6114 45.7507 77.4874 54.0406 68.0132 59.877C67.8331 59.9514 67.8691 60.1372 67.725 60.3231C67.5449 60.2116 66.7524 60.3975 66.5723 60.3231C66.7164 60.1372 67.2567 60.0257 67.4368 59.9142C78.3159 52.4793 83.5033 43.26 86.8895 33.1857C86.9256 32.9998 87.2138 31.2526 87.3218 31.1039C87.3218 31.1039 87.7541 32.3678 87.7901 33.2228Z" fill="#542E2D"/>
<path fill-rule="evenodd" clip-rule="evenodd" d="M87.8624 37.3863C87.7903 37.4606 87.4301 37.535 87.3941 37.6093C84.4401 47.6465 79.2167 54.6353 71.4356 59.3937C71.3276 59.468 71.5437 59.691 71.4356 59.8397C71.2915 59.7654 70.6431 59.6539 70.499 59.5795C70.6071 59.4308 71.0394 59.3565 71.1835 59.245C80.0813 53.1483 84.3321 45.6019 87.1059 37.3863C87.1419 37.2376 87.4301 35.8621 87.5382 35.7506C87.5382 35.7506 87.8263 36.7171 87.8624 37.3863Z" fill="#542E2D"/>
<path fill-rule="evenodd" clip-rule="evenodd" d="M42.5085 22.6652C43.7333 22.5537 69.5262 57.8324 69.9945 59.7283C70.4628 61.6242 78.1358 56.3826 80.5134 53.706C82.8909 51.0666 58.1428 10.6578 54.9727 11.6244C52.379 10.8809 40.7434 21.7359 42.5085 22.6652Z" fill="#542E2D"/>
<path fill-rule="evenodd" clip-rule="evenodd" d="M43.3012 22.7024C44.49 22.5909 69.8146 57.2004 70.2829 59.0592C70.7152 60.9179 76.8752 56.2711 79.685 53.5573C82.4588 50.8436 58.179 11.7359 54.5406 12.814C52.091 12.4794 41.6442 22.1448 43.3012 22.7024Z" fill="#A9373C"/>
<path fill-rule="evenodd" clip-rule="evenodd" d="M43.4814 21.1411C43.5535 21.2527 44.274 21.3642 44.382 21.5129C54.3245 33.6318 63.1143 45.8251 71.7599 58.7247C71.94 58.9477 71.94 59.3938 72.0841 59.6168C72.3363 59.4681 72.6245 59.3566 72.8767 59.2079C72.6965 58.9849 72.2643 58.7618 72.1202 58.5016C63.6907 45.602 54.8649 33.1485 44.6702 21.0296C44.4901 20.8437 44.4541 20.2861 44.31 20.0631C44.31 20.0631 43.5175 19.9516 43.4814 21.1411Z" fill="#542E2D"/>
<path fill-rule="evenodd" clip-rule="evenodd" d="M44.8496 19.5798C44.9577 19.7285 45.6782 19.8401 45.7502 19.9888C55.7287 32.1077 64.4824 44.9701 73.1641 57.8697C73.3082 58.0927 73.3082 58.5388 73.4883 58.7618C73.7405 58.6131 73.9927 58.5016 74.2808 58.3529C74.1007 58.0927 73.6684 57.9068 73.4883 57.6466C65.4551 44.4868 56.5933 31.3642 46.0384 19.5055C45.8583 19.3196 45.8583 18.762 45.7142 18.5389C45.7142 18.5389 44.8856 18.4274 44.8496 19.5798Z" fill="#542E2D"/>
<path fill-rule="evenodd" clip-rule="evenodd" d="M46.1826 17.9441C46.2907 18.0556 46.9751 18.2043 47.0832 18.3159C58.0344 29.4311 66.68 43.2972 74.5692 56.9774C74.7133 57.2005 74.7493 57.6466 74.8934 57.8696C75.1455 57.7209 75.4337 57.5722 75.6859 57.4607C75.5058 57.2005 74.9654 56.6429 74.8213 56.3455C67.5086 42.5537 58.9349 28.8363 47.3714 17.8326C47.1913 17.6467 47.1913 17.0891 47.0472 16.8661C47.0472 16.8661 46.2186 16.7545 46.1826 17.9441Z" fill="#542E2D"/>
<path fill-rule="evenodd" clip-rule="evenodd" d="M48.3086 16.1968C48.4167 16.3455 48.8489 16.5686 48.957 16.6801C60.5206 27.4236 68.842 41.773 76.1548 55.825C76.2989 56.0852 76.2989 56.4941 76.479 56.7171C76.7312 56.5684 77.1995 56.2339 77.4516 56.1224C77.2715 55.8621 76.7312 55.3045 76.5871 55.0071C69.7426 41.4012 61.8534 27.2005 49.4974 16.1225C49.3173 15.9366 49.4974 15.2675 49.3533 15.0444C49.3533 15.0444 48.3446 15.0444 48.3086 16.1968Z" fill="#542E2D"/>
<path fill-rule="evenodd" clip-rule="evenodd" d="M50.4707 14.7843C50.5428 14.8958 50.975 15.156 51.0831 15.2675C63.3311 25.9738 70.788 40.7321 77.5604 54.7841C77.6685 55.0443 77.7045 55.4532 77.8486 55.6763C78.1368 55.5276 78.5691 55.193 78.8573 55.0815C78.6771 54.8213 78.1368 54.2265 77.9927 53.9663C71.1122 40.3232 63.9795 25.7508 51.6235 14.6727C51.4433 14.524 51.6235 13.8549 51.4794 13.6318C51.4794 13.6318 50.4707 13.5947 50.4707 14.7843Z" fill="#542E2D"/>
<path fill-rule="evenodd" clip-rule="evenodd" d="M52.4141 13.446C52.4861 13.5575 52.9184 13.8177 53.0265 13.9293C65.2745 24.6355 71.9748 39.5797 78.7473 53.6317C78.8553 53.8919 78.8914 54.3009 79.0715 54.5239C79.3236 54.3752 79.792 54.0406 80.0441 53.9291C79.864 53.6689 79.3236 53.0741 79.1796 52.8139C72.3351 39.1708 65.9229 24.4125 53.5668 13.3345C53.3867 13.1858 53.5668 12.5166 53.4227 12.2936C53.4227 12.2936 52.4141 12.2564 52.4141 13.446Z" fill="#542E2D"/>
<path fill-rule="evenodd" clip-rule="evenodd" d="M8.39389 44.7842C8.28582 42.1448 11.8882 39.3939 12.5726 38.5389C12.5366 36.643 14.7701 32.2564 15.5986 30.2489C16.3911 28.2787 23.0555 36.011 20.75 39.9515C22.4431 39.0221 24.6045 37.5723 26.4417 36.5686C27.5224 35.9738 28.495 35.9366 29.3236 35.379C30.6204 34.524 30.4763 33.2601 31.1608 32.9255C34.4749 33.5946 33.5023 41.2898 31.4129 44.3753C33.6824 45.3418 32.7458 48.3158 35.7718 49.3567C36.2761 49.5425 36.6724 49.4682 37.1046 49.1708C37.8251 48.6875 39.3381 47.8325 39.8424 48.2414C40.2027 48.5388 40.5269 49.9515 40.635 50.6949C40.9952 51.4013 41.3554 52.1076 41.4635 52.8139C41.5716 53.4087 41.5355 53.7804 41.3554 54.3381C41.5716 54.7098 41.6076 54.9328 41.6436 55.4533C41.7517 53.8548 43.3727 53.8176 43.9851 52.9254C43.8771 53.5202 43.9491 53.5574 43.6609 54.115C44.3454 53.3343 44.8857 53.4459 46.0025 53.3343C45.354 53.6317 44.8857 53.892 44.5975 54.4868C45.4621 53.4087 46.2546 53.7804 47.1552 53.5946C46.6869 54.0407 46.1826 54.2265 45.5342 55.0072C46.2546 54.3752 46.6869 54.4496 47.2993 54.6355C46.831 54.97 46.3267 55.1931 46.0385 55.7507C46.6149 55.7879 46.6869 55.5276 46.9031 55.9366C48.5601 53.9663 48.6322 51.9589 50.1091 49.9143C50.1091 49.9143 50.2172 50.2117 49.2086 46.3827C47.7676 40.8437 53.3152 41.1039 53.4593 40.9924C53.6034 40.918 56.9176 40.4348 58.2144 44.115C61.4926 53.26 57.602 57.7953 57.602 57.8325C58.3225 56.6057 59.5833 57.2005 60.628 56.6057C60.3759 57.4607 60.1597 57.6466 59.4032 58.1299C60.592 57.6094 60.9883 57.8696 62.2851 58.0555C61.5286 58.2414 61.7087 58.4644 60.8081 58.8362C61.8528 58.5016 61.9969 58.2414 62.8255 57.8325C62.5733 58.2414 62.2131 58.9105 61.7087 59.1707C62.4292 59.0964 62.9335 59.2079 63.4018 59.5425C66.4278 54.115 70.0662 51.3269 73.7406 49.7284C73.1642 49.0221 72.6239 48.5016 72.0475 47.6466C71.4711 46.4199 71.5432 45.4533 71.3991 44.4124C71.3991 44.4124 71.291 42.4422 72.4798 41.1411C73.6685 39.84 80.3689 40.5091 82.4943 41.2154C83.6471 41.5872 86.2047 43.7061 87.3215 45.602C88.5823 47.7953 88.2581 50.1002 88.2581 50.1002C88.2581 50.1002 92.9411 40.4719 104.613 37.3121C114.303 34.7099 120.427 43.2972 123.021 46.3455C125.795 49.6169 131.198 72.3306 121.472 76.9774C119.635 77.8696 118.23 78.0554 116.789 78.0554C116.428 78.0183 118.122 78.3157 119.923 78.3528C109.476 82.3677 106.522 67.6466 106.774 63.1856C107.026 58.7618 105.081 55.3789 101.659 54.3009C91.212 50.9923 88.114 61.1782 87.9699 62.9997C87.6457 67.6094 87.3215 72.3306 83.9713 75.8993C77.3429 88.7245 67.4365 94.6353 51.478 93.8546C31.8452 92.8881 29.3596 91.1037 21.7226 83.5573C21.4704 84.1892 21.8307 84.6353 22.263 85.5275C21.1462 85.2301 20.858 84.784 20.5698 84.0034C20.5338 84.4123 20.6419 84.5238 20.786 84.9327C19.9574 84.0405 20.1376 84.0034 19.8854 83.706C18.6246 83.1484 18.3004 82.5164 18.1923 81.6242C18.0842 82.3305 18.4445 82.9625 18.6606 83.706C16.5352 81.9588 15.8508 79.9513 15.4545 78.3157C11.4559 78.5759 9.00629 77.2748 7.52932 75.3789C7.13307 76.0108 7.34921 76.7543 7.78149 77.535C5.43996 77.2748 5.40394 75.3045 5.15177 73.8175C5.0437 74.3752 4.53937 74.8213 3.96299 75.1558C4.03504 74.4123 4.32323 73.8919 4.17914 73.1856C4.07106 74.4495 3.27855 74.7469 1.76556 75.2673C2.45001 74.3008 2.99036 73.8175 3.13445 72.851C2.12579 74.1521 1.33328 74.4495 0.000405232 75.0071C-0.0356183 75.0443 2.34194 70.8436 2.41398 68.9848C0.000405111 55.3046 4.68347 47.944 8.39389 44.7842Z" fill="#A9373C"/>
<path fill-rule="evenodd" clip-rule="evenodd" d="M8.64627 45.0445C8.32206 42.3307 12.1766 39.4311 12.897 38.5761C12.825 36.6802 15.2386 32.5538 15.7069 30.6207C16.1752 28.7248 22.8395 36.6802 20.2458 40.6207C20.2458 40.6207 8.68229 45.0445 8.64627 45.0445Z" fill="#F7ADAF"/>
<path fill-rule="evenodd" clip-rule="evenodd" d="M12.1042 42.8883C9.87077 43.037 -0.792196 49.8028 2.59402 68.9849C2.52197 70.8436 0.252487 74.8213 0.28851 74.7841C1.62138 74.2265 2.34185 73.7432 3.35051 72.4793C3.17039 73.4459 2.91823 73.8919 2.23378 74.8213C3.71075 74.3009 4.03496 73.7432 4.14303 72.4793C4.39519 73.2228 4.39519 73.9663 4.32315 74.7098C4.89952 74.3752 5.11566 73.8919 5.25976 73.2972C5.58397 74.8213 5.43988 76.7916 7.45719 77.1633C7.02491 76.3826 7.06094 75.7135 7.45719 75.0444C8.97018 76.9774 11.6719 78.2785 15.6706 78.0183C16.0668 79.654 16.0668 81.2897 18.2282 83.0369C18.0121 82.2934 18.0121 81.6614 18.1202 80.9551C18.2282 81.8473 18.3723 82.628 19.5971 83.1484C19.3089 82.4793 19.1648 81.9588 19.2009 81.3269C19.4891 82.3306 19.6692 83.2599 20.4617 84.1521C20.2816 83.3715 20.3536 82.851 20.6058 82.2562C20.1015 83.8547 21.0741 84.9328 21.7946 85.193C21.3623 84.338 21.3623 83.706 21.6505 83.0369C29.2875 90.5833 31.8811 92.7023 51.514 93.6688C67.4724 94.4495 77.1988 88.5759 83.8271 75.7135C87.1773 72.1447 87.2133 67.3864 87.5735 62.7767C87.6816 60.9552 91.356 50.7694 101.803 54.1151C105.225 55.1931 107.242 58.7619 106.99 63.1857C106.738 67.6466 110.376 81.364 118.77 78.4644C116.969 78.4272 115.924 77.9068 116.248 77.9068C117.689 77.944 119.346 77.6466 121.183 76.7916C130.91 72.1076 124.462 48.5761 122.3 46.4571C120.175 44.3382 114.303 35.2304 104.613 37.8326C92.941 40.9924 88.0779 50.695 88.0779 50.695C88.0779 50.695 88.1859 47.8697 86.8891 45.6393C85.8084 43.7805 82.9625 41.6616 82.2781 41.4385C80.4769 40.8437 73.8125 40.0259 72.6238 41.2898C71.471 42.5909 71.6151 44.5612 71.6151 44.5612C71.8312 45.6021 71.5791 46.3828 72.2635 47.6839C72.7318 48.5017 73.4523 49.0221 74.0287 49.7285C70.3543 51.327 66.4637 54.3009 63.4378 59.7284C62.8614 59.3195 62.213 59.2823 61.3844 59.208C61.8888 58.9478 62.213 58.6132 62.4291 58.2043C61.6006 58.576 60.9521 59.0221 59.7634 59.208C60.8801 59.0221 61.0962 58.3158 61.8527 58.0927C60.3037 57.7954 59.3671 58.0556 58.1783 58.7247C59.4031 58.0927 60.1236 57.6838 60.3758 56.8288C59.3311 57.4236 57.9622 57.0147 57.2057 58.2786C57.2057 58.2414 61.2043 53.2601 57.9262 44.1151C56.6293 40.4348 53.6033 41.1411 53.4592 41.2155C53.3152 41.2898 47.9476 40.8809 49.3886 46.4199C50.3972 50.2489 50.3612 49.9515 50.3612 49.9515C48.9203 51.9961 48.488 54.3753 46.8309 56.3084C46.6148 55.9366 46.4347 55.8251 45.8943 55.7879C46.1465 55.2303 46.6148 55.0073 47.1191 54.6727C46.4707 54.4868 45.9303 54.7099 45.2459 55.3418C45.7142 54.4868 46.2545 54.1522 46.8669 53.7061C45.9664 53.892 45.3179 53.669 44.4173 54.7842C44.5975 54.1894 44.8856 53.7433 45.6061 53.4459C44.3093 53.6318 43.9851 53.5946 43.1565 54.9329C43.4447 54.4125 43.7329 53.8548 43.841 53.2972C43.2286 54.1894 41.7516 54.1151 41.6435 55.7136C41.6075 55.1931 41.3914 54.7099 41.1752 54.3381C41.3553 53.7805 41.4274 53.4087 41.3193 52.814C41.2112 52.1076 40.851 51.4013 40.4908 50.695C40.3827 49.9515 40.1305 48.6876 39.7343 48.3902C39.2299 47.9441 37.825 48.9106 37.1046 49.3939C36.6723 49.6913 36.204 49.8028 35.6996 49.6169C32.6737 48.5761 33.3221 45.4534 31.0526 44.4868C33.3941 41.0296 33.8624 33.9293 31.3048 33.3345C30.6203 33.7062 30.7284 34.7099 29.4676 35.5649C28.639 36.1226 27.5223 36.2713 26.4416 36.8661C24.2802 38.0556 22.0107 39.617 20.966 40.3233C19.7772 40.2861 18.3723 40.5092 16.9314 41.4385C17.0755 40.8809 17.3637 40.3605 17.6519 39.84C16.5711 40.3233 16.0668 40.6207 14.878 41.8475C15.2743 41.0296 15.8507 40.4348 16.4991 39.7657C14.77 40.472 13.1129 41.1411 12.1042 42.8883Z" fill="#FEFEFE"/>
<path fill-rule="evenodd" clip-rule="evenodd" d="M73.1644 50.4346L79.3964 50.1744C77.163 49.5425 76.1903 48.3529 74.7134 47.7209C72.1917 46.6057 72.1557 42.9997 71.9756 42.8139C71.9035 42.7767 71.8675 42.7395 71.8315 42.7395C71.7594 42.9625 71.7234 43.1856 71.6874 43.3715C71.7594 44.1893 72.0116 45.4532 71.6514 44.8585C71.7234 45.2674 71.7234 45.6763 71.7594 46.0852C71.8315 46.457 71.9396 46.9031 72.1197 47.3492C72.1557 47.4607 72.2277 47.5722 72.2638 47.6837C72.624 48.3157 73.0923 48.7618 73.5606 49.2079C73.6687 49.3194 73.7768 49.3938 73.8488 49.4309C73.9208 49.5053 73.9569 49.5796 73.9569 49.6168C73.9929 49.654 74.0289 49.6911 74.0289 49.7283L73.9569 49.7655C73.8488 50.1001 73.1644 50.4346 73.1644 50.4346Z" fill="#F7ADAF"/>
<path fill-rule="evenodd" clip-rule="evenodd" d="M25.1807 60.2115C25.3248 60.8435 25.3608 60.8435 25.1807 60.9922C25.0006 61.1409 24.4963 61.4754 24.4963 61.4754C24.4963 61.4754 26.9098 61.6613 26.9819 60.8806C27.234 58.2412 26.0092 58.9104 26.5136 56.0479C27.2701 51.9959 31.809 52.2933 31.9891 51.9216C32.1332 51.5126 31.9171 50.9179 31.9171 50.9179L31.6289 50.8435C31.6289 50.8435 31.6649 51.2153 31.3407 51.4383C30.9805 51.6613 25.0366 52.7394 24.5683 55.639C24.064 58.5015 25.1807 60.1743 25.1807 60.2115Z" fill="#A9373C"/>
<path fill-rule="evenodd" clip-rule="evenodd" d="M33.6113 56.271C35.4125 57.4606 33.179 58.4272 32.7107 59.8398C32.3505 60.8807 32.3865 62.9253 30.8735 62.6651C30.0089 62.4792 28.9642 61.6242 30.189 58.5387C31.4138 55.4532 33.107 55.9365 33.6113 56.271Z" fill="#F7ADAF"/>
<path fill-rule="evenodd" clip-rule="evenodd" d="M41.4637 53.5203C41.2836 53.7433 41.1395 53.9664 40.9233 54.1522C40.8513 54.1894 40.8153 54.2266 40.7792 54.2638C40.419 56.3084 36.4204 57.4979 37.0328 55.6764C36.9968 55.7136 36.9607 55.7507 36.9247 55.7507C36.2042 57.1634 38.834 56.9403 39.4464 56.3455C39.9867 56.2712 41.0314 56.5314 41.3556 56.0853C41.7158 55.6764 41.3556 55.0072 41.1034 54.4496C41.2475 54.524 41.4637 53.5574 41.4637 53.5203Z" fill="#A9373C"/>
<path fill-rule="evenodd" clip-rule="evenodd" d="M58.575 55.5647C57.2781 58.3156 55.9453 61.0293 53.6758 63.6687C55.8372 61.81 56.6297 59.9885 58.5029 56.2338C58.5029 56.2338 58.647 55.4903 58.575 55.5647Z" fill="#A9373C"/>
<path fill-rule="evenodd" clip-rule="evenodd" d="M62.9331 62.2562C64.9865 55.0815 73.416 50.0258 74.6768 49.8771C73.452 49.7284 71.831 47.2377 71.7589 45.1559C71.9751 46.1968 72.1552 46.8287 73.7402 47.3864C72.1912 46.457 71.867 44.115 71.6869 42.9998C71.5428 43.8919 70.6782 47.2748 73.8483 49.7284C65.9591 52.9254 62.3928 60.7692 62.9331 62.2562Z" fill="#A9373C"/>
<path fill-rule="evenodd" clip-rule="evenodd" d="M105.045 54.0036C107.783 56.9775 108.755 62.2563 107.35 67.0519C107.062 65.5277 106.918 64.1522 106.99 63.1857C107.242 58.7619 105.225 55.1932 101.803 54.1151C91.356 50.7694 87.6816 60.9552 87.5735 62.7768C87.2133 67.3864 87.1773 72.1448 83.8271 75.7135C77.1988 88.5759 67.4724 94.4495 51.514 93.6689C38.3654 92.9997 32.8538 91.8473 28.3508 88.9105L28.3148 88.8733L28.2788 88.8362C28.2068 88.799 28.1707 88.7618 28.0987 88.7246H28.0627V88.6875H28.0266L27.9546 88.6131L27.8465 88.5759V88.5388H27.8105L27.7384 88.4644L27.6664 88.4272L27.5944 88.3901V88.3529H27.5583L27.4503 88.2414L27.3422 88.2042V88.167H27.3062C27.2341 88.1298 27.1981 88.0555 27.126 88.0183H27.09L27.054 87.9811L27.018 87.944L26.8739 87.8325H26.8379V87.7953H26.8018L26.7298 87.7209L26.6217 87.6466V87.6094H26.5857L26.5497 87.5722L26.5136 87.5351L26.4416 87.4979L26.3335 87.4235L26.2255 87.312L26.1174 87.2377V87.2005H26.0814L25.9012 87.0518L25.8652 87.0146L25.8292 86.9774L25.7932 86.9403C25.7572 86.9031 25.6851 86.8659 25.6131 86.7916L25.505 86.7172L25.2888 86.5313L25.2168 86.4198C25.1448 86.3826 25.0727 86.3083 25.0007 86.2339L24.8926 86.1596L24.6764 85.9737L24.6044 85.8622L24.3522 85.6391H24.3162V85.602C24.2081 85.5276 24.1361 85.4533 24.028 85.3789L23.992 85.3418V85.3046L23.7398 85.0815L23.6318 85.0072L23.3796 84.747V84.7098H23.3436L23.1274 84.4867L23.0194 84.4124V84.3752H22.9833L22.8032 84.1893L22.6952 84.0778L22.5871 83.9663L22.3709 83.7432L22.0467 83.4087H22.0107L21.9026 83.2971L21.7946 83.1856L21.6505 83.0369C21.3623 83.7061 21.3623 84.338 21.7946 85.1931C21.0741 84.9328 20.1015 83.8548 20.6058 82.2563C20.3536 82.8511 20.2816 83.3715 20.4617 84.1522C19.6692 83.26 19.4891 82.3306 19.2009 81.3269C19.1648 81.9589 19.3089 82.4793 19.5971 83.1485C18.3723 82.628 18.2282 81.8473 18.1202 80.9552C18.0121 81.6615 18.0121 82.2934 18.2282 83.0369C16.0668 81.2897 16.0668 79.654 15.6706 78.0184C11.6719 78.2786 8.97018 76.9775 7.45719 75.0444C7.06094 75.7135 7.02491 76.3827 7.45719 77.1633C5.43988 76.7916 5.58397 74.8213 5.25976 73.2972C5.11566 73.892 4.89952 74.3752 4.32315 74.7098C4.39519 73.9663 4.39519 73.2228 4.14303 72.4793C4.03496 73.7433 3.71075 74.3009 2.23378 74.8213C2.91823 73.892 3.17039 73.4459 3.35051 72.4793C2.34185 73.7433 1.62138 74.2266 0.28851 74.7842C0.252487 74.8213 2.52197 70.8437 2.59402 68.9849C2.30583 67.3493 2.12571 65.7879 2.01764 64.3381C5.25976 72.405 20.1375 78.9105 34.7991 69.9515L36.4922 67.5351L37.789 65.1188L39.6983 61.9589L41.0672 59.208L41.6796 57.0147L41.7156 55.9738L41.6075 55.5277C42.4721 54.7842 43.1565 59.2452 35.9518 69.0221C35.5916 69.5797 35.4115 71.4013 34.9071 71.8846C34.5829 72.1819 35.0152 70.1745 34.691 70.4719C34.691 70.4719 33.7184 71.9589 33.9345 71.55C32.7097 73.2228 30.8365 73.2972 30.8365 75.3046C30.8365 88.2414 54.8642 84.8213 60.9882 84.1522C69.3817 83.2228 79.4682 79.431 82.5663 72.5165C84.4755 68.2043 86.5289 62.5166 87.8257 59.208C92.2566 47.7211 101.479 50.1374 105.045 54.0036Z" fill="#F7ADAF"/>
<path fill-rule="evenodd" clip-rule="evenodd" d="M41.3201 54.3381C41.3201 54.3381 41.212 54.3752 41.248 54.4124C41.5362 55.0444 41.6443 55.825 41.5723 56.4198C41.176 60.1745 37.5376 65.2674 35.5203 68.5388C35.1961 69.0592 34.9079 69.5796 34.7278 69.6912C30.7292 72.0703 28.1715 77.6094 28.1715 77.4978C27.8833 76.1595 28.4957 75.0815 28.892 74.5982C27.2349 75.0815 26.2623 76.3826 25.7219 77.6837C25.2176 76.6056 25.1815 75.9365 25.5418 74.6726C24.8573 76.1224 24.7493 77.4235 25.6859 78.7618C26.6585 76.5685 27.2349 75.6019 28.2435 75.1558C27.9554 75.8993 27.6672 76.9774 28.1715 78.0554C28.892 75.8621 32.2061 71.8845 34.4396 70.3231C34.8719 70.0629 35.088 70.4718 35.3402 70.9923C35.5924 70.3231 35.6284 69.2822 35.7364 69.0964C37.8979 64.6726 41.8965 59.8399 41.7164 56.234C41.6803 55.8622 41.5002 54.1894 41.3201 54.3381Z" fill="#A9373C"/>
<path fill-rule="evenodd" clip-rule="evenodd" d="M51.2624 41.5872C50.722 44.4496 49.5693 46.9775 52.0549 50.2117C50.0736 51.1782 48.4886 54.6726 47.3718 57.6094L46.8315 56.3083C48.4886 54.3752 48.9209 51.996 50.3618 49.9514C50.3618 49.9514 50.3978 50.2488 49.3892 46.4199C48.5966 43.3344 49.9295 42.1076 51.2624 41.5872ZM46.6514 54.97V54.6354C46.7955 54.6354 46.9396 54.6354 47.1197 54.6726C46.9396 54.7841 46.7955 54.8585 46.6514 54.97ZM46.6514 53.8548V53.7432C46.7234 53.7432 46.7955 53.7432 46.8675 53.7061C46.7955 53.7804 46.7234 53.8176 46.6514 53.8548Z" fill="#FBD6D7"/>
<path fill-rule="evenodd" clip-rule="evenodd" d="M28.8555 35.8251C30.7287 36.0482 31.8454 38.7991 32.782 40.2861C33.2864 38.8363 33.0702 37.4236 33.1423 35.9738L32.4938 33.9664L31.269 33.0742L30.4405 34.4497C30.4405 34.4497 28.8555 35.8623 28.8555 35.8251Z" fill="#A9373C"/>
<path fill-rule="evenodd" clip-rule="evenodd" d="M13.8693 34.6726C15.8506 33.1485 17.0034 34.0778 19.417 33.3715L17.6518 31.1411L16.1388 30.063L15.6705 30.4719L14.3016 33.7804C14.3016 33.7804 13.7973 34.6355 13.8693 34.6726Z" fill="#A9373C"/>
<path fill-rule="evenodd" clip-rule="evenodd" d="M36.6357 49.5797C38.1127 50.8065 39.2655 51.3269 40.5983 50.8065L40.5623 50.7693C40.4542 49.9515 40.166 48.6132 39.7698 48.3158C39.2655 47.8697 37.7885 48.8734 37.032 49.3567C36.8879 49.4682 36.7798 49.5425 36.6357 49.5797Z" fill="#A9373C"/>
<path d="M39.0013 49.0107C39.4593 48.8128 39.7715 48.5069 39.6986 48.3273C39.6258 48.1477 39.1955 48.1625 38.7375 48.3604C38.2795 48.5582 37.9673 48.8642 38.0401 49.0438C38.1129 49.2234 38.5433 49.2085 39.0013 49.0107Z" fill="#FEFEFE"/>
<path d="M38.006 49.4682C38.1651 49.4682 38.2942 49.3351 38.2942 49.1708C38.2942 49.0066 38.1651 48.8734 38.006 48.8734C37.8468 48.8734 37.7178 49.0066 37.7178 49.1708C37.7178 49.3351 37.8468 49.4682 38.006 49.4682Z" fill="#FEFEFE"/>
<path fill-rule="evenodd" clip-rule="evenodd" d="M80.3325 11.4758C83.4666 14.1896 85.1236 17.275 85.664 20.6208L86.5646 20.3605C85.7721 17.1264 84.0069 14.0409 81.089 11.0669C81.089 11.0669 80.0443 11.4758 80.3325 11.4758Z" fill="#A9373C"/>
<path fill-rule="evenodd" clip-rule="evenodd" d="M128.495 70.8062C128.171 72.888 127.307 74.4122 126.046 75.5274L126.406 75.862C127.559 74.6724 128.387 73.0739 128.856 71.0293C128.856 71.0293 128.423 70.6575 128.495 70.8062Z" fill="#A9373C"/>
<path fill-rule="evenodd" clip-rule="evenodd" d="M86.8898 42.1076C88.3307 43.1113 89.1593 44.3381 89.5195 45.7136L89.9157 45.5649C89.4474 44.2266 88.5469 43.037 87.178 41.9218C87.178 41.9218 86.7817 42.1448 86.8898 42.1076Z" fill="#A9373C"/>
<path fill-rule="evenodd" clip-rule="evenodd" d="M86.7444 43.9292C87.645 44.4868 88.1853 45.2303 88.4735 46.0482L88.6897 45.9738C88.3655 45.156 87.7891 44.4125 86.9245 43.7805C86.9245 43.7805 86.6723 43.9292 86.7444 43.9292Z" fill="#A9373C"/>
<path fill-rule="evenodd" clip-rule="evenodd" d="M126.983 71.0667C126.767 72.5537 126.154 73.6317 125.254 74.4124L125.506 74.6354C126.335 73.8176 126.911 72.7024 127.271 71.2154C127.271 71.2154 126.947 70.9923 126.983 71.0667Z" fill="#A9373C"/>
<path fill-rule="evenodd" clip-rule="evenodd" d="M40.5629 22.2934C39.0859 24.4495 38.5456 26.5685 38.7257 28.6503H38.1133C38.1133 26.5685 38.7257 24.4495 40.0225 22.1819C40.0225 22.1819 40.743 22.2562 40.5629 22.2934Z" fill="#A9373C"/>
<path fill-rule="evenodd" clip-rule="evenodd" d="M80.2966 14.0407C82.2779 15.379 83.4306 17.0146 83.971 18.9106L84.4753 18.6875C83.8269 16.9031 82.566 15.2303 80.7288 13.7433C80.7288 13.7433 80.1525 14.0407 80.2966 14.0407Z" fill="#A9373C"/>
<path fill-rule="evenodd" clip-rule="evenodd" d="M40.9593 23.8547C39.9866 24.9699 39.5183 26.1595 39.4823 27.3491L39.1221 27.3119C39.2662 26.1223 39.7705 24.9328 40.6711 23.7432C40.6711 23.7432 41.0673 23.8175 40.9593 23.8547Z" fill="#A9373C"/>
<path fill-rule="evenodd" clip-rule="evenodd" d="M56.3061 60.2859C75.0383 76.0479 40.0595 89.4308 39.2309 96.94C38.7266 101.736 53.9646 101.81 69.7068 100.397C84.9808 99.0218 98.9219 106.308 100.903 98.7988C103.353 88.7988 86.4938 93.9661 84.1523 90.7691C84.4044 90.0627 88.9794 88.8731 88.8353 87.5349C88.6552 84.1891 77.9923 84.5981 77.9923 84.5981C77.7041 84.7468 77.4519 84.9326 77.1637 85.0813C77.1637 85.0813 88.367 85.1557 88.1509 87.2003C88.0068 89.059 82.9995 89.7282 83.3237 90.9177C84.5846 95.0813 101.768 89.3564 100.327 98.3898C99.3182 104.933 83.792 98.5757 70.0671 99.7281C55.6577 100.955 39.0148 100.509 39.9154 96.6055C40.9961 91.9215 76.5873 73.6316 56.5943 59.7283C56.6663 59.7654 56.4862 59.9885 56.3061 60.2859Z" fill="#A9373C"/>
<path fill-rule="evenodd" clip-rule="evenodd" d="M4.89983 49.0592C3.99925 53.1484 8.10593 51.8473 16.2112 45.2674C18.877 43.1113 21.5067 44.3752 24.7848 43.7432C25.6494 43.5574 26.586 42.3306 27.5947 41.9217C29.0356 41.3269 31.0169 41.996 32.638 41.4012C32.8541 41.7358 33.0702 41.8845 32.4218 42.1819C31.233 42.4793 29.8281 41.8845 28.171 42.3678C27.0903 42.6652 26.0457 44.115 24.8569 44.2637C21.4346 44.6726 18.2646 44.0778 16.4634 45.7507C11.0599 50.7321 4.32346 54.4495 3.99925 50.0257C3.99925 50.0257 3.9272 48.7246 4.89983 49.0592Z" fill="#A9373C"/>
<path fill-rule="evenodd" clip-rule="evenodd" d="M25.3249 37.3493C24.6045 43.9663 28.9273 44.1894 31.7371 43.7433C31.7731 43.9292 31.629 44.3009 31.4129 44.3753C30.1521 44.3753 26.982 44.4868 26.0814 43.0742C24.2802 40.1374 24.7125 38.2786 24.7485 37.6095C24.7485 37.4236 25.0007 36.866 25.3249 37.3493Z" fill="#A9373C"/>
<path fill-rule="evenodd" clip-rule="evenodd" d="M88.1143 48.9477C101.299 81.5869 95.7873 26.6801 108.504 36.7544C108.035 36.8287 107.603 36.9031 107.135 37.0146C98.3449 29.3195 100.542 81.2524 88.1863 50.4346C88.1863 50.4346 88.2584 49.1335 88.1143 48.9477Z" fill="#A9373C"/>
<path fill-rule="evenodd" clip-rule="evenodd" d="M105.549 57.2376C92.9771 62.7022 122.048 26.4942 121.76 45.4161C121.544 45.193 121.364 44.97 121.184 44.7469C121.508 30.3232 96.2552 60.6576 105.225 56.5684C105.333 56.7915 105.441 57.0145 105.549 57.2376Z" fill="#A9373C"/>
<path fill-rule="evenodd" clip-rule="evenodd" d="M111.025 75.7878C111.025 75.7878 114.339 92.5164 110.376 93.3714C106.414 94.2264 104 93.1112 104.396 91.6614C105.477 87.7952 108.179 87.5722 124.606 89.3566C138.006 90.8064 165.456 83.1484 168.59 85.5276L168.122 84.5982C166.573 81.5871 137.934 90.6577 124.606 88.9105C107.278 86.6428 103.856 88.5387 103.856 91.996C103.82 93.7432 105.549 94.1893 108.575 94.338C115.203 94.6725 112.322 80.6205 111.781 76.6057C111.781 76.6057 111.097 75.825 111.025 75.7878Z" fill="#A9373C"/>
<path fill-rule="evenodd" clip-rule="evenodd" d="M112.322 87.9066H112.863V87.9438V88.3155H112.826L112.79 88.3527L112.322 88.3155L112.286 88.2784L112.322 87.9066Z" fill="#A9373C"/>
<path fill-rule="evenodd" clip-rule="evenodd" d="M191.718 58.2041L188.188 65.4904L187.503 63.3714C186.458 66.0108 185.882 67.6837 183.18 70.2487C183.901 68.9848 183.432 68.2041 183.396 67.2376C181.451 71.4011 179.758 72.7394 177.164 73.8175C177.056 74.1149 177.2 74.5238 177.056 74.8212C174.355 77.5349 173.094 81.0665 174.318 84.0033C172.013 86.7914 169.383 87.7208 166.321 87.6092L140.276 86.1223C139.844 67.8695 143.194 60.6205 150.687 55.6763L187.719 55.7506C187.719 55.7506 188.836 55.825 189.845 56.3826C190.925 57.0146 191.826 58.167 191.718 58.2041Z" fill="#F9AE76"/>
<path fill-rule="evenodd" clip-rule="evenodd" d="M149.534 84.0404C147.192 83.1111 142.293 79.2449 133.791 85.639C132.098 86.717 131.017 87.981 131.594 89.4679C131.81 91.4754 133.503 91.4382 134.62 91.3267C135.773 91.6241 136.709 91.7356 137.97 91.178L142.041 90.9177C144.526 90.0999 149.786 91.3267 152.632 90.1371L145.751 87.4977L149.534 84.0404Z" fill="#542E2D" stroke="#373435" stroke-width="0.9"/>
<path fill-rule="evenodd" clip-rule="evenodd" d="M149.714 84.3379C147.373 83.4086 142.437 79.4309 133.936 85.8621C132.243 86.9401 131.234 87.981 131.811 89.468C131.919 90.5833 132.819 91.5126 134.044 91.0294C133.36 90.3602 133.72 88.9848 134.116 88.3528C132.747 92.2933 137.754 91.7728 138.511 89.9513C138.799 89.8398 138.043 90.955 138.331 90.8435C139.844 90.8435 141.573 91.1781 142.582 89.8398C142.978 89.6911 142.582 90.2859 142.293 90.5089C145.175 90.2115 150.327 90.6576 152.704 89.6539L156.631 85.5275L149.714 84.3379Z" fill="#F9AE76"/>
<path fill-rule="evenodd" clip-rule="evenodd" d="M142.51 90.323C145.86 89.0963 149.391 87.6093 151.66 87.8323C153.677 88.0182 154.47 87.7208 154.074 88.2412L152.705 89.6539C152.633 89.6539 152.2 89.8026 151.48 89.9885C148.85 90.5461 144.744 90.2487 142.294 90.5089C142.366 90.4717 142.438 90.3974 142.51 90.323ZM154.974 87.2747C154.506 86.8658 154.578 87.0145 154.974 87.2747V87.2747Z" fill="#E08B49"/>
<path fill-rule="evenodd" clip-rule="evenodd" d="M150.4 55.4904C150.4 55.4904 149.607 55.0443 149.283 55.6391C148.923 56.2339 147.662 60.5462 148.382 65.825C149.067 71.1409 147.878 71.2896 146.906 70.8064C145.969 70.3603 145.212 64.0778 143.123 63.9291C142.511 63.8547 142.583 64.9699 142.583 64.9699C143.88 63.7432 144.852 70.6948 147.014 71.7729C149.175 72.851 149.643 69.4681 148.959 64.7097C148.419 60.6577 150.256 55.5276 150.4 55.4904Z" fill="#A9373C"/>
<path fill-rule="evenodd" clip-rule="evenodd" d="M134.873 54.6726C134.873 54.6726 135.161 54.1521 134.657 53.8547C134.152 53.5573 130.622 59.3937 130.982 68.2785C131.306 77.1632 129.721 75.416 129.793 78.0554C129.865 80.6948 132.495 83.1483 134.08 78.39C135.701 73.6316 136.386 65.7506 136.386 65.7506L135.521 65.0443C135.521 65.0443 133.864 79.1706 132.567 80.2115C131.27 81.2152 130.226 79.5052 130.334 77.981C130.406 76.4941 131.523 75.1558 131.739 71.9588C131.919 68.7989 131.631 68.7989 131.919 64.3008C132.207 59.7655 134.693 54.7469 134.873 54.6726Z" fill="#A9373C"/>
<path fill-rule="evenodd" clip-rule="evenodd" d="M139.087 61.1781C139.123 60.9922 139.736 60.2487 138.115 59.877C137.791 60.5089 135.269 65.4903 137.25 78.5758C137.899 82.9624 136.025 84.4122 136.025 84.4122L137.322 83.6315C137.322 83.6315 138.799 81.9215 138.331 79.0962C136.242 66.3453 139.231 61.1781 139.087 61.1781Z" fill="#A9373C"/>
<path fill-rule="evenodd" clip-rule="evenodd" d="M167.582 14.9702C161.134 12.7769 156.306 3.89219 151.912 3C154.974 11.8847 146.616 19.6542 151.299 29.1337C148.165 36.866 152.488 47.7954 147.337 47.2006C147.337 48.0556 147.877 48.576 148.561 49.1708C147.697 49.0593 146.796 48.9478 145.932 48.4273C155.622 69.8771 177.2 66.4942 189.664 56.4571C189.916 57.0518 190.637 57.2749 190.421 58.1671C192.114 57.2749 191.898 55.1188 192.006 53.3344C192.402 53.7061 192.942 53.9664 193.122 54.7842C193.519 53.4087 193.231 52.182 192.762 50.9552C194.131 49.4682 194.419 47.5723 194.599 45.7136C204.758 42.0333 205.37 34.0036 208 26.0482C202.2 30.0259 198.454 25.788 193.699 25.6765C192.366 12.0706 179.758 19.1338 174.967 11.7732C174.895 12.8141 175.075 13.4461 175.903 14.4126C173.382 12.9628 171.04 14.3754 168.194 12.8141C168.41 13.4461 168.951 14.1152 169.743 14.7843C169.743 14.7843 167.69 14.8215 167.582 14.9702Z" fill="#542E2D"/>
<path fill-rule="evenodd" clip-rule="evenodd" d="M164.809 16.6802C165.889 15.6393 166.97 15.2676 166.646 15.1189C160.702 12.4423 156.523 4.33823 152.345 3.52039C154.794 10.6207 150.039 19.84 153.173 24.7842C153.786 24.0036 154.506 23.2601 155.479 22.7396C146.365 30.7694 153.425 48.0927 147.553 47.4607C147.553 48.3158 148.346 48.799 149.03 49.3938C148.13 49.2823 147.049 49.2823 146.185 48.7619C156.199 69.7655 177.273 66.1596 189.773 56.1596C190.025 56.7172 190.89 57.0518 190.674 57.9812C192.331 57.0518 191.754 54.5983 191.862 52.8139C192.295 53.1856 193.051 53.7433 193.231 54.5611C193.628 53.1856 192.943 52.2191 192.439 50.9923C192.907 50.1001 194.888 49.0593 192.403 46.6801C192.367 46.4199 193.231 46.7173 193.447 47.3864C193.483 46.3083 192.367 45.3418 192.439 45.0816C192.439 44.8957 193.844 44.5983 194.492 45.0816C194.42 44.2266 192.907 44.115 192.871 43.892C192.871 43.6689 194.996 42.9254 195.897 43.1113C195.069 42.2563 192.835 42.7024 192.835 42.4794C200.868 38.5388 204.435 34.2638 207.713 26.6058C201.877 30.5835 195.897 25.8251 191.142 25.7136C191.97 25.3047 192.691 25.4906 193.411 25.6021C191.79 12.8512 179.831 19.4311 175.111 12.1821C175.039 13.223 175.652 13.9664 176.444 14.933C173.959 13.5203 171.365 14.7471 168.519 13.223C168.699 13.8177 170.068 14.5241 170.825 15.156C169.636 15.0073 167.655 15.0817 164.809 16.6802Z" fill="url(#paint0_linear_174_738)"/>
<path d="M126 52L132 4L215 0L198.5 114.5L129 99.5V91.5V78L126 52Z" fill="white"/>
<defs>
<linearGradient id="paint0_linear_174_738" x1="173.905" y1="20.9068" x2="180.338" y2="46.6526" gradientUnits="userSpaceOnUse">
<stop stop-color="#F9AE76"/>
<stop offset="1" stop-color="#F9AA6C"/>
</linearGradient>
</defs>
</svg>
