<svg width="137" height="90" viewBox="0 0 137 90" fill="none" xmlns="http://www.w3.org/2000/svg">
<path d="M51.2769 87.618H15.9736C15.4505 87.618 15.0264 87.194 15.0264 86.6708C15.0264 86.1477 15.4504 85.7236 15.9736 85.7236H51.2769C51.8 85.7236 52.2241 86.1477 52.2241 86.6708C52.2241 87.194 51.8 87.618 51.2769 87.618Z" fill="#FCEAD9"/>
<path d="M100.73 87.618H94.0585C93.5354 87.618 93.1113 87.194 93.1113 86.6708C93.1113 86.1477 93.5354 85.7236 94.0585 85.7236H100.73C101.254 85.7236 101.678 86.1477 101.678 86.6708C101.678 87.194 101.254 87.618 100.73 87.618Z" fill="#FCEAD9"/>
<path d="M63.6075 87.618H56.9355C56.4124 87.618 55.9883 87.194 55.9883 86.6708C55.9883 86.1477 56.4124 85.7236 56.9355 85.7236H63.6075C64.1306 85.7236 64.5547 86.1477 64.5547 86.6708C64.5547 87.194 64.1306 87.618 63.6075 87.618Z" fill="#FCEAD9"/>
<path d="M80.1738 87.618H77.2265C76.7033 87.618 76.2793 87.194 76.2793 86.6708C76.2793 86.1477 76.7033 85.7236 77.2265 85.7236H80.1738C80.697 85.7236 81.121 86.1477 81.121 86.6708C81.121 87.194 80.697 87.618 80.1738 87.618Z" fill="#FCEAD9"/>
<path d="M11.3922 87.618H1.90326C1.38019 87.618 0.956055 87.194 0.956055 86.6708C0.956055 86.1477 1.38013 85.7236 1.90326 85.7236H11.3922C11.9152 85.7236 12.3394 86.1477 12.3394 86.6708C12.3394 87.194 11.9152 87.618 11.3922 87.618Z" fill="#FCEAD9"/>
<path d="M135.937 87.618H106.298C105.775 87.618 105.351 87.194 105.351 86.6708C105.351 86.1477 105.775 85.7236 106.298 85.7236H135.937C136.46 85.7236 136.884 86.1477 136.884 86.6708C136.884 87.194 136.46 87.618 135.937 87.618Z" fill="#FCEAD9"/>
<path d="M38.2283 56.5725C38.2283 56.5725 6.92096 49.0693 14.3146 73.9711C17.17 81.6884 20.4763 81.8339 20.4763 81.8339C20.4763 81.8339 21.068 71.8013 26.5974 68.6591C32.1268 65.5173 34.7296 66.7844 35.2281 67.7547C35.7266 68.725 38.2283 56.5725 38.2283 56.5725Z" fill="#FCEAD9"/>
<path d="M20.9217 82.3275L20.4559 82.3071C20.3081 82.3005 16.8017 82.0568 13.8708 74.1354L13.861 74.106C12.0666 68.0624 12.3804 63.3583 14.7937 60.1244C17.3122 56.7494 21.9812 55.0381 28.6709 55.0381C33.7979 55.0381 38.2943 56.1012 38.339 56.112L38.785 56.2189L38.6926 56.668C38.6867 56.6961 38.1054 59.516 37.4556 62.2993C37.0729 63.9386 36.7412 65.2461 36.4698 66.1859C35.9827 67.8731 35.7565 68.2823 35.2934 68.2835C35.0893 68.2831 34.9075 68.1663 34.8073 67.9712C34.6478 67.6608 34.0067 67.1355 32.6149 67.1355C31.5306 67.1355 29.647 67.4713 26.8317 69.071C21.5924 72.0484 20.9553 81.7642 20.9495 81.8619L20.9217 82.3275ZM14.7646 73.8213C16.8273 79.3883 19.103 80.8516 20.0516 81.2308C20.271 79.0027 21.3907 71.0736 26.3639 68.2473C28.7685 66.8812 30.8717 66.1883 32.615 66.1883C33.8634 66.1883 34.718 66.553 35.2222 67.0018C35.7502 65.5508 36.7979 61.1268 37.6702 56.9347C36.426 56.6739 32.7534 55.9851 28.671 55.9851C24.2885 55.9851 18.4551 56.8015 15.5529 60.6907C13.3299 63.6696 13.0647 68.0871 14.7646 73.8213Z" fill="black"/>
<path d="M74.5225 15.2041C74.5225 15.2041 79.7878 3.81925 88.3264 1.39996C90.5323 0.688509 92.0978 2.75197 92.8093 5.31355C93.5209 7.87514 96.2957 19.9471 83.6658 23.9796C75.9455 16.2715 74.5225 15.2041 74.5225 15.2041Z" fill="#FCEAD9"/>
<path d="M83.5355 24.5183L83.3315 24.3147C75.7881 16.7833 74.297 15.6273 74.2372 15.5818L73.9346 15.3514L74.0929 15.0053C74.3117 14.5324 79.5492 3.39478 88.1976 0.944334C88.5206 0.839812 88.8597 0.784424 89.1892 0.784424C90.9763 0.784424 92.5003 2.43016 93.266 5.18689C93.7588 6.96128 94.4714 10.4906 93.7048 14.1912C92.6623 19.2222 89.3333 22.6673 83.8102 24.4308L83.5355 24.5183ZM75.1119 15.0779C75.826 15.6921 78.003 17.661 83.7951 23.4392C95.3008 19.587 93.2603 8.70477 92.3533 5.44031C91.7084 3.11795 90.5255 1.73147 89.1893 1.73147C88.9586 1.73147 88.7174 1.77151 88.4723 1.85062C81.029 3.95991 76.0469 13.2184 75.1119 15.0779Z" fill="black"/>
<path d="M58.6148 20.0639C58.6148 20.0639 52.2446 9.25843 43.508 7.69923C41.2423 7.21036 39.8896 9.41916 39.4358 12.0386C38.9822 14.6583 37.4201 26.9461 50.388 29.7043C57.3046 21.2675 58.6148 20.0639 58.6148 20.0639Z" fill="#FCEAD9"/>
<path d="M50.5711 30.2275L50.2891 30.1676C44.6182 28.9614 40.9635 25.8639 39.4265 20.9612C38.2961 17.3553 38.6545 13.7725 38.9688 11.9578C39.4895 8.95189 40.9556 7.15735 42.8904 7.15735C43.1236 7.15735 43.3649 7.18391 43.6075 7.23625C52.44 8.81229 58.7578 19.3746 59.0224 19.8234L59.217 20.1535L58.9348 20.4127C58.8811 20.4627 57.512 21.7611 50.7538 30.0046L50.5711 30.2275ZM42.8904 8.1045C40.763 8.1045 40.0653 11.1776 39.9021 12.1194C39.324 15.4579 38.3749 26.489 50.2057 29.1794C55.3952 22.8545 57.366 20.679 58.0157 19.9969C56.9008 18.2394 51.0253 9.52198 43.4243 8.16537C43.2306 8.12393 43.0565 8.1045 42.8904 8.1045Z" fill="black"/>
<path d="M50.05 40.0255C50.05 40.0255 22.1117 57.2767 38.8748 77.5957C42.5576 81.9131 45.0972 80.3896 47.2562 80.2626C49.4153 80.1356 53.9904 86.6121 59.2589 83.4374C64.5273 80.2626 63.2576 74.421 55.0029 73.9131C58.3047 73.532 69.0373 74.5481 69.0373 74.5481L50.05 40.0255Z" fill="#FCEAD9"/>
<path d="M56.2354 84.788C53.7464 84.788 51.5728 83.2877 49.8263 82.0824C48.8001 81.3739 47.8393 80.6998 47.2836 80.7355C46.9194 80.7568 46.5325 80.8228 46.1229 80.8925C45.5259 80.9943 44.9087 81.0994 44.2225 81.0994C42.1881 81.0994 40.3742 80.0838 38.5142 77.903C34.0975 72.5496 32.3438 66.9166 33.2968 61.1547C34.3787 54.6137 38.8145 49.1042 42.3452 45.634C46.1537 41.8907 49.7649 39.6449 49.8009 39.6227L50.2246 39.361L69.883 75.104L68.9923 75.0198C68.9283 75.0137 63.5507 74.5079 59.2852 74.3486C61.1545 75.1303 62.3884 76.3642 62.7711 77.9254C63.2915 80.0473 62.0392 82.3148 59.5031 83.8433C58.4626 84.4699 57.3632 84.788 56.2354 84.788ZM47.3194 79.7872C48.1683 79.7872 49.1374 80.4561 50.3643 81.3028C52.0026 82.4336 54.0415 83.8408 56.2353 83.8408C57.2019 83.8408 58.1107 83.5761 59.0141 83.0319C61.1819 81.7254 62.2689 79.8553 61.8511 78.1508C61.3379 76.058 58.7025 74.6153 54.9733 74.3858L54.9481 73.4427C55.4577 73.3838 56.1651 73.3541 57.0508 73.3541C60.5148 73.3541 66.0486 73.8082 68.1928 73.9966L49.8804 40.7006C47.5298 42.2679 36.0269 50.4398 34.2307 61.3126C33.3256 66.7913 35.0108 72.1684 39.2396 77.2943C41.3999 79.8266 43.0376 80.1522 44.2224 80.1522C44.8285 80.1522 45.4055 80.0539 45.9638 79.9588C46.3998 79.8845 46.8116 79.8144 47.2279 79.7898C47.2581 79.7881 47.2887 79.7872 47.3194 79.7872Z" fill="black"/>
<path opacity="0.5" d="M52.5158 44.5101C50.0047 50.8543 52.221 61.5178 58.7146 71.4875C59.2603 72.3253 59.8231 73.1369 60.3997 73.922C64.486 74.1176 69.0366 74.5482 69.0366 74.5482L52.5158 44.5101Z" fill="#F4D1C3"/>
<path d="M53.098 44.1978C53.098 44.1978 48.7802 49.5317 64.1464 83.0573C63.1304 83.8191 59.7016 88.1368 64.1464 89.0258C68.5913 89.9148 75.3219 88.2642 75.3219 86.3593C75.3219 84.4544 71.131 64.1354 71.131 64.1354C71.131 64.1354 75.0712 66.2941 77.2285 64.0083C77.3536 66.9292 74.9411 79.5015 78.2426 84.0733C81.2905 85.9782 90.3073 87.1207 89.6719 83.5651C89.0374 80.0096 86.1165 77.9774 86.1165 77.9774C86.1165 77.9774 92.2117 47.1176 86.4973 39.371C80.7826 31.6243 53.098 44.1978 53.098 44.1978Z" fill="#FCEAD9"/>
<path d="M66.888 89.7467C65.858 89.7467 64.9042 89.6603 64.053 89.4901C62.2407 89.1276 61.6701 88.2127 61.5106 87.5088C61.1366 85.8595 62.6451 83.7949 63.5667 82.9298C57.3527 69.332 53.4898 58.3402 52.3911 51.1266C51.5429 45.5566 52.6053 44.0528 52.7293 43.8998L52.7997 43.8127L52.9016 43.7664C53.566 43.4647 69.2921 36.3755 79.4522 36.3755C83.0509 36.3755 85.5493 37.2888 86.8777 39.0898C92.4162 46.5978 87.2829 74.4183 86.6371 77.7783C87.3889 78.3775 89.5804 80.3593 90.1376 83.4817C90.2519 84.1215 90.1115 84.6995 89.7317 85.1534C88.9058 86.14 87.1213 86.3472 85.7698 86.3472C85.7696 86.3472 85.7696 86.3472 85.7694 86.3472C83.0429 86.3472 79.699 85.5422 77.9911 84.4748L77.9124 84.4256L77.8582 84.3505C75.2674 80.7629 76.0147 72.8572 76.5093 67.626C76.6073 66.5901 76.692 65.693 76.7331 65.0004C76.1226 65.3536 75.4035 65.5319 74.5842 65.5319C73.5095 65.5319 72.4778 65.2207 71.7811 64.9486C72.605 68.9686 75.795 84.641 75.795 86.3592C75.795 88.5403 70.5285 89.7467 66.888 89.7467ZM53.4252 44.5699C53.2513 44.9248 52.6086 46.6357 53.3993 51.4366C54.2247 56.4477 56.8338 65.9672 64.5764 82.8598L64.7356 83.207L64.4301 83.4361C63.7177 83.9702 62.1364 85.9854 62.4343 87.2993C62.5763 87.9255 63.1835 88.3504 64.2388 88.5614C65.029 88.7194 65.9203 88.7995 66.8881 88.7995C71.2051 88.7995 74.8479 87.3006 74.8479 86.3592C74.8479 84.8907 72.1128 71.2425 70.6667 64.231L70.4597 63.2279L71.358 63.72C71.3734 63.7283 72.9628 64.5847 74.5842 64.5847C75.5454 64.5847 76.3191 64.2813 76.8835 63.6832L77.6532 62.8677L77.7013 63.9879C77.7335 64.7416 77.6096 66.0538 77.4525 67.715C77.0038 72.4596 76.2554 80.3763 78.5727 83.72C80.1509 84.6659 83.2825 85.4 85.7696 85.4C87.3713 85.4 88.5509 85.0887 89.0056 84.5455C89.2052 84.3069 89.2707 84.0135 89.2054 83.6483C88.6121 80.3247 85.8732 78.3853 85.8456 78.3661L85.5915 78.1894L85.6514 77.8856C85.7121 77.5791 91.6414 47.1429 86.1157 39.6521C84.9756 38.1066 82.7336 37.3229 79.4523 37.3229C69.9786 37.3227 54.9892 43.8743 53.4252 44.5699Z" fill="black"/>
<path d="M78.5176 14.1193C78.5176 14.1193 81.5739 7.51097 86.5299 6.10672C87.8105 5.6938 88.7192 6.89148 89.1321 8.3784C89.5452 9.86521 91.1558 16.8723 83.8247 19.2131C79.3435 14.7389 78.5176 14.1193 78.5176 14.1193Z" fill="#E2BD9C"/>
<path d="M55.2211 19.4965C55.2211 19.4965 51.0723 12.4591 45.3823 11.4436C43.9066 11.1252 43.0257 12.5638 42.7302 14.2698C42.4348 15.976 41.4173 23.9789 49.8631 25.7753C54.3678 20.2805 55.2211 19.4965 55.2211 19.4965Z" fill="#E2BD9C"/>
<path d="M53.4268 41.359C53.4268 41.359 54.1618 49.231 57.2935 49.9566C60.4253 50.6824 62.9692 50.5009 64.1917 52.1337C65.4144 53.7665 73.4414 57.2938 73.4414 57.2938C73.4414 57.2938 76.9637 50.5917 77.3121 50.1381C77.6604 49.6846 79.8377 47.6711 81.0168 47.1812C82.1958 46.6912 85.643 44.1881 85.643 42.945C85.643 41.702 86.5362 35.8059 86.5362 35.8059L53.4268 41.359Z" fill="#E2BD9C"/>
<path d="M45.8058 31.8596C45.8058 31.8596 45.2257 45.8351 53.9885 47.486C62.7511 49.1372 62.3211 48.7014 62.3211 48.7014C62.3211 48.7014 72.6059 54.3007 77.6028 46.47C80.6506 45.7081 87.581 43.2933 89.359 40.3725C91.1368 37.4515 92.1617 31.8596 92.1617 31.8596C92.1617 20.7194 81.7848 11.6885 68.9838 11.6885C56.1828 11.6885 45.8058 20.7194 45.8058 31.8596Z" fill="#FCEAD9"/>
<path d="M69.8326 51.1142C66.2849 51.1142 63.094 49.6253 62.2861 49.2172C62.2069 49.2271 62.1369 49.2298 62.0782 49.227C61.1568 49.227 58.3291 48.786 53.9007 47.9515C50.1241 47.2399 47.4448 44.2039 46.1523 39.1715C45.2116 35.5092 45.3223 32.1021 45.3321 31.85C45.3385 20.4713 55.9461 11.2148 68.9837 11.2148C82.0252 11.2148 92.6352 20.4761 92.6352 31.8596L92.6274 31.945C92.5849 32.1768 91.5661 37.657 89.7635 40.6188C87.862 43.7421 80.7277 46.1503 77.8991 46.8833C76.0424 49.691 73.3297 51.1142 69.8326 51.1142ZM59.752 46.7677L62.5473 48.2855C62.5819 48.3042 66.0563 50.167 69.8327 50.167C73.0503 50.167 75.5302 48.8375 77.2035 46.2153L77.3049 46.0563L77.4878 46.0106C81.0835 45.1118 87.376 42.7194 88.9544 40.1263C90.5866 37.4445 91.59 32.3299 91.6881 31.8158C91.6607 20.9745 81.4862 12.162 68.9838 12.162C56.4645 12.162 46.2794 20.9983 46.2794 31.8596L46.279 31.8791C46.2735 32.0148 45.819 45.4649 54.0762 47.0207C58.0677 47.7728 60.1178 48.0857 61.1705 48.208L59.752 46.7677Z" fill="black"/>
<path d="M59.2579 37.8452C61.1165 37.8452 62.6232 36.3385 62.6232 34.4799C62.6232 32.6213 61.1165 31.1146 59.2579 31.1146C57.3993 31.1146 55.8926 32.6213 55.8926 34.4799C55.8926 36.3385 57.3993 37.8452 59.2579 37.8452Z" fill="black"/>
<path d="M79.3027 30.3712C79.3027 32.2298 77.7959 33.7365 75.9374 33.7365C74.0791 33.7365 72.5723 32.2298 72.5723 30.3712C72.5723 28.5127 74.0791 27.006 75.9374 27.006C77.7959 27.006 79.3027 28.5127 79.3027 30.3712Z" fill="black"/>
<path d="M63.9551 43.7022C64.1989 43.8818 64.4481 44.051 64.6986 44.2162C64.9491 44.3809 65.2025 44.5395 65.4614 44.6863C65.7175 44.8369 65.9797 44.9751 66.2462 45.0986C66.5114 45.2235 66.7805 45.3371 67.0545 45.4224C67.3284 45.5061 67.6038 45.5743 67.8767 45.5974C68.1492 45.6219 68.4172 45.6021 68.6602 45.5269C68.9038 45.4551 69.1215 45.3231 69.3056 45.1446C69.4895 44.9643 69.6353 44.7379 69.7619 44.4951L69.9643 44.1071L70.2567 44.4214C70.4299 44.6075 70.6209 44.7702 70.8282 44.8802C71.0356 44.9906 71.2559 45.0469 71.4838 45.0424C71.7117 45.0374 71.9462 44.9672 72.1702 44.8543C72.3936 44.7405 72.6131 44.5952 72.8171 44.4243C73.0225 44.2547 73.2148 44.0643 73.4044 43.8674C73.5933 43.6698 73.7711 43.4595 73.9476 43.2461C74.1256 43.0338 74.2935 42.8118 74.4667 42.592C74.6395 42.3724 74.8053 42.1435 75.0016 41.9402C74.9254 42.058 74.8636 42.1835 74.7992 42.3082L74.6029 42.6804C74.4723 42.9292 74.3295 43.1722 74.1828 43.4142C74.0344 43.6555 73.8723 43.8888 73.7001 44.1181C73.5291 44.3481 73.3377 44.5647 73.1283 44.77C72.9178 44.9732 72.6885 45.1682 72.4194 45.3189C72.153 45.4702 71.8457 45.5855 71.5138 45.6102C71.1827 45.6391 70.8404 45.5588 70.5543 45.4083C70.2647 45.2604 70.0235 45.0566 69.8129 44.8379L70.3078 44.7643C70.2333 44.9105 70.1563 45.0574 70.0568 45.1936C69.9584 45.3302 69.8491 45.4618 69.7238 45.5806C69.4728 45.8179 69.1579 46.0014 68.8214 46.0933C68.4843 46.1862 68.1382 46.1848 67.8139 46.1407C67.4882 46.0956 67.1785 46.0051 66.8869 45.8839C66.301 45.6463 65.7766 45.3138 65.2888 44.945C64.8062 44.5692 64.3513 44.1625 63.9551 43.7022Z" fill="black"/>
<path d="M71.8914 40.0265C72.1528 41.2256 69.5738 42.8073 69.5738 42.8073C69.5738 42.8073 66.57 42.4447 66.308 41.2453C66.0463 40.0463 67.0838 38.8014 68.6254 38.4647C70.1675 38.1282 71.6293 38.8275 71.8914 40.0265Z" fill="black"/>
<path d="M16.3216 69.4297C15.5343 69.5294 14.7988 69.7938 14.1289 70.1911C14.2725 71.3855 14.547 72.6947 14.9734 74.1312C17.413 80.7247 20.2379 80.8489 20.2379 80.8489C20.2379 80.8489 20.5183 76.1031 22.608 72.5675C21.0087 70.387 18.7053 69.128 16.3216 69.4297Z" fill="#E2BD9C"/>
<path d="M62.2749 79.7906L61.8976 79.7581C61.9406 79.2576 60.6239 78.7777 59.9795 78.6237L60.0675 78.2551C60.3022 78.3112 62.3576 78.8308 62.2749 79.7906Z" fill="black"/>
<path d="M61.1885 82.1353L60.9217 81.8663C60.9841 81.66 60.1356 80.7308 59.1387 79.9214L59.3775 79.6273C59.6926 79.8832 61.266 81.1916 61.2981 81.8369C61.3056 81.9864 61.2426 82.0816 61.1885 82.1353Z" fill="black"/>
<path d="M61.9513 87.8753C61.7653 87.6828 61.7641 87.4834 61.7959 87.3502C62.0032 86.4796 64.4476 85.5891 64.9355 85.4194L65.06 85.7772C64.0061 86.1439 62.288 86.9191 62.1645 87.4379C62.1538 87.4827 62.1525 87.5382 62.2237 87.6119L61.9513 87.8753Z" fill="black"/>
<path d="M63.9561 89.0265C63.9532 88.2577 66.1013 87.3729 66.7597 87.12L66.8955 87.4737C65.658 87.9493 64.3336 88.6862 64.3349 89.025L63.9561 89.0265Z" fill="black"/>
<path d="M89.5694 83.3975C89.0213 83.31 87.5 83.1359 87.0488 83.3775L86.8701 83.0434C87.515 82.6982 89.4146 82.9891 89.6292 83.0234L89.5694 83.3975Z" fill="black"/>
<path d="M87.445 79.2718L87.2666 78.9373L86.0148 79.6047L86.1931 79.9392L87.445 79.2718Z" fill="black"/>
<path d="M68.9828 12.3582C56.7572 12.3582 46.8464 20.9834 46.8464 31.6231C46.8464 31.6231 46.5925 36.9274 49.0376 40.8347C51.1344 39.8392 55.3124 40.6219 55.9884 38.048C56.3517 36.6646 54.2767 35.5635 53.8731 33.9253C52.8655 29.8333 54.4495 25.9247 57.4113 25.1953C60.3729 24.466 62.8701 27.4404 64.5988 31.2841C67.2876 37.2624 70.6983 32.6755 70.6581 29.6983C70.7 25.4843 73.2071 22.0926 76.2567 22.1228C79.3071 22.1534 81.7458 25.5941 81.704 29.8084C81.6914 31.0636 80.4025 32.3854 81.0598 33.2854C83.0851 36.0584 87.7508 33.0931 90.7636 33.2847C91.027 32.2922 91.1197 31.6231 91.1197 31.6231C91.1198 20.9834 81.2089 12.3582 68.9828 12.3582Z" fill="#E2BD9C"/>
<path d="M101.28 78.1997C101.28 78.9325 101.399 79.6373 101.617 80.2974C103.808 80.8937 106.097 79.6588 106.787 77.4745C107.426 75.4513 106.474 73.3061 104.633 72.3885C102.629 73.5502 101.28 75.7169 101.28 78.1997Z" fill="#D5DD23"/>
<path d="M111.381 78.9252C110.885 80.4969 111.349 82.1409 112.443 83.2275C113.833 81.9967 114.709 80.2013 114.709 78.1997C114.709 77.4623 114.588 76.7538 114.369 76.0896C113 76.446 111.839 77.4768 111.381 78.9252Z" fill="#D5DD23"/>
<path d="M110.57 78.6692C111.107 76.9681 112.453 75.7475 114.05 75.2948C112.966 73.0413 110.662 71.4854 107.995 71.4854C107.135 71.4854 106.313 71.6485 105.557 71.9436C107.404 73.1703 108.299 75.5111 107.598 77.7311C106.835 80.1473 104.44 81.5949 102.012 81.2467C103.122 83.4229 105.383 84.9145 107.995 84.9145C109.393 84.9145 110.692 84.4862 111.767 83.7549C110.509 82.4514 109.986 80.5178 110.57 78.6692Z" fill="#D5DD23"/>
<path d="M107.598 77.7311C108.299 75.5111 107.404 73.1704 105.557 71.9436C105.236 72.0685 104.927 72.2174 104.632 72.3885C106.473 73.3061 107.426 75.4512 106.787 77.4745C106.097 79.6587 103.807 80.8936 101.616 80.2974C101.724 80.6259 101.857 80.9428 102.012 81.2468C104.44 81.5949 106.835 80.1473 107.598 77.7311Z" fill="white"/>
<path d="M111.381 78.9252C111.839 77.4769 113 76.4461 114.37 76.0896C114.279 75.8169 114.173 75.5507 114.05 75.2948C112.453 75.7475 111.107 76.9681 110.57 78.6692C109.986 80.5178 110.51 82.4515 111.768 83.755C112.004 83.5933 112.23 83.4166 112.444 83.2275C111.349 82.141 110.885 80.497 111.381 78.9252Z" fill="white"/>
<path d="M60.2641 36.68C60.9239 36.68 61.4588 36.1451 61.4588 35.4853C61.4588 34.8254 60.9239 34.2905 60.2641 34.2905C59.6042 34.2905 59.0693 34.8254 59.0693 35.4853C59.0693 36.1451 59.6042 36.68 60.2641 36.68Z" fill="white"/>
<path d="M76.4755 31.4807C76.4755 32.1405 75.9407 32.6754 75.2806 32.6754C74.6209 32.6754 74.0859 32.1405 74.0859 31.4807C74.0859 30.8208 74.6209 30.2859 75.2806 30.2859C75.9407 30.2859 76.4755 30.8208 76.4755 31.4807Z" fill="white"/>
<path d="M52.4148 81.0215C52.4148 77.4902 49.5148 74.6278 45.9377 74.6278C43.3836 74.6278 41.1757 76.0876 40.1211 78.2075C43.1484 80.988 45.342 79.7837 47.236 79.6721C48.3395 79.6072 50.0873 81.3017 52.2393 82.4979C52.3529 82.0238 52.4148 81.5298 52.4148 81.0215Z" fill="#E2BD9C"/>
</svg>
