<svg width="114" height="114" viewBox="0 0 114 114" fill="none" xmlns="http://www.w3.org/2000/svg">
<g filter="url(#filter0_d_146_269)">
<mask id="mask0_146_269" style="mask-type:luminance" maskUnits="userSpaceOnUse" x="0" y="0" width="114" height="114">
<path d="M0.203719 33.6164L79.4526 0.000113534L113.249 79.6732L34 113.29L0.203719 33.6164Z" fill="white"/>
<path d="M112.374 79.3196L79.099 0.874425L1.07815 33.9698L34.3536 112.415L112.374 79.3196Z" stroke="white" stroke-width="1.33333"/>
</mask>
<g mask="url(#mask0_146_269)">
<path d="M41.7329 31.4362C47.7358 39.1432 49.0069 48.4602 44.5724 52.2463C40.1379 56.0322 31.6743 52.8542 25.6717 45.1482C19.6685 37.4413 18.3977 28.1242 22.8307 24.3401C27.2666 20.5524 35.7301 23.7301 41.7329 31.4362Z" fill="#FCAA48"/>
<path d="M36.2373 51.602C39.3781 52.7814 41.9553 52.5077 43.5984 51.105L43.5988 51.1059C45.2685 49.6802 46.0595 47.0242 45.5806 43.5143C45.1372 40.2643 43.6196 36.5342 41.0724 33.0515L40.5491 32.358C37.6844 28.6804 34.282 26.1515 31.167 24.982C28.1243 23.8398 25.61 24.0614 23.9613 25.3527L23.8045 25.4807L23.6506 25.6181C22.0875 27.0723 21.3599 29.6705 21.824 33.0706C22.2677 36.3205 23.7849 40.0508 26.3322 43.5334L26.8552 44.226C29.7198 47.9035 33.1224 50.4322 36.2373 51.602Z" stroke="black" stroke-opacity="0.2" stroke-width="3"/>
<path d="M33.7458 63.0433C40.3572 68.3357 43.2138 76.2702 40.1243 80.7646C37.0355 85.2606 29.1701 84.6156 22.5598 79.3204C15.947 74.0297 13.0919 66.0933 16.1828 61.5974C19.2701 57.1028 27.1341 57.7499 33.7458 63.0433Z" fill="#FCAA48"/>
<path d="M32.7856 82.2187C35.4406 82.4368 37.4737 81.687 38.6614 80.2184L38.8883 79.9154L38.8879 79.9145C40.0599 78.2094 40.2219 75.6582 39.1612 72.7114C38.1764 69.9757 36.192 67.0924 33.3819 64.6887L32.8085 64.2148L32.8082 64.2139C29.6911 61.7185 26.3482 60.3778 23.5198 60.1449C20.8648 59.9264 18.8322 60.6759 17.6453 62.1435L17.4194 62.4462L17.4189 62.4475C16.2461 64.1536 16.0834 66.7065 17.1437 69.6535C18.1281 72.3895 20.1131 75.2721 22.9235 77.675L23.4968 78.1488L23.4972 78.1497C26.6135 80.646 29.9568 81.9863 32.7856 82.2187Z" stroke="black" stroke-opacity="0.2" stroke-width="3"/>
<path d="M57.8406 57.0041C68.2393 52.5931 97.9825 69.0153 95.9599 81.632C93.9372 94.2489 79.0965 89.3459 72.7089 92.0554C66.3215 94.7648 59.5322 108.843 49.0549 101.528C38.5777 94.214 47.4421 61.415 57.8406 57.0041Z" fill="#FCAA48"/>
<path d="M85.7561 89.0743C88.0282 88.745 89.9795 88.1429 91.4609 87.0108C92.804 85.9844 93.8835 84.4285 94.3862 81.9108L94.4789 81.3941C94.8839 78.8667 93.7185 75.9063 91.1604 72.7932C88.6324 69.7169 84.9259 66.7227 80.7818 64.2159C76.6431 61.7124 72.1448 59.7418 68.0844 58.6673C63.9538 57.5743 60.5536 57.4828 58.4261 58.3853C56.2988 59.2879 54.002 61.796 51.9172 65.5252C49.8677 69.1914 48.1583 73.7954 47.0819 78.5109C46.004 83.2328 45.5808 87.9789 46.0357 91.9345C46.4817 95.8124 47.7329 98.6511 49.7187 100.157L49.9134 100.298C52.2587 101.936 54.2664 102.301 56.0493 102.032C57.8928 101.754 59.682 100.769 61.4978 99.3643C63.3272 97.9491 65.0124 96.2503 66.7678 94.6105C68.4482 93.0409 70.2487 91.4697 72.1228 90.6746C73.9972 89.8796 76.3788 89.6768 78.6754 89.5595C81.0745 89.437 83.4671 89.406 85.7561 89.0743Z" stroke="black" stroke-opacity="0.2" stroke-width="3"/>
<path d="M48.7461 28.4611C50.1152 38.1337 55.9309 45.5229 61.7349 44.966C67.5392 44.4087 71.1364 36.1147 69.7678 26.443C68.3986 16.7705 62.583 9.38124 56.7811 9.93862C50.9748 10.4956 47.3773 18.7893 48.7461 28.4611Z" fill="#FCAA48"/>
<path d="M61.5914 43.4724C63.742 43.2659 65.7299 41.6031 67.0648 38.5252C68.3058 35.6633 68.8648 31.7898 68.3915 27.5136L68.2821 26.6531C67.629 22.0394 65.9215 18.032 63.758 15.2826C61.6359 12.5858 59.2622 11.3031 57.1302 11.4163L56.9245 11.4315C54.7727 11.6379 52.7839 13.301 51.4489 16.3785C50.2075 19.2404 49.6491 23.1145 50.1225 27.391L50.2316 28.2506C50.8846 32.8646 52.5922 36.8726 54.756 39.6221C56.9468 42.4058 59.4063 43.683 61.5918 43.4733L61.5914 43.4724Z" stroke="black" stroke-opacity="0.2" stroke-width="3"/>
<path d="M74.8275 38.4116C72.8274 46.5396 75.4472 54.5522 80.684 56.3042C85.9197 58.0589 91.7885 52.8901 93.7856 44.7599C95.7878 36.632 93.1658 28.6192 87.9267 26.8671C82.6934 25.1127 76.8267 30.2815 74.8275 38.4116Z" fill="#FCAA48"/>
<path d="M81.161 54.8815C83.1264 55.5401 85.3582 54.963 87.4578 53.1133C89.4283 51.3772 91.16 48.6003 92.1426 45.1092L92.3286 44.4024L92.3291 44.4011C93.2699 40.582 93.1103 36.8343 92.146 33.8889C91.2036 31.0106 89.57 29.0858 87.6384 28.3564L87.4509 28.2895L87.4496 28.289C85.4859 27.6308 83.2554 28.2082 81.1563 30.0579C79.1862 31.794 77.4541 34.5711 76.4706 38.0623L76.2837 38.7696L76.2841 38.7705C75.3443 42.5897 75.5034 46.3373 76.4672 49.2827C77.4091 52.1613 79.0422 54.0858 80.9726 54.8151L81.1601 54.8819L81.161 54.8815Z" stroke="black" stroke-opacity="0.2" stroke-width="3"/>
</g>
</g>
<defs>
<filter id="filter0_d_146_269" x="10.9365" y="9.90906" width="89.1221" height="101.703" filterUnits="userSpaceOnUse" color-interpolation-filters="sRGB">
<feFlood flood-opacity="0" result="BackgroundImageFix"/>
<feColorMatrix in="SourceAlpha" type="matrix" values="0 0 0 0 0 0 0 0 0 0 0 0 0 0 0 0 0 0 127 0" result="hardAlpha"/>
<feOffset dy="4"/>
<feGaussianBlur stdDeviation="2"/>
<feComposite in2="hardAlpha" operator="out"/>
<feColorMatrix type="matrix" values="0 0 0 0 0 0 0 0 0 0 0 0 0 0 0 0 0 0 0.25 0"/>
<feBlend mode="normal" in2="BackgroundImageFix" result="effect1_dropShadow_146_269"/>
<feBlend mode="normal" in="SourceGraphic" in2="effect1_dropShadow_146_269" result="shape"/>
</filter>
</defs>
</svg>
