<svg width="19" height="16" viewBox="0 0 19 16" fill="none" xmlns="http://www.w3.org/2000/svg">
<path d="M7.64453 15C7.3612 15 7.1237 14.9042 6.93203 14.7125C6.74036 14.5208 6.64453 14.2833 6.64453 14C6.64453 13.7167 6.74036 13.4792 6.93203 13.2875C7.1237 13.0958 7.3612 13 7.64453 13H17.6445C17.9279 13 18.1654 13.0958 18.357 13.2875C18.5487 13.4792 18.6445 13.7167 18.6445 14C18.6445 14.2833 18.5487 14.5208 18.357 14.7125C18.1654 14.9042 17.9279 15 17.6445 15H7.64453ZM7.64453 9C7.3612 9 7.1237 8.90417 6.93203 8.7125C6.74036 8.52083 6.64453 8.28333 6.64453 8C6.64453 7.71667 6.74036 7.47917 6.93203 7.2875C7.1237 7.09583 7.3612 7 7.64453 7H17.6445C17.9279 7 18.1654 7.09583 18.357 7.2875C18.5487 7.47917 18.6445 7.71667 18.6445 8C18.6445 8.28333 18.5487 8.52083 18.357 8.7125C18.1654 8.90417 17.9279 9 17.6445 9H7.64453ZM7.64453 3C7.3612 3 7.1237 2.90417 6.93203 2.7125C6.74036 2.52083 6.64453 2.28333 6.64453 2C6.64453 1.71667 6.74036 1.47917 6.93203 1.2875C7.1237 1.09583 7.3612 1 7.64453 1H17.6445C17.9279 1 18.1654 1.09583 18.357 1.2875C18.5487 1.47917 18.6445 1.71667 18.6445 2C18.6445 2.28333 18.5487 2.52083 18.357 2.7125C18.1654 2.90417 17.9279 3 17.6445 3H7.64453ZM2.64453 16C2.09453 16 1.6237 15.8042 1.23203 15.4125C0.840365 15.0208 0.644531 14.55 0.644531 14C0.644531 13.45 0.840365 12.9792 1.23203 12.5875C1.6237 12.1958 2.09453 12 2.64453 12C3.19453 12 3.66536 12.1958 4.05703 12.5875C4.4487 12.9792 4.64453 13.45 4.64453 14C4.64453 14.55 4.4487 15.0208 4.05703 15.4125C3.66536 15.8042 3.19453 16 2.64453 16ZM2.64453 10C2.09453 10 1.6237 9.80417 1.23203 9.4125C0.840365 9.02083 0.644531 8.55 0.644531 8C0.644531 7.45 0.840365 6.97917 1.23203 6.5875C1.6237 6.19583 2.09453 6 2.64453 6C3.19453 6 3.66536 6.19583 4.05703 6.5875C4.4487 6.97917 4.64453 7.45 4.64453 8C4.64453 8.55 4.4487 9.02083 4.05703 9.4125C3.66536 9.80417 3.19453 10 2.64453 10ZM2.64453 4C2.09453 4 1.6237 3.80417 1.23203 3.4125C0.840365 3.02083 0.644531 2.55 0.644531 2C0.644531 1.45 0.840365 0.979167 1.23203 0.5875C1.6237 0.195833 2.09453 0 2.64453 0C3.19453 0 3.66536 0.195833 4.05703 0.5875C4.4487 0.979167 4.64453 1.45 4.64453 2C4.64453 2.55 4.4487 3.02083 4.05703 3.4125C3.66536 3.80417 3.19453 4 2.64453 4Z" fill="#CDD0D8"/>
</svg>
