<svg width="114" height="114" viewBox="0 0 114 114" fill="none" xmlns="http://www.w3.org/2000/svg">
<g filter="url(#filter0_d_146_269)">
<mask id="mask0_146_269" style="mask-type:luminance" maskUnits="userSpaceOnUse" x="0" y="0" width="114" height="114">
<path d="M0.203719 33.6164L79.4526 0.000113534L113.249 79.6732L34 113.29L0.203719 33.6164Z" fill="white"/>
<path d="M112.375 79.3198L79.0992 0.874181L1.07779 33.9698L34.3534 112.415L112.375 79.3198Z" stroke="white" stroke-width="1.33333"/>
</mask>
<g mask="url(#mask0_146_269)">
<path d="M41.7329 31.4362C47.7358 39.1432 49.0069 48.4602 44.5724 52.2463C40.1379 56.0322 31.6743 52.8542 25.6717 45.1482C19.6685 37.4413 18.3977 28.1242 22.8307 24.3401C27.2666 20.5524 35.7301 23.7301 41.7329 31.4362Z" fill="#FCAA48"/>
<path d="M26.855 44.2264C29.7197 47.904 33.1224 50.4327 36.2374 51.6024C39.3782 52.7819 41.9554 52.5082 43.5984 51.1055C45.2682 49.6798 46.0593 47.0243 45.5804 43.5144C45.1074 40.0476 43.4129 36.0343 40.5496 32.358C37.6848 28.6803 34.2821 26.1518 31.167 24.9823C28.0263 23.8032 25.4487 24.0771 23.8047 25.4808L23.8046 25.481C22.1358 26.9055 21.3448 29.5604 21.8239 33.0703C22.297 36.5368 23.9915 40.5502 26.855 44.2264ZM26.855 44.2264L25.6722 45.1478L26.855 44.2264Z" stroke="black" stroke-opacity="0.2" stroke-width="3"/>
<path d="M33.7458 63.0433C40.3572 68.3357 43.2138 76.2702 40.1243 80.7646C37.0355 85.2606 29.1701 84.6156 22.5598 79.3204C15.947 74.0297 13.0919 66.0933 16.1828 61.5974C19.2701 57.1028 27.1341 57.7499 33.7458 63.0433Z" fill="#FCAA48"/>
<path d="M32.8084 64.2143L32.8083 64.2143C29.6912 61.7186 26.3482 60.3776 23.5196 60.1448C20.6876 59.9117 18.564 60.7802 17.4192 62.4466L17.4189 62.4472C16.246 64.1532 16.0835 66.7059 17.1438 69.653C18.1939 72.5716 20.3822 75.6572 23.4969 78.1491L23.4976 78.1497C26.6139 80.646 29.9566 81.9868 32.7854 82.2192C35.6176 82.4519 37.7423 81.5827 38.888 79.9152L38.8882 79.9148C40.0603 78.2098 40.2223 75.6581 39.1616 72.7112C38.1111 69.793 35.9227 66.7073 32.8084 64.2143Z" stroke="black" stroke-opacity="0.2" stroke-width="3"/>
<path d="M57.8406 57.0041C68.2393 52.5931 97.9825 69.0153 95.9599 81.632C93.9372 94.2489 79.0965 89.3459 72.7089 92.0554C66.3215 94.7648 59.5322 108.843 49.0549 101.528C38.5777 94.214 47.4421 61.415 57.8406 57.0041Z" fill="#FCAA48"/>
<path d="M94.4788 81.3945C94.884 78.867 93.7188 75.9065 91.1605 72.7932C88.6325 69.7169 84.926 66.7229 80.7819 64.2161C76.6432 61.7126 72.1449 59.7416 68.0844 58.6672C63.9539 57.5742 60.5539 57.4825 58.4264 58.385C56.2989 59.2874 54.0019 61.7957 51.9169 65.5252C49.8674 69.1914 48.1582 73.7956 47.0818 78.5113C46.0039 83.2331 45.5806 87.979 46.0355 91.9347C46.4959 95.9378 47.8146 98.8332 49.9135 100.299C52.2589 101.936 54.266 102.301 56.0488 102.032C57.8926 101.754 59.6819 100.769 61.4978 99.3645C62.9067 98.2746 64.23 97.0167 65.5657 95.747C65.9644 95.368 66.3642 94.988 66.7677 94.611C68.4483 93.0412 70.2488 91.4696 72.1232 90.6745C73.9976 89.8793 76.379 89.6771 78.6757 89.5598C79.2272 89.5317 79.7784 89.5083 80.328 89.4851C82.1692 89.4071 83.9933 89.3299 85.7561 89.0744C88.0283 88.7451 89.9795 88.1427 91.461 87.0105C92.8937 85.9157 94.026 84.2188 94.4788 81.3945Z" stroke="black" stroke-opacity="0.2" stroke-width="3"/>
<path d="M48.7461 28.4612C50.1152 38.1338 55.9309 45.523 61.7349 44.966C67.5392 44.4088 71.1364 36.1148 69.7678 26.4431C68.3986 16.7705 62.583 9.38131 56.7811 9.93868C50.9748 10.4956 47.3773 18.7894 48.7461 28.4612Z" fill="#FCAA48"/>
<path d="M56.9243 11.4318L56.9245 11.4318C59.1087 11.222 61.5673 12.4984 63.7579 15.2823C65.9215 18.0318 67.6295 22.0394 68.2826 26.6533C68.9357 31.269 68.3889 35.473 67.065 38.5257C65.7302 41.6036 63.7423 43.2664 61.5917 43.4729L56.9243 11.4318ZM56.9243 11.4318C54.7725 11.6382 52.7841 13.3012 51.449 16.3788C50.1249 19.4313 49.5781 23.6352 50.2313 28.251C50.8844 32.8649 52.5923 36.8725 54.7561 39.622M56.9243 11.4318L54.7561 39.622M54.7561 39.622C56.9469 42.4057 59.4061 43.6826 61.5916 43.4729L54.7561 39.622Z" stroke="black" stroke-opacity="0.2" stroke-width="3"/>
<path d="M74.8275 38.4117C72.8274 46.5398 75.4472 54.5524 80.684 56.3043C85.9197 58.059 91.7885 52.8903 93.7856 44.7601C95.7878 36.6321 93.1658 28.6193 87.9267 26.8672C82.6934 25.1128 76.8267 30.2816 74.8275 38.4117Z" fill="#FCAA48"/>
<path d="M76.2841 38.7699L76.2841 38.7702C75.3442 42.5895 75.5038 46.3371 76.4675 49.2826C77.4398 52.2539 79.148 54.2087 81.1599 54.8818L81.1607 54.882C83.1261 55.5407 85.358 54.9633 87.4577 53.1135C89.5595 51.2618 91.3897 48.2259 92.3289 44.4022L92.3292 44.4013C93.27 40.5821 93.1104 36.8348 92.1461 33.8894C91.1734 30.9183 89.4642 28.9631 87.451 28.2897L87.4499 28.2894C85.486 27.631 83.2554 28.2082 81.1561 30.0581C79.0547 31.9099 77.2244 34.946 76.2841 38.7699Z" stroke="black" stroke-opacity="0.2" stroke-width="3"/>
</g>
</g>
<defs>
<filter id="filter0_d_146_269" x="10.9365" y="9.90918" width="89.1221" height="101.703" filterUnits="userSpaceOnUse" color-interpolation-filters="sRGB">
<feFlood flood-opacity="0" result="BackgroundImageFix"/>
<feColorMatrix in="SourceAlpha" type="matrix" values="0 0 0 0 0 0 0 0 0 0 0 0 0 0 0 0 0 0 127 0" result="hardAlpha"/>
<feOffset dy="4"/>
<feGaussianBlur stdDeviation="2"/>
<feComposite in2="hardAlpha" operator="out"/>
<feColorMatrix type="matrix" values="0 0 0 0 0 0 0 0 0 0 0 0 0 0 0 0 0 0 0.25 0"/>
<feBlend mode="normal" in2="BackgroundImageFix" result="effect1_dropShadow_146_269"/>
<feBlend mode="normal" in="SourceGraphic" in2="effect1_dropShadow_146_269" result="shape"/>
</filter>
</defs>
</svg>
