<svg width="213" height="181" viewBox="0 0 213 181" fill="none" xmlns="http://www.w3.org/2000/svg">
<ellipse cx="106.5" cy="148.5" rx="106.5" ry="3.5" fill="black" fill-opacity="0.09"/>
<path d="M150.701 78.9559C150.333 80.4996 149.65 81.8365 148.65 82.9665C147.833 83.8904 146.817 84.7347 145.603 85.4995C144.49 86.1994 143.215 86.636 141.98 86.9383C140.645 87.2647 139.222 87.4638 137.713 87.5357C134.008 87.7101 130.302 87.7225 126.596 87.5728C126.03 87.5504 125.518 87.4904 125.062 87.3925C124.554 87.283 124.043 87.1899 123.528 87.1133C122.744 86.9978 122.045 86.8204 121.432 86.5812C119.339 85.7681 117.555 84.6581 116.15 82.9612C115.746 82.4746 115.349 81.9095 114.959 81.2661C114.61 80.6922 114.256 80.1066 113.898 79.5091C113.825 77.216 114.367 75.0148 115.524 72.9055C118.176 68.0729 122.476 64.6915 127.809 63.2262C130.827 62.3966 133.832 62.4013 136.825 63.2404C142.464 64.8223 147.164 68.7269 149.61 74.1057C150.248 75.5079 150.611 77.1247 150.701 78.9559ZM133.525 71.9368C134.142 71.8249 134.69 71.6246 135.169 71.3359C136.364 70.6165 136.999 69.0486 136.113 67.7989C135.116 66.3919 133.403 66.2983 131.729 66.3354C130.635 66.359 129.718 66.6117 128.979 67.0937C127.48 68.0729 127.572 69.9748 128.88 71.0866C129.498 71.6098 130.167 71.9003 130.89 71.9581C130.959 71.9628 130.995 71.9999 130.996 72.0694C131.016 73.3692 131.012 74.5216 130.985 75.5268C130.953 76.6793 129.37 77.328 128.431 76.902C127.802 76.6156 127.409 76.0871 127.356 75.3889C127.303 74.7031 127.196 73.9501 126.405 73.7539C125.587 73.5506 124.836 74.3531 124.908 75.1556C125.053 76.7835 125.964 78.4079 127.553 79.0337C129.207 79.6841 130.881 79.2847 132.076 77.9254C132.127 77.8688 132.178 77.8682 132.23 77.9236C132.348 78.0491 132.438 78.2011 132.569 78.3213C133.554 79.2228 134.992 79.5922 136.3 79.1627C138.142 78.5547 139.272 77.2608 139.383 75.2493C139.427 74.4769 139.037 73.6602 138.156 73.6938C137.771 73.7091 137.463 73.8941 137.234 74.2488C136.979 74.643 137.014 75.1591 136.944 75.6099C136.846 76.2474 136.46 76.6857 135.786 76.9249C135.402 77.0605 135.132 77.1047 134.976 77.0575C133.331 76.5591 133.345 75.3872 133.379 73.8423C133.393 73.2507 133.396 72.671 133.387 72.103C133.386 72.0087 133.432 71.9533 133.525 71.9368Z" fill="#FCFBF6"/>
<path d="M134.067 133.026C138.781 133.376 143.716 134.566 147.177 137.966C146.827 139.669 146.555 141.396 146.104 143.084C145.65 144.784 144.383 146.124 142.525 146.018C142.451 145.986 142.426 145.972 142.451 145.975C142.457 145.976 142.463 145.976 142.47 145.975C142.476 145.973 142.481 145.97 142.486 145.966C142.491 145.963 142.495 145.958 142.498 145.952C142.5 145.947 142.502 145.941 142.502 145.935C142.506 145.655 142.51 145.382 142.516 145.115C142.519 144.944 142.466 144.781 142.357 144.625C142.054 144.197 141.646 144.042 141.132 144.158C140.828 144.228 140.589 144.36 140.415 144.556C140.37 144.607 140.346 144.666 140.342 144.735L140.263 146.005L134.209 146.027C134.171 146.027 134.134 146.012 134.107 145.985C134.081 145.959 134.065 145.923 134.065 145.885L134.067 133.026Z" fill="#FCFBF6"/>
<path d="M130.229 133.097C130.388 133.366 130.453 133.671 130.425 134.014C130.378 134.583 130.355 134.874 130.356 134.886C130.369 135.681 130.355 136.46 130.315 137.222C130.297 137.591 130.3 137.964 130.326 138.341C130.352 138.708 130.358 139.075 130.345 139.443C130.296 140.973 130.284 142.549 130.308 144.171C130.309 144.234 130.298 144.296 130.274 144.354C130.251 144.412 130.216 144.465 130.172 144.51C130.127 144.554 130.074 144.59 130.016 144.614C129.958 144.638 129.896 144.65 129.833 144.65C128.631 144.648 127.397 144.662 126.165 144.614C125.827 144.602 125.488 144.612 125.147 144.646C125.072 144.653 125.033 144.619 125.03 144.542C125.019 144.092 124.983 143.643 124.923 143.195C124.818 142.423 124.415 142.069 123.714 142.131C123.01 142.193 122.65 142.585 122.634 143.306C122.613 144.216 122.603 145.118 122.603 146.011C121.312 146.158 120.309 145.909 119.593 145.263C118.852 144.594 118.342 143.735 118.063 142.686C117.766 141.57 117.456 140 117.133 137.975C117.886 137.359 118.612 136.749 119.417 136.264C121.492 135.02 123.687 134.152 126.003 133.661C127.281 133.39 128.69 133.202 130.229 133.097Z" fill="#FCFBF6"/>
<path d="M158.108 144.37C158.06 144.526 157.949 144.604 157.776 144.606C155.773 144.618 153.769 144.614 151.766 144.591C151.103 144.583 150.44 144.581 149.779 144.584C149.208 144.587 148.64 144.519 148.077 144.383C148.683 142.635 148.982 140.749 149.337 138.939C149.343 138.91 149.359 138.884 149.382 138.866C149.405 138.848 149.434 138.839 149.463 138.84C151.814 138.906 153.875 139.706 155.646 141.24C156.764 142.208 157.585 143.251 158.108 144.37Z" fill="#FCFBF6"/>
<path d="M112.305 139.379C112.604 140.068 112.779 140.524 112.83 140.745C113.117 141.971 113.436 143.216 113.788 144.482C113.795 144.506 113.796 144.531 113.79 144.555C113.784 144.58 113.773 144.602 113.756 144.62C113.739 144.638 113.718 144.652 113.694 144.66C113.67 144.667 113.645 144.669 113.621 144.664C112.924 144.519 112.173 144.521 111.448 144.558C109.811 144.638 108.152 144.643 106.471 144.572C106.999 143.258 107.765 142.19 108.77 141.367C109.808 140.518 110.987 139.855 112.305 139.379Z" fill="#FCFBF6"/>
<path d="M135.742 29.644L134.411 29.9569C134.354 29.9706 134.302 30.0043 134.266 30.0523L134.098 30.275C134.035 30.3564 134.002 30.3452 133.997 30.2415C133.996 30.2014 133.984 30.1649 133.96 30.1319C133.921 30.08 133.88 30.0777 133.836 30.1248C133.817 30.146 133.804 30.1784 133.797 30.222C133.795 30.202 133.791 30.1831 133.785 30.1655C133.78 30.1488 133.769 30.1346 133.754 30.1255C133.739 30.1164 133.721 30.113 133.704 30.116C133.604 30.1336 133.544 30.202 133.525 30.321C133.515 30.3929 133.569 30.4241 133.69 30.4147C133.632 30.417 133.583 30.4265 133.543 30.443C133.463 30.4748 133.453 30.5207 133.515 30.5808C133.537 30.6032 133.549 30.6315 133.55 30.6657C133.55 30.6846 133.556 30.7031 133.566 30.7193C133.576 30.7355 133.59 30.749 133.606 30.7583C133.623 30.7677 133.642 30.7727 133.661 30.7729C133.68 30.7731 133.699 30.7684 133.716 30.7594C133.767 30.7323 133.809 30.6946 133.843 30.6462C133.902 30.5638 133.937 30.5732 133.948 30.6745C133.956 30.7405 133.937 30.8006 133.891 30.8548C133.864 30.887 133.847 30.9266 133.843 30.9679C133.815 31.2696 133.933 31.4664 134.197 31.5583C134.476 31.6538 134.765 31.7162 135.063 31.7457C136.486 31.8847 137.898 32.1092 139.296 32.4191C143.5 33.3489 147.232 35.2196 150.492 38.0312C153.464 40.593 155.56 43.7287 156.781 47.4382C157.282 48.9619 157.654 50.4714 157.897 51.9668C158.181 53.7214 158.376 55.7235 158.483 57.973C158.738 63.2769 158.972 68.2132 159.185 72.7818C159.229 73.708 159.217 74.6012 159.15 75.4614C158.883 78.9312 156.7 81.7522 153.944 83.7125C152.396 84.8119 150.713 85.6768 148.896 86.3073C149.159 85.9773 149.383 85.5943 149.568 85.1583C150.151 83.7902 150.49 82.418 150.586 81.0417C150.635 80.3264 150.674 79.6311 150.701 78.9559C150.611 77.1247 150.248 75.508 149.61 74.1057C147.164 68.7269 142.464 64.8224 136.825 63.2404C133.832 62.4014 130.827 62.3967 127.809 63.2262C122.476 64.6916 118.176 68.0729 115.524 72.9055C114.367 75.0148 113.825 77.216 113.898 79.5092C113.886 79.9499 113.894 80.357 113.923 80.7306C114.061 82.5394 114.583 84.3447 115.489 86.1464C113.005 85.3557 110.798 84.0489 108.867 82.2259C106.406 79.901 105.23 77.0022 105.341 73.5294C105.369 72.6433 105.404 71.8031 105.445 71.0089C105.63 67.4407 105.813 64.0093 105.993 60.7145C106.105 58.6523 106.244 56.6797 106.411 54.7967C106.654 52.0157 107.255 49.2971 108.213 46.6411C108.628 45.4933 109.127 44.4322 109.711 43.4576C110.772 41.6865 111.945 40.1947 113.23 38.9821C114.4 37.8792 115.742 36.8457 117.256 35.8818C119.192 34.6492 121.242 33.7195 123.404 33.0926C125.423 32.5069 126.913 32.1611 127.876 32.055C128.902 31.9431 129.959 31.8075 131.045 31.6485C131.461 31.5872 131.7 31.3615 131.761 30.9715C131.771 30.9114 131.759 30.8554 131.728 30.8036L131.171 29.9021C131.7 30.0482 132.08 30.3487 132.313 30.8036C132.322 30.8224 132.336 30.8388 132.352 30.8517C132.369 30.8645 132.388 30.8733 132.409 30.8776C132.43 30.8818 132.451 30.8814 132.472 30.8762C132.493 30.871 132.512 30.8613 132.528 30.8477C132.758 30.6557 133.001 30.4536 133.257 30.2415C133.479 30.0576 133.736 29.9186 134.027 29.8243C134.577 29.6464 135.149 29.5863 135.742 29.644ZM120.404 61.5736C120.959 61.5997 121.502 61.3956 121.914 61.0062C122.326 60.6168 122.572 60.0739 122.599 59.497C122.626 58.9201 122.432 58.3565 122.059 57.9301C121.686 57.5037 121.165 57.2494 120.61 57.2232C120.055 57.197 119.512 57.4011 119.1 57.7905C118.689 58.18 118.442 58.7228 118.415 59.2997C118.388 59.8766 118.582 60.4403 118.955 60.8667C119.328 61.2931 119.85 61.5474 120.404 61.5736ZM144 61.5414C144.546 61.569 145.081 61.3683 145.487 60.9833C145.894 60.5983 146.138 60.0606 146.167 59.4885C146.196 58.9164 146.007 58.3567 145.642 57.9326C145.276 57.5085 144.764 57.2547 144.218 57.2271C143.672 57.1995 143.137 57.4002 142.731 57.7852C142.324 58.1702 142.08 58.7079 142.051 59.28C142.022 59.8521 142.211 60.4118 142.576 60.8359C142.942 61.26 143.454 61.5138 144 61.5414Z" fill="#84665B"/>
<path d="M160.801 38.5596C164.635 40.2612 167.954 42.5644 170.756 45.4691C171.774 46.5261 172.522 47.4299 173.001 48.1806C175.532 52.1594 176.451 56.7233 175.802 61.3155C175.627 62.5539 175.259 63.8425 174.699 65.1811C173.686 67.6074 172.074 69.5129 169.863 70.8975C167.569 72.3328 164.813 72.43 162.245 71.7777C161.775 71.6576 161.494 71.6045 161.464 71.0371C161.276 67.4878 161.112 63.9185 160.971 60.3291C160.859 57.5222 160.626 54.7082 160.262 52.1011C160.018 50.3453 159.584 48.5476 158.961 46.7082C157.476 42.3211 154.72 38.3599 151.042 35.4469C151.001 35.4139 151.006 35.4016 151.058 35.4098C151.862 35.5536 152.679 35.7404 153.51 35.9701C156.095 36.6866 158.525 37.5498 160.801 38.5596Z" fill="#84665B"/>
<path d="M105.231 38.109C107.973 36.9335 110.847 36.1328 113.663 35.5265C113.792 35.4983 113.808 35.5289 113.71 35.6185C113.307 35.9896 112.828 36.2813 112.425 36.6525C109.838 39.0387 107.538 42.0984 106.235 45.402C105.063 48.3804 104.452 51.3852 104.111 54.6181C103.903 56.5825 103.745 58.6117 103.635 60.7057C103.464 63.9592 103.29 67.5197 103.114 71.3872C103.112 71.4322 103.096 71.4756 103.068 71.5113C103.041 71.5471 103.003 71.5735 102.96 71.5869C100.855 72.2704 98.7796 72.3699 96.7328 71.8856C96.6652 71.8698 96.6047 71.8323 96.5607 71.779C96.5166 71.7256 96.4913 71.6594 96.4888 71.5904C96.3733 68.8601 96.12 66.2883 95.7288 63.875C95.6015 63.0902 95.42 62.2317 95.1844 61.2996C95.027 60.6792 94.8574 60.0075 94.4119 59.5391C93.4775 58.5563 92.3827 58.4844 91.1278 59.3234C90.6093 59.6699 90.1091 60.021 89.6271 60.3769C89.6087 60.3905 89.587 60.3989 89.5643 60.4014C89.5416 60.4038 89.5186 60.4001 89.4978 60.3908C89.4769 60.3814 89.4589 60.3667 89.4456 60.3481C89.4323 60.3295 89.4242 60.3078 89.4221 60.285C89.2382 58.1162 89.2312 55.8731 89.8145 53.7061C90.5427 50.9981 91.684 48.7003 93.2383 46.8125C94.8868 44.8093 96.5925 43.1713 98.3554 41.8987C98.9894 41.4403 99.6993 40.9689 100.485 40.4846C101.369 39.9384 102.274 39.5142 103.179 39.0157C103.844 38.6498 104.538 38.4059 105.231 38.109Z" fill="#84665B"/>
<path d="M114.564 92.5751C114.672 92.6164 114.767 92.7024 114.848 92.8332C115.085 93.2115 115.389 93.4253 115.79 93.6463C116.529 94.054 117.279 94.3904 118.041 94.6556C119.996 95.3378 122.045 95.8675 124.19 96.2446C124.809 96.353 125.669 96.4626 126.771 96.5734C127.59 96.6547 128.452 96.7437 129.357 96.8403C129.925 96.9016 131.211 96.9122 133.217 96.8721C134.426 96.8485 135.603 96.7655 136.749 96.6229C138.212 96.4402 139.596 96.214 140.901 95.9441C142.283 95.6578 143.828 95.2389 145.535 94.6874C146.214 94.4682 146.972 94.1489 147.81 93.7294C148.599 93.3358 149.39 92.9322 150.186 92.5186C152.028 97.1802 153.267 101.915 153.905 106.723L153.887 107.211C153.885 107.28 153.851 107.325 153.785 107.345C153.732 107.361 153.713 107.396 153.728 107.449C153.748 107.521 153.73 107.581 153.673 107.63C153.366 107.894 153.083 108.242 152.825 108.676C152.626 109.011 152.491 109.412 152.422 109.881C152.263 110.947 152.069 112.087 151.842 113.302C151.703 114.044 151.58 114.772 151.473 115.485C151.367 116.192 151.245 116.905 151.107 117.625C151.062 117.859 151.067 118.127 151.121 118.431C151.13 118.49 151.163 118.529 151.22 118.548C151.554 118.66 151.722 118.792 151.724 118.946C151.183 119.042 150.85 119.346 150.727 119.856C150.563 120.524 150.464 120.947 150.431 121.123C149.804 124.429 149.12 127.718 148.521 131.069C148.277 132.43 148.023 133.764 147.759 135.069C147.744 135.145 147.657 135.63 147.499 136.524C147.414 137.005 147.307 137.486 147.177 137.967C143.716 134.566 138.781 133.376 134.067 133.026C134.053 132.775 134.047 132.534 134.048 132.303C134.09 125.49 134.092 120.143 134.053 116.264C134.047 115.756 133.803 115.372 133.32 115.112C132.538 114.691 131.755 115.605 131.753 116.393C131.746 120.45 131.76 124.458 131.794 128.415C131.806 129.952 131.793 131.477 131.755 132.989L130.228 133.097C128.689 133.202 127.28 133.39 126.002 133.661C123.686 134.152 121.491 135.02 119.416 136.264C118.612 136.749 117.885 137.358 117.132 137.975C116.578 134.552 116.085 131.675 115.653 129.343C114.242 121.736 113.318 116.625 112.879 114.011C112.803 113.558 112.632 113.232 112.368 113.033C111.945 112.715 111.544 112.675 111.165 112.913C110.889 112.512 110.64 112.11 110.417 111.706C110.333 111.552 110.294 111.397 110.3 111.239C110.307 111.078 110.326 110.913 110.357 110.744C110.512 109.305 110.619 107.792 110.832 106.442C111.583 101.693 112.827 97.0707 114.564 92.5751Z" fill="#84665B"/>
<path d="M107.165 112.255C107.256 112.455 107.313 112.685 107.336 112.948C107.365 113.266 107.397 113.5 107.432 113.648C107.615 114.418 107.767 115.192 107.888 115.973C108.105 117.373 108.228 118.153 108.257 118.313C108.415 119.19 108.573 120.069 108.731 120.95C109.063 122.817 109.283 124.62 109.634 126.606C109.975 128.532 110.303 130.476 110.619 132.439C110.734 133.158 110.897 133.91 111.107 134.695C111.136 134.803 111.226 135.217 111.377 135.936C111.465 136.352 111.603 136.757 111.789 137.152C110.323 137.643 109.043 138.298 107.948 139.117C106.093 138.316 104.615 137.237 103.513 135.879C102.33 134.421 101.436 132.845 100.83 131.149C100.071 129.024 99.6952 126.887 99.7022 124.738C99.7093 122.671 100 120.616 100.575 118.573C100.625 118.398 100.793 117.959 101.079 117.254C101.37 116.544 101.51 115.811 101.498 115.055C102.126 114.541 102.542 114.216 102.746 114.08C104.003 113.235 105.476 112.627 107.165 112.255Z" fill="#84665B"/>
<path d="M157.525 112.231C160.599 113.116 163.087 114.823 164.987 117.353C166.259 119.044 167.123 120.894 167.58 122.903C169.334 130.613 167.211 139.656 160.94 144.735C160.922 144.749 160.902 144.758 160.88 144.763C160.859 144.767 160.836 144.766 160.815 144.76C160.793 144.754 160.774 144.743 160.758 144.728C160.742 144.713 160.729 144.694 160.722 144.673C159.727 141.789 157.907 139.62 155.264 138.164C154.518 137.753 153.722 137.385 152.876 137.06C152.957 136.707 153.042 136.356 153.13 136.006C153.232 135.612 153.313 135.26 153.373 134.951C153.892 132.32 154.387 129.699 154.857 127.089C155.539 123.296 156.219 119.501 156.899 115.706C156.967 115.323 157.025 114.945 157.072 114.573C157.119 114.194 157.166 113.816 157.214 113.436C157.265 113.024 157.41 112.648 157.525 112.231Z" fill="#84665B"/>
<path d="M183.129 142.854C182.99 142.569 182.802 142.477 182.566 142.58C181.685 142.965 181.057 143.181 180.682 143.229C180.077 143.306 179.481 143.383 178.897 143.458C178.341 143.531 177.706 143.578 176.993 143.598C175.109 143.653 172.666 143.709 169.663 143.766C168.201 143.794 166.759 143.728 165.338 143.566L167.24 140.825C167.276 140.773 167.323 140.73 167.378 140.7C167.433 140.67 167.495 140.652 167.558 140.65C171.371 140.484 174.906 138.834 177.304 135.906C178.14 134.886 178.692 133.853 178.961 132.805C179.164 132.01 179.215 131.118 179.111 130.131C179.064 129.683 179.04 129.264 179.038 128.872C179.035 128.321 178.95 127.776 179.022 127.229C179.153 126.232 179.517 124.851 180.265 124.158C182.099 122.463 184.048 122.222 186.114 123.435C187.906 124.487 188.965 126.415 189.368 128.383C189.885 130.906 189.649 133.477 188.659 136.096C188.207 137.296 187.838 138.076 187.553 138.437C187.112 138.995 186.651 139.58 186.169 140.192C185.544 140.986 184.531 141.873 183.129 142.854Z" fill="#84665B"/>
<path d="M131.17 29.9021L131.727 30.8036C131.759 30.8555 131.77 30.9114 131.761 30.9715C131.699 31.3616 131.461 31.5872 131.045 31.6485C129.958 31.8076 128.902 31.9431 127.876 32.0551C126.913 32.1611 125.422 32.507 123.404 33.0926C121.241 33.7195 119.192 34.6493 117.256 35.8819C115.742 36.8458 114.4 37.8792 113.229 38.9822C111.945 40.1947 110.772 41.6866 109.71 43.4577C109.127 44.4322 108.628 45.4934 108.213 46.6411C107.255 49.2972 106.654 52.0157 106.41 54.7967C106.244 56.6798 106.105 58.6524 105.993 60.7146C105.813 64.0093 105.63 67.4408 105.445 71.0089C105.404 71.8032 105.369 72.6434 105.341 73.5295C105.23 77.0022 106.405 79.901 108.867 82.226C110.797 84.049 113.004 85.3558 115.488 86.1465C115.867 86.3751 116.368 86.6031 116.993 86.8305C118.761 87.4739 120.651 87.947 122.663 88.2499C127.965 89.05 133.237 89.2079 138.479 88.7236C141.793 88.4178 144.807 87.9176 147.877 86.7863C148.041 86.7251 148.381 86.5654 148.896 86.3073C150.713 85.6769 152.395 84.812 153.944 83.7125C156.699 81.7523 158.882 78.9312 159.149 75.4615C159.216 74.6012 159.228 73.708 159.185 72.7818C158.971 68.2132 158.737 63.277 158.483 57.973C158.376 55.7235 158.18 53.7214 157.896 51.9668C157.653 50.4714 157.282 48.9619 156.781 47.4383C155.56 43.7287 153.464 40.593 150.492 38.0312C147.231 35.2196 143.499 33.3489 139.296 32.4192C137.897 32.1093 136.486 31.8848 135.063 31.7457C134.764 31.7163 134.476 31.6538 134.196 31.5584C133.932 31.4664 133.815 31.2697 133.843 30.968C133.846 30.9266 133.863 30.8871 133.891 30.8549C133.937 30.8007 133.955 30.7406 133.947 30.6746C133.937 30.5732 133.902 30.5638 133.843 30.6463C133.809 30.6946 133.766 30.7323 133.716 30.7594C133.699 30.7685 133.68 30.7731 133.66 30.773C133.641 30.7728 133.622 30.7678 133.606 30.7584C133.589 30.749 133.575 30.7356 133.565 30.7194C133.556 30.7032 133.55 30.6847 133.549 30.6657C133.548 30.6316 133.537 30.6033 133.514 30.5809C133.453 30.5208 133.462 30.4748 133.542 30.443C133.582 30.4265 133.631 30.4171 133.689 30.4147C133.755 30.3617 133.791 30.2975 133.797 30.2221C133.804 30.1785 133.817 30.1461 133.836 30.1249C133.879 30.0777 133.921 30.0801 133.96 30.1319C133.983 30.1649 133.995 30.2014 133.997 30.2415C134.001 30.3452 134.035 30.3564 134.097 30.2751L134.265 30.0524C134.302 30.0044 134.353 29.9706 134.41 29.9569L135.741 29.6441C140.226 29.888 144.669 31.3392 148.489 33.5981C148.53 33.6223 148.577 33.6329 148.624 33.6285C148.671 33.624 148.715 33.6047 148.751 33.5734C149.136 33.234 149.597 33.0685 150.135 33.0767C150.998 33.0897 151.844 33.191 152.673 33.3807C154.831 33.8739 156.968 34.5403 159.075 35.3215C163.214 36.8558 166.882 38.9468 170.082 41.5947C176.374 46.8037 179.651 54.5528 177.933 62.6836C177.672 63.9233 177.3 65.0728 176.818 66.1322C175.531 68.955 173.81 71.2864 171.195 72.849C168.749 74.3114 166.097 74.8181 163.239 74.3691C162.728 74.289 162.213 74.1865 161.695 74.0615C161.606 74.0403 161.559 74.0751 161.553 74.1658C161.516 74.8039 161.551 75.4279 161.472 76.0677C161.248 77.8754 160.646 79.5422 159.665 81.0682C158.648 82.652 157.511 83.9346 156.252 84.9162C154.625 86.1854 152.836 87.2147 150.884 88.0042C150.87 88.0099 150.858 88.0185 150.847 88.0292C150.836 88.04 150.828 88.0528 150.823 88.0668C150.817 88.0809 150.815 88.0959 150.815 88.1109C150.816 88.126 150.819 88.1408 150.826 88.1544C154.014 94.9101 155.931 102.244 156.611 109.659C156.617 109.72 156.65 109.756 156.71 109.767C158.174 110.005 159.466 110.376 160.586 110.88C165.17 112.945 168.487 117.028 169.7 121.929C171.082 127.504 170.71 132.911 168.585 138.149C168.581 138.158 168.579 138.168 168.581 138.178C168.582 138.188 168.586 138.197 168.592 138.205C168.598 138.213 168.606 138.219 168.616 138.223C168.625 138.227 168.635 138.228 168.645 138.226C171.805 137.783 174.267 136.233 176.03 133.574C176.611 132.697 176.917 131.504 176.767 130.377C176.649 129.495 176.599 128.617 176.618 127.741C176.673 125.261 177.755 123.041 179.77 121.647C182.032 120.08 185.051 120.103 187.37 121.459C189.796 122.875 191.204 125.632 191.736 128.438C192.017 129.919 192.053 131.442 191.846 133.009C191.448 135.995 190.328 138.678 188.488 141.058C188.33 140.967 188.408 140.766 188.723 140.454C188.737 140.441 188.739 140.426 188.73 140.409C188.717 140.389 188.698 140.38 188.673 140.381C188.66 140.381 188.647 140.385 188.638 140.393C188.328 140.674 188.139 141.03 188.072 141.461L187.685 141.931C187.579 141.921 187.492 141.936 187.423 141.977C187.367 142.011 187.35 142.06 187.372 142.124C187.384 142.157 187.406 142.191 187.438 142.226C186.482 143.144 185.862 143.7 185.578 143.893C184.773 144.439 183.97 144.985 183.169 145.532C182.897 145.717 182.603 145.823 182.29 145.915C182.274 145.92 182.26 145.929 182.249 145.942C182.238 145.955 182.231 145.971 182.229 145.988C182.227 146.003 182.226 146.018 182.225 146.034C182.224 146.042 182.227 146.046 182.236 146.046C183.535 146.019 184.839 146.006 186.146 146.006C186.678 146.006 187.503 145.93 187.883 146.348C188.288 146.795 188.326 147.298 187.994 147.856C187.808 148.167 187.445 148.313 186.906 148.295L30.3795 148.305C29.0308 148.399 28.5783 146.668 29.7555 146.131C30.0183 146.011 30.3577 145.955 30.7736 145.965C33.3225 146.027 36.0345 146.045 38.9098 146.018C39.0854 146.017 39.0977 145.971 38.9469 145.882C35.661 143.927 33.121 140.577 32.5253 136.727C31.9915 133.281 33.2023 129.814 35.6256 127.329C37.4038 125.503 40.3486 124.257 42.5899 126.133C43.9774 127.296 44.2143 128.909 43.7583 130.599C43.6428 131.027 43.5273 131.455 43.4118 131.884C43.0548 133.219 43.2987 134.451 44.1577 135.58C44.9797 136.662 46.2523 137.668 47.5939 138.043C47.6087 138.047 47.6243 138.047 47.6393 138.044C47.6543 138.041 47.6683 138.034 47.68 138.024C47.6917 138.014 47.7007 138.001 47.7064 137.987C47.712 137.973 47.7141 137.957 47.7123 137.942C47.3818 134.714 47.2475 131.4 47.654 128.183C48.1749 124.067 49.2142 120.072 50.772 116.199C51.9327 113.314 53.3014 110.722 54.8781 108.422C56.3853 106.22 58.1281 104.221 60.1066 102.422C60.2174 102.321 60.3334 102.186 60.4548 102.018C61.0522 102.298 61.5737 102.73 62.0191 103.315C61.7693 103.776 61.5872 104.066 61.4729 104.185C60.7954 104.892 60.129 105.609 59.4738 106.336C57.7651 108.235 56.2969 110.305 55.069 112.545C53.5182 115.376 52.2951 118.341 51.3995 121.441C51.3194 121.721 51.254 121.964 51.2033 122.17C50.8899 123.353 50.5717 124.707 50.2488 126.233C50.1333 126.777 50.0544 127.29 50.012 127.773L49.7168 130.859L49.7645 134.84C49.8493 137.252 50.1386 139.619 50.6324 141.942C50.96 143.481 51.657 144.803 52.7234 145.908C52.7658 145.952 52.8168 145.988 52.8733 146.012C52.9298 146.036 52.9906 146.048 53.0522 146.048L67.7673 146.039C67.7733 146.039 67.7793 146.038 67.7846 146.035C67.7898 146.032 67.7941 146.027 67.7969 146.022C67.7997 146.017 67.8009 146.01 67.8003 146.004C67.7998 145.998 67.7975 145.993 67.7938 145.988C67.1999 145.168 66.8075 144.245 66.6166 143.22C65.5949 137.733 64.5114 132.201 63.366 126.622C63.3307 126.45 63.303 126.273 63.2829 126.092C63.2617 125.903 63.237 125.739 63.2087 125.599C63.5162 124.835 64.1932 124.185 65.0169 124.768C65.2738 124.948 65.4229 125.147 65.4641 125.366C65.7811 127.036 66.1264 128.711 66.4999 130.389L66.9418 132.671L68.0271 138.251C68.3429 139.919 68.6782 141.587 69.0329 143.255C69.1483 143.796 69.321 144.272 69.5508 144.683C70.1818 145.813 71.0232 146.053 72.2269 146.03C73.0506 146.016 73.8754 146.022 74.7015 146.048C74.7176 146.048 74.7336 146.046 74.7486 146.04C74.7636 146.034 74.7772 146.025 74.7888 146.014C74.8003 146.003 74.8095 145.989 74.8157 145.975C74.822 145.96 74.8252 145.944 74.8252 145.928L74.8606 136.947C74.8429 132.147 74.8394 127.347 74.85 122.546C74.8511 122.18 74.8818 121.914 74.9419 121.749C75.184 121.074 75.8875 120.754 76.5592 121.132C76.9587 121.356 77.1555 121.766 77.1496 122.361C77.1166 125.988 77.1195 130.936 77.1584 137.205L77.2362 145.781C77.2365 145.836 77.2577 145.889 77.2954 145.929C77.3331 145.969 77.3846 145.993 77.4395 145.997C78.6567 146.07 79.7797 146.063 80.8085 145.977C82.0069 145.875 82.8094 144.659 83.0374 143.57C83.4145 141.775 83.7497 140.033 84.0431 138.343L85.0842 132.834L85.6198 130.246C85.9297 128.696 86.2202 127.158 86.4912 125.632C86.767 124.08 88.7838 124.217 88.7802 125.737C88.7791 126.13 88.7225 126.61 88.6106 127.177C87.6561 132.015 86.7175 136.416 85.8673 141.062C85.6658 142.081 85.4495 143.14 85.2186 144.238C85.1196 144.708 84.8403 145.291 84.3807 145.986C84.3348 146.056 84.3536 146.093 84.4373 146.097C84.6211 146.11 84.7961 146.044 84.9764 146.044C90.5749 146.041 96.1475 146.036 101.694 146.028C101.818 146.028 101.834 145.987 101.742 145.905C98.1195 142.623 95.748 138.592 94.6274 133.811C94.0028 131.143 93.7731 128.519 93.938 125.94C94.0123 124.792 94.2279 123.484 94.585 122.016C95.3438 119.214 96.6913 116.745 98.6274 114.61C98.6493 114.586 98.6636 114.556 98.6683 114.524C98.673 114.492 98.668 114.46 98.6539 114.431C97.1751 111.371 95.3209 108.597 93.0914 106.11C92.5988 105.56 91.8847 104.845 90.9491 103.962C90.4223 103.465 90.0458 102.832 89.6269 102.228C90.2031 101.728 90.8359 101.391 91.5253 101.217C93.1214 102.763 94.8307 104.342 96.1263 106.012C97.7866 108.15 99.2366 110.407 100.476 112.784C100.508 112.845 100.551 112.855 100.605 112.812C102.798 111.136 105.257 110.126 107.981 109.781C108.015 109.776 108.046 109.761 108.069 109.737C108.092 109.713 108.106 109.681 108.109 109.648C108.293 107.336 108.62 105.074 109.09 102.862C109.981 98.6757 111.212 94.6379 112.784 90.7492C113.109 89.9456 113.482 89.1349 113.901 88.3171C113.938 88.2452 113.919 88.1922 113.846 88.158C111.676 87.1717 109.652 86.051 107.783 84.4673C106.23 83.1504 104.957 81.4182 104.114 79.6347C103.386 78.0922 103.022 76.2875 103.022 74.2206C103.022 74.1134 102.969 74.0698 102.863 74.0898C100.747 74.4928 98.7494 74.7385 96.6354 74.2171C96.5729 74.2006 96.5423 74.2253 96.5434 74.2913C96.5953 76.1426 96.5929 78.0563 96.5364 80.0324C96.527 80.3435 96.5759 80.624 96.6831 80.8738C96.9883 81.5891 97.2458 82.2884 97.4555 82.9719C97.908 84.4449 98.1773 85.935 98.2633 87.4421C98.2668 87.501 98.2981 87.5311 98.357 87.5323C99.6921 87.5641 101.63 87.5747 104.171 87.5641C104.918 87.5605 105.65 88.0802 105.558 88.8862C105.496 89.413 104.985 89.8672 104.437 89.8743C102.369 89.899 100.333 89.8902 98.3287 89.8478C98.3115 89.8473 98.2947 89.8534 98.2819 89.8649C98.269 89.8764 98.2611 89.8925 98.2598 89.9096C98.0913 91.6218 97.6376 93.1726 96.8987 94.5619C96.821 94.7069 96.8545 94.8176 96.9995 94.8942C98.0683 95.4587 99.0204 96.0331 99.8559 96.6176C100.152 96.8238 100.422 97.0648 100.667 97.3406C101.381 98.1448 100.386 99.3361 99.5059 99.1205C99.3374 99.0793 99.0222 98.8966 98.5602 98.5725C97.482 97.8184 96.3313 97.1785 95.1082 96.653C93.8832 96.0926 92.5911 95.8027 91.2867 95.5765C89.9928 95.352 90.0299 93.4943 91.4298 93.4589C92.5045 93.4318 93.5716 93.5921 94.6309 93.9397C94.7193 93.9692 94.7853 93.9427 94.8289 93.8602C95.444 92.6806 95.827 91.4033 95.9778 90.0281C95.9837 89.9656 95.956 89.9368 95.8947 89.9415C95.4157 89.9821 94.9526 89.9627 94.4842 90.0263C93.5686 90.1512 92.5935 90.272 91.5589 90.3887C90.5885 90.4983 90.1766 89.3794 90.7104 88.6776C90.9461 88.3654 91.2955 88.1656 91.7586 88.0784C93.0619 87.8333 94.4229 87.6737 95.8417 87.5994C95.8659 87.5983 95.8896 87.5924 95.9114 87.5819C95.9332 87.5714 95.9527 87.5567 95.9687 87.5386C95.9847 87.5204 95.9969 87.4992 96.0045 87.4763C96.0121 87.4534 96.0151 87.4291 96.0132 87.405C95.8435 85.1831 95.2089 82.9631 94.3216 80.8915C94.09 80.3524 94.1254 79.9988 94.2102 79.4544C94.2998 78.8605 94.3016 77.896 94.2155 76.5609C94.3864 71.9346 94.073 67.3742 93.2752 62.8798C93.1904 62.4014 93.0395 61.9254 92.8227 61.4516C92.7998 61.4018 92.7664 61.3575 92.7246 61.3219C92.6828 61.2863 92.6338 61.2603 92.581 61.2457C92.5281 61.231 92.4727 61.2281 92.4185 61.2371C92.3644 61.2461 92.3129 61.2669 92.2677 61.2979C90.9915 62.1781 89.8708 63.3094 88.7767 64.4335C86.8501 66.4156 85.0695 68.6103 83.4351 71.0178C83.1334 71.2652 82.7204 71.3354 82.196 71.2281C81.7317 71.0631 81.3511 70.8481 81.0542 70.583C82.6503 67.875 84.683 65.4216 86.6556 63.2616C87.0009 62.8822 87.2572 62.6 87.4245 62.415C87.4634 62.3725 87.4758 62.3231 87.4616 62.2665C87.2872 61.596 87.167 60.9161 87.101 60.2267C86.6863 55.9586 87.4581 52.0134 89.4166 48.391C89.9339 47.4365 90.605 46.4231 91.4298 45.3508C96.2271 39.1201 103.6 35.7846 111.011 33.683C111.924 33.4249 112.849 33.234 113.786 33.1103C114.745 32.9842 115.521 33.1515 116.112 33.6123C116.134 33.6295 116.161 33.6399 116.188 33.6421C116.216 33.6443 116.244 33.6382 116.268 33.6247C117.273 33.0696 118.316 32.5547 119.398 32.0798C122.45 30.74 125.741 29.9304 129.272 29.6511C129.986 29.5946 130.619 29.6782 131.17 29.9021ZM160.8 38.5597C158.525 37.5499 156.094 36.6867 153.509 35.9702C152.678 35.7405 151.861 35.5537 151.057 35.4099C151.005 35.4017 151 35.414 151.041 35.447C154.72 38.36 157.475 42.3211 158.96 46.7083C159.584 48.5477 160.017 50.3454 160.261 52.1012C160.625 54.7083 160.859 57.5223 160.97 60.3292C161.111 63.9186 161.276 67.4879 161.463 71.0372C161.493 71.6046 161.774 71.6576 162.244 71.7778C164.813 72.4301 167.568 72.3329 169.863 70.8976C172.073 69.513 173.685 67.6075 174.699 65.1812C175.258 63.8426 175.626 62.554 175.802 61.3155C176.45 56.7234 175.531 52.1595 173 48.1807C172.522 47.43 171.773 46.5262 170.755 45.4692C167.953 42.5645 164.635 40.2613 160.8 38.5597ZM105.231 38.109C104.538 38.406 103.844 38.6499 103.179 39.0158C102.274 39.5142 101.369 39.9384 100.485 40.4846C99.6992 40.9689 98.9892 41.4403 98.3552 41.8987C96.5923 43.1713 94.8866 44.8093 93.2381 46.8126C91.6838 48.7003 90.5425 50.9982 89.8143 53.7061C89.231 55.8732 89.238 58.1162 89.4219 60.285C89.424 60.3078 89.4321 60.3296 89.4454 60.3482C89.4587 60.3668 89.4767 60.3815 89.4976 60.3908C89.5184 60.4002 89.5414 60.4038 89.5641 60.4014C89.5868 60.3989 89.6085 60.3905 89.6269 60.377C90.1089 60.0211 90.6091 59.6699 91.1276 59.3235C92.3826 58.4845 93.4773 58.5563 94.4117 59.5391C94.8572 60.0075 95.0269 60.6792 95.1842 61.2996C95.4199 62.2317 95.6013 63.0902 95.7286 63.875C96.1198 66.2883 96.3732 68.8601 96.4886 71.5905C96.4912 71.6594 96.5164 71.7257 96.5605 71.779C96.6046 71.8324 96.665 71.8698 96.7326 71.8857C98.7794 72.37 100.855 72.2704 102.96 71.5869C103.003 71.5735 103.041 71.5471 103.068 71.5114C103.096 71.4756 103.112 71.4323 103.114 71.3872C103.29 67.5197 103.464 63.9592 103.635 60.7057C103.745 58.6117 103.903 56.5826 104.11 54.6182C104.452 51.3853 105.063 48.3804 106.235 45.402C107.538 42.0984 109.837 39.0388 112.425 36.6525C112.828 36.2813 113.307 35.9897 113.71 35.6185C113.808 35.5289 113.792 35.4983 113.662 35.5266C110.847 36.1329 107.973 36.9336 105.231 38.109ZM114.564 92.5752C112.827 97.0707 111.583 101.693 110.833 106.442C110.619 107.792 110.513 109.305 110.357 110.744C110.186 111.541 109.692 111.974 108.874 112.045C108.273 112.096 107.703 112.166 107.165 112.255C105.476 112.627 104.003 113.235 102.746 114.08C102.542 114.216 102.126 114.541 101.498 115.055C98.7794 117.419 97.1397 120.415 96.5788 124.042C95.8411 128.816 96.4368 133.292 98.3658 137.47C99.6585 140.269 101.453 142.654 103.748 144.625C103.77 144.644 103.797 144.658 103.826 144.664C103.854 144.67 103.884 144.669 103.912 144.661C103.941 144.653 103.966 144.638 103.987 144.618C104.008 144.597 104.024 144.572 104.033 144.544C104.715 142.381 106.02 140.573 107.948 139.117C109.043 138.298 110.323 137.643 111.789 137.152L114.453 136.487C114.49 136.478 114.523 136.455 114.544 136.422C114.565 136.39 114.573 136.351 114.566 136.314C114.2 134.297 113.784 132.303 113.449 130.281C113.089 128.124 112.712 125.968 112.317 123.815C111.829 121.159 111.292 118.171 110.704 114.85C110.574 114.117 110.537 113.403 111.165 112.913C111.544 112.675 111.946 112.715 112.369 113.033C112.633 113.232 112.803 113.558 112.879 114.011C113.318 116.625 114.242 121.736 115.653 129.343C116.085 131.675 116.578 134.552 117.132 137.975C117.455 140 117.765 141.57 118.062 142.686C118.341 143.735 118.851 144.594 119.593 145.263C120.308 145.909 121.311 146.158 122.603 146.011L131.701 146.03C131.731 146.03 131.747 146.015 131.747 145.984L131.755 132.989C131.793 131.477 131.806 129.952 131.794 128.415C131.76 124.458 131.747 120.45 131.754 116.393C131.755 115.605 132.538 114.691 133.32 115.112C133.803 115.372 134.047 115.756 134.053 116.264C134.092 120.143 134.09 125.49 134.048 132.303C134.047 132.534 134.053 132.775 134.067 133.026L134.066 145.885C134.066 145.923 134.081 145.959 134.108 145.985C134.134 146.012 134.171 146.027 134.209 146.027L140.263 146.006L142.525 146.018C144.383 146.124 145.65 144.784 146.105 143.084C146.555 141.396 146.828 139.669 147.177 137.967C147.307 137.486 147.414 137.005 147.499 136.524C147.657 135.63 147.744 135.145 147.759 135.07C148.023 133.764 148.277 132.431 148.521 131.069C149.12 127.718 149.804 124.429 150.432 121.123C150.465 120.947 150.563 120.524 150.727 119.856C150.851 119.346 151.183 119.042 151.724 118.946C152.643 119.058 153.038 119.593 152.91 120.552C152.798 121.386 152.484 123.017 151.968 125.447C151.724 126.595 151.5 127.749 151.298 128.911C150.873 131.348 150.406 133.78 149.896 136.206C149.858 136.384 149.93 136.482 150.112 136.501C151.07 136.598 151.991 136.784 152.876 137.06C153.722 137.385 154.518 137.753 155.264 138.165C157.907 139.62 159.727 141.789 160.722 144.673C160.73 144.694 160.742 144.713 160.758 144.728C160.774 144.743 160.794 144.754 160.815 144.76C160.836 144.766 160.859 144.767 160.881 144.763C160.902 144.758 160.923 144.749 160.94 144.735C167.211 139.656 169.334 130.613 167.581 122.903C167.123 120.894 166.259 119.044 164.988 117.353C163.087 114.823 160.599 113.116 157.525 112.231C157.156 112.171 156.62 112.115 155.918 112.064C154.919 111.993 154.378 111.447 154.296 110.428C154.194 109.19 154.064 107.955 153.905 106.723C153.267 101.915 152.028 97.1803 150.186 92.5186L148.562 89.1832C148.55 89.1593 148.531 89.1404 148.506 89.1299C148.482 89.1195 148.454 89.1183 148.429 89.1266C147.202 89.5178 145.954 89.8507 144.685 90.1253C138.965 91.3591 133.18 91.5641 127.197 91.1434C123.495 90.8842 119.865 90.2384 116.305 89.2062C116.259 89.1929 116.209 89.1966 116.165 89.2167C116.122 89.2368 116.086 89.272 116.066 89.3157L114.564 92.5752ZM165.338 143.566L163.054 145.91C162.991 145.974 163.005 146.006 163.095 146.007C166.743 146.051 170.335 146.045 173.87 145.99C175.463 145.964 176.962 145.705 178.368 145.214C180.019 144.636 181.606 143.85 183.128 142.854C184.531 141.874 185.544 140.986 186.169 140.192C186.65 139.58 187.112 138.995 187.553 138.437C187.838 138.076 188.207 137.296 188.659 136.096C189.649 133.477 189.885 130.906 189.368 128.383C188.965 126.415 187.906 124.487 186.114 123.435C184.048 122.222 182.098 122.463 180.265 124.158C179.517 124.851 179.153 126.232 179.022 127.229C178.95 127.776 179.035 128.321 179.038 128.872C179.039 129.264 179.063 129.683 179.111 130.131C179.214 131.118 179.164 132.01 178.96 132.805C178.692 133.853 178.14 134.886 177.304 135.906C174.905 138.834 171.37 140.484 167.558 140.65C167.495 140.653 167.433 140.67 167.378 140.7C167.323 140.73 167.275 140.773 167.24 140.825L165.338 143.566ZM36.0605 130.401C34.9575 132.242 34.5221 134.205 34.7542 136.289C34.8803 137.208 35.1319 138.043 35.509 138.794C36.3338 140.656 37.5782 142.189 39.2421 143.393C40.1872 144.104 41.1747 144.69 42.2046 145.152C43.0836 145.559 43.9521 145.821 44.81 145.937L48.2674 146.016L49.8723 146.02C49.8786 146.02 49.8847 146.018 49.8901 146.015C49.8955 146.012 49.8999 146.007 49.9029 146.002C49.9058 145.996 49.9071 145.99 49.9067 145.984C49.9063 145.978 49.9042 145.972 49.9006 145.967C49.2796 145.102 48.8124 144.135 48.4989 143.068L48.0058 140.584C47.9904 140.507 47.9439 140.458 47.8661 140.438L46.0738 139.989L45.0132 139.363L42.9717 137.793C42.3424 137.128 41.8086 136.372 41.3703 135.527L40.9849 134.435C40.787 133.601 40.7616 132.8 40.9089 132.033C41.1505 131.148 41.3891 130.263 41.6248 129.378C41.7167 129.031 41.6825 128.729 41.5223 128.471C41.2088 127.969 40.8123 127.67 40.3327 127.575C39.8661 127.481 38.984 127.655 38.6075 127.89C37.5458 128.552 36.6968 129.389 36.0605 130.401ZM112.305 139.379C110.986 139.855 109.808 140.518 108.77 141.367C107.765 142.19 106.998 143.258 106.47 144.572C106.27 144.942 106.167 145.402 106.161 145.951C106.16 146.011 106.189 146.04 106.249 146.039C106.475 146.037 106.697 146.035 106.914 146.034C110.361 146.008 113.801 145.995 117.235 145.997C117.331 145.997 117.346 145.962 117.279 145.892C116.547 145.15 116.08 144.247 115.842 143.23C115.504 141.776 115.234 140.351 115.032 138.955C115.024 138.898 114.991 138.871 114.933 138.873C113.997 138.925 113.12 139.094 112.305 139.379ZM148.077 144.383L147.183 145.928C147.159 145.969 147.171 145.99 147.218 145.99L158.458 146.011C158.557 146.011 158.593 145.963 158.564 145.868L158.108 144.371C157.585 143.251 156.764 142.208 155.646 141.24C153.875 139.706 151.814 138.906 149.463 138.84C149.434 138.839 149.405 138.848 149.382 138.866C149.359 138.884 149.343 138.91 149.337 138.939C148.982 140.749 148.683 142.635 148.077 144.383Z" fill="#421706"/>
<path d="M120.404 61.5735C119.849 61.5474 119.328 61.2931 118.955 60.8667C118.582 60.4403 118.387 59.8766 118.415 59.2997C118.442 58.7228 118.688 58.18 119.1 57.7905C119.512 57.4011 120.055 57.197 120.609 57.2232C121.164 57.2494 121.686 57.5036 122.059 57.9301C122.432 58.3565 122.626 58.9201 122.599 59.497C122.572 60.0739 122.325 60.6168 121.914 61.0062C121.502 61.3956 120.959 61.5997 120.404 61.5735Z" fill="#421706"/>
<path d="M144 61.54C143.454 61.5123 142.942 61.2585 142.576 60.8344C142.211 60.4103 142.022 59.8507 142.051 59.2785C142.08 58.7064 142.324 58.1687 142.731 57.7838C143.137 57.3988 143.672 57.198 144.218 57.2257C144.764 57.2533 145.276 57.5071 145.642 57.9312C146.007 58.3553 146.196 58.915 146.167 59.4871C146.138 60.0592 145.894 60.5969 145.487 60.9819C145.081 61.3669 144.546 61.5676 144 61.54Z" fill="#421706"/>
<path d="M70.9949 70.5387L69.8266 71.3253C69.4236 71.3677 69.0535 71.3017 68.7165 71.1273C68.4596 70.7903 68.0619 70.227 67.5234 69.4375C66.497 67.9351 64.8114 65.9572 62.4664 63.5038C61.7558 62.7602 61.0305 62.1121 60.2905 61.5594C60.1031 61.418 59.8939 61.312 59.663 61.2413C59.6029 61.2224 59.5569 61.2401 59.5251 61.2943C59.4143 61.4781 59.336 61.6684 59.29 61.8652C58.1588 66.7384 57.7628 71.594 57.7416 76.674C57.6709 77.5919 57.6544 78.5187 57.6921 79.4544C57.7133 79.9823 57.6167 80.4525 57.4023 80.8649C56.3276 82.9247 55.6853 85.11 55.4756 87.4209C55.4731 87.4466 55.476 87.4726 55.484 87.4972C55.492 87.5218 55.505 87.5444 55.5221 87.5637C55.5392 87.583 55.5601 87.5984 55.5834 87.6091C55.6067 87.6198 55.632 87.6255 55.6577 87.6259C57.2874 87.6648 58.7291 87.818 59.9829 88.0855C60.7129 88.241 61.5596 88.9339 61.1089 89.7523C60.8343 90.2484 60.3983 90.4523 59.8009 90.3639C58.4657 90.1659 57.0965 89.9998 55.693 89.8654C55.677 89.864 55.6609 89.8661 55.6459 89.8717C55.6308 89.8773 55.6172 89.8862 55.606 89.8977C55.5949 89.9092 55.5864 89.9231 55.5813 89.9383C55.5761 89.9535 55.5744 89.9697 55.5763 89.9856C55.7342 91.336 56.1137 92.5975 56.7147 93.77C56.7357 93.8117 56.7704 93.8449 56.8132 93.8642C56.8559 93.8835 56.9041 93.8877 56.9498 93.876C57.8477 93.6404 58.7627 93.4872 59.6948 93.4165C60.0719 93.387 60.4054 93.4507 60.6952 93.6074C61.3351 93.9556 61.4005 94.8358 60.8331 95.2919C60.6752 95.418 60.446 95.5134 60.1455 95.5782C58.9613 95.8345 57.8176 96.059 56.6722 96.4408C56.2315 96.5916 55.8686 96.7389 55.5834 96.8827C54.4675 97.4483 53.417 98.0758 52.4318 98.7652C51.8874 99.147 51.3448 99.352 50.7791 98.9278C50.5977 98.7923 50.4698 98.6244 50.3956 98.424C50.1799 97.8419 50.3997 97.3334 51.0549 96.8986C52.1449 96.1751 53.3209 95.4828 54.583 94.8217C54.6098 94.8075 54.6336 94.7882 54.653 94.7648C54.6723 94.7414 54.6869 94.7145 54.6958 94.6856C54.7046 94.6566 54.7077 94.6263 54.7047 94.5962C54.7017 94.5662 54.6928 94.5371 54.6784 94.5106C53.9172 93.0777 53.4765 91.5611 53.3563 89.9609C53.354 89.9293 53.3397 89.8998 53.3164 89.8784C53.2931 89.857 53.2624 89.8454 53.2308 89.846C51.0649 89.8554 49.0817 89.8796 47.2811 89.9184C45.4764 89.9573 45.5259 87.564 47.2829 87.5693C49.4511 87.5752 51.4349 87.5805 53.2343 87.5852C53.2692 87.5852 53.3026 87.5717 53.3274 87.5476C53.3522 87.5234 53.3664 87.4906 53.3669 87.4562C53.3987 85.5578 53.7746 83.7219 54.4946 81.9484C54.6171 81.6479 54.7603 81.3634 54.9241 81.0947C55.1221 80.7695 55.3342 80.4442 55.3395 80.043C55.4019 76.0447 55.5015 73.0104 55.6382 70.94C55.8315 68.0258 56.2775 65.0286 56.9763 61.9483C57.1689 61.0998 57.3952 60.0941 58.0262 59.4701C58.5989 58.9022 59.2323 58.6853 59.9264 58.8197C61.1442 59.0565 62.4999 60.3469 63.4368 61.2413C66.3344 64.0093 68.8538 67.1084 70.9949 70.5387Z" fill="#421706"/>
<path d="M133.387 72.1031C133.395 72.6711 133.393 73.2509 133.378 73.8424C133.345 75.3873 133.331 76.5592 134.976 77.0576C135.132 77.1048 135.402 77.0606 135.786 76.9251C136.46 76.6858 136.846 76.2475 136.944 75.61C137.014 75.1592 136.979 74.6431 137.233 74.2489C137.463 73.8943 137.771 73.7092 138.156 73.6939C139.036 73.6603 139.427 74.477 139.383 75.2494C139.272 77.2609 138.142 78.5548 136.3 79.1628C134.992 79.5923 133.553 79.2229 132.569 78.3214C132.438 78.2013 132.348 78.0492 132.229 77.9237C132.178 77.8684 132.126 77.8689 132.076 77.9255C130.881 79.2848 129.207 79.6842 127.552 79.0338C125.963 78.4081 125.053 76.7837 124.908 75.1557C124.836 74.3532 125.587 73.5508 126.405 73.754C127.195 73.9502 127.303 74.7032 127.356 75.389C127.409 76.0872 127.802 76.6157 128.431 76.9021C129.37 77.3281 130.953 76.6794 130.985 75.5269C131.012 74.5217 131.016 73.3693 130.996 72.0695C130.995 72 130.959 71.9629 130.89 71.9582C130.167 71.9004 129.497 71.61 128.88 71.0868C127.572 69.9749 127.48 68.073 128.979 67.0938C129.718 66.6118 130.635 66.3591 131.729 66.3355C133.403 66.2984 135.116 66.3921 136.113 67.7991C136.998 69.0487 136.364 70.6166 135.169 71.336C134.689 71.6247 134.141 71.825 133.525 71.937C133.432 71.9535 133.386 72.0088 133.387 72.1031Z" fill="#421706"/>
<path d="M65.5638 89.6675C64.8837 89.5353 64.2859 89.1283 63.902 88.536C63.518 87.9437 63.3793 87.2147 63.5164 86.5092C63.5843 86.1599 63.7179 85.8269 63.9095 85.5293C64.1011 85.2316 64.347 84.9751 64.6332 84.7744C64.9194 84.5737 65.2402 84.4327 65.5773 84.3595C65.9144 84.2863 66.2613 84.2824 66.598 84.3478C67.2782 84.4801 67.8759 84.8871 68.2599 85.4794C68.6438 86.0717 68.7825 86.8007 68.6454 87.5061C68.5775 87.8555 68.444 88.1884 68.2523 88.4861C68.0607 88.7838 67.8148 89.0403 67.5287 89.241C67.2425 89.4417 66.9217 89.5827 66.5846 89.6559C66.2475 89.729 65.9006 89.733 65.5638 89.6675Z" fill="#421706"/>
<path d="M84.7536 89.5526C84.431 89.4294 84.1365 89.2418 83.8871 89.0005C83.6376 88.7592 83.4381 88.4689 83.2999 88.1463C83.1616 87.8236 83.0874 87.4749 83.0814 87.12C83.0755 86.7651 83.1379 86.411 83.2651 86.0779C83.522 85.4053 84.0272 84.859 84.6696 84.5593C85.312 84.2596 86.039 84.231 86.6906 84.4798C87.0133 84.6031 87.3078 84.7907 87.5572 85.032C87.8067 85.2733 88.0062 85.5636 88.1444 85.8862C88.2827 86.2089 88.3569 86.5576 88.3628 86.9125C88.3688 87.2674 88.3064 87.6215 88.1792 87.9546C87.9223 88.6272 87.4171 89.1735 86.7747 89.4732C86.1323 89.7729 85.4053 89.8015 84.7536 89.5526Z" fill="#421706"/>
<path d="M75.8158 94.8394C73.6541 96.4762 71.1866 95.3555 70.3364 92.9728C70.1914 92.5675 70.1278 92.1586 70.1455 91.7461C70.1985 90.5053 72.0332 89.9892 72.2542 91.5146C72.3974 92.4903 72.8799 93.618 74.0995 93.2221C74.6174 93.0542 74.8879 92.6458 74.8985 92.0944C74.9091 91.5158 74.9156 90.9932 74.9179 90.5265C74.9185 90.4731 74.906 90.4204 74.8817 90.3729C74.8574 90.3255 74.8219 90.2848 74.7783 90.2543C74.119 89.7983 73.4296 88.994 73.6806 88.1438C74.0394 86.9277 75.5896 86.9401 76.6908 87.0585C77.6842 87.1646 78.6899 87.8522 78.2321 89.0117C78.0218 89.5437 77.6276 89.9079 77.1645 90.2207C77.0761 90.2808 77.0284 90.3651 77.0213 90.4735C76.9801 91.1051 76.9931 91.6684 77.0602 92.1633C77.158 92.8833 77.5805 93.2651 78.3276 93.3087C79.4712 93.3741 79.5083 92.112 79.7363 91.3749C80.0881 90.2366 81.5852 90.3869 81.7991 91.4881C81.8792 91.9029 81.8456 92.343 81.6983 92.8085C81.2682 94.173 80.4557 95.0439 79.2609 95.4209C78.099 95.7874 77.0031 95.5936 75.9732 94.8394C75.9201 94.8005 75.8677 94.8005 75.8158 94.8394Z" fill="#421706"/>
<path d="M25.0975 147.073C25.101 147.223 25.0748 147.373 25.0204 147.513C24.9661 147.653 24.8848 147.781 24.781 147.889C24.6773 147.998 24.5531 148.085 24.4157 148.145C24.2783 148.206 24.1303 148.239 23.9802 148.242L22.2166 148.282C21.9133 148.289 21.6198 148.175 21.4005 147.966C21.1812 147.756 21.0542 147.468 21.0473 147.165L21.0442 147.031C21.0408 146.881 21.067 146.731 21.1213 146.591C21.1757 146.451 21.257 146.323 21.3608 146.215C21.4645 146.106 21.5887 146.019 21.7261 145.958C21.8635 145.898 22.0115 145.865 22.1616 145.861L23.9252 145.821C24.2284 145.815 24.522 145.928 24.7413 146.138C24.9605 146.348 25.0876 146.636 25.0945 146.939L25.0975 147.073Z" fill="#421706"/>
<path d="M83.4361 71.0177C85.5984 71.4879 87.6147 72.2332 89.4847 73.2537C89.9479 73.5059 90.4769 73.8382 91.072 74.2506C91.8462 74.7879 92.3506 75.1562 92.5851 75.3553C93.3051 75.9681 93.8489 76.3699 94.2166 76.5608C94.3026 77.8959 94.3008 78.8604 94.2113 79.4544C94.1264 79.9988 94.0911 80.3523 94.3226 80.8914C95.2099 82.963 95.8445 85.1831 96.0142 87.4049C96.0161 87.429 96.0132 87.4533 96.0055 87.4762C95.9979 87.4992 95.9857 87.5204 95.9697 87.5385C95.9537 87.5566 95.9342 87.5714 95.9124 87.5818C95.8906 87.5923 95.8669 87.5982 95.8427 87.5993C94.4239 87.6736 93.0629 87.8333 91.7596 88.0784C91.2965 88.1656 90.9471 88.3653 90.7114 88.6776C90.1776 89.3793 90.5895 90.4982 91.5599 90.3886C92.5945 90.2719 93.5696 90.1511 94.4852 90.0262C94.9536 89.9626 95.4167 89.982 95.8958 89.9414C95.957 89.9367 95.9847 89.9655 95.9788 90.028C95.828 91.4032 95.445 92.6805 94.8299 93.8601C94.7863 93.9426 94.7203 93.9691 94.6319 93.9397C93.5726 93.592 92.5055 93.4318 91.4308 93.4589C90.0309 93.4942 89.9938 95.3519 91.2877 95.5764C92.5921 95.8027 93.8842 96.0926 95.1092 96.6529C94.0192 97.9574 92.8308 99.157 91.544 100.252C91.4856 99.3113 90.7291 98.7192 89.817 99.1222C89.3575 99.3249 89.0723 99.735 88.9615 100.352C88.839 101.034 89.0611 101.659 89.6279 102.228C90.0468 102.832 90.4233 103.465 90.9501 103.962C91.8857 104.844 92.5998 105.56 93.0924 106.109C95.3219 108.597 97.1761 111.371 98.6549 114.431C98.669 114.46 98.674 114.492 98.6693 114.524C98.6646 114.556 98.6503 114.586 98.6284 114.61C96.6923 116.745 95.3449 119.214 94.586 122.016C94.2277 122.359 93.9915 122.777 93.8772 123.269C93.8654 123.324 93.8406 123.373 93.8029 123.416C93.7098 123.525 93.635 123.651 93.5785 123.792C93.0959 125.012 92.6805 126.214 92.4879 127.527C92.1662 129.719 92.0601 131.867 92.3942 134.019C92.7583 136.368 93.212 138.643 93.7552 140.846C93.7569 140.853 93.7567 140.861 93.7547 140.868C93.7526 140.875 93.7487 140.882 93.7434 140.887C93.7381 140.892 93.7315 140.896 93.7243 140.898C93.7171 140.9 93.7095 140.901 93.7022 140.899C93.2874 140.8 92.8555 140.76 92.4066 140.78C90.6378 140.863 89.0134 140.882 87.5333 140.839C87.2588 140.831 86.9724 140.858 86.6743 140.92C86.4115 140.974 86.1428 141.021 85.8683 141.062C86.7185 136.416 87.6571 132.015 88.6116 127.177C88.7235 126.61 88.7801 126.13 88.7812 125.737C88.7848 124.216 86.768 124.08 86.4922 125.632C86.2212 127.158 85.9307 128.696 85.6208 130.246C85.0039 130.092 84.2492 129.747 83.7136 129.754C83.1038 129.761 82.4162 130.134 82.273 130.758C82.0963 131.524 82.798 132.146 83.4573 132.377C83.8815 132.527 84.4242 132.679 85.0852 132.833L84.0441 138.343C82.7962 137.731 81.5088 137.367 80.182 137.249C79.1862 137.16 78.1787 137.146 77.1594 137.205C77.1205 130.936 77.1176 125.988 77.1506 122.361C77.1565 121.765 76.9597 121.356 76.5602 121.132C75.8885 120.754 75.185 121.074 74.9429 121.749C74.8828 121.914 74.8521 122.18 74.851 122.546C74.8404 127.347 74.8439 132.147 74.8616 136.947C74.8592 137.069 74.8203 137.13 74.7449 137.13C72.4046 137.12 70.0997 137.229 68.0281 138.251L66.9428 132.671C67.9185 132.69 69.6826 132.321 70.0043 131.234C70.2517 130.396 69.3679 129.733 68.6026 129.774C67.9073 129.809 67.2068 130.014 66.5009 130.389C66.1274 128.711 65.7821 127.036 65.4651 125.365C65.4239 125.147 65.2748 124.948 65.0179 124.768C64.1942 124.185 63.5173 124.835 63.2097 125.599C62.9893 125.609 62.7201 125.387 62.4019 124.931C62.3783 124.897 62.3479 124.868 62.3128 124.847C62.2776 124.825 62.2384 124.811 62.1977 124.806C62.1569 124.8 62.1155 124.804 62.0762 124.815C62.0368 124.826 62.0002 124.846 61.9689 124.872C61.428 125.327 61.6383 126.769 61.7603 127.451C61.8663 128.043 61.8381 128.639 61.9158 129.243C62.0773 130.494 62.2069 131.744 62.3047 132.994C62.4025 134.241 62.5109 135.414 62.6299 136.514C62.7666 137.79 62.9139 139.096 63.0718 140.432C63.0773 140.478 63.073 140.525 63.0592 140.57C63.0453 140.614 63.0223 140.655 62.9916 140.69C62.9608 140.724 62.9231 140.752 62.8809 140.771C62.8386 140.79 62.7929 140.8 62.7466 140.8C60.9578 140.795 59.1354 140.792 57.2795 140.789C57.0532 140.788 56.824 140.775 56.5919 140.75C55.7788 140.66 55.1177 140.738 54.6741 139.891C54.4172 139.4 54.1803 138.873 53.9635 138.309C53.7773 137.826 53.491 136.924 53.1045 135.603C53.0875 135.543 53.0484 135.491 52.9949 135.458C52.692 135.273 52.5748 135.09 52.6431 134.909C53.349 134.765 53.8191 134.425 54.0536 133.889C54.5574 132.734 53.8079 131.651 52.7386 131.248C51.8336 130.906 50.8266 130.777 49.7178 130.859L50.013 127.773C51.9926 128.137 53.977 128.364 55.9662 128.455C56.4882 128.479 56.9666 128.407 57.4014 128.241C57.8198 128.082 58.1167 127.801 58.2923 127.396C58.9799 125.809 57.3254 124.646 56.127 124.057C54.4867 123.251 52.8458 122.622 51.2043 122.17C51.255 121.963 51.3204 121.721 51.4005 121.441C52.2961 118.341 53.5192 115.376 55.07 112.545C56.2979 110.305 57.7661 108.235 59.4748 106.336C60.13 105.609 60.7964 104.892 61.4739 104.185C61.5882 104.066 61.7703 103.776 62.0201 103.315C62.4762 102.884 63.0842 102.408 63.2751 101.841C63.6781 100.649 62.9304 98.6061 61.3361 98.9331C60.7787 99.0462 60.4122 99.4863 60.2366 100.253C58.9981 99.2553 57.8068 98.1023 56.6626 96.7943C56.6546 96.7851 56.6487 96.7742 56.6456 96.7624C56.6425 96.7506 56.6421 96.7383 56.6445 96.7263C56.6469 96.7144 56.652 96.7031 56.6594 96.6935C56.6668 96.6838 56.6764 96.6759 56.6873 96.6706C56.751 96.6376 56.7463 96.561 56.6732 96.4408C57.8186 96.059 58.9622 95.8345 60.1465 95.5782C60.447 95.5134 60.6762 95.4179 60.8341 95.2918C61.4015 94.8358 61.3361 93.9556 60.6962 93.6074C60.4063 93.4506 60.0728 93.387 59.6958 93.4165C58.7636 93.4872 57.8486 93.6403 56.9507 93.876C56.9051 93.8876 56.8569 93.8835 56.8141 93.8642C56.7714 93.8449 56.7366 93.8117 56.7156 93.77C56.1146 92.5975 55.7352 91.336 55.5773 89.9856C55.5754 89.9696 55.5771 89.9535 55.5822 89.9383C55.5873 89.9231 55.5958 89.9092 55.607 89.8977C55.6182 89.8862 55.6318 89.8773 55.6468 89.8717C55.6619 89.8661 55.678 89.864 55.694 89.8654C57.0974 89.9997 58.4667 90.1659 59.8018 90.3638C60.3992 90.4522 60.8352 90.2484 61.1098 89.7523C61.5605 88.9339 60.7139 88.241 59.9839 88.0854C58.7301 87.8179 57.2883 87.6647 55.6586 87.6259C55.633 87.6255 55.6077 87.6198 55.5843 87.6091C55.561 87.5984 55.5401 87.5829 55.523 87.5637C55.5059 87.5444 55.493 87.5218 55.485 87.4972C55.477 87.4726 55.4741 87.4466 55.4765 87.4208C55.6863 85.11 56.3285 82.9247 57.4032 80.8649C57.6177 80.4524 57.7143 79.9823 57.6931 79.4544C57.6554 78.5187 57.6719 77.5919 57.7426 76.674C58.1338 76.5761 58.4903 76.3699 58.812 76.0553C59.2126 75.6629 59.4165 75.4637 59.4235 75.4579C62.0926 73.2295 65.1906 71.786 68.7175 71.1273C69.0545 71.3017 69.4245 71.3677 69.8275 71.3253C69.7922 72.6462 69.7751 73.9707 69.7763 75.2988C69.7763 75.8668 69.8452 76.4253 69.9831 76.9744C70.2853 78.1764 71.5898 78.1729 72.0299 77.054C72.2078 76.5979 72.3251 76.1083 72.3817 75.5851C72.4901 74.58 72.5555 73.4958 72.5779 72.3328C72.5802 72.2161 72.6397 72.1548 72.7564 72.1489L74.5575 72.0641C74.586 72.0628 74.6139 72.0717 74.6361 72.0893C74.6582 72.1069 74.673 72.1319 74.6777 72.1596C74.7284 72.4341 74.7502 72.711 74.7431 72.9903C74.7184 73.9342 74.739 74.772 74.805 75.5038C74.8392 75.875 74.9611 76.2132 75.1709 76.5184C75.634 77.1918 76.5531 76.9338 76.912 76.2939C77.0557 76.0359 77.1388 75.7253 77.1612 75.3624C77.2236 74.3172 77.2431 73.272 77.2195 72.2267C77.2193 72.2129 77.2218 72.1991 77.2269 72.1863C77.2321 72.1734 77.2397 72.1617 77.2494 72.1518C77.2591 72.142 77.2707 72.1341 77.2835 72.1288C77.2963 72.1234 77.31 72.1207 77.3238 72.1207L79.0578 72.1101C79.2357 72.1101 79.3247 72.199 79.3247 72.377C79.3212 73.692 79.3724 74.9718 79.4785 76.2161C79.5186 76.6828 79.6246 77.0935 79.7966 77.4482C80.0176 77.9042 80.5355 78.2683 81.064 78.0721C81.6827 77.8406 81.9619 77.1919 82.0185 76.5714C82.0621 76.0965 82.0845 75.5839 82.0857 75.0336C82.0868 73.7881 82.124 72.5196 82.197 71.228C82.7214 71.3353 83.1344 71.2652 83.4361 71.0177ZM65.5641 89.6674C65.9009 89.7329 66.2477 89.7289 66.5849 89.6557C66.922 89.5825 67.2428 89.4416 67.5289 89.2409C67.8151 89.0402 68.061 88.7837 68.2526 88.486C68.4442 88.1883 68.5778 87.8553 68.6457 87.506C68.7828 86.8006 68.6441 86.0715 68.2602 85.4793C67.8762 84.887 67.2784 84.4799 66.5983 84.3477C66.2615 84.2822 65.9147 84.2862 65.5776 84.3594C65.2404 84.4326 64.9196 84.5736 64.6335 84.7743C64.3473 84.975 64.1014 85.2315 63.9098 85.5291C63.7182 85.8268 63.5846 86.1598 63.5167 86.5091C63.3796 87.2145 63.5183 87.9436 63.9023 88.5359C64.2862 89.1282 64.884 89.5352 65.5641 89.6674ZM84.7547 89.5527C85.4064 89.8015 86.1334 89.773 86.7758 89.4733C87.4182 89.1736 87.9234 88.6273 88.1803 87.9546C88.3075 87.6216 88.3699 87.2675 88.3639 86.9126C88.3579 86.5577 88.2837 86.209 88.1455 85.8863C88.0073 85.5636 87.8077 85.2734 87.5583 85.0321C87.3089 84.7908 87.0144 84.6031 86.6917 84.4799C86.0401 84.2311 85.3131 84.2597 84.6706 84.5594C84.0282 84.8591 83.523 85.4053 83.2661 86.078C83.1389 86.4111 83.0765 86.7652 83.0825 87.1201C83.0885 87.475 83.1627 87.8237 83.3009 88.1464C83.4391 88.469 83.6387 88.7593 83.8881 89.0006C84.1376 89.2419 84.432 89.4295 84.7547 89.5527ZM75.9734 94.8397C77.0033 95.5939 78.0992 95.7877 79.2611 95.4213C80.456 95.0442 81.2685 94.1733 81.6986 92.8088C81.8459 92.3433 81.8794 91.9032 81.7993 91.4884C81.5854 90.3872 80.0883 90.2369 79.7366 91.3753C79.5085 92.1123 79.4714 93.3744 78.3278 93.309C77.5807 93.2654 77.1582 92.8836 77.0604 92.1636C76.9933 91.6687 76.9803 91.1054 77.0216 90.4738C77.0286 90.3654 77.0763 90.2811 77.1647 90.221C77.6278 89.9082 78.022 89.5441 78.2323 89.012C78.6901 87.8525 77.6844 87.1649 76.691 87.0588C75.5898 86.9404 74.0396 86.928 73.6808 88.1441C73.4298 88.9943 74.1192 89.7986 74.7785 90.2546C74.8221 90.2851 74.8576 90.3258 74.8819 90.3733C74.9062 90.4207 74.9187 90.4734 74.9181 90.5268C74.9158 90.9935 74.9093 91.5161 74.8987 92.0947C74.8881 92.6462 74.6176 93.0545 74.0997 93.2224C72.8801 93.6183 72.3976 92.4906 72.2544 91.5149C72.0334 89.9895 70.1987 90.5056 70.1457 91.7465C70.128 92.1589 70.1916 92.5678 70.3366 92.9732C71.1868 95.3559 73.6543 96.4765 75.8161 94.8397C75.8679 94.8008 75.9204 94.8008 75.9734 94.8397Z" fill="#F5C19D"/>
<path d="M36.0611 130.401C37.6343 130.853 39.1862 131.295 40.7169 131.729C40.8454 131.764 40.9096 131.865 40.9096 132.033C40.7623 132.8 40.7876 133.601 40.9856 134.435C39.4443 134.792 38.4273 135.052 37.9348 135.216C36.9025 135.56 35.8425 135.918 34.7549 136.289C34.5227 134.204 34.9582 132.242 36.0611 130.401Z" fill="#F5C19D"/>
<path d="M41.3711 135.527C41.8094 136.372 42.3432 137.127 42.9725 137.793C41.8707 139.297 40.8396 140.833 39.8792 142.401C39.8592 142.434 39.7455 142.593 39.5381 142.879C39.4297 143.028 39.3313 143.2 39.2429 143.393C37.579 142.189 36.3346 140.656 35.5098 138.794C37.2915 138.173 38.9501 137.361 40.4855 136.36C40.74 136.194 41.0352 135.916 41.3711 135.527Z" fill="#F5C19D"/>
<path d="M45.0138 139.363L46.0743 139.989C45.8799 140.561 45.7243 141.138 45.6077 141.717C45.385 142.826 45.1764 143.937 44.9819 145.051C44.9808 145.053 44.9454 145.199 44.8759 145.488C44.8429 145.621 44.8211 145.77 44.8105 145.937C43.9526 145.821 43.0842 145.559 42.2051 145.152L45.0138 139.363Z" fill="#F5C19D"/>
<path d="M48.4991 143.068C48.8126 144.135 49.2798 145.102 49.9008 145.967C49.9044 145.972 49.9066 145.978 49.907 145.984C49.9074 145.99 49.906 145.996 49.9031 146.002C49.9001 146.007 49.8957 146.012 49.8903 146.015C49.8849 146.018 49.8788 146.02 49.8725 146.02L48.2676 146.016L48.4991 143.068Z" fill="#F5C19D"/>
<path d="M150.701 78.9559C150.673 79.6311 150.635 80.3264 150.586 81.0417C150.49 82.418 150.151 83.7903 149.568 85.1584C149.382 85.5944 149.159 85.9773 148.896 86.3073C148.381 86.5654 148.041 86.725 147.878 86.7863C144.807 87.9176 141.794 88.4178 138.479 88.7236C133.237 89.2079 127.965 89.05 122.663 88.2499C120.652 87.947 118.762 87.4739 116.993 86.8305C116.368 86.6031 115.867 86.375 115.489 86.1464C114.582 84.3447 114.06 82.5394 113.923 80.7306C113.894 80.357 113.886 79.9499 113.898 79.5092C114.256 80.1066 114.61 80.6923 114.958 81.2662C115.348 81.9096 115.745 82.4746 116.15 82.9613C117.555 84.6581 119.338 85.7682 121.431 86.5813C122.045 86.8205 122.744 86.9978 123.528 87.1133C124.042 87.1899 124.554 87.283 125.062 87.3926C125.518 87.4904 126.029 87.5505 126.596 87.5729C130.302 87.7225 134.008 87.7102 137.712 87.5358C139.222 87.4639 140.644 87.2647 141.979 86.9383C143.215 86.6361 144.489 86.1995 145.603 85.4995C146.817 84.7347 147.832 83.8904 148.65 82.9666C149.649 81.8365 150.333 80.4996 150.701 78.9559Z" fill="#F0DAD0"/>
<path d="M131.756 132.989L131.747 145.984C131.747 146.015 131.732 146.03 131.701 146.03L122.604 146.011C122.604 145.118 122.614 144.216 122.634 143.306C122.65 142.585 123.01 142.193 123.714 142.131C124.415 142.068 124.818 142.423 124.923 143.195C124.983 143.643 125.019 144.092 125.03 144.542C125.033 144.618 125.072 144.653 125.147 144.646C125.488 144.612 125.827 144.601 126.165 144.614C127.397 144.662 128.631 144.648 129.833 144.65C129.896 144.65 129.958 144.638 130.016 144.614C130.075 144.59 130.127 144.554 130.172 144.51C130.216 144.465 130.251 144.412 130.274 144.354C130.298 144.296 130.309 144.233 130.308 144.171C130.284 142.549 130.296 140.973 130.346 139.442C130.358 139.075 130.352 138.708 130.326 138.341C130.3 137.964 130.297 137.591 130.315 137.222C130.356 136.46 130.369 135.681 130.356 134.886C130.355 134.874 130.378 134.583 130.425 134.014C130.453 133.671 130.388 133.366 130.229 133.097L131.756 132.989Z" fill="#F0DAD0"/>
<path d="M106.47 144.572C108.152 144.643 109.811 144.638 111.448 144.558C112.173 144.521 112.924 144.519 113.62 144.664C113.645 144.669 113.67 144.667 113.694 144.66C113.717 144.652 113.739 144.638 113.755 144.62C113.772 144.602 113.784 144.579 113.79 144.555C113.796 144.531 113.795 144.506 113.788 144.482C113.436 143.216 113.117 141.971 112.83 140.745C112.778 140.524 112.603 140.068 112.305 139.379C113.121 139.094 113.997 138.925 114.934 138.873C114.991 138.871 115.024 138.898 115.033 138.955C115.234 140.351 115.504 141.776 115.842 143.23C116.081 144.247 116.547 145.15 117.279 145.892C117.346 145.962 117.332 145.997 117.235 145.997C113.801 145.995 110.361 146.008 106.914 146.034C106.697 146.035 106.476 146.037 106.25 146.039C106.189 146.04 106.16 146.011 106.161 145.951C106.167 145.402 106.27 144.942 106.47 144.572Z" fill="#F0DAD0"/>
<path d="M142.525 146.018L140.263 146.005L140.342 144.735C140.346 144.666 140.37 144.607 140.415 144.556C140.589 144.36 140.828 144.228 141.132 144.158C141.646 144.042 142.054 144.197 142.357 144.625C142.466 144.781 142.519 144.944 142.516 145.115C142.51 145.382 142.506 145.655 142.502 145.935C142.502 145.941 142.501 145.947 142.498 145.952C142.495 145.958 142.491 145.963 142.486 145.966C142.481 145.97 142.476 145.973 142.47 145.975C142.464 145.976 142.457 145.976 142.451 145.975C142.426 145.972 142.451 145.986 142.525 146.018Z" fill="#F0DAD0"/>
<path d="M148.078 144.383C148.641 144.52 149.209 144.587 149.78 144.584C150.441 144.581 151.104 144.583 151.767 144.591C153.77 144.614 155.773 144.619 157.777 144.606C157.95 144.604 158.061 144.526 158.109 144.37L158.565 145.868C158.593 145.963 158.558 146.011 158.459 146.011L147.219 145.99C147.172 145.99 147.16 145.969 147.184 145.928L148.078 144.383Z" fill="#F0DAD0"/>
<path d="M191.846 146.767C191.893 146.89 191.912 147.022 191.903 147.156C191.895 147.289 191.858 147.42 191.796 147.543C191.734 147.666 191.647 147.778 191.541 147.871C191.435 147.965 191.311 148.039 191.176 148.09C190.905 148.192 190.608 148.191 190.35 148.087C190.092 147.983 189.895 147.785 189.801 147.536C189.755 147.413 189.736 147.281 189.744 147.148C189.753 147.015 189.789 146.883 189.851 146.76C189.914 146.637 190 146.526 190.107 146.432C190.213 146.338 190.337 146.264 190.471 146.213C190.742 146.112 191.04 146.113 191.297 146.216C191.555 146.32 191.753 146.518 191.846 146.767Z" fill="#F0DAD0"/>
<path d="M186.906 148.294C186.746 148.611 186.578 148.927 186.404 149.242C186.193 149.621 185.977 149.903 185.757 150.087C185.084 150.647 184.244 150.622 183.401 150.667C183.074 150.683 182.754 150.691 182.439 150.691C172 150.679 161.561 150.677 151.123 150.684C149.421 150.684 147.648 150.642 145.911 150.672C145.155 150.685 144.433 150.69 143.745 150.688C121.2 150.624 99.0202 150.702 75.5397 150.686C61.5393 150.675 48.1499 150.671 35.3715 150.672C34.5054 150.672 33.6682 150.657 32.8598 150.628C32.1139 150.599 30.9314 150.301 30.7157 149.463C30.6156 149.077 30.5036 148.692 30.3799 148.305L186.906 148.294Z" fill="#F0DAD0"/>
<path d="M94.216 76.5608C93.8483 76.3699 93.3045 75.9681 92.5845 75.3554C92.35 75.1562 91.8457 74.788 91.0715 74.2506C90.4764 73.8382 89.9473 73.5059 89.4842 73.2537C87.6141 72.2332 85.5979 71.4879 83.4355 71.0177C85.07 68.6103 86.8505 66.4155 88.7772 64.4335C89.8713 63.3093 90.9919 62.1781 92.2681 61.2978C92.3134 61.2668 92.3649 61.2461 92.419 61.2371C92.4731 61.228 92.5285 61.231 92.5814 61.2456C92.6343 61.2603 92.6833 61.2863 92.7251 61.3219C92.7668 61.3574 92.8003 61.4017 92.8232 61.4516C93.04 61.9253 93.1908 62.4014 93.2757 62.8798C94.0734 67.3741 94.3869 71.9345 94.216 76.5608Z" fill="#FF967E"/>
<path d="M68.7171 71.1275C65.1902 71.7862 62.0922 73.2297 59.4232 75.4581C59.4161 75.464 59.2122 75.6631 58.8116 76.0555C58.4899 76.3701 58.1334 76.5763 57.7422 76.6742C57.7634 71.5941 58.1593 66.7386 59.2906 61.8654C59.3365 61.6686 59.4149 61.4783 59.5257 61.2945C59.5575 61.2402 59.6034 61.2226 59.6635 61.2414C59.8945 61.3121 60.1037 61.4182 60.291 61.5596C61.0311 62.1123 61.7564 62.7604 62.4669 63.5039C64.8119 65.9573 66.4976 67.9352 67.524 69.4377C68.0625 70.2272 68.4602 70.7905 68.7171 71.1275Z" fill="#FF967E"/>
<path d="M81.0544 70.5829C81.3513 70.848 81.7319 71.0631 82.1962 71.228C82.1232 72.5196 82.086 73.7881 82.0849 75.0336C82.0837 75.5839 82.0613 76.0965 82.0177 76.5714C81.9611 77.1919 81.6819 77.8406 81.0632 78.0721C80.5347 78.2683 80.0168 77.9042 79.7958 77.4482C79.6238 77.0935 79.5177 76.6828 79.4777 76.2161C79.3716 74.9718 79.3204 73.692 79.3239 72.377C79.3239 72.199 79.2349 72.1101 79.057 72.1101L77.323 72.1207C77.3092 72.1207 77.2955 72.1234 77.2827 72.1288C77.2699 72.1341 77.2583 72.142 77.2486 72.1518C77.2389 72.1617 77.2313 72.1734 77.2261 72.1863C77.221 72.1991 77.2185 72.2129 77.2187 72.2267C77.2423 73.272 77.2228 74.3172 77.1604 75.3624C77.138 75.7253 77.0549 76.0359 76.9112 76.2939C76.5523 76.9338 75.6332 77.1919 75.1701 76.5184C74.9603 76.2132 74.8384 75.875 74.8042 75.5038C74.7382 74.772 74.7176 73.9342 74.7423 72.9903C74.7494 72.711 74.7276 72.4341 74.6769 72.1596C74.6722 72.1319 74.6574 72.1069 74.6353 72.0893C74.6131 72.0717 74.5852 72.0628 74.5567 72.0641L72.7556 72.1489C72.6389 72.1548 72.5794 72.2161 72.5771 72.3328C72.5547 73.4958 72.4893 74.58 72.3809 75.5851C72.3243 76.1083 72.207 76.5979 72.0291 77.054C71.589 78.1729 70.2845 78.1764 69.9823 76.9744C69.8444 76.4253 69.7754 75.8668 69.7754 75.2988C69.7743 73.9707 69.7914 72.6462 69.8267 71.3253L70.9951 70.5387C73.5616 70.0909 76.2253 69.9919 78.9863 70.2417C79.7134 70.3065 80.4027 70.4203 81.0544 70.5829Z" fill="#9A563B"/>
<path d="M62.0198 103.315C61.5744 102.73 61.053 102.298 60.4555 102.017L60.2363 100.253C60.4119 99.4863 60.7784 99.0462 61.3358 98.933C62.9301 98.606 63.6778 100.649 63.2748 101.841C63.0839 102.408 62.4759 102.884 62.0198 103.315Z" fill="#9A563B"/>
<path d="M91.5438 100.252L91.5261 101.217C90.8368 101.391 90.204 101.728 89.6278 102.228C89.061 101.659 88.8388 101.033 88.9614 100.352C89.0722 99.7349 89.3573 99.3248 89.8169 99.1222C90.729 98.7192 91.4855 99.3113 91.5438 100.252Z" fill="#9A563B"/>
<path d="M50.0127 127.773C50.0551 127.29 50.1341 126.777 50.2496 126.233C50.5724 124.707 50.8906 123.353 51.204 122.17C52.8455 122.622 54.4864 123.251 56.1267 124.057C57.3252 124.646 58.9796 125.809 58.292 127.396C58.1165 127.801 57.8195 128.082 57.4012 128.241C56.9663 128.407 56.4879 128.479 55.9659 128.455C53.9768 128.364 51.9924 128.137 50.0127 127.773Z" fill="#9A563B"/>
<path d="M40.91 132.033C40.91 131.865 40.8458 131.764 40.7173 131.729C39.1866 131.295 37.6347 130.853 36.0615 130.401C36.6979 129.389 37.5469 128.552 38.6086 127.889C38.9851 127.654 39.8671 127.481 40.3338 127.575C40.8134 127.67 41.2099 127.969 41.5233 128.471C41.6836 128.729 41.7178 129.031 41.6259 129.378C41.3902 130.263 41.1516 131.148 40.91 132.033Z" fill="#9A563B"/>
<path d="M85.6206 130.246L85.085 132.833C84.424 132.679 83.8813 132.527 83.4571 132.377C82.7978 132.146 82.0961 131.524 82.2728 130.758C82.416 130.134 83.1036 129.761 83.7134 129.754C84.249 129.747 85.0037 130.092 85.6206 130.246Z" fill="#9A563B"/>
<path d="M66.9429 132.671L66.501 130.389C67.2068 130.014 67.9074 129.809 68.6026 129.774C69.368 129.733 70.2518 130.396 70.0043 131.234C69.6826 132.321 67.9186 132.69 66.9429 132.671Z" fill="#9A563B"/>
<path d="M49.7178 130.859C50.8266 130.777 51.8336 130.906 52.7386 131.248C53.8079 131.651 54.5574 132.734 54.0536 133.889C53.8191 134.425 53.349 134.765 52.6431 134.909C52.1835 135.018 51.8177 135.06 51.5454 135.034C50.9728 134.98 50.3794 134.915 49.7655 134.84L49.7178 130.859Z" fill="#9A563B"/>
<path d="M40.9856 134.435L41.3709 135.527C41.0351 135.916 40.7399 136.194 40.4854 136.36C38.9499 137.361 37.2914 138.173 35.5096 138.794C35.1326 138.043 34.881 137.208 34.7549 136.289C35.8425 135.918 36.9025 135.56 37.9348 135.216C38.4273 135.052 39.4443 134.792 40.9856 134.435Z" fill="#9A563B"/>
<path d="M74.8608 136.947L74.8254 145.928C74.8255 145.944 74.8222 145.96 74.816 145.975C74.8097 145.989 74.8005 146.003 74.789 146.014C74.7775 146.025 74.7638 146.034 74.7488 146.04C74.7338 146.046 74.7178 146.048 74.7017 146.048C73.8757 146.022 73.0508 146.016 72.2271 146.03C71.0234 146.053 70.182 145.813 69.551 144.683C69.3212 144.272 69.1486 143.796 69.0331 143.255C68.6784 141.587 68.3432 139.919 68.0273 138.251C70.0989 137.229 72.4039 137.12 74.7441 137.13C74.8196 137.13 74.8584 137.069 74.8608 136.947Z" fill="#9A563B"/>
<path d="M84.0439 138.343C83.7505 140.033 83.4152 141.775 83.0381 143.57C82.8101 144.659 82.0076 145.875 80.8092 145.977C79.7805 146.063 78.6575 146.07 77.4402 145.997C77.3854 145.993 77.3339 145.969 77.2962 145.929C77.2584 145.889 77.2373 145.836 77.237 145.781L77.1592 137.205C78.1785 137.146 79.186 137.16 80.1817 137.249C81.5086 137.367 82.796 137.731 84.0439 138.343Z" fill="#9A563B"/>
<path d="M42.9728 137.793L45.0143 139.363L42.2056 145.152C41.1757 144.69 40.1882 144.103 39.2432 143.393C39.3315 143.2 39.4299 143.028 39.5384 142.879C39.7457 142.593 39.8595 142.434 39.8795 142.401C40.8399 140.833 41.871 139.297 42.9728 137.793Z" fill="#9A563B"/>
<path d="M188.489 141.058C188.355 141.143 188.217 141.277 188.073 141.461C188.14 141.03 188.329 140.674 188.639 140.393C188.648 140.385 188.661 140.381 188.674 140.381C188.699 140.38 188.718 140.389 188.731 140.409C188.74 140.426 188.738 140.44 188.724 140.453C188.409 140.766 188.331 140.967 188.489 141.058Z" fill="#9A563B"/>
<path d="M187.686 141.931C187.628 142.06 187.545 142.158 187.438 142.226C187.406 142.191 187.385 142.157 187.373 142.124C187.35 142.06 187.367 142.011 187.424 141.977C187.492 141.936 187.58 141.921 187.686 141.931Z" fill="#9A563B"/>
<path d="M150.185 92.5185C149.39 92.9321 148.598 93.3357 147.81 93.7293C146.972 94.1488 146.214 94.4682 145.535 94.6873C143.827 95.2388 142.283 95.6577 140.9 95.9441C139.596 96.2139 138.212 96.4402 136.748 96.6228C135.603 96.7654 134.426 96.8485 133.217 96.8721C131.211 96.9121 129.924 96.9015 129.356 96.8403C128.451 96.7436 127.589 96.6547 126.77 96.5733C125.669 96.4626 124.808 96.353 124.19 96.2446C122.045 95.8675 119.995 95.3378 118.04 94.6555C117.279 94.3904 116.529 94.054 115.79 93.6462C115.389 93.4253 115.085 93.2114 114.848 92.8332C114.767 92.7024 114.672 92.6163 114.563 92.5751L116.066 89.3157C116.086 89.2719 116.121 89.2368 116.165 89.2167C116.209 89.1966 116.258 89.1928 116.305 89.2061C119.864 90.2383 123.495 90.8841 127.196 91.1434C133.18 91.564 138.965 91.359 144.685 90.1252C145.954 89.8507 147.202 89.5178 148.429 89.1265C148.454 89.1183 148.481 89.1194 148.506 89.1299C148.53 89.1403 148.55 89.1592 148.561 89.1831L150.185 92.5185Z" fill="#725C55"/>
<path d="M153.904 106.723C154.063 107.955 154.194 109.19 154.295 110.428C154.377 111.447 154.918 111.993 155.918 112.064C156.62 112.115 157.156 112.17 157.524 112.231C157.409 112.648 157.265 113.024 157.213 113.436C157.166 113.815 157.119 114.194 157.072 114.573C157.025 114.945 156.967 115.323 156.899 115.706C156.219 119.501 155.538 123.296 154.857 127.089C154.387 129.699 153.892 132.32 153.372 134.951C153.312 135.26 153.231 135.611 153.13 136.006C153.042 136.356 152.957 136.707 152.876 137.06C151.991 136.784 151.069 136.598 150.111 136.501C149.93 136.482 149.858 136.384 149.895 136.206C150.406 133.78 150.873 131.348 151.297 128.911C151.5 127.749 151.723 126.594 151.967 125.447C152.483 123.017 152.797 121.385 152.909 120.552C153.038 119.593 152.642 119.058 151.723 118.946C151.722 118.792 151.554 118.66 151.219 118.548C151.163 118.529 151.13 118.49 151.12 118.431C151.066 118.127 151.061 117.859 151.106 117.625C151.244 116.905 151.366 116.192 151.472 115.485C151.579 114.772 151.703 114.044 151.842 113.302C152.069 112.087 152.262 110.947 152.421 109.881C152.491 109.412 152.625 109.011 152.824 108.676C153.082 108.242 153.365 107.893 153.673 107.63C153.729 107.581 153.748 107.521 153.728 107.449C153.712 107.396 153.731 107.361 153.784 107.345C153.85 107.325 153.884 107.28 153.887 107.211L153.904 106.723Z" fill="#725C55"/>
<path d="M110.357 110.744C110.327 110.913 110.308 111.077 110.301 111.239C110.295 111.397 110.334 111.552 110.417 111.706C110.64 112.11 110.889 112.512 111.165 112.913C110.538 113.402 110.575 114.117 110.704 114.85C111.292 118.171 111.83 121.159 112.318 123.815C112.712 125.968 113.089 128.123 113.449 130.281C113.785 132.303 114.2 134.297 114.566 136.314C114.573 136.351 114.565 136.39 114.544 136.422C114.523 136.455 114.49 136.478 114.453 136.487L111.789 137.152C111.603 136.757 111.466 136.352 111.377 135.936C111.226 135.217 111.136 134.803 111.107 134.695C110.897 133.91 110.734 133.158 110.619 132.439C110.303 130.476 109.975 128.532 109.634 126.606C109.283 124.62 109.063 122.817 108.731 120.95C108.573 120.069 108.415 119.189 108.257 118.313C108.228 118.153 108.105 117.372 107.888 115.973C107.767 115.192 107.615 114.418 107.432 113.648C107.397 113.5 107.365 113.266 107.336 112.948C107.313 112.685 107.256 112.454 107.165 112.255C107.704 112.166 108.273 112.096 108.874 112.045C109.692 111.974 110.186 111.541 110.357 110.744Z" fill="#725C55"/>
<path d="M101.498 115.055C101.509 115.811 101.37 116.543 101.079 117.254C100.792 117.959 100.625 118.398 100.575 118.573C100 120.616 99.7089 122.671 99.7019 124.738C99.6948 126.887 100.071 129.024 100.83 131.149C101.435 132.845 102.33 134.421 103.513 135.879C104.615 137.237 106.093 138.316 107.948 139.117C106.02 140.573 104.715 142.381 104.032 144.544C104.024 144.572 104.008 144.597 103.987 144.618C103.966 144.638 103.94 144.653 103.912 144.661C103.884 144.669 103.854 144.67 103.825 144.664C103.797 144.658 103.77 144.644 103.748 144.625C101.452 142.654 99.6583 140.268 98.3656 137.47C96.4366 133.292 95.8409 128.816 96.5785 124.042C97.1395 120.414 98.7792 117.419 101.498 115.055Z" fill="#725C55"/>
<path d="M183.128 142.854C181.606 143.85 180.019 144.636 178.368 145.214C176.963 145.705 175.463 145.964 173.87 145.99C170.335 146.045 166.743 146.051 163.095 146.007C163.005 146.006 162.992 145.974 163.054 145.91L165.338 143.566C166.759 143.728 168.201 143.794 169.663 143.766C172.666 143.709 175.109 143.653 176.993 143.598C177.706 143.578 178.341 143.531 178.897 143.458C179.481 143.383 180.076 143.306 180.682 143.229C181.057 143.181 181.685 142.965 182.566 142.58C182.802 142.477 182.989 142.569 183.128 142.854Z" fill="#725C55"/>
<path d="M133.798 30.2221C133.792 30.2975 133.756 30.3617 133.69 30.4148C133.57 30.4242 133.515 30.3929 133.526 30.3211C133.545 30.2021 133.604 30.1337 133.704 30.116C133.721 30.1131 133.739 30.1165 133.754 30.1256C133.769 30.1347 133.78 30.1488 133.786 30.1655C133.791 30.1832 133.796 30.2021 133.798 30.2221Z" fill="#EDAE8A"/>
<path d="M94.5851 122.016C94.2281 123.484 94.0124 124.792 93.9382 125.94C93.7732 128.52 94.003 131.143 94.6275 133.811C95.7482 138.592 98.1197 142.623 101.742 145.905C101.834 145.987 101.818 146.029 101.694 146.029C96.1477 146.036 90.5751 146.041 84.9766 146.044C84.7963 146.044 84.6213 146.11 84.4374 146.097C84.3538 146.093 84.3349 146.056 84.3809 145.986C84.8405 145.291 85.1197 144.708 85.2187 144.238C85.4497 143.14 85.6659 142.081 85.8674 141.062C86.142 141.022 86.4107 140.974 86.6734 140.92C86.9716 140.858 87.2579 140.831 87.5325 140.839C89.0125 140.883 90.6369 140.863 92.4057 140.781C92.8547 140.761 93.2865 140.8 93.7013 140.899C93.7086 140.901 93.7163 140.901 93.7235 140.898C93.7307 140.896 93.7373 140.893 93.7426 140.887C93.7479 140.882 93.7517 140.875 93.7538 140.868C93.7559 140.861 93.756 140.853 93.7544 140.846C93.2111 138.644 92.7574 136.368 92.3933 134.02C92.0592 131.867 92.1653 129.719 92.487 127.527C92.6797 126.214 93.095 125.012 93.5776 123.792C93.6342 123.651 93.709 123.525 93.8021 123.416C93.8398 123.373 93.8645 123.325 93.8763 123.269C93.9906 122.777 94.2269 122.359 94.5851 122.016Z" fill="#EDAE8A"/>
<path d="M63.2088 125.599C63.2371 125.739 63.2619 125.903 63.2831 126.092C63.3031 126.273 63.3308 126.45 63.3662 126.622C64.5116 132.201 65.5951 137.733 66.6167 143.22C66.8076 144.245 67.2 145.168 67.7939 145.988C67.7977 145.993 67.7999 145.998 67.8005 146.004C67.801 146.01 67.7998 146.016 67.797 146.022C67.7943 146.027 67.79 146.032 67.7847 146.035C67.7795 146.038 67.7735 146.039 67.7674 146.039L53.0523 146.048C52.9908 146.048 52.93 146.035 52.8735 146.011C52.817 145.987 52.766 145.952 52.7236 145.908C51.6571 144.803 50.9601 143.481 50.6325 141.942C50.1388 139.619 49.8495 137.252 49.7646 134.84C50.3786 134.915 50.9719 134.98 51.5446 135.034C51.8168 135.06 52.1827 135.018 52.6423 134.909C52.5739 135.09 52.6912 135.273 52.994 135.458C53.0475 135.491 53.0866 135.543 53.1036 135.603C53.4901 136.924 53.7765 137.826 53.9626 138.309C54.1795 138.873 54.4163 139.4 54.6732 139.891C55.1169 140.738 55.778 140.66 56.591 140.75C56.8232 140.775 57.0524 140.788 57.2786 140.789C59.1346 140.792 60.957 140.795 62.7457 140.8C62.792 140.8 62.8378 140.79 62.88 140.771C62.9222 140.752 62.96 140.725 62.9907 140.69C63.0214 140.655 63.0445 140.614 63.0583 140.57C63.0722 140.525 63.0765 140.478 63.071 140.432C62.9131 139.096 62.7658 137.79 62.6291 136.514C62.5101 135.414 62.4017 134.241 62.3038 132.994C62.206 131.744 62.0764 130.494 61.915 129.244C61.8372 128.639 61.8655 128.043 61.7594 127.451C61.6375 126.769 61.4271 125.327 61.968 124.872C61.9994 124.846 62.0359 124.826 62.0753 124.815C62.1147 124.804 62.1561 124.801 62.1968 124.806C62.2376 124.811 62.2768 124.825 62.3119 124.847C62.3471 124.868 62.3774 124.897 62.4011 124.931C62.7192 125.387 62.9885 125.609 63.2088 125.599Z" fill="#EDAE8A"/>
<path d="M46.0744 139.989L47.8667 140.438C47.9445 140.458 47.991 140.507 48.0063 140.584L48.4995 143.068L48.2679 146.016L44.8105 145.937C44.8212 145.77 44.843 145.621 44.8759 145.488C44.9455 145.199 44.9808 145.053 44.982 145.051C45.1764 143.937 45.385 142.826 45.6077 141.717C45.7244 141.138 45.8799 140.561 46.0744 139.989Z" fill="#EDAE8A"/>
</svg>
