<svg width="64" height="64" viewBox="0 0 64 64" fill="none" xmlns="http://www.w3.org/2000/svg">
<circle cx="32.5" cy="29.5" r="25.5" fill="#440D08"/>
<path opacity="0.3" fill-rule="evenodd" clip-rule="evenodd" d="M36.7455 57.5399C28.7587 57.4379 20.5983 57.0212 13.0283 54.0959C10.5454 53.6622 9.44291 50.2012 12.3859 49.4954C19.9993 46.5787 28.2378 47.1399 36.2246 47.0464C41.5202 47.1654 47.163 46.6042 52.1113 48.7131C53.8476 49.8866 56.1047 50.2948 57.3201 52.0465C58.5354 54.1299 56.5388 56.545 54.3684 56.2048C51.33 55.9837 48.4652 57.2168 45.4267 57.2508C42.5619 57.4889 39.6103 57.5229 36.7455 57.5399Z" fill="black"/>
<path fill-rule="evenodd" clip-rule="evenodd" d="M43.4305 19.9536C43.0832 19.4604 37.9613 14.2349 35.9646 15.0955C33.447 16.3319 34.7492 24.5031 37.5272 25.7702" fill="#D7882D"/>
<path fill-rule="evenodd" clip-rule="evenodd" d="M37.1797 16.388C36.3115 16.4374 35.9643 17.4059 35.8775 18.1219C35.4434 20.6764 35.9643 23.3891 37.4401 25.5575C37.6137 25.8807 37.8742 26.1698 38.2214 26.3824C40.0445 24.6051 41.8675 22.8194 43.6038 20.9571C41.9544 19.2393 40.2181 17.5777 38.0478 16.576C37.7873 16.4671 37.5269 16.3829 37.1797 16.388Z" fill="#FFF6D5"/>
<path d="M41.1489 49.513L40.4211 40.5389C40.312 39.1943 39.111 38.1908 37.7385 38.2976C36.3661 38.4044 35.3418 39.5811 35.4509 40.9257L36.1787 49.8998C36.2878 51.2444 37.4888 52.2479 38.8613 52.1411C40.2338 52.0343 41.258 50.8576 41.1489 49.513Z" fill="#F28C1A"/>
<path fill-rule="evenodd" clip-rule="evenodd" d="M38.0473 52.038C37.3528 51.885 36.7451 51.3747 36.3978 50.737C36.2242 50.4053 36.2242 50.2012 36.0506 48.509L35.877 46.6297L36.8319 46.6127C38.1341 46.5702 39.089 46.3576 40.6516 45.7878C40.8253 45.7368 40.8253 45.8644 40.9121 47.7097C41.1725 49.9121 41.0857 50.2863 40.7385 50.8815C40.2176 51.7999 39.089 52.2846 38.0473 52.038Z" fill="#FFF6D5"/>
<path d="M38.6468 30.7874H19.7651C15.311 30.7874 11.7002 34.3243 11.7002 38.6873V39.6057C11.7002 43.9687 15.311 47.5056 19.7651 47.5056H38.6468C43.1009 47.5056 46.7117 43.9687 46.7117 39.6057V38.6873C46.7117 34.3243 43.1009 30.7874 38.6468 30.7874Z" fill="#D7882D"/>
<path fill-rule="evenodd" clip-rule="evenodd" d="M48.8115 20.1748C49.072 19.6816 54.1939 14.3906 56.1906 15.2274C58.7082 16.4332 57.4928 24.6222 54.7148 25.9233" fill="#D7882D"/>
<path fill-rule="evenodd" clip-rule="evenodd" d="M54.9759 16.5343C55.844 16.5734 56.1913 17.5377 56.2781 18.252C56.7121 20.804 56.2781 23.5167 54.8891 25.7106C54.6286 26.0338 54.3682 26.3229 54.021 26.544C52.1979 24.7837 50.3748 23.0235 48.5518 21.1867C50.2012 19.4434 51.9374 17.7622 54.1078 16.7333C54.3682 16.621 54.6286 16.5343 54.9759 16.5343Z" fill="#FFF6D5"/>
<path fill-rule="evenodd" clip-rule="evenodd" d="M55.1491 18.7121C54.3678 19.1118 53.7601 19.9197 53.2393 20.5829C53.4129 21.4333 53.6733 22.5048 54.3678 22.7769C54.6283 22.8364 54.9755 22.8109 54.9755 22.3432C55.1491 21.1697 55.3228 19.9282 55.2359 18.7461C55.1491 18.6866 55.1491 18.6526 55.1491 18.7121Z" fill="#F5B8B8"/>
<path fill-rule="evenodd" clip-rule="evenodd" d="M40.0435 21.4163C43.516 17.8677 50.8082 18.4085 52.8917 21.4163C55.3225 25.0984 55.3225 30.6343 51.85 33.3214C47.5093 37.4372 42.0402 38.4406 37.96 34.682C38.394 30.1496 36.9182 23.9674 40.0435 21.4163Z" fill="#D7882D"/>
<path fill-rule="evenodd" clip-rule="evenodd" d="M46.0344 42.5223C45.6872 36.6463 38.0476 34.3418 37.874 29.1375C37.874 29.1375 38.1345 25.0303 38.2213 25.0303C38.3081 25.3619 40.218 29.7753 43.8641 30.141C45.6872 30.2515 48.8124 30.4896 50.9827 29.8093C52.8058 29.0695 54.1948 26.0507 54.6289 25.481C54.4552 28.0746 54.7157 28.1426 54.108 30.1835C53.4135 32.5135 51.33 33.9591 49.4201 35.2517C48.8124 35.6514 47.4234 36.2891 46.9025 36.4762C46.4685 36.5953 46.4685 36.6208 46.4685 36.7823C46.9025 38.6191 46.7289 41.1192 46.208 42.4543L46.0344 42.7689V42.5223Z" fill="#FFF6D5"/>
<path d="M51.8505 32.8198C50.7219 34.6141 48.1175 33.7892 47.5967 33.8487C47.0758 33.9168 44.8187 34.6481 43.3429 32.8453C42.6484 31.9014 45.6 27.1904 47.5967 27.1223C49.6802 27.1138 52.4582 31.8249 51.8505 32.8198Z" fill="#FFF6D5"/>
<path fill-rule="evenodd" clip-rule="evenodd" d="M43.9504 25.8893C43.2559 25.8893 42.5614 26.6036 42.735 27.4029C42.9954 28.4489 44.2976 28.7295 44.9921 27.9982C45.4262 27.522 45.3394 26.5526 44.8185 26.1699C44.5581 25.9743 44.2108 25.8723 43.9504 25.8893Z" fill="black"/>
<path fill-rule="evenodd" clip-rule="evenodd" d="M50.8957 25.7191C50.2012 25.7191 49.5067 26.4334 49.6803 27.2328C49.9407 28.2787 51.2429 28.5593 51.9374 27.828C52.3715 27.3518 52.2847 26.3824 51.7638 25.9997C51.5034 25.8042 51.1561 25.7021 50.8957 25.7191Z" fill="black"/>
<path d="M45.1607 51.7344L44.4328 42.7604C44.3238 41.4157 43.1227 40.4123 41.7503 40.5191C40.3778 40.6259 39.3536 41.8025 39.4626 43.1472L40.1905 52.1212C40.2995 53.4659 41.5006 54.4693 42.873 54.3625C44.2455 54.2557 45.2697 53.0791 45.1607 51.7344Z" fill="#D7882D"/>
<path fill-rule="evenodd" clip-rule="evenodd" d="M42.0404 54.2659C41.3459 54.1129 40.7382 53.6026 40.391 52.9649C40.2174 52.6332 40.2174 52.4291 40.0437 50.7369L39.8701 48.8576L40.8251 48.8406C42.1272 48.7981 43.0822 48.5855 44.6448 48.0157C44.8184 47.9647 44.8184 48.0923 44.9052 49.9376C45.1657 52.14 45.0789 52.5142 44.7316 53.1094C44.2107 54.0278 43.0822 54.5125 42.0404 54.2659Z" fill="#FFF6D5"/>
<path d="M16.2465 49.9775L17.3585 41.0412C17.5251 39.7023 16.552 38.4845 15.1851 38.3213C13.8182 38.1581 12.575 39.1112 12.4084 40.4502L11.2964 49.3865C11.1298 50.7255 12.1028 51.9432 13.4697 52.1064C14.8367 52.2696 16.0799 51.3165 16.2465 49.9775Z" fill="#D7882D"/>
<path fill-rule="evenodd" clip-rule="evenodd" d="M12.7501 51.8594C12.0903 51.5618 11.552 50.9325 11.3784 50.2522C11.2482 49.8866 11.2742 49.6825 11.4826 47.9988L11.717 46.1365L12.6546 46.298C13.9394 46.5106 14.903 46.4851 16.5091 46.23C16.6914 46.213 16.674 46.3406 16.4483 48.1689C16.1705 50.3628 16.0403 50.72 15.6236 51.2557C14.9117 52.038 13.6616 52.2846 12.7501 51.8594Z" fill="#FFF6D5"/>
<path opacity="0.2" fill-rule="evenodd" clip-rule="evenodd" d="M15.0252 51.1877C14.7821 50.8731 14.704 50.669 13.3584 46.4426C12.6726 44.3167 12.1604 42.5905 12.1691 42.4374C12.1691 42.1823 12.1691 42.1823 12.3687 42.633C13.0893 44.2572 14.5998 45.8049 16.1624 46.5192C16.6573 46.7403 16.6399 46.6127 16.3968 48.5005C16.2145 49.9121 16.1277 50.3288 15.9454 50.669C15.8239 50.8986 15.3551 51.4258 15.2683 51.4258C15.2335 51.4258 15.1294 51.3152 15.0252 51.1877Z" fill="black"/>
<path d="M22.1667 51.2162L19.9638 42.4762C19.6338 41.1666 18.2824 40.3671 16.9455 40.6904C15.6086 41.0137 14.7924 42.3374 15.1224 43.647L17.3253 52.387C17.6553 53.6966 19.0067 54.4961 20.3436 54.1728C21.6805 53.8495 22.4967 52.5258 22.1667 51.2162Z" fill="#D7882D"/>
<path d="M15.7804 34.614C14.2959 34.614 12.9503 35.3453 12.004 36.5273C11.8044 37.2161 11.7002 37.9389 11.7002 38.6873V39.6057C11.7002 42.5139 13.2975 45.048 15.6762 46.4171C15.8412 46.5532 15.8932 46.6382 15.928 46.7658C15.9714 46.9103 16.3099 48.2709 16.6919 49.7846C17.508 53.033 17.5948 53.2456 18.2719 53.7218C18.6539 54.0024 18.7147 53.9854 18.515 53.6707C18.4195 53.5177 18.3066 53.2966 18.2632 53.186C18.2111 53.0415 17.317 49.538 16.6398 46.8508C19.114 46.3746 21.0065 43.832 21.0065 40.7792C21.0065 37.3692 18.6712 34.614 15.7804 34.614Z" fill="#FFF6D5"/>
<path opacity="0.2" fill-rule="evenodd" clip-rule="evenodd" d="M14.1911 41.3829C13.7657 41.3489 13.132 41.1533 12.8281 40.9322C12.3854 40.6346 12.0034 40.0734 11.8124 39.4696L11.7256 39.172L12.151 39.5036C13.8872 40.8812 16.8128 39.7757 17.733 37.4032C17.8719 37.0545 17.9935 36.7739 18.0108 36.7739C18.0282 36.7739 18.0629 37.0801 18.0803 37.4542C18.1063 38.041 18.0803 38.2281 17.8806 38.7553C17.299 40.3625 15.745 41.4765 14.1911 41.3829Z" fill="black"/>
<path fill-rule="evenodd" clip-rule="evenodd" d="M19.6077 54.198C18.8784 54.1555 18.1579 53.7473 17.7412 53.1775C17.4894 52.8799 17.4374 52.6758 17.0207 51.0261L16.5605 49.2063L17.4981 49.0277C18.7829 48.7811 19.6771 48.424 21.0835 47.6161C21.2397 47.5481 21.2745 47.6672 21.7259 49.4614C22.2468 51.6044 22.2468 51.987 22.0731 52.6248C21.6999 53.6112 20.6147 54.2745 19.6077 54.198Z" fill="#FFF6D5"/>
<path opacity="0.2" fill-rule="evenodd" clip-rule="evenodd" d="M27.6301 35.4474C28.7586 42.2503 25.6334 46.8848 21.2754 47.5141C24.7653 45.8644 28.0641 40.8047 27.6301 35.4474Z" fill="black"/>
<path opacity="0.2" fill-rule="evenodd" clip-rule="evenodd" d="M22.0738 47.3524C23.2024 47.0633 24.1573 46.4851 25.1122 45.5752C25.7199 45.0054 25.7199 44.9884 26.0672 44.9884C26.6749 44.9884 29.0188 44.7758 30.1474 44.6313C32.2309 44.3591 34.2276 43.934 36.0506 43.3812C37.1792 43.0411 38.9154 42.4203 39.4363 42.1482C39.6099 42.0632 39.7836 42.0121 39.7836 42.0291C39.7836 42.0461 39.6968 42.1992 39.6099 42.3693C39.4363 42.82 39.4363 43.4748 39.6099 45.5497C39.6968 46.9783 39.6968 47.3609 39.6099 47.4035C39.6099 47.4375 35.5298 47.463 30.5814 47.463C22.6815 47.4545 21.7179 47.446 22.0738 47.3524Z" fill="black"/>
<path opacity="0.2" fill-rule="evenodd" clip-rule="evenodd" d="M38.1338 52.038C37.9602 51.9529 37.6997 51.5363 37.5261 51.1111C37.4393 50.839 37.092 47.5906 37.1789 47.5225C37.1789 47.514 37.7865 47.497 38.481 47.4885L39.7832 47.463L39.87 47.9222V49.1978C39.9569 49.6485 39.9569 50.3713 40.0437 50.8135L40.1305 51.6128L39.6964 51.8254C39.2624 52.055 38.481 52.157 38.1338 52.038Z" fill="black"/>
<path opacity="0.2" fill-rule="evenodd" clip-rule="evenodd" d="M45.339 34.0613C44.9049 33.9337 44.3841 33.5936 44.1236 33.2449C43.95 33.0579 43.8632 32.9048 43.7764 32.6837V32.3776L44.0368 32.6837C44.2972 33.0834 44.8181 33.4235 45.339 33.5766C45.7731 33.7296 46.5544 33.7382 47.2489 33.6106C47.5961 33.5341 47.7697 33.5341 48.3774 33.6021C49.7664 33.7467 50.5478 33.5086 51.1554 32.8453L51.4159 32.5221V32.7602C51.4159 32.9558 51.3291 33.0664 51.0686 33.4065C50.7214 33.7382 50.5478 33.8402 50.2873 33.9592C49.8532 34.0953 49.6796 34.1123 48.5511 34.0953C47.8566 34.0868 46.9884 34.1038 46.4676 34.1293C45.8599 34.1633 45.5994 34.1463 45.339 34.0613Z" fill="black"/>
<path opacity="0.4" fill-rule="evenodd" clip-rule="evenodd" d="M40.2178 32.7346C41.4331 35.1071 45.1661 36.2807 46.2947 36.4167C46.4683 36.4677 46.7287 37.4627 46.4683 37.4627C44.298 37.0035 40.2178 34.4013 40.2178 32.7346Z" fill="black" fill-opacity="0.4201"/>
<path fill-rule="evenodd" clip-rule="evenodd" d="M50.2874 26.595C50.1138 26.595 49.9402 26.765 50.027 26.9521C50.1138 27.1987 50.3742 27.2668 50.5479 27.0882C50.6347 26.9861 50.6347 26.748 50.4611 26.663C50.3742 26.612 50.3742 26.595 50.2874 26.595Z" fill="white"/>
<path fill-rule="evenodd" clip-rule="evenodd" d="M43.6032 26.5865C43.3428 26.5865 43.1692 26.7566 43.256 26.9522C43.3428 27.1988 43.69 27.2583 43.7769 27.0798C43.8637 26.9777 43.8637 26.7396 43.69 26.6631C43.69 26.6121 43.69 26.5865 43.6032 26.5865Z" fill="white"/>
<path fill-rule="evenodd" clip-rule="evenodd" d="M47.597 29.7244C46.9893 29.7584 46.3816 29.954 45.7739 30.2856C45.6871 31.3146 46.3816 32.4455 47.5101 32.5476C48.8123 32.7602 49.9409 31.3486 49.6805 30.1836C49.0728 29.8434 48.3783 29.6904 47.597 29.7244Z" fill="black"/>
<path fill-rule="evenodd" clip-rule="evenodd" d="M47.6826 32.6411V33.3469Z" fill="black"/>
<path d="M47.6826 32.6411V33.3469" stroke="black" stroke-width="4" stroke-linecap="round" stroke-linejoin="round"/>
<path fill-rule="evenodd" clip-rule="evenodd" d="M48.7251 33.6616L47.5098 33.381Z" fill="black"/>
<path d="M48.7251 33.6616L47.5098 33.381" stroke="black" stroke-width="4" stroke-linecap="round" stroke-linejoin="round"/>
<path fill-rule="evenodd" clip-rule="evenodd" d="M46.6416 33.6616L47.857 33.381Z" fill="black"/>
<path d="M46.6416 33.6616L47.857 33.381" stroke="black" stroke-width="4" stroke-linecap="round" stroke-linejoin="round"/>
<path fill-rule="evenodd" clip-rule="evenodd" d="M12.8964 39.8222C11.2965 39.257 10.7017 37.4262 11.5696 35.7284C12.4374 34.0306 14.4356 33.116 16.0354 33.6812C17.6335 34.2458 18.2319 36.0778 17.3641 37.7756C16.4962 39.4734 14.4944 40.3868 12.8964 39.8222Z" fill="#FFF6D5"/>
<path fill-rule="evenodd" clip-rule="evenodd" d="M12.9087 39.2822C11.4219 38.7444 10.9085 36.9335 11.7637 35.2327C12.6189 33.5319 14.5152 32.5926 16.002 33.1304C17.4871 33.6676 18.0039 35.4797 17.1487 37.1805C16.2935 38.8813 14.3938 39.8194 12.9087 39.2822Z" fill="#D7882D"/>
<path d="M12.822 42.3236C12.8432 42.1487 12.7157 41.9901 12.5371 41.9693C12.3586 41.9485 12.1967 42.0734 12.1754 42.2483L11.5518 47.3849C11.5305 47.5598 11.658 47.7184 11.8366 47.7392C12.0151 47.76 12.1771 47.6351 12.1983 47.4602L12.822 42.3236Z" fill="#FFF6D5"/>
<path fill-rule="evenodd" clip-rule="evenodd" d="M47.5962 20.1918C46.8149 20.1748 46.1204 20.8551 46.0335 21.5864C46.0335 23.0235 45.5127 25.5576 46.5544 26.595C46.9885 26.8757 46.6412 28.8315 47.5094 28.8315C48.4643 28.891 48.0302 26.9692 48.5511 26.612C49.506 25.7277 49.1588 23.0235 49.1588 21.5353C49.1588 20.736 48.3775 20.1407 47.5962 20.1918Z" fill="#FFF6D5"/>
<path fill-rule="evenodd" clip-rule="evenodd" d="M38.2215 18.2954C37.6138 18.4315 37.6138 19.0692 37.527 19.4944C37.3534 20.2257 37.4402 21.4758 37.527 22.1986C38.2215 22.4792 38.916 22.4197 39.4369 21.969C40.2182 21.4078 40.4786 20.8975 40.8259 20.1747C40.0446 19.5965 39.1764 18.474 38.2215 18.2954Z" fill="#F5B8B8"/>
</svg>
