<svg width="64" height="64" viewBox="0 0 64 64" fill="none" xmlns="http://www.w3.org/2000/svg">
<g clip-path="url(#clip0_504_148)">
<path d="M56.7268 26.8184C56.8176 26.8115 56.9085 26.8046 56.9993 26.7977V27.0171L56.7256 27.0084C56.726 26.9451 56.7264 26.8817 56.7268 26.8184Z" fill="#FFFAEA"/>
<path d="M56.7858 31.6467C56.8252 30.1 56.8457 28.5535 56.7256 27.0089C56.7263 26.9457 56.7266 26.8825 56.7272 26.819C56.6897 26.5171 56.6523 26.2154 56.6149 25.9137C56.3864 23.8073 55.737 21.8118 54.9379 19.8687C53.5514 16.4982 51.5661 13.5113 48.915 11.0017C44.7894 7.09687 39.9161 4.77599 34.2386 4.15432C29.4028 3.62469 24.8161 4.47135 20.4318 6.51084C17.1794 8.0238 14.4275 10.226 12.1334 12.9463C6.75674 19.3211 4.92898 26.664 6.593 34.8099C7.80676 40.7523 10.9708 45.5903 15.543 49.5196C16.2416 50.1199 17.1754 51.8147 17.2495 51.9409C19.846 56.3645 23.8594 58.725 28.7783 59.5711C34.4938 60.5538 40.0423 59.8745 45.2877 57.3035C47.9317 56.0078 50.1598 54.2088 51.625 51.5925C52.1134 50.7205 52.507 49.8062 52.6484 48.8025C52.6536 48.7653 52.8192 45.6643 52.8127 44.906C52.8087 44.4579 52.5082 44.0262 52.7913 43.5595C55.0179 39.8896 56.3749 35.9262 56.7858 31.6467ZM12.6608 37.4394C12.6591 37.436 12.6571 37.4327 12.6549 37.4295C12.6581 37.4317 12.6608 37.4339 12.6639 37.436L12.6658 37.4398L12.6608 37.4394ZM13.1052 37.7611C13.1027 37.7593 13.1006 37.7574 13.0981 37.7552C13.1027 37.7552 13.1071 37.7556 13.1117 37.7556C13.1198 37.7711 13.1282 37.7866 13.1362 37.802C13.126 37.7884 13.1158 37.7748 13.1052 37.7611ZM15.9827 19.7324C16.0106 19.3989 15.8996 18.9164 16.4491 18.8138C16.7735 18.6198 17.1471 18.6396 17.4973 18.6155C18.8896 18.5197 20.2609 18.688 21.622 18.9877C21.8611 19.0403 22.0161 19.2492 22.2639 19.2467C23.2063 19.2492 24.0002 19.7268 24.8384 20.0593C25.0505 20.1433 25.0279 20.3116 24.8688 20.4424C24.7081 20.575 24.5844 20.7408 24.5394 20.9298C24.4892 21.1403 24.6349 21.1127 24.7664 21.0439C26.1349 19.9437 27.6306 19.0943 29.3495 18.6595C29.9133 18.5166 30.4904 18.4971 31.056 18.3852C31.2049 18.3558 31.3906 18.3297 31.4945 18.5141C31.6353 18.5615 31.7153 18.45 31.8158 18.3914C32.5668 16.479 33.5471 14.7004 34.8905 13.1342C35.4127 12.4722 35.9966 11.875 36.6789 11.3733C37.0383 11.1095 37.3326 11.1033 37.7028 11.3931C40.1985 13.3461 41.7159 15.8963 42.3256 18.9812C42.4791 19.7581 42.4539 20.5716 42.489 21.3696C42.506 21.7542 42.5101 22.1921 41.8691 21.7058C41.9649 22.2293 42.3206 22.493 42.5095 22.85C42.9873 23.7528 43.504 24.6341 43.8522 25.6011C43.9688 25.9249 43.9279 26.0954 43.5995 26.2971C42.9532 26.6947 42.244 26.9993 41.6768 27.5215C41.5853 27.6058 41.429 27.6852 41.5118 27.8237C41.6052 27.9802 41.7398 27.8528 41.8433 27.7952C42.5039 27.4276 43.094 26.9479 43.797 26.6395C44.1558 26.4818 44.2154 26.6185 44.2439 26.8887C44.3546 27.93 44.5971 27.7642 43.5148 28.1454C42.8447 28.3812 42.1525 28.5672 41.5376 28.9418C41.4337 29.0051 41.2635 29.0478 41.3348 29.2118C41.4253 29.4213 41.5531 29.2301 41.6458 29.1966C42.4009 28.9248 43.147 28.6301 43.9245 28.4215C44.1825 28.3521 44.3226 28.2994 44.2944 28.6797C44.1645 30.4309 43.3979 31.8825 42.2496 33.1649C42.1975 33.23 42.1454 33.2951 42.0933 33.3602C42.0524 33.4094 42.0116 33.4587 41.9711 33.508C41.8995 33.5954 41.828 33.6827 41.7565 33.7699C41.7618 33.8114 41.7438 33.8325 41.7019 33.8328C41.1183 34.5843 40.397 35.1976 39.6906 35.8431C39.8956 36.0365 40.0829 35.8013 40.2773 35.8137C41.2563 35.0045 42.2511 34.2124 42.9911 33.1581C43.2627 32.7713 43.5564 32.4004 43.8398 32.0223C44.3323 31.1211 44.9838 30.3646 45.8843 29.853C47.3927 28.9961 48.6092 29.5629 48.9485 31.2677C49.0812 31.9262 48.7522 32.437 48.3829 32.9139C47.5809 33.9499 46.6733 34.9004 45.9079 35.9668C45.3688 36.7253 44.8717 37.5127 44.4188 38.3255C44.1983 38.7169 44.3028 39.0544 44.4678 39.4133C45.0691 40.7195 45.6021 42.0537 46.0775 43.411C46.5601 44.7731 46.8059 46.2075 46.8044 47.6524C46.7982 50.5872 45.3506 52.645 42.8099 53.9469C39.4847 55.6505 36.0413 55.4537 32.5824 54.3907C32.0276 54.2202 31.4477 54.0932 30.9527 53.7625C30.7586 53.633 30.527 53.5425 30.4259 53.3045C29.743 52.4023 30.1046 51.2569 31.1863 50.9765C31.9007 50.7911 32.5721 51.0211 33.2699 51.2104C34.4185 51.5222 35.043 52.4656 35.8918 53.139C35.9594 53.1926 36.0431 53.2261 36.1191 53.2691C36.3985 53.2834 36.6503 53.4895 37.0488 53.382C35.9405 52.667 34.9255 51.9455 34.6052 50.635C34.0839 49.0588 34.2535 47.5396 35.1389 46.1562C35.6186 45.4065 36.3647 44.8884 37.2036 44.5422C38.2412 44.0916 39.3045 43.8743 40.4411 44.1012C40.8023 44.1734 41.1934 44.0367 41.5453 44.1855C41.4675 43.9317 41.0513 44.0398 41.0151 43.7179C40.9837 43.716 40.9524 43.7141 40.9208 43.7123C40.7527 43.9032 40.6485 43.8201 40.5697 43.6302C40.277 43.7334 39.9979 43.6137 39.7139 43.5781C39.6416 43.5775 39.5695 43.5769 39.4974 43.5762C37.4485 43.5933 35.7309 44.3113 34.586 46.062C33.8312 47.2155 33.6113 48.526 33.8169 49.8971C33.8377 49.9668 33.8693 50.0356 33.8777 50.1069C33.9093 50.3718 34.1589 50.7806 33.9955 50.8565C33.727 50.9814 33.3539 50.8287 33.0491 50.6818C32.0918 50.22 30.5034 50.2603 29.7923 51.4643C29.5498 51.8749 29.3008 51.8216 28.9544 51.6453C27.91 51.1135 27.3924 50.1772 27.0783 49.1282C26.4237 46.9427 27.2951 44.8137 29.3306 43.8285C29.7343 43.6333 29.9638 43.0125 30.567 43.2254C30.6377 43.2502 30.7037 43.1594 30.6991 43.0863C30.6907 42.9505 30.5698 42.9242 30.464 42.8985C29.7195 42.719 28.9808 42.5046 28.2282 42.3716C26.4342 42.0543 24.6303 41.7915 22.837 41.4713C22.3622 41.3864 21.871 41.2556 21.5243 40.858C20.937 40.4893 20.7193 39.928 20.8039 39.2769C20.8873 38.6323 21.1702 38.085 21.8586 37.8681C22.1157 37.4841 22.3941 37.3682 22.7632 37.7522C22.9449 37.9409 23.2615 37.971 23.3865 38.2415C23.6702 38.3751 23.9541 38.5087 24.238 38.6425C25.7777 39.2918 27.3741 39.6987 29.0534 39.593C29.7306 39.5502 30.4246 39.4368 31.0176 39.0349L30.9819 39.0383L30.9509 39.0209C30.8938 39.0637 30.8532 39.0538 30.8309 38.9847C30.8308 38.9968 30.8263 39.0085 30.8183 39.0176C30.8103 39.0267 30.7992 39.0326 30.7872 39.0342C28.1041 39.3311 25.602 38.791 23.2807 37.4137C23.1579 37.3412 23.0323 37.2576 22.9415 37.1506C22.8013 36.9855 22.7284 36.8181 23.0159 36.692C23.3824 36.5311 23.736 36.3415 24.0938 36.1614C24.2101 36.1029 24.3475 36.0254 24.2762 35.8766C24.2163 35.7508 24.0802 35.8252 23.9834 35.8621C23.6085 36.0049 23.2159 36.118 22.8692 36.3123C22.4977 36.5206 22.2574 36.4199 22.0391 36.1149C21.9436 35.9817 21.867 35.8339 21.7618 35.7093C21.4493 35.3386 21.6635 35.2252 22.0133 35.1583C22.4258 35.0795 22.8367 34.9921 23.2479 34.9066C23.388 34.8772 23.5837 34.8657 23.549 34.6698C23.5124 34.4634 23.317 34.5493 23.1821 34.5598C22.7812 34.5908 22.3709 34.6206 22.0028 34.7814C21.4406 35.0269 21.2499 34.7758 21.0849 34.2701C20.709 33.1172 20.496 31.9365 20.3648 30.7381C20.3369 30.4805 20.3251 30.3231 19.9884 30.2875C19.6789 30.2549 19.4801 29.9463 19.2795 29.7148C16.7924 26.8466 15.6655 23.5222 15.9827 19.7324ZM29.8302 53.3726C28.618 52.9633 27.6368 52.4454 26.7204 51.79C27.6234 51.6229 28.4753 51.7723 29.2738 52.125C29.7325 52.3273 29.5932 52.8759 29.8302 53.3726ZM52.0961 48.4324C51.5351 51.2482 49.9731 53.4473 47.6876 55.1227C45.2849 56.8836 42.5693 57.941 39.6729 58.6286C37.3627 59.1753 34.9903 59.4141 32.6174 59.339C29.0226 59.233 25.5882 58.4886 22.5002 56.5334C20.7645 55.4345 19.2847 54.0687 18.1804 52.3218C18.1147 52.2176 18.0114 52.1228 18.0347 51.9784C16.9043 50.0424 15.8599 48.0636 15.716 45.7713C15.6099 44.0854 16.0342 43.6379 17.7612 44.0197C19.1914 44.3361 20.2603 45.2562 21.1971 46.3223C22.0034 47.2399 22.5997 48.3072 23.2109 49.3594C23.5874 49.5153 23.7403 49.8943 24.0039 50.162C25.3631 51.5426 26.8237 52.8061 28.6018 53.5989C30.7022 54.5351 32.8354 55.4279 35.1457 55.7149C38.6142 56.1457 41.8861 55.6762 44.7307 53.4483C45.3823 52.9378 45.9662 52.3524 46.356 51.6164C46.7123 50.943 47.215 50.3737 47.585 49.7052C49.0679 47.0255 48.9879 44.4601 47.2051 41.9467C46.632 41.1388 45.983 40.4009 45.3075 39.6847C44.8898 39.2416 44.7732 38.8204 45.1475 38.2874C45.4511 37.8553 45.6961 37.3824 45.9718 36.9306C46.4208 36.1958 46.4391 36.1946 47.1303 36.7735C48.0331 37.3006 48.7662 38.0202 49.4285 38.8161C49.5637 38.9788 49.7461 39.1291 49.7383 39.3767C50.5055 39.9791 50.8166 40.8757 51.2163 41.7075C52.2462 43.8489 52.5603 46.1022 52.0961 48.4324Z" fill="#440D08"/>
<path d="M30.9509 39.0193C30.8942 39.0611 30.8535 39.0512 30.8312 38.9819C30.8033 38.9695 30.7754 38.9573 30.7477 38.9452C30.7609 38.9741 30.7741 39.0029 30.7873 39.0318C28.1042 39.3288 25.6022 38.7886 23.2812 37.4113C23.1584 37.3387 23.0327 37.255 22.9418 37.1481C22.8015 36.983 22.7287 36.8156 23.0163 36.6894C23.3826 36.5287 23.7363 36.339 24.0941 36.159C24.2104 36.1005 24.3479 36.0229 24.2766 35.874C24.2165 35.7484 24.0806 35.8227 23.9837 35.8596C23.6089 36.0024 23.2162 36.1154 22.8695 36.3098C22.498 36.5181 22.2576 36.4173 22.0393 36.1123C21.9439 35.9792 21.8672 35.8313 21.7622 35.7068C21.4495 35.3362 21.6638 35.2225 22.0138 35.1557C22.4263 35.0769 22.8371 34.9897 23.2482 34.904C23.3885 34.8747 23.5842 34.863 23.5493 34.6673C23.5127 34.461 23.3174 34.5467 23.1825 34.5572C22.7814 34.5884 22.3713 34.6181 22.0031 34.7788C21.441 35.0244 21.2501 34.7733 21.0853 34.2675C20.7095 33.1147 20.4963 31.934 20.3653 30.7355C20.3372 30.4781 20.3255 30.3205 19.9886 30.285C19.6794 30.2524 19.4805 29.9436 19.2798 29.7122C16.7926 26.844 15.6658 23.5196 15.983 19.7298C16.011 19.3964 15.8999 18.9138 16.449 18.8114C16.5153 18.9349 16.6356 18.9064 16.7369 18.9002C18.0467 18.8208 19.3274 19.0653 20.6179 19.2211C21.159 19.2865 21.712 19.6435 22.2641 19.2441C23.2067 19.2465 24.0006 19.7244 24.8387 20.0567C25.0507 20.1408 25.0281 20.309 24.8691 20.4399C24.7083 20.5724 24.5848 20.7382 24.5398 20.9273C24.4897 21.1378 24.6352 21.11 24.7666 21.0423C24.8207 21.4442 25.0977 21.1855 25.2151 21.1506C25.8431 20.964 26.4327 20.6499 26.9964 20.3415C28.0282 19.777 29.1308 19.4514 30.2221 19.0617C30.6483 18.9096 31.263 19.1212 31.4949 18.5116C31.6358 18.559 31.7158 18.4474 31.8156 18.3895C32.0762 18.4458 32.1743 18.216 32.2665 18.0733C32.5532 17.6362 32.8112 17.181 33.0388 16.7106C33.4111 15.927 33.9452 15.2458 34.391 14.5095C34.655 14.0735 34.9044 13.657 34.8908 13.1315C35.4132 12.4698 35.997 11.8725 36.6794 11.3709C37.0386 11.1068 37.3329 11.1007 37.7033 11.3906C40.199 13.3436 41.7164 15.8939 42.3258 18.9787C42.4793 19.7555 42.4541 20.5692 42.4892 21.367C42.5062 21.7516 42.5103 22.1894 41.8693 21.7034C41.9652 22.2267 42.3208 22.4904 42.5098 22.8474C42.9877 23.7503 43.5041 24.6317 43.8525 25.5986C43.9691 25.9223 43.928 26.0929 43.5998 26.2948C42.9536 26.6921 42.2444 26.9969 41.6772 27.519C41.5855 27.6033 41.4293 27.6826 41.5121 27.8213C41.6055 27.9779 41.7399 27.8505 41.8435 27.7928C42.5043 27.4252 43.0943 26.9456 43.7973 26.6369C44.1561 26.4794 44.2156 26.6161 44.2443 26.8861C44.355 27.9276 44.5975 27.7618 43.5151 28.1429C42.8448 28.3789 42.1528 28.5647 41.5379 28.9393C41.434 29.0026 41.2638 29.0452 41.3349 29.2095C41.4255 29.4187 41.5534 29.2276 41.646 29.1942C42.4011 28.9224 43.1474 28.6277 43.9246 28.4189C44.1828 28.3496 44.3228 28.2968 44.2946 28.6773C44.1647 30.4285 43.3982 31.8802 42.2499 33.1625C42.1252 33.1696 42.0781 33.2386 42.0934 33.3578C42.0527 33.4071 42.0121 33.4563 41.9716 33.5054C41.7657 33.4825 41.736 33.6042 41.7568 33.7674C41.7622 33.8089 41.744 33.83 41.7022 33.8303C41.3269 33.6147 41.3417 33.3762 41.7204 32.998C41.8997 32.8188 42.2665 32.3168 42.1827 32.281C42.4351 31.8067 42.6815 31.3292 42.9427 30.8599C43.0573 30.6539 43.087 30.3989 43.0424 30.2214C42.9979 30.0447 42.7025 30.0571 42.5 30.0834C41.9937 30.1491 41.4898 30.2378 40.9754 30.198C39.6561 30.0959 38.4564 29.5728 38.9401 27.8304C38.9662 27.7362 38.8817 27.7174 38.7999 27.7418C38.8611 26.6075 38.6731 25.5717 37.7172 24.8044C36.9102 24.1565 36.0131 24.0549 35.0946 24.4291C34.1786 24.8023 33.6555 25.5273 33.6091 26.541C33.5908 26.9407 33.6135 27.3422 33.6176 27.743C33.312 27.6277 33.1315 27.3656 32.9344 27.1338C32.5932 26.7327 32.2364 26.3457 31.7572 26.12C30.5701 25.5607 29.7631 25.6838 29.1353 26.7282C28.7766 27.325 28.9559 27.9662 28.8946 28.5878C28.871 28.8266 28.9993 29.1087 28.709 29.2765C28.5795 29.1027 28.4525 28.927 28.3202 28.7554C27.6754 27.9191 26.6518 27.5944 25.6994 27.8772C24.6514 28.1883 24.0942 29.1688 24.0755 30.14C24.0522 31.3488 24.5482 32.2785 25.5421 32.9532C25.5214 32.9753 25.5006 32.9975 25.4799 33.0196C25.5285 33.0263 25.5772 33.0329 25.6258 33.0396L25.6432 33.0099C25.5856 33.1799 25.6865 33.2932 25.7953 33.3911C26.1433 33.7041 26.2078 34.1063 26.1727 34.5417C26.1122 35.2931 25.7249 35.8755 25.2111 36.3923C24.9247 36.6803 24.6405 36.9704 24.3865 37.2279C24.9877 37.7196 25.7155 37.7805 26.4184 37.908C27.6584 38.1328 28.889 38.4548 30.1728 38.2257C30.5095 38.1657 30.8658 38.2152 31.2131 38.2154C31.3696 38.2155 31.5083 38.2408 31.5232 38.4397C31.5358 38.6068 31.4927 38.7357 31.2984 38.7402C31.1061 38.7446 30.99 38.8309 30.951 39.0194L30.9509 39.0193ZM36.5874 12.8679C36.7761 12.7698 36.9648 12.6717 37.1535 12.5735C36.8869 12.5526 36.649 12.5788 36.5793 12.8587C36.452 12.8778 36.3723 12.9441 36.3609 13.0783C35.3374 13.755 34.348 16.3738 34.6755 17.5499C34.7053 17.6568 34.7945 17.6699 34.8917 17.623C34.7693 17.3284 34.8093 17.0299 34.853 16.7288C35.0481 15.385 35.5881 14.1855 36.3697 13.0862C36.488 13.0589 36.5532 12.9789 36.5874 12.8679ZM16.6557 22.5544C16.7327 21.6346 16.5568 20.6606 17.1856 19.8421C16.2967 20.602 16.7645 21.6334 16.6557 22.5544Z" fill="#F5A659"/>
<path d="M38.8001 27.7419C38.8819 27.7175 38.9665 27.7363 38.9403 27.8304C38.4566 29.5729 39.6564 30.096 40.9756 30.1981C41.4901 30.2379 41.9939 30.1491 42.5003 30.0834C42.7028 30.0571 42.9982 30.0448 43.0426 30.2215C43.0873 30.3989 43.0576 30.6539 42.9429 30.8599C42.6817 31.3293 42.4354 31.8068 42.183 32.281L42.1874 32.2764C42.174 32.2883 42.1474 32.3037 42.1495 32.3115C42.1585 32.3383 42.1697 32.3643 42.1832 32.3891C42.2264 32.7401 41.9 32.8189 41.7206 32.998C41.3419 33.3763 41.3271 33.6148 41.7024 33.8304C41.1188 34.582 40.3975 35.1952 39.6912 35.8407C39.8962 36.0341 40.0833 35.799 40.2779 35.8113C40.3831 36.0011 40.5119 36.1816 40.5894 36.3819C41.4129 38.5097 42.1029 40.6571 41.7552 42.9987C41.6823 43.4894 41.606 43.8273 41.0157 43.7154C40.9842 43.7136 40.9528 43.7118 40.9211 43.71C40.825 43.5934 40.7073 43.5696 40.5702 43.6276C40.2775 43.7309 39.9984 43.6112 39.7141 43.5756C39.6426 43.4976 39.5705 43.5011 39.4978 43.5737C37.4491 43.5909 35.7313 44.3089 34.5864 46.0595C33.8318 47.2132 33.6117 48.5235 33.8174 49.8949C32.9646 50.0159 32.16 49.929 31.3115 49.6753C30.1888 49.3395 29.4764 48.684 29.4531 47.5293C29.4402 46.8904 29.4367 46.2494 29.4743 45.612C29.5053 45.0867 29.6408 44.6473 30.2968 44.5063C30.9182 44.3726 31.2377 43.839 31.4099 43.2557C31.7323 42.1641 31.338 41.2065 30.7884 40.2955C30.6023 39.987 30.6113 39.8549 30.9835 39.6947C31.4545 39.492 32.0582 39.4609 32.3493 38.8271C31.8718 38.9007 31.4449 38.9665 31.018 39.0323L30.9826 39.0359C30.9826 39.0359 30.9515 39.0185 30.9514 39.019C30.9903 38.8309 31.1063 38.7446 31.2986 38.7401C31.4929 38.7356 31.536 38.6068 31.5235 38.4396C31.5086 38.2408 31.3699 38.2154 31.2133 38.2153C30.866 38.2152 30.5098 38.1656 30.1731 38.2257C28.8892 38.4547 27.6586 38.1328 26.4187 37.9079C25.7157 37.7804 24.9879 37.7195 24.3867 37.2279C24.6407 36.9703 24.925 36.6803 25.2113 36.3923C25.7251 35.8754 26.1125 35.2931 26.173 34.5417C26.208 34.1063 26.1435 33.7041 25.7956 33.391C25.6868 33.2931 25.5859 33.1798 25.6432 33.01C27.6879 33.7259 29.3474 32.4079 29.0079 30.326C28.9497 29.9694 28.8108 29.6259 28.7092 29.2764C28.9995 29.1086 28.8712 28.8265 28.8948 28.5877C28.9561 27.9661 28.7768 27.3249 29.1355 26.7281C29.7633 25.6837 30.5702 25.5607 31.7574 26.1199C32.2366 26.3457 32.5934 26.7326 32.9346 27.1338C33.1317 27.3655 33.3123 27.6277 33.6177 27.7422C33.756 28.0373 33.8699 28.3478 34.0373 28.6262C34.7202 29.7617 35.799 30.184 36.9169 29.7594C37.8719 29.3967 38.5147 28.7334 38.8001 27.7418L38.8001 27.7419ZM33.31 30.4361C33.2924 30.5784 33.277 30.6997 33.2625 30.8212C33.2096 31.2637 32.9498 31.3747 32.5673 31.2246C32.2445 31.0978 31.9745 30.9104 32.1186 30.4883C32.1659 30.3497 32.1715 30.2089 31.9921 30.2073C31.8734 30.2073 31.756 30.2328 31.6481 30.2823C31.5402 30.3317 31.4442 30.4039 31.3668 30.4938C31.2718 30.5992 31.3252 30.7091 31.4355 30.7608C31.9356 30.9954 31.7958 31.3335 31.5606 31.6485C31.302 31.995 31.0364 31.8818 30.802 31.5926C30.743 31.5199 30.6617 31.4527 30.5735 31.5158C30.4885 31.5766 30.5156 31.6835 30.5544 31.7662C30.6529 31.9763 30.7294 32.2671 30.9941 32.2618C31.2863 32.2559 31.6617 32.2601 31.8105 31.9392C31.9909 31.5503 32.2157 31.4795 32.5971 31.6305C32.8233 31.7201 33.0678 31.6411 33.2745 31.5069C33.6749 31.2467 33.7052 30.7525 33.31 30.4361Z" fill="#FFFAEA"/>
<path d="M52.0976 48.4312C51.5367 51.247 49.9747 53.4461 47.6892 55.1214C45.2865 56.8823 42.5709 57.9397 39.6745 58.6274C37.3643 59.174 34.9919 59.4128 32.619 59.3377C29.0242 59.2317 25.5898 58.4873 22.5018 56.5321C20.7661 55.4332 19.2863 54.0674 18.182 52.3205C18.1162 52.2164 18.013 52.1215 18.0362 51.9771C18.0657 51.7103 17.9866 51.4778 17.8322 51.2597C17.7754 51.18 17.679 51.0592 17.7978 50.9705C17.9289 50.8726 18.0365 50.9693 18.1156 51.0787C18.2645 51.2854 18.3873 51.5163 18.5616 51.6985C18.7414 51.8866 18.8927 52.2582 19.1697 52.1646C19.4602 52.0664 19.3315 51.6886 19.3557 51.4252C19.3712 51.2563 19.2596 51.0272 19.4937 50.9473C19.6903 50.8803 19.8246 51.0514 19.967 51.1655C20.3493 51.4716 20.7311 51.78 21.1246 52.0719C21.2508 52.1652 21.4235 52.3019 21.5724 52.1978C21.7547 52.0698 21.5829 51.9021 21.5311 51.758C21.3838 51.3471 21.1807 50.9492 21.2359 50.4923C21.2548 50.3368 21.1478 50.1177 21.3162 50.0393C21.5035 49.9522 21.6511 50.1341 21.7721 50.2649C22.1833 50.7096 22.6878 51.0028 23.2829 51.2668C23.2755 50.5869 22.8388 49.9813 23.2125 49.3581C23.589 49.514 23.7419 49.893 24.0055 50.1608C25.3647 51.5414 26.8253 52.8049 28.6034 53.5976C30.7037 54.5338 32.837 55.4267 35.1473 55.7136C38.6158 56.1444 41.8877 55.6749 44.7323 53.447C45.3838 52.9366 45.9678 52.3512 46.3576 51.6151C46.7139 50.9417 47.2166 50.3724 47.5865 49.704C49.0694 47.0242 48.9894 44.4588 47.2066 41.9455C46.6336 41.1375 45.9845 40.3996 45.3091 39.6834C44.8914 39.2403 44.7748 38.8191 45.1491 38.2861C45.4527 37.8541 45.6977 37.3812 45.9734 36.9293C46.4224 36.1945 46.4407 36.1933 47.1316 36.7722C48.0346 37.2993 48.7677 38.0189 49.4301 38.8148C49.5653 38.9775 49.7477 39.1278 49.7399 39.3754C50.5071 39.9779 50.8181 40.8744 51.2179 41.7062C52.2477 43.8476 52.5619 46.101 52.0976 48.4312Z" fill="#F5A659"/>
<path d="M41.0138 43.7175C41.6041 43.8294 41.6804 43.4916 41.7533 43.0009C42.101 40.659 41.411 38.5119 40.5875 36.3841C40.51 36.1837 40.3812 36.0032 40.276 35.8134C41.255 35.0044 42.2496 34.2123 42.9898 33.1578C43.2612 32.7712 43.5549 32.4001 43.8382 32.0224C44.6778 31.9288 45.2433 32.3489 45.6812 33.0062C45.8422 33.2478 46.0267 33.4786 46.152 33.7377C46.3291 34.1039 46.4924 34.0665 46.7571 33.8178C47.4462 33.1706 47.8884 32.3452 48.3981 31.5721C48.5533 31.3368 48.7032 31.2604 48.9471 31.2674C49.0798 31.926 48.7508 32.4366 48.3813 32.9139C47.5794 33.9496 46.6719 34.9001 45.9065 35.9665C45.3673 36.7249 44.8703 37.5123 44.4174 38.3252C44.1969 38.7167 44.3015 39.0543 44.4665 39.4129C45.0676 40.7195 45.6007 42.0534 46.076 43.4107C46.5585 44.7728 46.8045 46.2072 46.8032 47.6521C46.7967 50.587 45.3492 52.6447 42.8084 53.9466C39.4831 55.6503 36.0397 55.4534 32.5808 54.3904C32.0262 54.22 31.4462 54.093 30.9512 53.7624C30.7571 53.6328 30.5255 53.5422 30.4248 53.3046C30.5983 53.198 30.4793 53.0506 30.4881 52.9166C30.5166 52.4874 30.5228 52.0387 30.9876 51.8011L31.0049 51.8235C30.9616 52.1449 30.8693 52.4552 30.8727 52.7888C30.8771 53.2129 31.073 53.3349 31.4526 53.2687C31.5778 53.2469 31.7018 53.2191 31.8264 53.1943C31.8465 53.3662 31.8659 53.5377 31.8869 53.7091C31.9034 53.8437 31.9367 53.9576 32.1129 53.872C32.4597 53.8698 32.7916 53.9439 33.1309 54.0162C33.802 54.1591 34.4452 54.4343 35.1442 54.4497C35.263 54.4523 35.4206 54.5629 35.4727 54.3904C35.6017 53.9637 36.018 53.7077 36.1159 53.2682C36.397 53.2831 36.649 53.4892 37.0473 53.3818C35.939 52.6669 34.924 51.9454 34.6041 50.6355C34.7817 50.5529 34.6694 50.4216 34.656 50.3096C34.6065 49.8973 34.4682 49.4753 34.5159 49.0752C34.7204 47.3616 35.3998 45.9055 36.9298 44.9513C37.0594 44.8704 37.2867 44.7924 37.2023 44.5418C38.2398 44.0914 39.3031 43.874 40.4395 44.101C40.8008 44.1732 41.1917 44.0363 41.5439 44.1851C41.4658 43.9314 41.0498 44.0395 41.0136 43.7175L41.0138 43.7175Z" fill="#F5A659"/>
<path d="M31.0158 39.0348C31.4427 38.9691 31.8697 38.9033 32.3471 38.8297C32.0561 39.4635 31.4523 39.4945 30.9814 39.6973C30.6091 39.8575 30.6001 39.9896 30.7862 40.2981C31.3358 41.2091 31.7301 42.1667 31.4078 43.2582C31.2355 43.8416 30.9161 44.3752 30.2946 44.5088C29.6386 44.6499 29.5031 45.0892 29.4722 45.6146C29.4346 46.252 29.438 46.893 29.4509 47.5319C29.4742 48.6866 30.1866 49.3421 31.3094 49.6778C32.1579 49.9316 32.9624 50.0185 33.8152 49.8974C33.8361 49.967 33.8676 50.0356 33.8761 50.1069C33.9075 50.372 34.1573 50.7806 33.9939 50.8566C33.7254 50.9814 33.3524 50.8289 33.0475 50.6819C32.0901 50.2202 30.5017 50.2605 29.7908 51.4645C29.5484 51.8751 29.2992 51.8218 28.9528 51.6454C27.9085 51.1136 27.3908 50.1773 27.0767 49.1285C26.4222 46.9428 27.2934 44.814 29.3291 43.8288C29.7328 43.6334 29.9623 43.0128 30.5654 43.2254C30.6363 43.2504 30.7022 43.1595 30.6976 43.0866C30.6891 42.9508 30.5682 42.9243 30.4624 42.8988C29.7179 42.7193 28.9794 42.5049 28.2265 42.3717C26.4326 42.0545 24.629 41.7917 22.8356 41.4715C22.3607 41.3867 21.8695 41.2559 21.5232 40.8585C21.4936 40.7075 21.4637 40.5564 21.4336 40.4052L21.446 40.3928C21.6533 40.3727 21.8213 40.437 22.0032 40.5529C22.3535 40.7763 22.7435 40.9255 23.171 40.9389C23.3485 40.9445 23.5087 40.9191 23.5293 40.6996C23.5856 40.1 23.8722 39.5956 24.18 39.0986C24.2678 38.9569 24.3463 38.8104 24.2365 38.6426C25.7763 39.292 27.3726 39.6987 29.0521 39.5932C29.7292 39.5506 30.4234 39.437 31.0161 39.035L31.0158 39.0348Z" fill="#F5A659"/>
<path d="M23.2105 49.3578C22.8369 49.981 23.2735 50.5866 23.2808 51.2662C22.6857 51.0022 22.1814 50.7091 21.7701 50.2645C21.649 50.1335 21.5015 49.9517 21.3143 50.0389C21.1459 50.1173 21.2526 50.3362 21.2338 50.4919C21.1786 50.9487 21.3816 51.3466 21.529 51.7574C21.5808 51.9018 21.7526 52.0695 21.5703 52.1972C21.4214 52.3015 21.2488 52.1649 21.1226 52.0714C20.729 51.7795 20.3474 51.4714 19.9648 51.1649C19.8226 51.0511 19.6881 50.8798 19.4916 50.9469C19.2575 51.0268 19.3692 51.2557 19.3537 51.4247C19.3295 51.6883 19.4582 52.0661 19.1674 52.1643C18.8905 52.2579 18.7394 51.8863 18.5594 51.698C18.3853 51.5158 18.2625 51.2851 18.1135 51.0783C18.0345 50.9687 17.9268 50.8722 17.7957 50.97C17.6769 51.0586 17.7734 51.1795 17.83 51.2593C17.9846 51.4774 18.0636 51.7098 18.0343 51.9767C16.9037 50.0406 15.8595 48.062 15.7154 45.7696C15.6094 44.0837 16.0335 43.6363 17.7607 44.0182C19.191 44.3344 20.2596 45.2544 21.1963 46.3206C22.0027 47.2384 22.599 48.3054 23.2104 49.3578L23.2105 49.3578Z" fill="#FFFAEA"/>
<path d="M31.8291 53.1945C31.7045 53.2195 31.5805 53.2474 31.4553 53.2692C31.0757 53.3354 30.8798 53.2134 30.8754 52.7892C30.872 52.4557 30.9643 52.1454 31.0074 51.8237C31.0508 51.8068 31.0942 51.7901 31.1378 51.7735C31.1241 51.7546 31.1104 51.7358 31.0966 51.7169C31.0612 51.7451 31.0257 51.7733 30.9903 51.8016C30.5255 52.0392 30.5192 52.4879 30.4908 52.9171C30.482 53.0511 30.601 53.1985 30.4275 53.305C29.7442 52.4027 30.1059 51.2572 31.1875 50.9766C31.902 50.7913 32.5733 51.0215 33.271 51.2108C34.4199 51.5225 35.0444 52.4659 35.8929 53.1392C35.9605 53.1929 36.0442 53.2265 36.1195 53.269C36.0206 53.7082 35.6043 53.9642 35.4754 54.3909C35.4233 54.5634 35.2657 54.4528 35.1468 54.4502C34.4479 54.4348 33.8046 54.1596 33.1335 54.0167C32.7943 53.9444 32.4624 53.8703 32.1155 53.8726C32.0653 53.5632 32.163 53.2496 32.0625 52.9359C31.9944 52.7234 32.1142 52.5541 32.323 52.4639C32.3226 52.4643 32.3227 52.4489 32.3227 52.4489L32.3156 52.4707C31.9427 52.5705 31.8104 52.8319 31.8291 53.1945L31.8291 53.1945Z" fill="#FFFAEA"/>
<path d="M45.8857 29.8524C44.9851 30.364 44.3336 31.1205 43.8408 32.022C44.6806 31.9284 45.2462 32.3483 45.6841 33.0057C45.845 33.2474 46.0296 33.4783 46.1548 33.7373C46.3319 34.1033 46.495 34.0662 46.7599 33.8173C47.4489 33.1702 47.8911 32.3449 48.4009 31.5717C48.556 31.3362 48.7061 31.26 48.9498 31.2671C48.6106 29.5623 47.3943 28.9955 45.8857 29.8524ZM48.4025 30.6185C48.3188 30.8816 48.1349 31.0486 47.8933 31.1695C47.8672 31.1205 47.8489 31.101 47.8533 31.092C47.9569 30.8688 48.0207 30.6107 48.3005 30.5326C48.3259 30.5255 48.4081 30.6008 48.4025 30.6185Z" fill="#FFFAEA"/>
<path d="M24.182 39.0969C23.8743 39.594 23.5878 40.0982 23.5314 40.6979C23.5109 40.9173 23.3506 40.943 23.1732 40.9371C22.7456 40.9238 22.3554 40.7747 22.0053 40.5513C21.8233 40.4354 21.6552 40.3709 21.4481 40.3911C21.4295 40.3768 21.4109 40.3626 21.3926 40.3483C21.4068 40.3666 21.4214 40.3852 21.4357 40.4035C21.4658 40.5547 21.4956 40.7058 21.5253 40.8569C20.9376 40.4878 20.7203 39.9265 20.8046 39.2754C20.888 38.6308 21.1708 38.0835 21.8596 37.8666C22.3592 38.0308 22.8631 38.1774 23.3872 38.24C23.6712 38.3736 23.9551 38.5072 24.2387 38.641C24.3485 38.8087 24.2697 38.9553 24.182 39.0969Z" fill="#FFFAEA"/>
<path d="M31.4939 18.513C31.262 19.1225 30.6473 18.9109 30.2212 19.0631C29.13 19.4527 28.0274 19.7784 26.9954 20.3429C26.4318 20.6513 25.8422 20.9653 25.2141 21.152C25.0968 21.1869 24.8197 21.4455 24.7656 21.0436C26.1344 19.9425 27.6299 19.093 29.349 18.6582C29.9126 18.5156 30.4899 18.496 31.0555 18.3841C31.2043 18.3547 31.3902 18.3285 31.4939 18.513Z" fill="#FFFAEA"/>
<path d="M34.8897 13.1329C34.9033 13.6584 34.6538 14.0749 34.3898 14.5109C33.944 15.2473 33.4099 15.9284 33.0377 16.712C32.81 17.1825 32.552 17.6376 32.2654 18.0747C32.1732 18.2174 32.075 18.4472 31.8145 18.391C32.566 16.4778 33.5464 14.6994 34.8897 13.1331V13.1329Z" fill="#FFFAEA"/>
<path d="M29.8282 53.3712C28.616 52.9618 27.6348 52.4439 26.7188 51.7886C27.6219 51.6216 28.4737 51.7708 29.272 52.1235C29.7307 52.3261 29.5916 52.8746 29.8283 53.3712H29.8282Z" fill="#F5A659"/>
<path d="M37.2026 44.5419C37.287 44.7924 37.0597 44.8705 36.9301 44.9513C35.4001 45.9054 34.7207 47.3616 34.5162 49.0752C34.4685 49.4754 34.6068 49.8973 34.6563 50.3096C34.6697 50.4217 34.782 50.5529 34.6044 50.6356C34.0829 49.0586 34.2524 47.5396 35.1378 46.1562C35.6176 45.4065 36.3636 44.8883 37.2026 44.542V44.5419Z" fill="#FFFAEA"/>
<path d="M22.2652 19.2443C21.7131 19.6436 21.1602 19.2866 20.6191 19.2212C19.3286 19.0654 18.0479 18.8209 16.7381 18.9003C16.6368 18.9065 16.5165 18.935 16.4502 18.8115C16.775 18.6173 17.1484 18.6373 17.4986 18.6132C18.8909 18.5172 20.2624 18.6855 21.6234 18.9852C21.8624 19.0378 22.0175 19.2467 22.2651 19.2443L22.2652 19.2443Z" fill="#FFFAEA"/>
<path d="M23.3881 38.2415C22.8637 38.1788 22.3599 38.0322 21.8604 37.8678C22.1172 37.484 22.3957 37.368 22.7648 37.7518C22.9464 37.9408 23.263 37.9709 23.3881 38.2415Z" fill="#F5A659"/>
<path d="M40.5703 43.6277C40.7073 43.5697 40.8251 43.5934 40.9212 43.7101C40.7531 43.9007 40.6492 43.8177 40.5703 43.6277Z" fill="#F5A659"/>
<path d="M41.7556 33.7695C41.7348 33.6064 41.7645 33.4846 41.9704 33.5075C41.8987 33.595 41.8271 33.6824 41.7556 33.7695Z" fill="#FFFAEA"/>
<path d="M42.0936 33.3605C42.0783 33.2414 42.1254 33.1723 42.2501 33.1653C42.198 33.2303 42.1458 33.2954 42.0936 33.3605Z" fill="#FFFAEA"/>
<path d="M39.498 43.575C39.5707 43.5023 39.6428 43.4989 39.7143 43.5768C39.6423 43.5762 39.5702 43.5756 39.498 43.575Z" fill="#F5A659"/>
<path d="M38.8004 27.7419C38.5149 28.7335 37.8722 29.3968 36.9172 29.7595C35.7992 30.1841 34.7205 29.7618 34.0376 28.6263C33.8702 28.3479 33.7563 28.0374 33.6179 27.7423C33.614 27.3423 33.5913 26.9407 33.6096 26.541C33.656 25.5273 34.1791 24.8023 35.0951 24.4292C36.0136 24.0549 36.9106 24.1565 37.7177 24.8044C38.6736 25.5717 38.8616 26.6075 38.8003 27.7419L38.8004 27.7419ZM35.7139 26.2316C35.7016 25.7522 35.2591 25.2939 34.8137 25.2992C34.4465 25.3036 34.1386 25.6986 34.1469 26.1547C34.1549 26.5955 34.5516 27.0042 34.9762 27.0091C35.3892 27.0139 35.7248 26.66 35.7139 26.2316Z" fill="#440D08"/>
<path d="M28.7094 29.279C28.811 29.6285 28.9499 29.972 29.0081 30.3286C29.3477 32.4105 27.6881 33.7286 25.6434 33.0126C25.6437 33.0124 25.6263 33.0421 25.6262 33.0422C25.5982 33.0134 25.5703 32.9846 25.5426 32.9557C24.5486 32.281 24.0527 31.3513 24.076 30.1426C24.0947 29.1713 24.6518 28.1909 25.6998 27.8797C26.6522 27.597 27.6759 27.9217 28.3206 28.758C28.4529 28.9296 28.58 29.1052 28.7094 29.279L28.7094 29.279ZM26.2591 29.6185C26.2698 29.1299 25.8567 28.6613 25.4038 28.6483C25.0039 28.6368 24.7126 28.9753 24.7051 29.4604C24.6983 29.9053 25.0914 30.3279 25.5133 30.3291C25.9221 30.3303 26.2503 30.0176 26.2591 29.6185Z" fill="#470D09"/>
<path d="M36.3683 13.0864C35.5867 14.1859 35.0467 15.3854 34.8517 16.7294C34.808 17.0305 34.7679 17.329 34.8903 17.6236C34.7931 17.6705 34.7039 17.6574 34.6742 17.5505C34.3467 16.3742 35.336 13.7554 36.3596 13.0789L36.3683 13.0864Z" fill="#440D08"/>
<path d="M16.655 22.5571C16.7638 21.6362 16.296 20.6048 17.1849 19.8448C16.5561 20.6633 16.732 21.6373 16.655 22.5571Z" fill="#440D08"/>
<path d="M36.5791 12.8602C36.6489 12.5804 36.8868 12.5542 37.1534 12.5752C36.9647 12.6733 36.776 12.7714 36.5873 12.8696L36.5791 12.8602Z" fill="#440D08"/>
<path d="M36.5858 12.8695C36.5516 12.9805 36.4864 13.0605 36.3681 13.0877L36.3594 13.0799C36.3707 12.9457 36.4505 12.8794 36.5777 12.8602L36.5858 12.8695Z" fill="#440D08"/>
<path d="M25.5427 32.9545C25.5705 32.9833 25.5984 33.0121 25.6263 33.0409C25.5778 33.0342 25.5292 33.0275 25.4805 33.0209C25.5012 32.9988 25.522 32.9766 25.5427 32.9545Z" fill="#FFFAEA"/>
<path d="M42.1836 32.282C42.2673 32.3179 42.1882 32.3943 42.1882 32.3943C42.1881 32.3553 42.1881 32.3163 42.188 32.2773L42.1836 32.282Z" fill="#FFFAEA"/>
<path d="M30.7867 39.0349C30.7735 39.006 30.7603 38.9771 30.7471 38.9482C30.7749 38.9604 30.8027 38.9727 30.8306 38.985C30.8305 38.9972 30.826 39.009 30.818 39.0181C30.8099 39.0273 30.7988 39.0333 30.7867 39.0349Z" fill="#FFFAEA"/>
<path d="M33.3111 30.4381C33.7063 30.7545 33.676 31.2488 33.2755 31.5089C33.0689 31.6432 32.8244 31.7222 32.5982 31.6326C32.2168 31.4815 31.992 31.5523 31.8116 31.9412C31.6628 32.2621 31.2874 32.2579 30.9951 32.2638C30.7305 32.2691 30.654 31.9783 30.5555 31.7682C30.5167 31.6855 30.4895 31.5787 30.5746 31.5178C30.6628 31.4548 30.7441 31.522 30.803 31.5947C31.0374 31.8838 31.3031 31.997 31.5617 31.6505C31.7969 31.3355 31.9367 30.9975 31.4365 30.7628C31.3263 30.7111 31.2729 30.6012 31.3679 30.4958C31.4453 30.4059 31.5413 30.3338 31.6492 30.2843C31.7571 30.2349 31.8745 30.2093 31.9932 30.2094C32.1726 30.2109 32.167 30.3518 32.1197 30.4903C31.9755 30.9124 32.2456 31.0999 32.5684 31.2266C32.9509 31.3768 33.2107 31.2657 33.2636 30.8233C33.2781 30.7018 33.2935 30.5804 33.3111 30.4381Z" fill="#440D08"/>
<path d="M32.3223 52.4631C32.1129 52.5537 31.9931 52.723 32.0613 52.9356C32.1618 53.2492 32.0641 53.5628 32.1143 53.8722C31.9382 53.9577 31.9048 53.8439 31.8883 53.7093C31.8673 53.5379 31.848 53.3663 31.8279 53.1945C31.8092 52.8316 31.9414 52.5702 32.3143 52.4704L32.3223 52.4631Z" fill="#440D08"/>
<path d="M30.9883 51.7998C31.0237 51.7716 31.0592 51.7434 31.0946 51.7152C31.1084 51.7341 31.1221 51.7529 31.1358 51.7718C31.0923 51.7885 31.0488 51.8052 31.0054 51.822C31.0056 51.8222 30.9883 51.7998 30.9883 51.7998Z" fill="#F5A659"/>
<path d="M32.3154 52.4696L32.3227 52.4474C32.3227 52.4474 32.3226 52.4631 32.3231 52.4627C32.3235 52.4622 32.3154 52.4696 32.3154 52.4696Z" fill="#440D08"/>
<path d="M21.4338 40.4047C21.4194 40.3862 21.405 40.3678 21.3906 40.3494C21.4091 40.3637 21.4277 40.378 21.4462 40.3923L21.4338 40.4047Z" fill="#F5A659"/>
<path d="M35.7147 26.2326C35.7256 26.6611 35.3899 27.0149 34.9769 27.0102C34.5523 27.0053 34.1556 26.5966 34.1476 26.1557C34.1393 25.6997 34.4472 25.3046 34.8144 25.3002C35.2598 25.2949 35.7024 25.7532 35.7147 26.2326Z" fill="#FFFAEA"/>
<path d="M26.2592 29.6169C26.2504 30.0159 25.9222 30.3287 25.5133 30.3275C25.0915 30.3263 24.6983 29.9037 24.7052 29.4588C24.7126 28.9737 25.0039 28.6351 25.4039 28.6466C25.8568 28.6597 26.2699 29.1283 26.2592 29.6169Z" fill="#FFFAEA"/>
</g>
<defs>
<clipPath id="clip0_504_148">
<rect width="51" height="56" fill="white" transform="translate(6 4)"/>
</clipPath>
</defs>
</svg>
