<svg width="51" height="56" viewBox="0 0 51 56" fill="none" xmlns="http://www.w3.org/2000/svg">
<g clip-path="url(#clip0_172_102)">
<path d="M50.7268 22.8184C50.8176 22.8115 50.9085 22.8046 50.9993 22.7977V23.0171L50.7256 23.0084C50.726 22.9451 50.7264 22.8817 50.7268 22.8184Z" fill="#FFFAEA"/>
<path d="M50.7858 27.6467C50.8252 26.1 50.8457 24.5535 50.7256 23.0089C50.7263 22.9457 50.7266 22.8825 50.7272 22.819C50.6897 22.5171 50.6523 22.2154 50.6149 21.9137C50.3864 19.8073 49.737 17.8118 48.9379 15.8687C47.5514 12.4982 45.5661 9.5113 42.915 7.00168C38.7894 3.09687 33.916 0.775986 28.2386 0.154315C23.4028 -0.375314 18.8161 0.471347 14.4318 2.51084C11.1794 4.0238 8.42752 6.22599 6.13336 8.94634C0.75674 15.3211 -1.07102 22.664 0.593003 30.8099C1.80676 36.7523 4.97077 41.5903 9.54297 45.5196C10.2416 46.1199 11.1754 47.8147 11.2495 47.9409C13.846 52.3645 17.8594 54.725 22.7783 55.5711C28.4938 56.5538 34.0423 55.8745 39.2877 53.3035C41.9317 52.0078 44.1598 50.2088 45.625 47.5925C46.1134 46.7205 46.507 45.8062 46.6484 44.8025C46.6536 44.7653 46.8192 41.6643 46.8127 40.906C46.8087 40.4579 46.5082 40.0262 46.7913 39.5595C49.0179 35.8896 50.3749 31.9262 50.7858 27.6467ZM6.66084 33.4394C6.65906 33.436 6.65709 33.4327 6.65495 33.4295C6.65805 33.4317 6.66084 33.4339 6.66394 33.436L6.6658 33.4398L6.66084 33.4394ZM7.10522 33.7611C7.10274 33.7593 7.10057 33.7574 7.09809 33.7552C7.10274 33.7552 7.10708 33.7556 7.11173 33.7556C7.1198 33.7711 7.12817 33.7866 7.13623 33.802C7.12599 33.7884 7.11576 33.7748 7.10522 33.7611ZM9.98269 15.7324C10.0106 15.3989 9.89958 14.9164 10.4491 14.8138C10.7735 14.6198 11.1471 14.6396 11.4973 14.6155C12.8896 14.5197 14.2609 14.688 15.622 14.9877C15.8611 15.0403 16.0161 15.2492 16.2639 15.2467C17.2063 15.2492 18.0002 15.7268 18.8384 16.0593C19.0505 16.1433 19.0279 16.3116 18.8688 16.4424C18.7081 16.575 18.5844 16.7408 18.5394 16.9298C18.4892 17.1403 18.6349 17.1127 18.7664 17.0439C20.1349 15.9437 21.6306 15.0943 23.3495 14.6595C23.9133 14.5166 24.4904 14.4971 25.056 14.3852C25.2049 14.3558 25.3906 14.3297 25.4945 14.5141C25.6353 14.5615 25.7153 14.45 25.8158 14.3914C26.5668 12.479 27.5471 10.7004 28.8905 9.13416C29.4127 8.4722 29.9966 7.87501 30.6789 7.37327C31.0383 7.10954 31.3326 7.10335 31.7028 7.39311C34.1986 9.34613 35.7159 11.8963 36.3256 14.9812C36.4791 15.7581 36.4539 16.5716 36.489 17.3696C36.506 17.7542 36.5101 18.1921 35.8691 17.7058C35.9649 18.2293 36.3206 18.493 36.5095 18.85C36.9873 19.7528 37.504 20.6341 37.8522 21.6011C37.9688 21.9249 37.9279 22.0954 37.5995 22.2971C36.9532 22.6947 36.244 22.9993 35.6768 23.5215C35.5853 23.6058 35.429 23.6852 35.5118 23.8237C35.6052 23.9802 35.7398 23.8528 35.8433 23.7952C36.5039 23.4276 37.094 22.9479 37.797 22.6395C38.1558 22.4818 38.2154 22.6185 38.2439 22.8887C38.3546 23.93 38.5971 23.7642 37.5148 24.1454C36.8447 24.3812 36.1525 24.5672 35.5376 24.9418C35.4337 25.0051 35.2635 25.0478 35.3348 25.2118C35.4253 25.4213 35.5531 25.2301 35.6458 25.1966C36.4009 24.9248 37.147 24.6301 37.9245 24.4215C38.1825 24.3521 38.3226 24.2994 38.2944 24.6797C38.1645 26.4309 37.3979 27.8825 36.2496 29.1649C36.1975 29.23 36.1454 29.2951 36.0933 29.3602C36.0524 29.4094 36.0116 29.4587 35.9711 29.508C35.8995 29.5954 35.828 29.6827 35.7565 29.7699C35.7618 29.8114 35.7438 29.8325 35.7019 29.8328C35.1183 30.5843 34.397 31.1976 33.6906 31.8431C33.8956 32.0365 34.0829 31.8013 34.2773 31.8137C35.2563 31.0045 36.2511 30.2124 36.9911 29.1581C37.2627 28.7713 37.5564 28.4004 37.8398 28.0223C38.3323 27.1211 38.9838 26.3646 39.8843 25.853C41.3927 24.9961 42.6092 25.5629 42.9485 27.2677C43.0812 27.9262 42.7522 28.437 42.3829 28.9139C41.5809 29.9499 40.6733 30.9004 39.9079 31.9668C39.3688 32.7253 38.8717 33.5127 38.4188 34.3255C38.1983 34.7169 38.3028 35.0544 38.4678 35.4133C39.0691 36.7195 39.6021 38.0537 40.0775 39.411C40.5601 40.7731 40.8059 42.2075 40.8044 43.6524C40.7982 46.5872 39.3506 48.645 36.8099 49.9469C33.4847 51.6505 30.0413 51.4537 26.5824 50.3907C26.0276 50.2202 25.4477 50.0932 24.9527 49.7625C24.7586 49.633 24.527 49.5425 24.4259 49.3045C23.743 48.4023 24.1046 47.2569 25.1863 46.9765C25.9007 46.7911 26.5721 47.0211 27.2699 47.2104C28.4185 47.5222 29.043 48.4656 29.8918 49.139C29.9594 49.1926 30.0431 49.2261 30.1191 49.2691C30.3985 49.2834 30.6503 49.4895 31.0488 49.382C29.9405 48.667 28.9255 47.9455 28.6052 46.635C28.0839 45.0588 28.2535 43.5396 29.1389 42.1562C29.6186 41.4065 30.3647 40.8884 31.2036 40.5422C32.2412 40.0916 33.3045 39.8743 34.4411 40.1012C34.8023 40.1734 35.1934 40.0367 35.5453 40.1855C35.4675 39.9317 35.0513 40.0398 35.0151 39.7179C34.9837 39.716 34.9524 39.7141 34.9208 39.7123C34.7527 39.9032 34.6485 39.8201 34.5697 39.6302C34.277 39.7334 33.9979 39.6137 33.7139 39.5781C33.6416 39.5775 33.5695 39.5769 33.4974 39.5762C31.4485 39.5933 29.7309 40.3113 28.586 42.062C27.8312 43.2155 27.6113 44.526 27.8169 45.8971C27.8377 45.9668 27.8693 46.0356 27.8777 46.1069C27.9093 46.3718 28.1589 46.7806 27.9955 46.8565C27.727 46.9814 27.3539 46.8287 27.0491 46.6818C26.0918 46.22 24.5034 46.2603 23.7923 47.4643C23.5498 47.8749 23.3008 47.8216 22.9544 47.6453C21.91 47.1135 21.3924 46.1772 21.0783 45.1282C20.4237 42.9427 21.2951 40.8137 23.3306 39.8285C23.7343 39.6333 23.9638 39.0125 24.567 39.2254C24.6377 39.2502 24.7037 39.1594 24.6991 39.0863C24.6907 38.9505 24.5698 38.9242 24.464 38.8985C23.7195 38.719 22.9808 38.5046 22.2282 38.3716C20.4342 38.0543 18.6303 37.7915 16.837 37.4713C16.3622 37.3864 15.871 37.2556 15.5243 36.858C14.937 36.4893 14.7193 35.928 14.8039 35.2769C14.8873 34.6323 15.1702 34.085 15.8586 33.8681C16.1157 33.4841 16.3941 33.3682 16.7632 33.7522C16.9449 33.9409 17.2615 33.971 17.3865 34.2415C17.6702 34.3751 17.9541 34.5087 18.238 34.6425C19.7777 35.2918 21.3741 35.6987 23.0534 35.593C23.7306 35.5502 24.4246 35.4368 25.0176 35.0349L24.9819 35.0383L24.9509 35.0209C24.8938 35.0637 24.8532 35.0538 24.8309 34.9847C24.8308 34.9968 24.8263 35.0085 24.8183 35.0176C24.8103 35.0267 24.7992 35.0326 24.7872 35.0342C22.1041 35.3311 19.602 34.791 17.2807 33.4137C17.1579 33.3412 17.0323 33.2576 16.9415 33.1506C16.8013 32.9855 16.7284 32.8181 17.0159 32.692C17.3824 32.5311 17.736 32.3415 18.0938 32.1614C18.2101 32.1029 18.3475 32.0254 18.2762 31.8766C18.2163 31.7508 18.0802 31.8252 17.9834 31.8621C17.6085 32.0049 17.2159 32.118 16.8692 32.3123C16.4977 32.5206 16.2574 32.4199 16.0391 32.1149C15.9436 31.9817 15.867 31.8339 15.7618 31.7093C15.4493 31.3386 15.6635 31.2252 16.0133 31.1583C16.4258 31.0795 16.8367 30.9921 17.2479 30.9066C17.388 30.8772 17.5837 30.8657 17.549 30.6698C17.5124 30.4634 17.317 30.5493 17.1821 30.5598C16.7812 30.5908 16.3709 30.6206 16.0028 30.7814C15.4406 31.0269 15.2499 30.7758 15.0849 30.2701C14.709 29.1172 14.496 27.9365 14.3648 26.7381C14.3369 26.4805 14.3251 26.3231 13.9884 26.2875C13.6789 26.2549 13.4801 25.9463 13.2795 25.7148C10.7924 22.8466 9.66545 19.5222 9.98269 15.7324ZM23.8302 49.3726C22.618 48.9633 21.6368 48.4454 20.7204 47.79C21.6234 47.6229 22.4753 47.7723 23.2738 48.125C23.7325 48.3273 23.5932 48.8759 23.8302 49.3726ZM46.0961 44.4324C45.5351 47.2482 43.9731 49.4473 41.6876 51.1227C39.2849 52.8836 36.5693 53.941 33.6729 54.6286C31.3627 55.1753 28.9903 55.4141 26.6174 55.339C23.0226 55.233 19.5882 54.4886 16.5002 52.5334C14.7645 51.4345 13.2847 50.0687 12.1804 48.3218C12.1147 48.2176 12.0114 48.1228 12.0347 47.9784C10.9043 46.0424 9.85989 44.0636 9.716 41.7713C9.60995 40.0854 10.0342 39.6379 11.7612 40.0197C13.1914 40.3361 14.2603 41.2562 15.1971 42.3223C16.0034 43.2399 16.5997 44.3072 17.2109 45.3594C17.5874 45.5153 17.7403 45.8943 18.0039 46.162C19.3631 47.5426 20.8237 48.8061 22.6018 49.5989C24.7022 50.5351 26.8354 51.4279 29.1457 51.7149C32.6142 52.1457 35.8861 51.6762 38.7307 49.4483C39.3823 48.9378 39.9662 48.3524 40.356 47.6164C40.7123 46.943 41.215 46.3737 41.585 45.7052C43.0679 43.0255 42.9879 40.4601 41.2051 37.9467C40.632 37.1388 39.983 36.4009 39.3075 35.6847C38.8898 35.2416 38.7732 34.8204 39.1475 34.2874C39.4511 33.8553 39.6961 33.3824 39.9718 32.9306C40.4208 32.1958 40.4391 32.1946 41.1303 32.7735C42.0331 33.3006 42.7662 34.0202 43.4285 34.8161C43.5638 34.9788 43.7461 35.1291 43.7383 35.3767C44.5055 35.9791 44.8166 36.8757 45.2163 37.7075C46.2462 39.8489 46.5603 42.1022 46.0961 44.4324Z" fill="#440D08"/>
<path d="M24.9509 35.0193C24.8942 35.0611 24.8535 35.0512 24.8312 34.9819C24.8033 34.9695 24.7754 34.9573 24.7477 34.9452C24.7609 34.9741 24.7741 35.0029 24.7873 35.0318C22.1042 35.3288 19.6022 34.7886 17.2812 33.4113C17.1584 33.3387 17.0327 33.255 16.9418 33.1481C16.8015 32.983 16.7287 32.8156 17.0163 32.6894C17.3826 32.5287 17.7363 32.339 18.0941 32.159C18.2104 32.1005 18.3479 32.0229 18.2766 31.874C18.2165 31.7484 18.0806 31.8227 17.9837 31.8596C17.6089 32.0024 17.2162 32.1154 16.8695 32.3098C16.498 32.5181 16.2576 32.4173 16.0393 32.1123C15.9439 31.9792 15.8672 31.8313 15.7622 31.7068C15.4495 31.3362 15.6638 31.2225 16.0138 31.1557C16.4263 31.0769 16.8371 30.9897 17.2482 30.904C17.3885 30.8747 17.5842 30.863 17.5493 30.6673C17.5127 30.461 17.3174 30.5467 17.1825 30.5572C16.7814 30.5884 16.3713 30.6181 16.0031 30.7788C15.441 31.0244 15.2501 30.7733 15.0853 30.2675C14.7095 29.1147 14.4963 27.934 14.3653 26.7355C14.3372 26.4781 14.3255 26.3205 13.9886 26.285C13.6794 26.2524 13.4805 25.9436 13.2798 25.7122C10.7926 22.8441 9.66581 19.5196 9.98304 15.7298C10.011 15.3964 9.89991 14.9138 10.449 14.8114C10.5153 14.9349 10.6356 14.9064 10.7369 14.9002C12.0467 14.8208 13.3274 15.0653 14.6179 15.2211C15.159 15.2865 15.712 15.6435 16.2641 15.2441C17.2067 15.2465 18.0006 15.7244 18.8387 16.0567C19.0507 16.1408 19.0281 16.309 18.8691 16.4399C18.7083 16.5724 18.5848 16.7382 18.5398 16.9273C18.4897 17.1378 18.6352 17.11 18.7666 17.0423C18.8207 17.4442 19.0977 17.1855 19.2151 17.1506C19.8431 16.964 20.4327 16.6499 20.9964 16.3415C22.0282 15.777 23.1308 15.4514 24.2221 15.0617C24.6483 14.9096 25.263 15.1212 25.4949 14.5116C25.6358 14.559 25.7158 14.4474 25.8156 14.3895C26.0762 14.4458 26.1743 14.216 26.2665 14.0733C26.5532 13.6362 26.8112 13.181 27.0388 12.7106C27.4111 11.927 27.9452 11.2458 28.391 10.5095C28.655 10.0735 28.9044 9.65702 28.8908 9.13151C29.4132 8.46977 29.997 7.87255 30.6794 7.37087C31.0386 7.10684 31.3329 7.10068 31.7033 7.39062C34.199 9.34355 35.7164 11.8939 36.3258 14.9787C36.4793 15.7555 36.4541 16.5692 36.4892 17.367C36.5062 17.7516 36.5103 18.1894 35.8693 17.7034C35.9652 18.2267 36.3208 18.4904 36.5098 18.8474C36.9877 19.7503 37.5041 20.6317 37.8525 21.5986C37.9691 21.9223 37.928 22.0929 37.5998 22.2948C36.9536 22.6921 36.2444 22.9969 35.6772 23.519C35.5855 23.6033 35.4293 23.6826 35.5121 23.8213C35.6055 23.9778 35.7399 23.8505 35.8435 23.7928C36.5043 23.4252 37.0943 22.9456 37.7973 22.6369C38.1561 22.4794 38.2156 22.6161 38.2443 22.8861C38.355 23.9276 38.5975 23.7618 37.5151 24.1429C36.8448 24.3789 36.1528 24.5648 35.5379 24.9393C35.434 25.0026 35.2638 25.0452 35.3349 25.2095C35.4255 25.4187 35.5534 25.2276 35.646 25.1942C36.4011 24.9224 37.1474 24.6277 37.9246 24.4189C38.1828 24.3496 38.3228 24.2968 38.2946 24.6773C38.1647 26.4285 37.3982 27.8801 36.2499 29.1625C36.1252 29.1696 36.0781 29.2386 36.0934 29.3578C36.0527 29.4071 36.0121 29.4563 35.9716 29.5054C35.7657 29.4825 35.736 29.6042 35.7568 29.7674C35.7622 29.8089 35.744 29.83 35.7022 29.8303C35.3269 29.6147 35.3417 29.3762 35.7204 28.998C35.8997 28.8188 36.2665 28.3168 36.1827 28.281C36.4351 27.8067 36.6815 27.3292 36.9427 26.8599C37.0573 26.6539 37.087 26.3989 37.0424 26.2214C36.9979 26.0447 36.7025 26.0571 36.5 26.0834C35.9937 26.1491 35.4898 26.2378 34.9754 26.198C33.6561 26.0959 32.4564 25.5728 32.9401 23.8304C32.9662 23.7362 32.8817 23.7174 32.7999 23.7418C32.8611 22.6075 32.6731 21.5717 31.7172 20.8044C30.9102 20.1565 30.0131 20.0549 29.0946 20.4291C28.1786 20.8023 27.6555 21.5273 27.6091 22.541C27.5908 22.9407 27.6135 23.3422 27.6176 23.743C27.312 23.6277 27.1315 23.3656 26.9344 23.1338C26.5932 22.7327 26.2364 22.3457 25.7572 22.12C24.5701 21.5607 23.7631 21.6838 23.1353 22.7282C22.7766 23.325 22.9559 23.9662 22.8946 24.5878C22.871 24.8266 22.9993 25.1087 22.709 25.2765C22.5795 25.1027 22.4525 24.927 22.3202 24.7554C21.6754 23.9191 20.6518 23.5944 19.6994 23.8772C18.6514 24.1883 18.0942 25.1688 18.0755 26.14C18.0522 27.3488 18.5482 28.2785 19.5421 28.9532C19.5214 28.9753 19.5006 28.9975 19.4799 29.0196C19.5285 29.0263 19.5772 29.0329 19.6258 29.0396L19.6432 29.0099C19.5856 29.1799 19.6865 29.2932 19.7953 29.3911C20.1433 29.7041 20.2078 30.1063 20.1727 30.5417C20.1122 31.2931 19.7249 31.8755 19.2111 32.3923C18.9247 32.6803 18.6405 32.9704 18.3865 33.2279C18.9877 33.7196 19.7155 33.7805 20.4184 33.908C21.6584 34.1328 22.889 34.4548 24.1728 34.2257C24.5095 34.1657 24.8658 34.2152 25.2131 34.2154C25.3696 34.2155 25.5083 34.2408 25.5232 34.4397C25.5358 34.6068 25.4927 34.7357 25.2984 34.7402C25.1061 34.7446 24.99 34.8309 24.951 35.0194L24.9509 35.0193ZM30.5874 8.86794C30.7761 8.7698 30.9648 8.67167 31.1535 8.57354C30.8869 8.55262 30.649 8.57882 30.5793 8.85868C30.452 8.8778 30.3723 8.94413 30.3609 9.0783C29.3374 9.75504 28.348 12.3738 28.6755 13.5499C28.7053 13.6568 28.7945 13.6699 28.8917 13.623C28.7693 13.3284 28.8093 13.0299 28.853 12.7288C29.0481 11.385 29.5881 10.1855 30.3697 9.08618C30.488 9.05893 30.5532 8.97888 30.5874 8.86794ZM10.6557 18.5544C10.7327 17.6346 10.5568 16.6606 11.1856 15.8421C10.2967 16.602 10.7645 17.6334 10.6557 18.5544Z" fill="#F5A659"/>
<path d="M32.8001 23.7419C32.8819 23.7175 32.9665 23.7363 32.9403 23.8304C32.4566 25.5729 33.6564 26.096 34.9756 26.1981C35.4901 26.2379 35.9939 26.1491 36.5003 26.0834C36.7028 26.0571 36.9982 26.0448 37.0426 26.2215C37.0873 26.3989 37.0576 26.6539 36.9429 26.8599C36.6817 27.3293 36.4354 27.8068 36.183 28.281L36.1874 28.2764C36.174 28.2883 36.1474 28.3037 36.1495 28.3115C36.1585 28.3383 36.1697 28.3643 36.1832 28.3891C36.2264 28.7401 35.9 28.8189 35.7206 28.998C35.3419 29.3763 35.3271 29.6148 35.7024 29.8304C35.1188 30.582 34.3975 31.1952 33.6912 31.8407C33.8962 32.0341 34.0833 31.799 34.2779 31.8113C34.3831 32.0011 34.5119 32.1816 34.5894 32.3819C35.4129 34.5097 36.1029 36.6571 35.7552 38.9987C35.6823 39.4894 35.606 39.8273 35.0157 39.7154C34.9842 39.7136 34.9528 39.7118 34.9211 39.71C34.825 39.5934 34.7073 39.5696 34.5702 39.6276C34.2775 39.7309 33.9984 39.6112 33.7141 39.5756C33.6426 39.4976 33.5705 39.5011 33.4978 39.5737C31.4491 39.5909 29.7313 40.3089 28.5864 42.0595C27.8318 43.2132 27.6117 44.5235 27.8174 45.8949C26.9646 46.0159 26.16 45.929 25.3115 45.6753C24.1888 45.3395 23.4764 44.684 23.4531 43.5293C23.4402 42.8904 23.4367 42.2494 23.4743 41.612C23.5053 41.0867 23.6408 40.6473 24.2968 40.5063C24.9182 40.3726 25.2377 39.839 25.4099 39.2557C25.7323 38.1641 25.338 37.2065 24.7884 36.2955C24.6023 35.987 24.6113 35.8549 24.9835 35.6947C25.4545 35.492 26.0582 35.4609 26.3493 34.8271C25.8718 34.9007 25.4449 34.9665 25.018 35.0323L24.9826 35.0359C24.9826 35.0359 24.9515 35.0185 24.9514 35.019C24.9903 34.8309 25.1063 34.7446 25.2986 34.7401C25.4929 34.7356 25.536 34.6068 25.5235 34.4396C25.5086 34.2408 25.3699 34.2154 25.2133 34.2153C24.866 34.2152 24.5098 34.1656 24.1731 34.2257C22.8892 34.4547 21.6586 34.1328 20.4187 33.9079C19.7157 33.7804 18.9879 33.7195 18.3867 33.2279C18.6407 32.9703 18.925 32.6803 19.2113 32.3923C19.7251 31.8754 20.1125 31.2931 20.173 30.5417C20.208 30.1063 20.1435 29.7041 19.7956 29.391C19.6868 29.2931 19.5859 29.1798 19.6432 29.01C21.6879 29.7259 23.3474 28.4079 23.0079 26.326C22.9497 25.9694 22.8108 25.6259 22.7092 25.2764C22.9995 25.1086 22.8712 24.8265 22.8948 24.5877C22.9561 23.9661 22.7768 23.3249 23.1355 22.7281C23.7633 21.6837 24.5702 21.5607 25.7574 22.1199C26.2366 22.3457 26.5934 22.7326 26.9346 23.1338C27.1317 23.3655 27.3123 23.6277 27.6177 23.7422C27.756 24.0373 27.8699 24.3478 28.0373 24.6262C28.7202 25.7617 29.799 26.184 30.9169 25.7594C31.8719 25.3967 32.5147 24.7334 32.8001 23.7418L32.8001 23.7419ZM27.31 26.4361C27.2924 26.5784 27.277 26.6997 27.2625 26.8212C27.2096 27.2637 26.9498 27.3747 26.5673 27.2246C26.2445 27.0978 25.9745 26.9104 26.1186 26.4883C26.1659 26.3497 26.1715 26.2089 25.9921 26.2073C25.8734 26.2073 25.756 26.2328 25.6481 26.2823C25.5402 26.3317 25.4442 26.4039 25.3668 26.4938C25.2718 26.5992 25.3252 26.7091 25.4355 26.7608C25.9356 26.9954 25.7958 27.3335 25.5606 27.6485C25.302 27.995 25.0364 27.8818 24.802 27.5926C24.743 27.5199 24.6617 27.4527 24.5735 27.5158C24.4885 27.5766 24.5156 27.6835 24.5544 27.7662C24.6529 27.9763 24.7294 28.2671 24.9941 28.2618C25.2863 28.2559 25.6617 28.2601 25.8105 27.9392C25.9909 27.5503 26.2157 27.4795 26.5971 27.6305C26.8233 27.7201 27.0678 27.6411 27.2745 27.5069C27.6749 27.2467 27.7052 26.7525 27.31 26.4361Z" fill="#FFFAEA"/>
<path d="M46.0976 44.4312C45.5367 47.247 43.9747 49.4461 41.6892 51.1214C39.2865 52.8823 36.5709 53.9397 33.6745 54.6274C31.3643 55.174 28.9919 55.4128 26.619 55.3377C23.0242 55.2317 19.5898 54.4873 16.5018 52.5321C14.7661 51.4332 13.2863 50.0674 12.182 48.3205C12.1162 48.2164 12.013 48.1215 12.0362 47.9771C12.0657 47.7103 11.9866 47.4778 11.8322 47.2597C11.7754 47.18 11.679 47.0592 11.7978 46.9705C11.9289 46.8726 12.0365 46.9693 12.1156 47.0787C12.2645 47.2854 12.3873 47.5163 12.5616 47.6985C12.7414 47.8866 12.8927 48.2582 13.1697 48.1646C13.4602 48.0664 13.3315 47.6886 13.3557 47.4252C13.3712 47.2563 13.2596 47.0272 13.4937 46.9473C13.6903 46.8803 13.8246 47.0514 13.967 47.1655C14.3493 47.4716 14.7311 47.78 15.1246 48.0719C15.2508 48.1652 15.4235 48.3019 15.5724 48.1978C15.7547 48.0698 15.5829 47.9021 15.5311 47.758C15.3838 47.3471 15.1807 46.9492 15.2359 46.4923C15.2548 46.3368 15.1478 46.1177 15.3162 46.0393C15.5035 45.9522 15.6511 46.1341 15.7721 46.2649C16.1833 46.7096 16.6878 47.0028 17.2829 47.2668C17.2755 46.5869 16.8388 45.9813 17.2125 45.3581C17.589 45.514 17.7419 45.893 18.0055 46.1608C19.3647 47.5414 20.8253 48.8049 22.6034 49.5976C24.7037 50.5338 26.837 51.4267 29.1473 51.7136C32.6158 52.1444 35.8877 51.6749 38.7323 49.447C39.3838 48.9366 39.9678 48.3512 40.3576 47.6151C40.7139 46.9417 41.2166 46.3724 41.5865 45.704C43.0695 43.0242 42.9894 40.4588 41.2066 37.9455C40.6336 37.1375 39.9845 36.3996 39.3091 35.6834C38.8914 35.2403 38.7748 34.8191 39.1491 34.2861C39.4527 33.8541 39.6977 33.3812 39.9734 32.9293C40.4224 32.1945 40.4407 32.1933 41.1316 32.7722C42.0346 33.2993 42.7677 34.0189 43.4301 34.8148C43.5653 34.9775 43.7477 35.1278 43.7399 35.3754C44.5071 35.9779 44.8181 36.8744 45.2179 37.7062C46.2477 39.8476 46.5619 42.101 46.0976 44.4312Z" fill="#F5A659"/>
<path d="M35.0138 39.7175C35.6041 39.8294 35.6804 39.4916 35.7533 39.0009C36.101 36.659 35.411 34.5119 34.5875 32.3841C34.51 32.1837 34.3812 32.0032 34.276 31.8134C35.255 31.0044 36.2496 30.2123 36.9898 29.1578C37.2612 28.7712 37.5549 28.4001 37.8382 28.0224C38.6778 27.9288 39.2433 28.3489 39.6812 29.0062C39.8422 29.2478 40.0267 29.4786 40.152 29.7377C40.3291 30.1039 40.4924 30.0665 40.7571 29.8178C41.4462 29.1706 41.8884 28.3452 42.3981 27.5721C42.5533 27.3368 42.7032 27.2604 42.9471 27.2674C43.0798 27.926 42.7508 28.4366 42.3813 28.9139C41.5794 29.9496 40.6719 30.9001 39.9065 31.9665C39.3673 32.7249 38.8703 33.5123 38.4174 34.3252C38.1969 34.7167 38.3015 35.0543 38.4665 35.4129C39.0676 36.7195 39.6007 38.0534 40.076 39.4107C40.5585 40.7728 40.8045 42.2072 40.8032 43.6521C40.7967 46.587 39.3492 48.6447 36.8084 49.9466C33.4831 51.6503 30.0397 51.4534 26.5808 50.3904C26.0262 50.22 25.4462 50.093 24.9512 49.7624C24.7571 49.6328 24.5255 49.5422 24.4248 49.3046C24.5983 49.198 24.4793 49.0506 24.4881 48.9166C24.5166 48.4874 24.5228 48.0387 24.9876 47.8011L25.0049 47.8235C24.9616 48.1449 24.8693 48.4552 24.8727 48.7888C24.8771 49.2129 25.073 49.3349 25.4526 49.2687C25.5778 49.2469 25.7018 49.2191 25.8264 49.1943C25.8465 49.3662 25.8659 49.5377 25.8869 49.7091C25.9034 49.8437 25.9367 49.9576 26.1129 49.872C26.4597 49.8698 26.7916 49.9439 27.1309 50.0162C27.802 50.1591 28.4452 50.4343 29.1442 50.4497C29.263 50.4523 29.4206 50.5629 29.4727 50.3904C29.6017 49.9637 30.018 49.7077 30.1159 49.2682C30.397 49.2831 30.649 49.4892 31.0473 49.3818C29.939 48.6669 28.924 47.9454 28.6041 46.6355C28.7817 46.5529 28.6694 46.4216 28.656 46.3096C28.6065 45.8973 28.4682 45.4753 28.5159 45.0752C28.7204 43.3616 29.3998 41.9055 30.9298 40.9513C31.0594 40.8704 31.2867 40.7924 31.2023 40.5418C32.2398 40.0914 33.3031 39.874 34.4395 40.101C34.8008 40.1732 35.1917 40.0363 35.5439 40.1851C35.4658 39.9314 35.0498 40.0395 35.0136 39.7175L35.0138 39.7175Z" fill="#F5A659"/>
<path d="M25.0158 35.0348C25.4427 34.9691 25.8697 34.9033 26.3471 34.8297C26.0561 35.4635 25.4523 35.4945 24.9814 35.6973C24.6091 35.8575 24.6001 35.9896 24.7862 36.2981C25.3358 37.2091 25.7301 38.1667 25.4078 39.2582C25.2355 39.8416 24.9161 40.3752 24.2946 40.5088C23.6386 40.6499 23.5031 41.0892 23.4722 41.6146C23.4346 42.252 23.438 42.893 23.4509 43.5319C23.4742 44.6866 24.1866 45.3421 25.3094 45.6778C26.1579 45.9316 26.9624 46.0185 27.8152 45.8974C27.8361 45.967 27.8676 46.0356 27.8761 46.1069C27.9075 46.372 28.1573 46.7806 27.9939 46.8566C27.7254 46.9814 27.3524 46.8289 27.0475 46.6819C26.0901 46.2202 24.5017 46.2605 23.7908 47.4645C23.5484 47.8751 23.2992 47.8218 22.9528 47.6454C21.9085 47.1136 21.3908 46.1773 21.0767 45.1285C20.4222 42.9428 21.2934 40.814 23.3291 39.8288C23.7328 39.6334 23.9623 39.0128 24.5654 39.2254C24.6363 39.2504 24.7022 39.1595 24.6976 39.0866C24.6891 38.9508 24.5682 38.9243 24.4624 38.8988C23.7179 38.7193 22.9794 38.5049 22.2265 38.3717C20.4326 38.0545 18.629 37.7917 16.8356 37.4715C16.3607 37.3867 15.8695 37.2559 15.5232 36.8585C15.4936 36.7075 15.4637 36.5564 15.4336 36.4052L15.446 36.3928C15.6533 36.3727 15.8213 36.437 16.0032 36.5529C16.3535 36.7763 16.7435 36.9255 17.171 36.9389C17.3485 36.9445 17.5087 36.9191 17.5293 36.6996C17.5856 36.1 17.8722 35.5956 18.18 35.0986C18.2678 34.9569 18.3463 34.8104 18.2365 34.6426C19.7763 35.292 21.3726 35.6987 23.0521 35.5932C23.7292 35.5506 24.4234 35.437 25.0161 35.035L25.0158 35.0348Z" fill="#F5A659"/>
<path d="M17.2105 45.3578C16.8369 45.981 17.2735 46.5866 17.2808 47.2662C16.6857 47.0022 16.1814 46.7091 15.7701 46.2645C15.649 46.1335 15.5015 45.9517 15.3143 46.0389C15.1459 46.1173 15.2526 46.3362 15.2338 46.4919C15.1786 46.9487 15.3816 47.3466 15.529 47.7574C15.5808 47.9018 15.7526 48.0695 15.5703 48.1972C15.4214 48.3015 15.2488 48.1649 15.1226 48.0714C14.729 47.7795 14.3474 47.4714 13.9648 47.1649C13.8226 47.0511 13.6881 46.8798 13.4916 46.9469C13.2575 47.0268 13.3692 47.2557 13.3537 47.4247C13.3295 47.6883 13.4582 48.0661 13.1674 48.1643C12.8905 48.2579 12.7394 47.8863 12.5594 47.698C12.3853 47.5158 12.2625 47.2851 12.1135 47.0783C12.0345 46.9687 11.9268 46.8722 11.7957 46.97C11.6769 47.0586 11.7734 47.1795 11.83 47.2593C11.9846 47.4774 12.0636 47.7098 12.0343 47.9767C10.9037 46.0406 9.85946 44.062 9.71538 41.7696C9.60943 40.0837 10.0335 39.6363 11.7607 40.0182C13.191 40.3344 14.2596 41.2544 15.1963 42.3206C16.0027 43.2384 16.599 44.3054 17.2104 45.3578L17.2105 45.3578Z" fill="#FFFAEA"/>
<path d="M25.8291 49.1945C25.7045 49.2195 25.5805 49.2474 25.4553 49.2692C25.0757 49.3354 24.8798 49.2134 24.8754 48.7892C24.872 48.4557 24.9643 48.1454 25.0074 47.8237C25.0508 47.8068 25.0942 47.7901 25.1378 47.7735C25.1241 47.7546 25.1104 47.7358 25.0966 47.7169C25.0612 47.7451 25.0257 47.7733 24.9903 47.8016C24.5255 48.0392 24.5192 48.4879 24.4908 48.9171C24.482 49.0511 24.601 49.1985 24.4275 49.305C23.7442 48.4027 24.1059 47.2572 25.1875 46.9766C25.902 46.7913 26.5733 47.0215 27.271 47.2108C28.4199 47.5225 29.0444 48.4659 29.8929 49.1392C29.9605 49.1929 30.0442 49.2265 30.1195 49.269C30.0206 49.7082 29.6043 49.9642 29.4754 50.3909C29.4233 50.5634 29.2657 50.4528 29.1468 50.4502C28.4479 50.4348 27.8046 50.1596 27.1335 50.0167C26.7943 49.9444 26.4624 49.8703 26.1155 49.8726C26.0653 49.5632 26.163 49.2496 26.0625 48.9359C25.9944 48.7234 26.1142 48.5541 26.323 48.4639C26.3226 48.4643 26.3227 48.4489 26.3227 48.4489L26.3156 48.4707C25.9427 48.5705 25.8104 48.8319 25.8291 49.1945L25.8291 49.1945Z" fill="#FFFAEA"/>
<path d="M39.8857 25.8524C38.9851 26.364 38.3336 27.1205 37.8408 28.022C38.6806 27.9284 39.2462 28.3483 39.6841 29.0057C39.845 29.2474 40.0296 29.4783 40.1548 29.7373C40.3319 30.1033 40.495 30.0662 40.7599 29.8173C41.4489 29.1702 41.8911 28.3449 42.4009 27.5717C42.556 27.3362 42.7061 27.26 42.9498 27.2671C42.6106 25.5623 41.3943 24.9955 39.8857 25.8524ZM42.4025 26.6185C42.3188 26.8816 42.1349 27.0486 41.8933 27.1695C41.8672 27.1205 41.8489 27.101 41.8533 27.092C41.9569 26.8688 42.0207 26.6107 42.3005 26.5326C42.3259 26.5255 42.4081 26.6008 42.4025 26.6185Z" fill="#FFFAEA"/>
<path d="M18.182 35.0969C17.8743 35.594 17.5878 36.0982 17.5314 36.6979C17.5109 36.9173 17.3506 36.943 17.1732 36.9371C16.7456 36.9238 16.3554 36.7747 16.0053 36.5513C15.8233 36.4354 15.6552 36.3709 15.4481 36.3911C15.4295 36.3768 15.4109 36.3626 15.3926 36.3483C15.4068 36.3666 15.4214 36.3852 15.4357 36.4035C15.4658 36.5547 15.4956 36.7058 15.5253 36.8569C14.9376 36.4878 14.7203 35.9265 14.8046 35.2754C14.888 34.6308 15.1708 34.0835 15.8596 33.8666C16.3592 34.0308 16.8631 34.1774 17.3872 34.24C17.6712 34.3736 17.9551 34.5072 18.2387 34.641C18.3485 34.8087 18.2697 34.9553 18.182 35.0969Z" fill="#FFFAEA"/>
<path d="M25.4939 14.513C25.262 15.1225 24.6473 14.9109 24.2212 15.0631C23.13 15.4527 22.0274 15.7784 20.9954 16.3429C20.4318 16.6513 19.8422 16.9653 19.2141 17.152C19.0968 17.1869 18.8197 17.4455 18.7656 17.0436C20.1344 15.9425 21.6299 15.093 23.349 14.6582C23.9126 14.5156 24.4899 14.496 25.0555 14.3841C25.2043 14.3547 25.3902 14.3285 25.4939 14.513Z" fill="#FFFAEA"/>
<path d="M28.8897 9.13293C28.9033 9.65844 28.6538 10.0749 28.3898 10.5109C27.944 11.2473 27.4099 11.9284 27.0377 12.712C26.81 13.1825 26.552 13.6376 26.2654 14.0747C26.1732 14.2174 26.075 14.4472 25.8145 14.391C26.566 12.4778 27.5464 10.6994 28.8897 9.13309V9.13293Z" fill="#FFFAEA"/>
<path d="M23.8282 49.3712C22.616 48.9618 21.6348 48.4439 20.7188 47.7886C21.6219 47.6216 22.4737 47.7708 23.272 48.1235C23.7307 48.3261 23.5916 48.8746 23.8283 49.3712H23.8282Z" fill="#F5A659"/>
<path d="M31.2026 40.5419C31.287 40.7924 31.0597 40.8705 30.9301 40.9513C29.4001 41.9054 28.7207 43.3616 28.5162 45.0752C28.4685 45.4754 28.6068 45.8973 28.6563 46.3096C28.6697 46.4217 28.782 46.5529 28.6044 46.6356C28.0829 45.0586 28.2524 43.5396 29.1378 42.1562C29.6176 41.4065 30.3636 40.8883 31.2026 40.542V40.5419Z" fill="#FFFAEA"/>
<path d="M16.2652 15.2443C15.7131 15.6436 15.1602 15.2866 14.6191 15.2212C13.3286 15.0654 12.0479 14.8209 10.7381 14.9003C10.6368 14.9065 10.5165 14.935 10.4502 14.8115C10.775 14.6173 11.1484 14.6373 11.4986 14.6132C12.8909 14.5172 14.2624 14.6855 15.6234 14.9852C15.8624 15.0378 16.0175 15.2467 16.2651 15.2443L16.2652 15.2443Z" fill="#FFFAEA"/>
<path d="M17.3881 34.2415C16.8637 34.1788 16.3599 34.0322 15.8604 33.8678C16.1172 33.484 16.3957 33.368 16.7648 33.7518C16.9464 33.9408 17.263 33.9709 17.3881 34.2415Z" fill="#F5A659"/>
<path d="M34.5703 39.6277C34.7073 39.5697 34.8251 39.5934 34.9212 39.7101C34.7531 39.9007 34.6492 39.8177 34.5703 39.6277Z" fill="#F5A659"/>
<path d="M35.7556 29.7695C35.7348 29.6064 35.7645 29.4846 35.9704 29.5075C35.8987 29.595 35.8271 29.6824 35.7556 29.7695Z" fill="#FFFAEA"/>
<path d="M36.0936 29.3605C36.0783 29.2414 36.1254 29.1723 36.2501 29.1653C36.198 29.2303 36.1458 29.2954 36.0936 29.3605Z" fill="#FFFAEA"/>
<path d="M33.498 39.575C33.5707 39.5023 33.6428 39.4989 33.7143 39.5768C33.6423 39.5762 33.5702 39.5756 33.498 39.575Z" fill="#F5A659"/>
<path d="M32.8004 23.7419C32.5149 24.7335 31.8722 25.3968 30.9172 25.7595C29.7992 26.1841 28.7205 25.7618 28.0376 24.6263C27.8702 24.3479 27.7563 24.0374 27.6179 23.7423C27.614 23.3423 27.5913 22.9407 27.6096 22.541C27.656 21.5273 28.1791 20.8023 29.0951 20.4292C30.0136 20.0549 30.9106 20.1565 31.7177 20.8044C32.6736 21.5717 32.8616 22.6075 32.8003 23.7419L32.8004 23.7419ZM29.7139 22.2316C29.7016 21.7522 29.2591 21.2939 28.8137 21.2992C28.4465 21.3036 28.1386 21.6986 28.1469 22.1547C28.1549 22.5955 28.5516 23.0042 28.9762 23.0091C29.3892 23.0139 29.7248 22.66 29.7139 22.2316Z" fill="#440D08"/>
<path d="M22.7094 25.279C22.811 25.6285 22.9499 25.972 23.0081 26.3286C23.3477 28.4105 21.6881 29.7286 19.6434 29.0126C19.6437 29.0124 19.6263 29.0421 19.6262 29.0422C19.5982 29.0134 19.5703 28.9846 19.5426 28.9557C18.5486 28.281 18.0527 27.3513 18.076 26.1426C18.0947 25.1713 18.6518 24.1909 19.6998 23.8797C20.6522 23.597 21.6759 23.9217 22.3206 24.758C22.4529 24.9296 22.58 25.1052 22.7094 25.279L22.7094 25.279ZM20.2591 25.6185C20.2698 25.1299 19.8567 24.6613 19.4038 24.6483C19.0039 24.6368 18.7126 24.9753 18.7051 25.4604C18.6983 25.9053 19.0914 26.3279 19.5133 26.3291C19.9221 26.3303 20.2503 26.0176 20.2591 25.6185Z" fill="#470D09"/>
<path d="M30.3683 9.08643C29.5867 10.1859 29.0467 11.3854 28.8517 12.7294C28.808 13.0305 28.7679 13.329 28.8903 13.6236C28.7931 13.6705 28.7039 13.6574 28.6742 13.5505C28.3467 12.3742 29.336 9.75538 30.3596 9.07886L30.3683 9.08643Z" fill="#440D08"/>
<path d="M10.655 18.5571C10.7638 17.6362 10.296 16.6048 11.1849 15.8448C10.5561 16.6633 10.732 17.6373 10.655 18.5571Z" fill="#440D08"/>
<path d="M30.5791 8.86024C30.6489 8.58044 30.8868 8.55424 31.1534 8.57516C30.9647 8.67329 30.776 8.77142 30.5873 8.86955L30.5791 8.86024Z" fill="#440D08"/>
<path d="M30.5858 8.86951C30.5516 8.98045 30.4864 9.06052 30.3681 9.08771L30.3594 9.07991C30.3707 8.94571 30.4505 8.87938 30.5777 8.86023L30.5858 8.86951Z" fill="#440D08"/>
<path d="M19.5427 28.9545C19.5705 28.9833 19.5984 29.0121 19.6263 29.0409C19.5778 29.0342 19.5292 29.0275 19.4805 29.0209C19.5012 28.9988 19.522 28.9766 19.5427 28.9545Z" fill="#FFFAEA"/>
<path d="M36.1836 28.282C36.2673 28.3179 36.1882 28.3943 36.1882 28.3943C36.1881 28.3553 36.1881 28.3163 36.188 28.2773L36.1836 28.282Z" fill="#FFFAEA"/>
<path d="M24.7867 35.0349C24.7735 35.006 24.7603 34.9771 24.7471 34.9482C24.7749 34.9604 24.8027 34.9727 24.8306 34.985C24.8305 34.9972 24.826 35.009 24.818 35.0181C24.8099 35.0273 24.7988 35.0333 24.7867 35.0349Z" fill="#FFFAEA"/>
<path d="M27.3111 26.4381C27.7063 26.7545 27.676 27.2488 27.2755 27.5089C27.0689 27.6432 26.8244 27.7222 26.5982 27.6326C26.2168 27.4815 25.992 27.5523 25.8116 27.9412C25.6628 28.2621 25.2874 28.2579 24.9951 28.2638C24.7305 28.2691 24.654 27.9783 24.5555 27.7682C24.5167 27.6855 24.4895 27.5787 24.5746 27.5178C24.6628 27.4548 24.7441 27.522 24.803 27.5947C25.0374 27.8838 25.3031 27.997 25.5617 27.6505C25.7969 27.3355 25.9367 26.9975 25.4365 26.7628C25.3263 26.7111 25.2729 26.6012 25.3679 26.4958C25.4453 26.4059 25.5413 26.3338 25.6492 26.2843C25.7571 26.2349 25.8745 26.2093 25.9932 26.2094C26.1726 26.2109 26.167 26.3518 26.1197 26.4903C25.9755 26.9124 26.2456 27.0999 26.5684 27.2266C26.9509 27.3768 27.2107 27.2657 27.2636 26.8233C27.2781 26.7018 27.2935 26.5804 27.3111 26.4381Z" fill="#440D08"/>
<path d="M26.3223 48.4631C26.1129 48.5537 25.9931 48.723 26.0613 48.9356C26.1618 49.2492 26.0641 49.5628 26.1143 49.8722C25.9382 49.9577 25.9048 49.8439 25.8883 49.7093C25.8673 49.5379 25.848 49.3663 25.8279 49.1945C25.8092 48.8316 25.9414 48.5702 26.3143 48.4704L26.3223 48.4631Z" fill="#440D08"/>
<path d="M24.9883 47.7998C25.0237 47.7716 25.0592 47.7434 25.0946 47.7152C25.1084 47.7341 25.1221 47.7529 25.1358 47.7718C25.0923 47.7885 25.0488 47.8052 25.0054 47.822C25.0056 47.8222 24.9883 47.7998 24.9883 47.7998Z" fill="#F5A659"/>
<path d="M26.3154 48.4696L26.3227 48.4474C26.3227 48.4474 26.3226 48.4631 26.3231 48.4627C26.3235 48.4622 26.3154 48.4696 26.3154 48.4696Z" fill="#440D08"/>
<path d="M15.4338 36.4047C15.4194 36.3862 15.405 36.3678 15.3906 36.3494C15.4091 36.3637 15.4277 36.378 15.4462 36.3923L15.4338 36.4047Z" fill="#F5A659"/>
<path d="M29.7147 22.2326C29.7256 22.6611 29.3899 23.0149 28.9769 23.0102C28.5523 23.0053 28.1556 22.5966 28.1476 22.1557C28.1393 21.6997 28.4472 21.3046 28.8144 21.3002C29.2598 21.2949 29.7024 21.7532 29.7147 22.2326Z" fill="#FFFAEA"/>
<path d="M20.2592 25.6169C20.2504 26.0159 19.9222 26.3287 19.5133 26.3275C19.0915 26.3263 18.6983 25.9037 18.7052 25.4588C18.7126 24.9737 19.0039 24.6351 19.4039 24.6466C19.8568 24.6597 20.2699 25.1283 20.2592 25.6169Z" fill="#FFFAEA"/>
</g>
<defs>
<clipPath id="clip0_172_102">
<rect width="51" height="56" fill="white"/>
</clipPath>
</defs>
</svg>
