<svg width="48" height="43" viewBox="0 0 48 43" fill="none" xmlns="http://www.w3.org/2000/svg">
<path opacity="0.3" fill-rule="evenodd" clip-rule="evenodd" d="M26.7455 42.5399C18.7587 42.4379 10.5983 42.0212 3.02827 39.0959C0.545429 38.6622 -0.557088 35.2012 2.38586 34.4954C9.99933 31.5787 18.2378 32.1399 26.2246 32.0464C31.5202 32.1654 37.163 31.6042 42.1113 33.7131C43.8476 34.8866 46.1047 35.2948 47.3201 37.0465C48.5354 39.1299 46.5388 41.545 44.3684 41.2048C41.33 40.9837 38.4652 42.2168 35.4267 42.2508C32.5619 42.4889 29.6103 42.5229 26.7455 42.5399Z" fill="black"/>
<path fill-rule="evenodd" clip-rule="evenodd" d="M33.4305 4.95365C33.0832 4.46043 27.9613 -0.765071 25.9646 0.0955003C23.447 1.33193 24.7492 9.50311 27.5272 10.7702" fill="#D7882D"/>
<path fill-rule="evenodd" clip-rule="evenodd" d="M27.1797 1.38804C26.3115 1.43736 25.9643 2.40593 25.8775 3.12194C25.4434 5.67644 25.9643 8.38911 27.4401 10.5575C27.6137 10.8807 27.8742 11.1698 28.2214 11.3824C30.0445 9.60513 31.8675 7.81936 33.6038 5.95706C31.9544 4.23932 30.2181 2.5777 28.0478 1.57597C27.7873 1.46712 27.5269 1.38294 27.1797 1.38804Z" fill="#FFF6D5"/>
<path d="M31.1489 34.513L30.4211 25.5389C30.312 24.1943 29.111 23.1908 27.7385 23.2976C26.3661 23.4044 25.3418 24.5811 25.4509 25.9257L26.1787 34.8998C26.2878 36.2444 27.4888 37.2479 28.8613 37.1411C30.2338 37.0343 31.258 35.8576 31.1489 34.513Z" fill="#F28C1A"/>
<path fill-rule="evenodd" clip-rule="evenodd" d="M28.0473 37.038C27.3528 36.885 26.7451 36.3747 26.3978 35.737C26.2242 35.4053 26.2242 35.2012 26.0506 33.509L25.877 31.6297L26.8319 31.6127C28.1341 31.5702 29.089 31.3576 30.6516 30.7878C30.8253 30.7368 30.8253 30.8644 30.9121 32.7097C31.1725 34.9121 31.0857 35.2863 30.7385 35.8815C30.2176 36.7999 29.089 37.2846 28.0473 37.038Z" fill="#FFF6D5"/>
<path d="M28.6468 15.7874H9.76509C5.31097 15.7874 1.7002 19.3243 1.7002 23.6873V24.6057C1.7002 28.9687 5.31097 32.5056 9.76509 32.5056H28.6468C33.1009 32.5056 36.7117 28.9687 36.7117 24.6057V23.6873C36.7117 19.3243 33.1009 15.7874 28.6468 15.7874Z" fill="#D7882D"/>
<path fill-rule="evenodd" clip-rule="evenodd" d="M38.8115 5.17479C39.072 4.68158 44.1939 -0.609407 46.1906 0.227354C48.7082 1.43317 47.4928 9.62221 44.7148 10.9233" fill="#D7882D"/>
<path fill-rule="evenodd" clip-rule="evenodd" d="M44.9759 1.5343C45.844 1.57342 46.1913 2.53773 46.2781 3.25204C46.7121 5.80399 46.2781 8.51666 44.8891 10.7106C44.6286 11.0338 44.3682 11.3229 44.021 11.544C42.1979 9.78371 40.3748 8.02345 38.5518 6.18666C40.2012 4.44341 41.9374 2.76223 44.1078 1.73329C44.3682 1.62104 44.6286 1.5343 44.9759 1.5343Z" fill="#FFF6D5"/>
<path fill-rule="evenodd" clip-rule="evenodd" d="M45.1491 3.71213C44.3678 4.11181 43.7601 4.91966 43.2393 5.58294C43.4129 6.43331 43.6733 7.50477 44.3678 7.77689C44.6283 7.83641 44.9755 7.8109 44.9755 7.3432C45.1491 6.16969 45.3228 4.92816 45.2359 3.74615C45.1491 3.68662 45.1491 3.65261 45.1491 3.71213Z" fill="#F5B8B8"/>
<path fill-rule="evenodd" clip-rule="evenodd" d="M30.0435 6.41628C33.516 2.8677 40.8082 3.40854 42.8917 6.41628C45.3225 10.0984 45.3225 15.6343 41.85 18.3214C37.5093 22.4372 32.0402 23.4406 27.96 19.682C28.394 15.1496 26.9182 8.96738 30.0435 6.41628Z" fill="#D7882D"/>
<path fill-rule="evenodd" clip-rule="evenodd" d="M36.0344 27.5223C35.6872 21.6463 28.0476 19.3418 27.874 14.1375C27.874 14.1375 28.1345 10.0303 28.2213 10.0303C28.3081 10.3619 30.218 14.7753 33.8641 15.141C35.6872 15.2515 38.8124 15.4896 40.9827 14.8093C42.8058 14.0695 44.1948 11.0507 44.6289 10.481C44.4552 13.0746 44.7157 13.1426 44.108 15.1835C43.4135 17.5135 41.33 18.9591 39.4201 20.2517C38.8124 20.6514 37.4234 21.2891 36.9025 21.4762C36.4685 21.5953 36.4685 21.6208 36.4685 21.7823C36.9025 23.6191 36.7289 26.1192 36.208 27.4543L36.0344 27.7689V27.5223Z" fill="#FFF6D5"/>
<path d="M41.8505 17.8198C40.7219 19.6141 38.1175 18.7892 37.5967 18.8487C37.0758 18.9168 34.8187 19.6481 33.3429 17.8453C32.6484 16.9014 35.6 12.1904 37.5967 12.1223C39.6802 12.1138 42.4582 16.8249 41.8505 17.8198Z" fill="#FFF6D5"/>
<path fill-rule="evenodd" clip-rule="evenodd" d="M33.9504 10.8893C33.2559 10.8893 32.5614 11.6036 32.735 12.4029C32.9954 13.4489 34.2976 13.7295 34.9921 12.9982C35.4262 12.522 35.3394 11.5526 34.8185 11.1699C34.5581 10.9743 34.2108 10.8723 33.9504 10.8893Z" fill="black"/>
<path fill-rule="evenodd" clip-rule="evenodd" d="M40.8957 10.7191C40.2012 10.7191 39.5067 11.4334 39.6803 12.2328C39.9407 13.2787 41.2429 13.5593 41.9374 12.828C42.3715 12.3518 42.2847 11.3824 41.7638 10.9997C41.5034 10.8042 41.1561 10.7021 40.8957 10.7191Z" fill="black"/>
<path d="M35.1607 36.7344L34.4328 27.7604C34.3238 26.4157 33.1227 25.4123 31.7503 25.5191C30.3778 25.6259 29.3536 26.8025 29.4626 28.1472L30.1905 37.1212C30.2995 38.4659 31.5006 39.4693 32.873 39.3625C34.2455 39.2557 35.2697 38.0791 35.1607 36.7344Z" fill="#D7882D"/>
<path fill-rule="evenodd" clip-rule="evenodd" d="M32.0404 39.2659C31.3459 39.1129 30.7382 38.6026 30.391 37.9649C30.2174 37.6332 30.2174 37.4291 30.0437 35.7369L29.8701 33.8576L30.8251 33.8406C32.1272 33.7981 33.0822 33.5855 34.6448 33.0157C34.8184 32.9647 34.8184 33.0923 34.9052 34.9376C35.1657 37.14 35.0789 37.5142 34.7316 38.1094C34.2107 39.0278 33.0822 39.5125 32.0404 39.2659Z" fill="#FFF6D5"/>
<path d="M6.24648 34.9775L7.35847 26.0412C7.52509 24.7023 6.55203 23.4845 5.1851 23.3213C3.81816 23.1581 2.57497 24.1112 2.40836 25.4502L1.29637 34.3865C1.12975 35.7255 2.1028 36.9432 3.46974 37.1064C4.83668 37.2696 6.07987 36.3165 6.24648 34.9775Z" fill="#D7882D"/>
<path fill-rule="evenodd" clip-rule="evenodd" d="M2.75006 36.8594C2.09028 36.5618 1.55205 35.9325 1.37842 35.2522C1.2482 34.8866 1.27425 34.6825 1.4826 32.9988L1.71699 31.1365L2.65457 31.298C3.9394 31.5106 4.90302 31.4851 6.50905 31.23C6.69136 31.213 6.67399 31.3406 6.44828 33.1689C6.17048 35.3628 6.04026 35.72 5.62356 36.2557C4.9117 37.038 3.66159 37.2846 2.75006 36.8594Z" fill="#FFF6D5"/>
<path opacity="0.2" fill-rule="evenodd" clip-rule="evenodd" d="M5.02519 36.1877C4.78211 35.8731 4.70398 35.669 3.35838 31.4426C2.67256 29.3167 2.16037 27.5905 2.16905 27.4374C2.16905 27.1823 2.16905 27.1823 2.36872 27.633C3.08927 29.2572 4.59981 30.8049 6.16243 31.5192C6.65727 31.7403 6.6399 31.6127 6.39682 33.5005C6.21452 34.9121 6.12771 35.3288 5.9454 35.669C5.82387 35.8986 5.35507 36.4258 5.26826 36.4258C5.23354 36.4258 5.12936 36.3152 5.02519 36.1877Z" fill="black"/>
<path d="M12.1667 36.2162L9.96385 27.4762C9.63378 26.1666 8.28243 25.3671 6.94551 25.6904C5.60859 26.0137 4.79237 27.3374 5.12244 28.647L7.32528 37.387C7.65534 38.6966 9.0067 39.4961 10.3436 39.1728C11.6805 38.8495 12.4967 37.5258 12.1667 36.2162Z" fill="#D7882D"/>
<path d="M5.78039 19.614C4.29589 19.614 2.9503 20.3453 2.00404 21.5273C1.80437 22.2161 1.7002 22.9389 1.7002 23.6873V24.6057C1.7002 27.5139 3.29755 30.048 5.67621 31.4171C5.84116 31.5532 5.89325 31.6382 5.92797 31.7658C5.97138 31.9103 6.30994 33.2709 6.69192 34.7846C7.50796 38.033 7.59477 38.2456 8.27191 38.7218C8.65389 39.0024 8.71465 38.9854 8.51499 38.6707C8.41949 38.5177 8.30663 38.2966 8.26323 38.186C8.21114 38.0415 7.31697 34.538 6.63983 31.8508C9.11399 31.3746 11.0065 28.832 11.0065 25.7792C11.0065 22.3692 8.67125 19.614 5.78039 19.614Z" fill="#FFF6D5"/>
<path opacity="0.2" fill-rule="evenodd" clip-rule="evenodd" d="M4.19107 26.3829C3.76568 26.3489 3.13195 26.1533 2.82811 25.9322C2.38536 25.6346 2.00339 25.0734 1.8124 24.4696L1.72559 24.172L2.15097 24.5036C3.88722 25.8812 6.81281 24.7757 7.73302 22.4032C7.87192 22.0545 7.99346 21.7739 8.01082 21.7739C8.02818 21.7739 8.06291 22.0801 8.08027 22.4542C8.10631 23.041 8.08027 23.2281 7.8806 23.7553C7.29896 25.3625 5.74501 26.4765 4.19107 26.3829Z" fill="black"/>
<path fill-rule="evenodd" clip-rule="evenodd" d="M9.60767 39.198C8.87844 39.1555 8.1579 38.7473 7.7412 38.1775C7.48944 37.8799 7.43735 37.6758 7.02065 36.0261L6.56055 34.2063L7.49812 34.0277C8.78295 33.7811 9.67712 33.424 11.0835 32.6161C11.2397 32.5481 11.2745 32.6672 11.7259 34.4614C12.2468 36.6044 12.2468 36.987 12.0731 37.6248C11.6999 38.6112 10.6147 39.2745 9.60767 39.198Z" fill="#FFF6D5"/>
<path opacity="0.2" fill-rule="evenodd" clip-rule="evenodd" d="M17.6301 20.4474C18.7586 27.2503 15.6334 31.8848 11.2754 32.5141C14.7653 30.8644 18.0641 25.8047 17.6301 20.4474Z" fill="black"/>
<path opacity="0.2" fill-rule="evenodd" clip-rule="evenodd" d="M12.0738 32.3524C13.2024 32.0633 14.1573 31.4851 15.1122 30.5752C15.7199 30.0054 15.7199 29.9884 16.0672 29.9884C16.6749 29.9884 19.0188 29.7758 20.1474 29.6313C22.2309 29.3591 24.2276 28.934 26.0506 28.3812C27.1792 28.0411 28.9154 27.4203 29.4363 27.1482C29.6099 27.0632 29.7836 27.0121 29.7836 27.0291C29.7836 27.0461 29.6968 27.1992 29.6099 27.3693C29.4363 27.82 29.4363 28.4748 29.6099 30.5497C29.6968 31.9783 29.6968 32.3609 29.6099 32.4035C29.6099 32.4375 25.5298 32.463 20.5814 32.463C12.6815 32.4545 11.7179 32.446 12.0738 32.3524Z" fill="black"/>
<path opacity="0.2" fill-rule="evenodd" clip-rule="evenodd" d="M28.1338 37.038C27.9602 36.9529 27.6997 36.5363 27.5261 36.1111C27.4393 35.839 27.092 32.5906 27.1789 32.5225C27.1789 32.514 27.7865 32.497 28.481 32.4885L29.7832 32.463L29.87 32.9222V34.1978C29.9569 34.6485 29.9569 35.3713 30.0437 35.8135L30.1305 36.6128L29.6964 36.8254C29.2624 37.055 28.481 37.157 28.1338 37.038Z" fill="black"/>
<path opacity="0.2" fill-rule="evenodd" clip-rule="evenodd" d="M35.339 19.0613C34.9049 18.9337 34.3841 18.5936 34.1236 18.2449C33.95 18.0579 33.8632 17.9048 33.7764 17.6837V17.3776L34.0368 17.6837C34.2972 18.0834 34.8181 18.4235 35.339 18.5766C35.7731 18.7296 36.5544 18.7382 37.2489 18.6106C37.5961 18.5341 37.7697 18.5341 38.3774 18.6021C39.7664 18.7467 40.5478 18.5086 41.1554 17.8453L41.4159 17.5221V17.7602C41.4159 17.9558 41.3291 18.0664 41.0686 18.4065C40.7214 18.7382 40.5478 18.8402 40.2873 18.9592C39.8532 19.0953 39.6796 19.1123 38.5511 19.0953C37.8566 19.0868 36.9884 19.1038 36.4676 19.1293C35.8599 19.1633 35.5994 19.1463 35.339 19.0613Z" fill="black"/>
<path opacity="0.4" fill-rule="evenodd" clip-rule="evenodd" d="M30.2178 17.7346C31.4331 20.1071 35.1661 21.2807 36.2947 21.4167C36.4683 21.4677 36.7287 22.4627 36.4683 22.4627C34.298 22.0035 30.2178 19.4013 30.2178 17.7346Z" fill="black" fill-opacity="0.4201"/>
<path fill-rule="evenodd" clip-rule="evenodd" d="M40.2874 11.595C40.1138 11.595 39.9402 11.765 40.027 11.9521C40.1138 12.1987 40.3742 12.2668 40.5479 12.0882C40.6347 11.9861 40.6347 11.748 40.4611 11.663C40.3742 11.612 40.3742 11.595 40.2874 11.595Z" fill="white"/>
<path fill-rule="evenodd" clip-rule="evenodd" d="M33.6032 11.5865C33.3428 11.5865 33.1692 11.7566 33.256 11.9522C33.3428 12.1988 33.69 12.2583 33.7769 12.0798C33.8637 11.9777 33.8637 11.7396 33.69 11.6631C33.69 11.6121 33.69 11.5865 33.6032 11.5865Z" fill="white"/>
<path fill-rule="evenodd" clip-rule="evenodd" d="M37.597 14.7244C36.9893 14.7584 36.3816 14.954 35.7739 15.2856C35.6871 16.3146 36.3816 17.4455 37.5101 17.5476C38.8123 17.7602 39.9409 16.3486 39.6805 15.1836C39.0728 14.8434 38.3783 14.6904 37.597 14.7244Z" fill="black"/>
<path fill-rule="evenodd" clip-rule="evenodd" d="M37.6826 17.6411V18.3469Z" fill="black"/>
<path d="M37.6826 17.6411V18.3469" stroke="black" stroke-width="4" stroke-linecap="round" stroke-linejoin="round"/>
<path fill-rule="evenodd" clip-rule="evenodd" d="M38.7251 18.6616L37.5098 18.381Z" fill="black"/>
<path d="M38.7251 18.6616L37.5098 18.381" stroke="black" stroke-width="4" stroke-linecap="round" stroke-linejoin="round"/>
<path fill-rule="evenodd" clip-rule="evenodd" d="M36.6416 18.6616L37.857 18.381Z" fill="black"/>
<path d="M36.6416 18.6616L37.857 18.381" stroke="black" stroke-width="4" stroke-linecap="round" stroke-linejoin="round"/>
<path fill-rule="evenodd" clip-rule="evenodd" d="M2.89638 24.8222C1.29653 24.257 0.701709 22.4262 1.56957 20.7284C2.43742 19.0306 4.43559 18.116 6.03544 18.6812C7.63349 19.2458 8.23192 21.0778 7.36407 22.7756C6.49621 24.4734 4.49443 25.3868 2.89638 24.8222Z" fill="#FFF6D5"/>
<path fill-rule="evenodd" clip-rule="evenodd" d="M2.90867 24.2822C1.42189 23.7444 0.908466 21.9335 1.76367 20.2327C2.61888 18.5319 4.5152 17.5926 6.00198 18.1304C7.48709 18.6676 8.00387 20.4797 7.14866 22.1805C6.29345 23.8813 4.39378 24.8194 2.90867 24.2822Z" fill="#D7882D"/>
<path d="M2.82196 27.3236C2.84319 27.1487 2.71567 26.9901 2.53714 26.9693C2.3586 26.9485 2.19665 27.0734 2.17542 27.2483L1.55176 32.3849C1.53052 32.5598 1.65804 32.7184 1.83658 32.7392C2.01511 32.76 2.17706 32.6351 2.19829 32.4602L2.82196 27.3236Z" fill="#FFF6D5"/>
<path fill-rule="evenodd" clip-rule="evenodd" d="M37.5962 5.19177C36.8149 5.17476 36.1204 5.85506 36.0335 6.58637C36.0335 8.02349 35.5127 10.5576 36.5544 11.595C36.9885 11.8757 36.6412 13.8315 37.5094 13.8315C38.4643 13.891 38.0302 11.9692 38.5511 11.612C39.506 10.7277 39.1588 8.02349 39.1588 6.53535C39.1588 5.736 38.3775 5.14075 37.5962 5.19177Z" fill="#FFF6D5"/>
<path fill-rule="evenodd" clip-rule="evenodd" d="M28.2215 3.29541C27.6138 3.43147 27.6138 4.06924 27.527 4.49443C27.3534 5.22574 27.4402 6.47578 27.527 7.19859C28.2215 7.47922 28.916 7.41969 29.4369 6.969C30.2182 6.40775 30.4786 5.89753 30.8259 5.17472C30.0446 4.59647 29.1764 3.47399 28.2215 3.29541Z" fill="#F5B8B8"/>
</svg>
