<svg width="19" height="18" viewBox="0 0 19 18" fill="none" xmlns="http://www.w3.org/2000/svg">
<path d="M7.28711 13C5.47044 13 3.93294 12.3708 2.67461 11.1125C1.41628 9.85417 0.787109 8.31667 0.787109 6.5C0.787109 4.68333 1.41628 3.14583 2.67461 1.8875C3.93294 0.629167 5.47044 0 7.28711 0C9.10378 0 10.6413 0.629167 11.8996 1.8875C13.1579 3.14583 13.7871 4.68333 13.7871 6.5C13.7871 7.23333 13.6704 7.925 13.4371 8.575C13.2038 9.225 12.8871 9.8 12.4871 10.3L18.0871 15.9C18.2704 16.0833 18.3621 16.3167 18.3621 16.6C18.3621 16.8833 18.2704 17.1167 18.0871 17.3C17.9038 17.4833 17.6704 17.575 17.3871 17.575C17.1038 17.575 16.8704 17.4833 16.6871 17.3L11.0871 11.7C10.5871 12.1 10.0121 12.4167 9.36211 12.65C8.71211 12.8833 8.02044 13 7.28711 13ZM7.28711 11C8.53711 11 9.59961 10.5625 10.4746 9.6875C11.3496 8.8125 11.7871 7.75 11.7871 6.5C11.7871 5.25 11.3496 4.1875 10.4746 3.3125C9.59961 2.4375 8.53711 2 7.28711 2C6.03711 2 4.97461 2.4375 4.09961 3.3125C3.22461 4.1875 2.78711 5.25 2.78711 6.5C2.78711 7.75 3.22461 8.8125 4.09961 9.6875C4.97461 10.5625 6.03711 11 7.28711 11Z" fill="#CDD0D8"/>
</svg>
