<svg width="25" height="24" viewBox="0 0 25 24" fill="none" xmlns="http://www.w3.org/2000/svg">
<path d="M10.6445 19C10.3612 19 10.1237 18.9042 9.93203 18.7125C9.74036 18.5208 9.64453 18.2833 9.64453 18C9.64453 17.7167 9.74036 17.4792 9.93203 17.2875C10.1237 17.0958 10.3612 17 10.6445 17H20.6445C20.9279 17 21.1654 17.0958 21.357 17.2875C21.5487 17.4792 21.6445 17.7167 21.6445 18C21.6445 18.2833 21.5487 18.5208 21.357 18.7125C21.1654 18.9042 20.9279 19 20.6445 19H10.6445ZM10.6445 13C10.3612 13 10.1237 12.9042 9.93203 12.7125C9.74036 12.5208 9.64453 12.2833 9.64453 12C9.64453 11.7167 9.74036 11.4792 9.93203 11.2875C10.1237 11.0958 10.3612 11 10.6445 11H20.6445C20.9279 11 21.1654 11.0958 21.357 11.2875C21.5487 11.4792 21.6445 11.7167 21.6445 12C21.6445 12.2833 21.5487 12.5208 21.357 12.7125C21.1654 12.9042 20.9279 13 20.6445 13H10.6445ZM10.6445 7C10.3612 7 10.1237 6.90417 9.93203 6.7125C9.74036 6.52083 9.64453 6.28333 9.64453 6C9.64453 5.71667 9.74036 5.47917 9.93203 5.2875C10.1237 5.09583 10.3612 5 10.6445 5H20.6445C20.9279 5 21.1654 5.09583 21.357 5.2875C21.5487 5.47917 21.6445 5.71667 21.6445 6C21.6445 6.28333 21.5487 6.52083 21.357 6.7125C21.1654 6.90417 20.9279 7 20.6445 7H10.6445ZM5.64453 20C5.09453 20 4.6237 19.8042 4.23203 19.4125C3.84036 19.0208 3.64453 18.55 3.64453 18C3.64453 17.45 3.84036 16.9792 4.23203 16.5875C4.6237 16.1958 5.09453 16 5.64453 16C6.19453 16 6.66536 16.1958 7.05703 16.5875C7.4487 16.9792 7.64453 17.45 7.64453 18C7.64453 18.55 7.4487 19.0208 7.05703 19.4125C6.66536 19.8042 6.19453 20 5.64453 20ZM5.64453 14C5.09453 14 4.6237 13.8042 4.23203 13.4125C3.84036 13.0208 3.64453 12.55 3.64453 12C3.64453 11.45 3.84036 10.9792 4.23203 10.5875C4.6237 10.1958 5.09453 10 5.64453 10C6.19453 10 6.66536 10.1958 7.05703 10.5875C7.4487 10.9792 7.64453 11.45 7.64453 12C7.64453 12.55 7.4487 13.0208 7.05703 13.4125C6.66536 13.8042 6.19453 14 5.64453 14ZM5.64453 8C5.09453 8 4.6237 7.80417 4.23203 7.4125C3.84036 7.02083 3.64453 6.55 3.64453 6C3.64453 5.45 3.84036 4.97917 4.23203 4.5875C4.6237 4.19583 5.09453 4 5.64453 4C6.19453 4 6.66536 4.19583 7.05703 4.5875C7.4487 4.97917 7.64453 5.45 7.64453 6C7.64453 6.55 7.4487 7.02083 7.05703 7.4125C6.66536 7.80417 6.19453 8 5.64453 8Z" fill="#FCAA48"/>
</svg>
