<svg width="25" height="24" viewBox="0 0 25 24" fill="none" xmlns="http://www.w3.org/2000/svg">
<path d="M12.9287 12C11.8287 12 10.887 11.6083 10.1037 10.825C9.32038 10.0417 8.92871 9.1 8.92871 8C8.92871 6.9 9.32038 5.95833 10.1037 5.175C10.887 4.39167 11.8287 4 12.9287 4C14.0287 4 14.9704 4.39167 15.7537 5.175C16.537 5.95833 16.9287 6.9 16.9287 8C16.9287 9.1 16.537 10.0417 15.7537 10.825C14.9704 11.6083 14.0287 12 12.9287 12ZM4.92871 18V17.2C4.92871 16.6333 5.07454 16.1125 5.36621 15.6375C5.65788 15.1625 6.04538 14.8 6.52871 14.55C7.56204 14.0333 8.61204 13.6458 9.67871 13.3875C10.7454 13.1292 11.8287 13 12.9287 13C14.0287 13 15.112 13.1292 16.1787 13.3875C17.2454 13.6458 18.2954 14.0333 19.3287 14.55C19.812 14.8 20.1995 15.1625 20.4912 15.6375C20.7829 16.1125 20.9287 16.6333 20.9287 17.2V18C20.9287 18.55 20.7329 19.0208 20.3412 19.4125C19.9495 19.8042 19.4787 20 18.9287 20H6.92871C6.37871 20 5.90788 19.8042 5.51621 19.4125C5.12454 19.0208 4.92871 18.55 4.92871 18Z" fill="#FCAA48"/>
</svg>
