<svg width="25" height="24" viewBox="0 0 25 24" fill="none" xmlns="http://www.w3.org/2000/svg">
<path d="M10.2871 16C8.47044 16 6.93294 15.3708 5.67461 14.1125C4.41628 12.8542 3.78711 11.3167 3.78711 9.5C3.78711 7.68333 4.41628 6.14583 5.67461 4.8875C6.93294 3.62917 8.47044 3 10.2871 3C12.1038 3 13.6413 3.62917 14.8996 4.8875C16.1579 6.14583 16.7871 7.68333 16.7871 9.5C16.7871 10.2333 16.6704 10.925 16.4371 11.575C16.2038 12.225 15.8871 12.8 15.4871 13.3L21.0871 18.9C21.2704 19.0833 21.3621 19.3167 21.3621 19.6C21.3621 19.8833 21.2704 20.1167 21.0871 20.3C20.9038 20.4833 20.6704 20.575 20.3871 20.575C20.1038 20.575 19.8704 20.4833 19.6871 20.3L14.0871 14.7C13.5871 15.1 13.0121 15.4167 12.3621 15.65C11.7121 15.8833 11.0204 16 10.2871 16ZM10.2871 14C11.5371 14 12.5996 13.5625 13.4746 12.6875C14.3496 11.8125 14.7871 10.75 14.7871 9.5C14.7871 8.25 14.3496 7.1875 13.4746 6.3125C12.5996 5.4375 11.5371 5 10.2871 5C9.03711 5 7.97461 5.4375 7.09961 6.3125C6.22461 7.1875 5.78711 8.25 5.78711 9.5C5.78711 10.75 6.22461 11.8125 7.09961 12.6875C7.97461 13.5625 9.03711 14 10.2871 14Z" fill="#FCAA48"/>
</svg>
